  0
SECTION
  2
HEADER
  9
$ACADVER
  1
AC1009
  9
$FILLMODE
 70
0
  9
$EXTMIN
 10
-1.0160
 20
-0.2223
 30
0.0000
  9
$EXTMAX
 10
54.6862
 20
56.5912
 30
0.0000
  0
ENDSEC
  0
SECTION
  2
TABLES
  0
TABLE
  2
LTYPE
 70
1
  0
LTYPE
  2
CONTINUOUS
 70
64
  3
Solid line
 72
65
 73
0
 40
0
  0
ENDTAB
  0
TABLE
  2
LAYER
 70
255
  0
LAYER
  2
19
 70
64
 62
53
  6
CONTINUOUS
  0
LAYER
  2
20
 70
64
 62
30
  6
CONTINUOUS
  0
LAYER
  2
22
 70
64
 62
253
  6
CONTINUOUS
  0
LAYER
  2
52
 70
64
 62
253
  6
CONTINUOUS
  0
ENDTAB
  0
ENDSEC
  0
SECTION
  2
BLOCKS
  0
BLOCK
  8
0
  2
RECT
 70
64
 10
0.0000
 20
0.0000
 30
0.0000
  3
RECT
  0
SOLID
  8
0
 10
-0.5000
 20
-0.5000
 30
0.0000
 11
0.5000
 21
-0.5000
 31
0.0000
 12
-0.5000
 22
0.5000
 32
0.0000
 13
0.5000
 23
0.5000
 33
0.0000
  0
ENDBLK
  8
0
  0
BLOCK
  8
0
  2
PIE
 70
64
 10
0.0000
 20
0.0000
 30
0.0000
  3
PIE
  0
CIRCLE
  8
0
 10
0.0000
 20
0.0000
 30
0.0000
 40
0.5000
  0
ENDBLK
  8
0
  0
BLOCK
  8
0
  2
OCTAGONP
 70
64
 10
0.0000
 20
0.0000
 30
0.0000
  3
OCTAGONP
  0
POLYLINE
  8
0
 66
1
 10
0.0000
 20
0.0000
 30
0.0000
 40
0.0000
 41
0.0000
 70
1
  0
VERTEX
  8
0
 10
-0.5000
 20
-0.2071
 30
0.0000
  0
VERTEX
  8
0
 10
-0.5000
 20
0.2071
 30
0.0000
  0
VERTEX
  8
0
 10
-0.2071
 20
0.5000
 30
0.0000
  0
VERTEX
  8
0
 10
0.2071
 20
0.5000
 30
0.0000
  0
VERTEX
  8
0
 10
0.5000
 20
0.2071
 30
0.0000
  0
VERTEX
  8
0
 10
0.5000
 20
-0.2071
 30
0.0000
  0
VERTEX
  8
0
 10
0.2071
 20
-0.5000
 30
0.0000
  0
VERTEX
  8
0
 10
-0.2071
 20
-0.5000
 30
0.0000
  0
SEQEND
  8
0
  0
ENDBLK
  8
0
  0
BLOCK
  8
0
  2
SQUAREP
 70
64
 10
0.0000
 20
0.0000
 30
0.0000
  3
SQUAREP
  0
SOLID
  8
0
 10
-0.5000
 20
-0.5000
 30
0.0000
 11
0.5000
 21
-0.5000
 31
0.0000
 12
-0.5000
 22
0.5000
 32
0.0000
 13
0.5000
 23
0.5000
 33
0.0000
  0
ENDBLK
  8
0
  0
BLOCK
  8
0
  2
ROUNDP
 70
64
 10
0.0000
 20
0.0000
 30
0.0000
  3
ROUNDP
  0
CIRCLE
  8
0
 10
0.0000
 20
0.0000
 30
0.0000
 40
0.5000
  0
ENDBLK
  8
0
  0
BLOCK
  8
0
  2
ANNULUSP
 70
64
 10
0.0000
 20
0.0000
 30
0.0000
  3
ANNULUSP
  0
CIRCLE
  8
0
 10
0.0000
 20
0.0000
 30
0.0000
 40
0.5000
  0
ENDBLK
  8
0
  0
BLOCK
  8
0
  2
THERMALP
 70
64
 10
0.0000
 20
0.0000
 30
0.0000
  3
THERMALP
  0
LINE
  8
0
 10
-0.2379
 20
0.4500
 30
0.0000
 11
0.2379
 21
0.4500
 31
0.0000
  0
LINE
  8
0
 10
0.4500
 20
0.2379
 30
0.0000
 11
0.4500
 21
-0.2379
 31
0.0000
  0
LINE
  8
0
 10
0.2379
 20
-0.4500
 30
0.0000
 11
-0.2379
 21
-0.4500
 31
0.0000
  0
LINE
  8
0
 10
-0.4500
 20
-0.2379
 30
0.0000
 11
-0.4500
 21
0.2379
 31
0.0000
  0
ENDBLK
  8
0
  0
BLOCK
  8
0
  2
OCTAGONV
 70
64
 10
0.0000
 20
0.0000
 30
0.0000
  3
OCTAGONV
  0
POLYLINE
  8
0
 66
1
 10
0.0000
 20
0.0000
 30
0.0000
 40
0.0000
 41
0.0000
 70
1
  0
VERTEX
  8
0
 10
-0.5000
 20
-0.2071
 30
0.0000
  0
VERTEX
  8
0
 10
-0.5000
 20
0.2071
 30
0.0000
  0
VERTEX
  8
0
 10
-0.2071
 20
0.5000
 30
0.0000
  0
VERTEX
  8
0
 10
0.2071
 20
0.5000
 30
0.0000
  0
VERTEX
  8
0
 10
0.5000
 20
0.2071
 30
0.0000
  0
VERTEX
  8
0
 10
0.5000
 20
-0.2071
 30
0.0000
  0
VERTEX
  8
0
 10
0.2071
 20
-0.5000
 30
0.0000
  0
VERTEX
  8
0
 10
-0.2071
 20
-0.5000
 30
0.0000
  0
SEQEND
  8
0
  0
ENDBLK
  8
0
  0
BLOCK
  8
0
  2
SQUAREV
 70
64
 10
0.0000
 20
0.0000
 30
0.0000
  3
SQUAREV
  0
SOLID
  8
0
 10
-0.5000
 20
-0.5000
 30
0.0000
 11
0.5000
 21
-0.5000
 31
0.0000
 12
-0.5000
 22
0.5000
 32
0.0000
 13
0.5000
 23
0.5000
 33
0.0000
  0
ENDBLK
  8
0
  0
BLOCK
  8
0
  2
ROUNDV
 70
64
 10
0.0000
 20
0.0000
 30
0.0000
  3
ROUNDV
  0
CIRCLE
  8
0
 10
0.0000
 20
0.0000
 30
0.0000
 40
0.5000
  0
ENDBLK
  8
0
  0
BLOCK
  8
0
  2
ANNULUSV
 70
64
 10
0.0000
 20
0.0000
 30
0.0000
  3
ANNULUSV
  0
CIRCLE
  8
0
 10
0.0000
 20
0.0000
 30
0.0000
 40
0.5000
  0
ENDBLK
  8
0
  0
BLOCK
  8
0
  2
THERMALV
 70
64
 10
0.0000
 20
0.0000
 30
0.0000
  3
THERMALV
  0
LINE
  8
0
 10
-0.2379
 20
0.4500
 30
0.0000
 11
0.2379
 21
0.4500
 31
0.0000
  0
LINE
  8
0
 10
0.4500
 20
0.2379
 30
0.0000
 11
0.4500
 21
-0.2379
 31
0.0000
  0
LINE
  8
0
 10
0.2379
 20
-0.4500
 30
0.0000
 11
-0.2379
 21
-0.4500
 31
0.0000
  0
LINE
  8
0
 10
-0.4500
 20
-0.2379
 30
0.0000
 11
-0.4500
 21
0.2379
 31
0.0000
  0
ENDBLK
  8
0
  0
BLOCK
  8
0
  2
OFFSETP100
 70
64
 10
0.0000
 20
0.0000
 30
0.0000
  3
OFFSETP100
  0
POLYLINE
  8
0
 66
1
 10
0.0000
 20
0.0000
 30
0.0000
 40
0.0000
 41
0.0000
 70
1
  0
VERTEX
  8
0
 10
0.0000
 20
-0.5000
 30
0.0000
  0
VERTEX
  8
0
 10
1.0000
 20
-0.5000
 30
0.0000
 42
1.0000
  0
VERTEX
  8
0
 10
1.0000
 20
0.5000
 30
0.0000
  0
VERTEX
  8
0
 10
0.0000
 20
0.5000
 30
0.0000
 42
1.0000
  0
SEQEND
  8
0
  0
ENDBLK
  8
0
  0
ENDSEC
  0
SECTION
  2
ENTITIES
  0
LINE
  8
20
 10
1.0000
 20
34.0000
 30
0.0000
 11
47.0000
 21
34.0000
 31
0.0000
  0
ARC
  8
20
 10
47.0000
 20
33.0000
 30
0.0000
 40
1.0000
 50
0.0000
 51
90.0000
  0
LINE
  8
20
 10
48.0000
 20
33.0000
 30
0.0000
 11
48.0000
 21
1.0000
 31
0.0000
  0
ARC
  8
20
 10
47.0000
 20
1.0000
 30
0.0000
 40
1.0000
 50
270.0000
 51
0.0000
  0
LINE
  8
20
 10
47.0000
 20
0.0000
 30
0.0000
 11
1.0000
 21
0.0000
 31
0.0000
  0
ARC
  8
20
 10
1.0000
 20
1.0000
 30
0.0000
 40
1.0000
 50
180.0000
 51
270.0000
  0
LINE
  8
20
 10
0.0000
 20
1.0000
 30
0.0000
 11
0.0000
 21
33.0000
 31
0.0000
  0
ARC
  8
20
 10
1.0000
 20
33.0000
 30
0.0000
 40
1.0000
 50
90.0000
 51
180.0000
  0
LINE
  8
22
 10
32.3045
 20
32.0551
 30
0.0000
 11
32.5642
 21
32.0551
 31
0.0000
  0
ARC
  8
22
 10
32.5642
 20
32.3147
 30
0.0000
 40
0.2596
 50
270.0000
 51
0.0000
  0
LINE
  8
22
 10
32.8238
 20
32.3147
 30
0.0000
 11
32.8238
 21
32.9638
 31
0.0000
  0
ARC
  8
22
 10
32.5642
 20
32.9638
 30
0.0000
 40
0.2596
 50
0.0000
 51
90.0000
  0
LINE
  8
22
 10
32.5642
 20
33.2234
 30
0.0000
 11
32.3045
 21
33.2234
 31
0.0000
  0
LINE
  8
22
 10
31.8793
 20
32.3147
 30
0.0000
 11
31.8793
 21
32.5743
 31
0.0000
  0
ARC
  8
22
 10
31.6196
 20
32.5743
 30
0.0000
 40
0.2596
 50
0.0000
 51
180.0000
  0
LINE
  8
22
 10
31.3600
 20
32.5743
 30
0.0000
 11
31.3600
 21
32.3147
 31
0.0000
  0
ARC
  8
22
 10
31.6196
 20
32.3147
 30
0.0000
 40
0.2596
 50
180.0000
 51
0.0000
  0
LINE
  8
22
 10
30.9268
 20
32.8340
 30
0.0000
 11
30.6671
 21
32.0551
 31
0.0000
  0
LINE
  8
22
 10
30.6671
 20
32.0551
 30
0.0000
 11
30.4075
 21
32.8340
 31
0.0000
  0
LINE
  8
22
 10
29.4550
 20
32.0551
 30
0.0000
 11
29.7795
 21
32.0551
 31
0.0000
  0
ARC
  8
22
 10
29.7795
 20
32.2498
 30
0.0000
 40
0.1947
 50
270.0000
 51
0.0000
  0
LINE
  8
22
 10
29.9743
 20
32.2498
 30
0.0000
 11
29.9743
 21
32.5743
 31
0.0000
  0
ARC
  8
22
 10
29.7146
 20
32.5743
 30
0.0000
 40
0.2596
 50
0.0000
 51
180.0000
  0
LINE
  8
22
 10
29.4550
 20
32.5743
 30
0.0000
 11
29.4550
 21
32.4445
 31
0.0000
  0
LINE
  8
22
 10
29.4550
 20
32.4445
 30
0.0000
 11
29.9743
 21
32.4445
 31
0.0000
  0
LINE
  8
22
 10
28.9389
 20
32.0551
 30
0.0000
 11
28.9389
 21
32.8340
 31
0.0000
  0
LINE
  8
22
 10
28.9389
 20
32.8340
 30
0.0000
 11
28.5495
 21
32.8340
 31
0.0000
  0
LINE
  8
22
 10
28.5495
 20
32.8340
 30
0.0000
 11
28.5495
 21
32.7042
 31
0.0000
  0
LINE
  8
22
 10
27.1521
 20
32.3796
 30
0.0000
 11
27.4766
 21
32.5094
 31
0.0000
  0
ARC
  8
22
 10
27.4141
 20
32.6657
 30
0.0000
 40
0.1683
 50
291.8011
 51
90.8182
  0
ARC
  8
22
 10
27.4222
 20
32.0969
 30
0.0000
 40
0.7371
 50
90.8181
 51
114.2388
  0
ARC
  8
22
 10
27.2146
 20
32.2233
 30
0.0000
 40
0.1683
 50
111.8011
 51
270.8182
  0
ARC
  8
22
 10
27.2012
 20
33.1558
 30
0.0000
 40
1.1008
 50
270.8181
 51
289.7910
  0
LINE
  8
22
 10
26.5834
 20
32.3147
 30
0.0000
 11
26.5834
 21
32.5743
 31
0.0000
  0
ARC
  8
22
 10
26.3237
 20
32.5743
 30
0.0000
 40
0.2596
 50
0.0000
 51
180.0000
  0
LINE
  8
22
 10
26.0641
 20
32.5743
 30
0.0000
 11
26.0641
 21
32.3147
 31
0.0000
  0
ARC
  8
22
 10
26.3237
 20
32.3147
 30
0.0000
 40
0.2596
 50
180.0000
 51
0.0000
  0
LINE
  8
22
 10
25.5778
 20
33.2234
 30
0.0000
 11
25.5778
 21
32.2498
 31
0.0000
  0
ARC
  8
22
 10
25.3831
 20
32.2498
 30
0.0000
 40
0.1947
 50
270.0000
 51
0.0000
  0
LINE
  8
22
 10
24.4698
 20
33.2234
 30
0.0000
 11
24.4698
 21
32.0551
 31
0.0000
  0
LINE
  8
22
 10
24.4698
 20
32.0551
 30
0.0000
 11
24.7943
 21
32.0551
 31
0.0000
  0
ARC
  8
22
 10
24.7943
 20
32.2498
 30
0.0000
 40
0.1947
 50
270.0000
 51
0.0000
  0
LINE
  8
22
 10
24.9891
 20
32.2498
 30
0.0000
 11
24.9891
 21
32.6393
 31
0.0000
  0
ARC
  8
22
 10
24.7943
 20
32.6393
 30
0.0000
 40
0.1947
 50
0.0000
 51
90.0000
  0
LINE
  8
22
 10
24.7943
 20
32.8340
 30
0.0000
 11
24.4698
 21
32.8340
 31
0.0000
  0
LINE
  8
22
 10
23.4352
 20
32.0551
 30
0.0000
 11
23.7597
 21
32.0551
 31
0.0000
  0
ARC
  8
22
 10
23.7597
 20
32.2498
 30
0.0000
 40
0.1947
 50
270.0000
 51
0.0000
  0
LINE
  8
22
 10
23.9545
 20
32.2498
 30
0.0000
 11
23.9545
 21
32.5743
 31
0.0000
  0
ARC
  8
22
 10
23.6948
 20
32.5743
 30
0.0000
 40
0.2596
 50
0.0000
 51
180.0000
  0
LINE
  8
22
 10
23.4352
 20
32.5743
 30
0.0000
 11
23.4352
 21
32.4445
 31
0.0000
  0
LINE
  8
22
 10
23.4352
 20
32.4445
 30
0.0000
 11
23.9545
 21
32.4445
 31
0.0000
  0
LINE
  8
22
 10
22.9191
 20
32.0551
 30
0.0000
 11
22.9191
 21
32.8340
 31
0.0000
  0
LINE
  8
22
 10
22.9191
 20
32.8340
 30
0.0000
 11
22.5297
 21
32.8340
 31
0.0000
  0
LINE
  8
22
 10
22.5297
 20
32.8340
 30
0.0000
 11
22.5297
 21
32.7042
 31
0.0000
  0
LINE
  8
22
 10
21.1323
 20
32.3796
 30
0.0000
 11
21.4568
 21
32.5094
 31
0.0000
  0
ARC
  8
22
 10
21.3943
 20
32.6657
 30
0.0000
 40
0.1683
 50
291.8011
 51
90.8182
  0
ARC
  8
22
 10
21.4024
 20
32.0969
 30
0.0000
 40
0.7371
 50
90.8181
 51
114.2388
  0
ARC
  8
22
 10
21.1948
 20
32.2233
 30
0.0000
 40
0.1683
 50
111.8011
 51
270.8182
  0
ARC
  8
22
 10
21.1814
 20
33.1558
 30
0.0000
 40
1.1008
 50
270.8181
 51
289.7910
  0
LINE
  8
22
 10
20.5706
 20
32.0551
 30
0.0000
 11
20.5706
 21
32.8340
 31
0.0000
  0
LINE
  8
22
 10
20.6031
 20
33.1585
 30
0.0000
 11
20.6031
 21
33.2234
 31
0.0000
  0
LINE
  8
22
 10
20.6031
 20
33.2234
 30
0.0000
 11
20.5382
 21
33.2234
 31
0.0000
  0
LINE
  8
22
 10
20.5382
 20
33.2234
 30
0.0000
 11
20.5382
 21
33.1585
 31
0.0000
  0
LINE
  8
22
 10
20.5382
 20
33.1585
 30
0.0000
 11
20.6031
 21
33.1585
 31
0.0000
  0
LINE
  8
22
 10
19.5930
 20
33.2234
 30
0.0000
 11
19.5930
 21
32.0551
 31
0.0000
  0
LINE
  8
22
 10
19.5930
 20
32.0551
 30
0.0000
 11
19.9175
 21
32.0551
 31
0.0000
  0
ARC
  8
22
 10
19.9175
 20
32.2498
 30
0.0000
 40
0.1947
 50
270.0000
 51
0.0000
  0
LINE
  8
22
 10
20.1123
 20
32.2498
 30
0.0000
 11
20.1123
 21
32.6393
 31
0.0000
  0
ARC
  8
22
 10
19.9175
 20
32.6393
 30
0.0000
 40
0.1947
 50
0.0000
 51
90.0000
  0
LINE
  8
22
 10
19.9175
 20
32.8340
 30
0.0000
 11
19.5930
 21
32.8340
 31
0.0000
  0
LINE
  8
22
 10
18.5584
 20
32.0551
 30
0.0000
 11
18.8830
 21
32.0551
 31
0.0000
  0
ARC
  8
22
 10
18.8830
 20
32.2498
 30
0.0000
 40
0.1947
 50
270.0000
 51
0.0000
  0
LINE
  8
22
 10
19.0777
 20
32.2498
 30
0.0000
 11
19.0777
 21
32.5743
 31
0.0000
  0
ARC
  8
22
 10
18.8180
 20
32.5743
 30
0.0000
 40
0.2596
 50
0.0000
 51
180.0000
  0
LINE
  8
22
 10
18.5584
 20
32.5743
 30
0.0000
 11
18.5584
 21
32.4445
 31
0.0000
  0
LINE
  8
22
 10
18.5584
 20
32.4445
 30
0.0000
 11
19.0777
 21
32.4445
 31
0.0000
  0
LINE
  8
22
 10
17.5742
 20
32.8340
 30
0.0000
 11
17.1847
 21
32.8340
 31
0.0000
  0
LINE
  8
22
 10
17.4444
 20
33.2234
 30
0.0000
 11
17.4444
 21
32.2498
 31
0.0000
  0
ARC
  8
22
 10
17.2497
 20
32.2498
 30
0.0000
 40
0.1947
 50
270.0000
 51
0.0000
  0
LINE
  8
22
 10
17.2497
 20
32.0551
 30
0.0000
 11
17.1847
 21
32.0551
 31
0.0000
  0
LINE
  8
22
 10
16.7536
 20
32.3147
 30
0.0000
 11
16.7536
 21
32.5743
 31
0.0000
  0
ARC
  8
22
 10
16.4939
 20
32.5743
 30
0.0000
 40
0.2596
 50
0.0000
 51
180.0000
  0
LINE
  8
22
 10
16.2343
 20
32.5743
 30
0.0000
 11
16.2343
 21
32.3147
 31
0.0000
  0
ARC
  8
22
 10
16.4939
 20
32.3147
 30
0.0000
 40
0.2596
 50
180.0000
 51
0.0000
  0
LINE
  8
22
 10
31.6219
 20
29.7606
 30
0.0000
 11
31.6219
 21
30.9290
 31
0.0000
  0
LINE
  8
22
 10
31.6219
 20
30.9290
 30
0.0000
 11
31.2973
 21
30.9290
 31
0.0000
  0
ARC
  8
22
 10
31.2973
 20
30.7342
 30
0.0000
 40
0.1947
 50
90.0000
 51
179.9982
  0
LINE
  8
22
 10
31.1026
 20
30.7343
 30
0.0000
 11
31.1026
 21
30.3448
 31
0.0000
  0
ARC
  8
22
 10
31.2973
 20
30.3448
 30
0.0000
 40
0.1947
 50
180.0000
 51
270.0009
  0
LINE
  8
22
 10
31.2973
 20
30.1501
 30
0.0000
 11
31.6219
 21
30.1501
 31
0.0000
  0
LINE
  8
22
 10
30.5924
 20
30.1501
 30
0.0000
 11
30.5924
 21
30.9290
 31
0.0000
  0
LINE
  8
22
 10
30.5924
 20
30.9290
 30
0.0000
 11
30.2030
 21
30.9290
 31
0.0000
  0
LINE
  8
22
 10
30.2030
 20
30.9290
 30
0.0000
 11
30.2030
 21
30.7992
 31
0.0000
  0
LINE
  8
22
 10
29.3178
 20
30.1501
 30
0.0000
 11
29.6423
 21
30.1501
 31
0.0000
  0
ARC
  8
22
 10
29.6423
 20
30.3448
 30
0.0000
 40
0.1947
 50
270.0000
 51
0.0000
  0
LINE
  8
22
 10
29.8371
 20
30.3448
 30
0.0000
 11
29.8371
 21
30.6693
 31
0.0000
  0
ARC
  8
22
 10
29.5774
 20
30.6693
 30
0.0000
 40
0.2596
 50
0.0000
 51
180.0000
  0
LINE
  8
22
 10
29.3178
 20
30.6693
 30
0.0000
 11
29.3178
 21
30.5395
 31
0.0000
  0
LINE
  8
22
 10
29.3178
 20
30.5395
 30
0.0000
 11
29.8371
 21
30.5395
 31
0.0000
  0
LINE
  8
22
 10
28.8846
 20
30.9290
 30
0.0000
 11
28.6249
 21
30.1501
 31
0.0000
  0
LINE
  8
22
 10
28.6249
 20
30.1501
 30
0.0000
 11
28.3653
 21
30.9290
 31
0.0000
  0
LINE
  8
22
 10
27.4128
 20
30.1501
 30
0.0000
 11
27.7373
 21
30.1501
 31
0.0000
  0
ARC
  8
22
 10
27.7373
 20
30.3448
 30
0.0000
 40
0.1947
 50
270.0000
 51
0.0000
  0
LINE
  8
22
 10
27.9321
 20
30.3448
 30
0.0000
 11
27.9321
 21
30.6693
 31
0.0000
  0
ARC
  8
22
 10
27.6724
 20
30.6693
 30
0.0000
 40
0.2596
 50
0.0000
 51
180.0000
  0
LINE
  8
22
 10
27.4128
 20
30.6693
 30
0.0000
 11
27.4128
 21
30.5395
 31
0.0000
  0
LINE
  8
22
 10
27.4128
 20
30.5395
 30
0.0000
 11
27.9321
 21
30.5395
 31
0.0000
  0
LINE
  8
22
 10
26.9034
 20
30.1501
 30
0.0000
 11
26.9034
 21
30.9290
 31
0.0000
  0
LINE
  8
22
 10
26.9034
 20
30.9290
 30
0.0000
 11
26.5788
 21
30.9290
 31
0.0000
  0
ARC
  8
22
 10
26.5788
 20
30.7342
 30
0.0000
 40
0.1947
 50
90.0000
 51
179.9982
  0
LINE
  8
22
 10
26.3841
 20
30.7343
 30
0.0000
 11
26.3841
 21
30.1501
 31
0.0000
  0
LINE
  8
22
 10
25.9714
 20
30.9290
 30
0.0000
 11
25.5819
 21
30.9290
 31
0.0000
  0
LINE
  8
22
 10
25.8416
 20
31.3185
 30
0.0000
 11
25.8416
 21
30.3448
 31
0.0000
  0
ARC
  8
22
 10
25.6468
 20
30.3448
 30
0.0000
 40
0.1947
 50
270.0000
 51
0.0000
  0
LINE
  8
22
 10
25.6468
 20
30.1501
 30
0.0000
 11
25.5819
 21
30.1501
 31
0.0000
  0
LINE
  8
22
 10
24.1192
 20
30.4746
 30
0.0000
 11
24.4438
 21
30.6044
 31
0.0000
  0
ARC
  8
22
 10
24.3813
 20
30.7607
 30
0.0000
 40
0.1683
 50
291.8011
 51
90.8182
  0
ARC
  8
22
 10
24.3894
 20
30.1919
 30
0.0000
 40
0.7371
 50
90.8181
 51
114.2388
  0
ARC
  8
22
 10
24.1818
 20
30.3183
 30
0.0000
 40
0.1683
 50
111.8011
 51
270.8182
  0
ARC
  8
22
 10
24.1684
 20
31.2508
 30
0.0000
 40
1.1008
 50
270.8181
 51
289.7910
  0
LINE
  8
22
 10
23.0949
 20
30.1501
 30
0.0000
 11
23.3545
 21
30.1501
 31
0.0000
  0
ARC
  8
22
 10
23.3545
 20
30.3448
 30
0.0000
 40
0.1947
 50
270.0000
 51
0.0000
  0
LINE
  8
22
 10
23.5492
 20
30.3448
 30
0.0000
 11
23.5492
 21
30.7343
 31
0.0000
  0
ARC
  8
22
 10
23.3545
 20
30.7343
 30
0.0000
 40
0.1947
 50
0.0000
 51
90.0000
  0
LINE
  8
22
 10
23.3545
 20
30.9290
 30
0.0000
 11
23.0949
 21
30.9290
 31
0.0000
  0
LINE
  8
22
 10
22.6295
 20
30.1501
 30
0.0000
 11
22.6295
 21
30.9290
 31
0.0000
  0
LINE
  8
22
 10
22.6295
 20
30.9290
 30
0.0000
 11
22.2401
 21
30.9290
 31
0.0000
  0
LINE
  8
22
 10
22.2401
 20
30.9290
 30
0.0000
 11
22.2401
 21
30.7992
 31
0.0000
  0
LINE
  8
22
 10
21.3608
 20
30.6044
 30
0.0000
 11
21.6529
 21
30.6044
 31
0.0000
  0
ARC
  8
22
 10
21.6529
 20
30.3772
 30
0.0000
 40
0.2272
 50
270.0000
 51
90.0000
  0
LINE
  8
22
 10
21.6529
 20
30.1501
 30
0.0000
 11
21.3608
 21
30.1501
 31
0.0000
  0
LINE
  8
22
 10
21.3608
 20
30.1501
 30
0.0000
 11
21.3608
 21
30.7343
 31
0.0000
  0
ARC
  8
22
 10
21.5555
 20
30.7343
 30
0.0000
 40
0.1947
 50
89.9991
 51
180.0000
  0
LINE
  8
22
 10
21.5555
 20
30.9290
 30
0.0000
 11
21.8151
 21
30.9290
 31
0.0000
  0
LINE
  8
22
 10
20.9422
 20
30.9290
 30
0.0000
 11
20.5527
 21
30.9290
 31
0.0000
  0
LINE
  8
22
 10
20.8124
 20
31.3185
 30
0.0000
 11
20.8124
 21
30.3448
 31
0.0000
  0
ARC
  8
22
 10
20.6176
 20
30.3448
 30
0.0000
 40
0.1947
 50
270.0000
 51
0.0000
  0
LINE
  8
22
 10
20.6176
 20
30.1501
 30
0.0000
 11
20.5527
 21
30.1501
 31
0.0000
  0
LINE
  8
22
 10
19.6659
 20
30.1501
 30
0.0000
 11
19.9255
 21
30.1501
 31
0.0000
  0
ARC
  8
22
 10
19.9255
 20
30.3448
 30
0.0000
 40
0.1947
 50
270.0000
 51
0.0000
  0
LINE
  8
22
 10
20.1202
 20
30.3448
 30
0.0000
 11
20.1202
 21
30.7343
 31
0.0000
  0
ARC
  8
22
 10
19.9255
 20
30.7343
 30
0.0000
 40
0.1947
 50
0.0000
 51
90.0000
  0
LINE
  8
22
 10
19.9255
 20
30.9290
 30
0.0000
 11
19.6659
 21
30.9290
 31
0.0000
  0
LINE
  8
22
 10
19.2072
 20
30.1501
 30
0.0000
 11
19.2072
 21
31.3185
 31
0.0000
  0
LINE
  8
22
 10
19.2072
 20
30.9290
 30
0.0000
 11
18.8826
 21
30.9290
 31
0.0000
  0
ARC
  8
22
 10
18.8826
 20
30.7342
 30
0.0000
 40
0.1947
 50
90.0000
 51
179.9982
  0
LINE
  8
22
 10
18.6879
 20
30.7343
 30
0.0000
 11
18.6879
 21
30.1501
 31
0.0000
  0
LINE
  8
22
 10
17.6592
 20
30.1501
 30
0.0000
 11
17.9837
 21
30.1501
 31
0.0000
  0
ARC
  8
22
 10
17.9837
 20
30.3448
 30
0.0000
 40
0.1947
 50
270.0000
 51
0.0000
  0
LINE
  8
22
 10
18.1785
 20
30.3448
 30
0.0000
 11
18.1785
 21
30.6693
 31
0.0000
  0
ARC
  8
22
 10
17.9188
 20
30.6693
 30
0.0000
 40
0.2596
 50
0.0000
 51
180.0000
  0
LINE
  8
22
 10
17.6592
 20
30.6693
 30
0.0000
 11
17.6592
 21
30.5395
 31
0.0000
  0
LINE
  8
22
 10
17.6592
 20
30.5395
 30
0.0000
 11
18.1785
 21
30.5395
 31
0.0000
  0
LINE
  8
22
 10
16.7660
 20
30.4746
 30
0.0000
 11
17.0905
 21
30.6044
 31
0.0000
  0
ARC
  8
22
 10
17.0280
 20
30.7607
 30
0.0000
 40
0.1683
 50
291.8011
 51
90.8182
  0
ARC
  8
22
 10
17.0361
 20
30.1919
 30
0.0000
 40
0.7371
 50
90.8181
 51
114.2388
  0
ARC
  8
22
 10
16.8285
 20
30.3183
 30
0.0000
 40
0.1683
 50
111.8011
 51
270.8182
  0
ARC
  8
22
 10
16.8151
 20
31.2508
 30
0.0000
 40
1.1008
 50
270.8181
 51
289.7910
  0
LINE
  8
22
 10
7.6055
 20
18.0467
 30
0.0000
 11
7.6055
 21
16.8783
 31
0.0000
  0
LINE
  8
22
 10
7.6055
 20
16.8783
 30
0.0000
 11
7.0862
 21
16.8783
 31
0.0000
  0
LINE
  8
22
 10
6.6284
 20
17.6572
 30
0.0000
 11
6.6284
 21
17.0730
 31
0.0000
  0
ARC
  8
22
 10
6.4337
 20
17.0730
 30
0.0000
 40
0.1947
 50
270.0000
 51
0.0000
  0
LINE
  8
22
 10
6.4337
 20
16.8783
 30
0.0000
 11
6.1091
 21
16.8783
 31
0.0000
  0
LINE
  8
22
 10
6.1091
 20
16.8783
 30
0.0000
 11
6.1091
 21
17.6572
 31
0.0000
  0
LINE
  8
22
 10
5.5390
 20
16.8783
 30
0.0000
 11
5.5390
 21
17.6572
 31
0.0000
  0
LINE
  8
22
 10
5.5390
 20
17.6572
 30
0.0000
 11
4.9548
 21
17.6572
 31
0.0000
  0
ARC
  8
22
 10
4.9548
 20
17.4625
 30
0.0000
 40
0.1947
 50
90.0000
 51
180.0000
  0
LINE
  8
22
 10
4.7601
 20
17.4625
 30
0.0000
 11
4.7601
 21
16.8783
 31
0.0000
  0
LINE
  8
22
 10
5.1496
 20
16.8783
 30
0.0000
 11
5.1496
 21
17.6572
 31
0.0000
  0
LINE
  8
22
 10
4.1841
 20
18.0467
 30
0.0000
 11
4.1841
 21
16.8783
 31
0.0000
  0
LINE
  8
22
 10
4.1841
 20
16.8783
 30
0.0000
 11
3.8596
 21
16.8783
 31
0.0000
  0
ARC
  8
22
 10
3.8596
 20
17.0730
 30
0.0000
 40
0.1947
 50
180.0018
 51
270.0000
  0
LINE
  8
22
 10
3.6648
 20
17.0730
 30
0.0000
 11
3.6648
 21
17.4625
 31
0.0000
  0
ARC
  8
22
 10
3.8596
 20
17.4625
 30
0.0000
 40
0.1947
 50
89.9991
 51
180.0000
  0
LINE
  8
22
 10
3.8596
 20
17.6572
 30
0.0000
 11
4.1841
 21
17.6572
 31
0.0000
  0
LINE
  8
22
 10
2.6801
 20
16.8783
 30
0.0000
 11
3.0047
 21
16.8783
 31
0.0000
  0
ARC
  8
22
 10
3.0047
 20
17.0730
 30
0.0000
 40
0.1947
 50
270.0000
 51
0.0000
  0
LINE
  8
22
 10
3.1994
 20
17.0730
 30
0.0000
 11
3.1994
 21
17.3976
 31
0.0000
  0
ARC
  8
22
 10
2.9398
 20
17.3976
 30
0.0000
 40
0.2596
 50
0.0000
 51
180.0000
  0
LINE
  8
22
 10
2.6801
 20
17.3976
 30
0.0000
 11
2.6801
 21
17.2678
 31
0.0000
  0
LINE
  8
22
 10
2.6801
 20
17.2678
 30
0.0000
 11
3.1994
 21
17.2678
 31
0.0000
  0
LINE
  8
22
 10
2.1641
 20
16.8783
 30
0.0000
 11
2.1641
 21
17.6572
 31
0.0000
  0
LINE
  8
22
 10
2.1641
 20
17.6572
 30
0.0000
 11
1.7746
 21
17.6572
 31
0.0000
  0
LINE
  8
22
 10
1.7746
 20
17.6572
 30
0.0000
 11
1.7746
 21
17.5274
 31
0.0000
  0
LINE
  8
22
 10
0.8953
 20
16.8783
 30
0.0000
 11
1.2199
 21
16.8783
 31
0.0000
  0
ARC
  8
22
 10
1.2199
 20
17.0730
 30
0.0000
 40
0.1947
 50
270.0000
 51
0.0000
  0
LINE
  8
22
 10
1.4146
 20
17.0730
 30
0.0000
 11
1.4146
 21
17.4625
 31
0.0000
  0
ARC
  8
22
 10
1.2199
 20
17.4625
 30
0.0000
 40
0.1947
 50
0.0000
 51
90.0000
  0
LINE
  8
22
 10
1.2199
 20
17.6572
 30
0.0000
 11
0.8953
 21
17.6572
 31
0.0000
  0
LINE
  8
22
 10
0.8953
 20
17.6572
 30
0.0000
 11
0.8953
 21
16.6836
 31
0.0000
  0
ARC
  8
22
 10
1.0900
 20
16.6836
 30
0.0000
 40
0.1947
 50
180.0000
 51
270.0000
  0
LINE
  8
22
 10
1.0900
 20
16.4888
 30
0.0000
 11
1.3497
 21
16.4888
 31
0.0000
  0
ARC
  8
22
 10
7.2160
 20
15.2329
 30
0.0000
 40
0.2596
 50
180.0000
 51
270.0000
  0
ARC
  8
22
 10
7.2160
 20
15.5218
 30
0.0000
 40
0.5485
 50
269.9999
 51
315.2393
  0
ARC
  8
22
 10
7.3134
 20
15.8821
 30
0.0000
 40
0.2596
 50
0.0000
 51
90.0000
  0
ARC
  8
22
 10
7.3134
 20
15.6549
 30
0.0000
 40
0.4868
 50
90.0000
 51
126.8706
  0
ARC
  8
22
 10
7.3093
 20
15.8821
 30
0.0000
 40
0.2637
 50
300.5101
 51
359.9999
  0
ARC
  8
22
 10
7.2200
 20
15.2329
 30
0.0000
 40
0.2637
 50
120.5098
 51
180.0002
  0
LINE
  8
22
 10
7.0862
 20
15.4601
 30
0.0000
 11
7.4432
 21
15.6549
 31
0.0000
  0
LINE
  8
22
 10
6.5655
 20
16.1417
 30
0.0000
 11
6.1760
 21
14.9733
 31
0.0000
  0
LINE
  8
22
 10
6.1760
 20
14.9733
 30
0.0000
 11
5.7865
 21
16.1417
 31
0.0000
  0
ARC
  8
22
 10
5.0330
 20
15.2979
 30
0.0000
 40
0.3246
 50
0.0000
 51
180.0000
  0
ARC
  8
22
 10
5.0330
 20
15.2979
 30
0.0000
 40
0.3246
 50
180.0000
 51
0.0000
  0
ARC
  8
22
 10
5.0330
 20
15.8821
 30
0.0000
 40
0.2596
 50
0.0000
 51
180.0000
  0
ARC
  8
22
 10
5.0330
 20
15.8821
 30
0.0000
 40
0.2596
 50
180.0000
 51
0.0000
  0
ARC
  8
22
 10
3.2517
 20
15.5575
 30
0.0000
 40
0.9629
 50
359.9999
 51
25.9891
  0
ARC
  8
22
 10
3.8900
 20
15.9015
 30
0.0000
 40
0.2402
 50
18.9249
 51
90.0000
  0
ARC
  8
22
 10
3.8900
 20
15.9015
 30
0.0000
 40
0.2402
 50
90.0002
 51
161.0741
  0
ARC
  8
22
 10
4.5283
 20
15.5575
 30
0.0000
 40
0.9628
 50
154.0109
 51
180.0001
  0
ARC
  8
22
 10
3.2517
 20
15.5575
 30
0.0000
 40
0.9629
 50
334.0112
 51
360.0000
  0
ARC
  8
22
 10
3.8900
 20
15.2135
 30
0.0000
 40
0.2402
 50
270.0002
 51
341.0746
  0
ARC
  8
22
 10
4.5283
 20
15.5575
 30
0.0000
 40
0.9629
 50
180.0000
 51
205.9888
  0
ARC
  8
22
 10
3.8900
 20
15.2135
 30
0.0000
 40
0.2402
 50
198.9267
 51
270.0000
  0
LINE
  8
22
 10
4.1496
 20
15.2329
 30
0.0000
 11
3.6304
 21
15.8821
 31
0.0000
  0
ARC
  8
22
 10
9.0000
 20
14.2000
 30
0.0000
 40
1.1045
 50
185.1944
 51
354.8056
  0
LINE
  8
22
 10
14.7611
 20
8.2611
 30
0.0000
 11
14.5000
 21
8.4699
 31
0.0000
  0
LINE
  8
22
 10
14.5000
 20
8.4699
 30
0.0000
 11
14.5000
 21
7.5301
 31
0.0000
  0
LINE
  8
22
 10
14.7611
 20
7.5301
 30
0.0000
 11
14.2389
 21
7.5301
 31
0.0000
  0
ARC
  8
22
 10
8.9739
 20
2.8350
 30
0.0000
 40
0.2350
 50
90.0000
 51
180.0000
  0
ARC
  8
22
 10
8.9739
 20
2.7681
 30
0.0000
 40
0.3018
 50
17.9442
 51
90.0001
  0
ARC
  8
22
 10
8.9913
 20
2.8350
 30
0.0000
 40
0.2524
 50
180.0002
 51
226.3960
  0
LINE
  8
22
 10
8.8173
 20
2.6522
 30
0.0000
 11
9.2611
 21
2.1301
 31
0.0000
  0
LINE
  8
22
 10
9.2611
 20
2.1301
 30
0.0000
 11
8.7389
 21
2.1301
 31
0.0000
  0
LINE
  8
22
 10
3.9611
 20
7.5301
 30
0.0000
 11
3.7000
 21
7.5301
 31
0.0000
  0
ARC
  8
22
 10
3.7000
 20
7.7912
 30
0.0000
 40
0.2611
 50
90.0000
 51
270.0000
  0
LINE
  8
22
 10
3.9611
 20
8.4699
 30
0.0000
 11
3.6478
 21
8.4699
 31
0.0000
  0
ARC
  8
22
 10
3.6478
 20
8.2611
 30
0.0000
 40
0.2088
 50
90.0000
 51
270.0000
  0
LINE
  8
22
 10
3.6478
 20
8.0522
 30
0.0000
 11
3.8566
 21
8.0522
 31
0.0000
  0
LINE
  8
22
 10
12.7522
 20
4.5699
 30
0.0000
 11
12.9611
 21
3.8389
 31
0.0000
  0
LINE
  8
22
 10
12.9611
 20
3.8389
 30
0.0000
 11
12.4389
 21
3.8389
 31
0.0000
  0
LINE
  8
22
 10
12.5956
 20
4.0478
 30
0.0000
 11
12.5956
 21
3.6301
 31
0.0000
  0
LINE
  8
22
 10
5.4611
 20
3.6301
 30
0.0000
 11
5.1478
 21
3.6301
 31
0.0000
  0
ARC
  8
22
 10
5.1478
 20
3.8389
 30
0.0000
 40
0.2088
 50
180.0000
 51
270.0000
  0
LINE
  8
22
 10
4.9389
 20
3.8389
 30
0.0000
 11
4.9389
 21
3.9434
 31
0.0000
  0
ARC
  8
22
 10
5.1478
 20
3.9434
 30
0.0000
 40
0.2088
 50
90.0000
 51
180.0000
  0
LINE
  8
22
 10
5.1478
 20
4.1522
 30
0.0000
 11
5.4611
 21
4.1522
 31
0.0000
  0
LINE
  8
22
 10
5.4611
 20
4.1522
 30
0.0000
 11
5.4611
 21
4.5699
 31
0.0000
  0
LINE
  8
22
 10
5.4611
 20
4.5699
 30
0.0000
 11
4.9389
 21
4.5699
 31
0.0000
  0
LINE
  8
22
 10
9.2611
 20
6.9522
 30
0.0000
 11
8.9478
 21
6.9522
 31
0.0000
  0
ARC
  8
22
 10
8.9478
 20
6.7434
 30
0.0000
 40
0.2088
 50
90.0000
 51
180.0000
  0
LINE
  8
22
 10
8.7389
 20
6.7434
 30
0.0000
 11
8.7389
 21
6.6912
 31
0.0000
  0
ARC
  8
22
 10
9.0000
 20
6.6912
 30
0.0000
 40
0.2611
 50
180.0000
 51
0.0000
  0
LINE
  8
22
 10
9.2611
 20
6.6912
 30
0.0000
 11
9.2611
 21
6.9522
 31
0.0000
  0
ARC
  8
22
 10
8.8434
 20
6.9522
 30
0.0000
 40
0.4177
 50
0.0000
 51
90.0000
  0
LINE
  8
22
 10
11.4611
 20
13.0655
 30
0.0000
 11
11.4611
 21
13.1699
 31
0.0000
  0
LINE
  8
22
 10
11.4611
 20
13.1699
 30
0.0000
 11
10.9389
 21
13.1699
 31
0.0000
  0
LINE
  8
22
 10
10.9389
 20
13.1699
 30
0.0000
 11
11.2000
 21
12.2301
 31
0.0000
  0
ARC
  8
22
 10
6.8000
 20
12.4912
 30
0.0000
 40
0.2611
 50
0.0000
 51
180.0000
  0
ARC
  8
22
 10
6.8000
 20
12.4912
 30
0.0000
 40
0.2611
 50
180.0000
 51
0.0000
  0
ARC
  8
22
 10
6.8000
 20
12.9611
 30
0.0000
 40
0.2088
 50
0.0000
 51
180.0000
  0
ARC
  8
22
 10
6.8000
 20
12.9611
 30
0.0000
 40
0.2088
 50
180.0000
 51
0.0000
  0
CIRCLE
  8
22
 10
9.0000
 20
8.0000
 30
0.0000
 40
6.8000
  0
CIRCLE
  8
22
 10
9.0000
 20
8.0000
 30
0.0000
 40
6.2000
  0
CIRCLE
  8
52
 10
9.0000
 20
8.9000
 30
0.0000
 40
0.8000
  0
CIRCLE
  8
52
 10
9.0000
 20
4.5000
 30
0.0000
 40
0.8000
  0
CIRCLE
  8
52
 10
12.5000
 20
8.0000
 30
0.0000
 40
0.8000
  0
CIRCLE
  8
52
 10
5.5000
 20
8.0000
 30
0.0000
 40
0.8000
  0
CIRCLE
  8
52
 10
11.4700
 20
5.5300
 30
0.0000
 40
0.8000
  0
CIRCLE
  8
52
 10
6.5300
 20
5.5300
 30
0.0000
 40
0.8000
  0
CIRCLE
  8
52
 10
12.3000
 20
10.9000
 30
0.0000
 40
0.8000
  0
CIRCLE
  8
52
 10
5.7000
 20
10.9000
 30
0.0000
 40
0.8000
  0
INSERT
  8
22
  2
RECT
 10
43.4400
 20
1.9883
 30
0.0000
 41
1.8288
 42
0.0305
 43
1.0000
 50
180.0000
  0
INSERT
  8
22
  2
RECT
 10
43.4400
 20
2.0187
 30
0.0000
 41
2.0726
 42
0.0305
 43
1.0000
 50
180.0000
  0
INSERT
  8
22
  2
RECT
 10
43.4400
 20
2.0492
 30
0.0000
 41
2.1946
 42
0.0305
 43
1.0000
 50
180.0000
  0
INSERT
  8
22
  2
RECT
 10
43.4400
 20
2.0797
 30
0.0000
 41
2.3165
 42
0.0305
 43
1.0000
 50
180.0000
  0
INSERT
  8
22
  2
RECT
 10
43.4400
 20
2.1102
 30
0.0000
 41
2.3774
 42
0.0305
 43
1.0000
 50
180.0000
  0
INSERT
  8
22
  2
RECT
 10
43.4400
 20
2.1406
 30
0.0000
 41
2.4384
 42
0.0305
 43
1.0000
 50
180.0000
  0
INSERT
  8
22
  2
RECT
 10
44.5373
 20
2.1711
 30
0.0000
 41
0.3048
 42
0.0305
 43
1.0000
 50
180.0000
  0
INSERT
  8
22
  2
RECT
 10
42.3275
 20
2.1711
 30
0.0000
 41
0.2743
 42
0.0305
 43
1.0000
 50
180.0000
  0
INSERT
  8
22
  2
RECT
 10
44.5983
 20
2.2016
 30
0.0000
 41
0.2438
 42
0.0305
 43
1.0000
 50
180.0000
  0
INSERT
  8
22
  2
RECT
 10
42.2666
 20
2.2016
 30
0.0000
 41
0.2743
 42
0.0305
 43
1.0000
 50
180.0000
  0
INSERT
  8
22
  2
RECT
 10
44.6440
 20
2.2321
 30
0.0000
 41
0.2134
 42
0.0305
 43
1.0000
 50
180.0000
  0
INSERT
  8
22
  2
RECT
 10
42.2361
 20
2.2321
 30
0.0000
 41
0.2134
 42
0.0305
 43
1.0000
 50
180.0000
  0
INSERT
  8
22
  2
RECT
 10
44.6745
 20
2.2626
 30
0.0000
 41
0.2134
 42
0.0305
 43
1.0000
 50
180.0000
  0
INSERT
  8
22
  2
RECT
 10
42.2056
 20
2.2626
 30
0.0000
 41
0.2134
 42
0.0305
 43
1.0000
 50
180.0000
  0
INSERT
  8
22
  2
RECT
 10
44.7050
 20
2.2931
 30
0.0000
 41
0.2134
 42
0.0305
 43
1.0000
 50
180.0000
  0
INSERT
  8
22
  2
RECT
 10
42.1599
 20
2.2931
 30
0.0000
 41
0.1829
 42
0.0305
 43
1.0000
 50
180.0000
  0
INSERT
  8
22
  2
RECT
 10
44.7507
 20
2.3235
 30
0.0000
 41
0.1829
 42
0.0305
 43
1.0000
 50
180.0000
  0
INSERT
  8
22
  2
RECT
 10
42.1294
 20
2.3235
 30
0.0000
 41
0.1829
 42
0.0305
 43
1.0000
 50
180.0000
  0
INSERT
  8
22
  2
RECT
 10
44.7659
 20
2.3540
 30
0.0000
 41
0.1524
 42
0.0305
 43
1.0000
 50
180.0000
  0
INSERT
  8
22
  2
RECT
 10
42.0989
 20
2.3540
 30
0.0000
 41
0.1829
 42
0.0305
 43
1.0000
 50
180.0000
  0
INSERT
  8
22
  2
RECT
 10
44.7812
 20
2.3845
 30
0.0000
 41
0.1829
 42
0.0305
 43
1.0000
 50
180.0000
  0
INSERT
  8
22
  2
RECT
 10
42.0837
 20
2.3845
 30
0.0000
 41
0.1524
 42
0.0305
 43
1.0000
 50
180.0000
  0
INSERT
  8
22
  2
RECT
 10
44.7964
 20
2.4150
 30
0.0000
 41
0.1524
 42
0.0305
 43
1.0000
 50
180.0000
  0
INSERT
  8
22
  2
RECT
 10
42.0684
 20
2.4150
 30
0.0000
 41
0.1829
 42
0.0305
 43
1.0000
 50
180.0000
  0
INSERT
  8
22
  2
RECT
 10
44.8269
 20
2.4455
 30
0.0000
 41
0.1524
 42
0.0305
 43
1.0000
 50
180.0000
  0
INSERT
  8
22
  2
RECT
 10
42.0532
 20
2.4455
 30
0.0000
 41
0.1524
 42
0.0305
 43
1.0000
 50
180.0000
  0
INSERT
  8
22
  2
RECT
 10
44.8574
 20
2.4759
 30
0.0000
 41
0.1524
 42
0.0305
 43
1.0000
 50
180.0000
  0
INSERT
  8
22
  2
RECT
 10
42.0227
 20
2.4759
 30
0.0000
 41
0.1524
 42
0.0305
 43
1.0000
 50
180.0000
  0
INSERT
  8
22
  2
RECT
 10
44.8574
 20
2.5064
 30
0.0000
 41
0.1524
 42
0.0305
 43
1.0000
 50
180.0000
  0
INSERT
  8
22
  2
RECT
 10
42.0075
 20
2.5064
 30
0.0000
 41
0.1219
 42
0.0305
 43
1.0000
 50
180.0000
  0
INSERT
  8
22
  2
RECT
 10
44.8879
 20
2.5369
 30
0.0000
 41
0.1524
 42
0.0305
 43
1.0000
 50
180.0000
  0
INSERT
  8
22
  2
RECT
 10
41.9922
 20
2.5369
 30
0.0000
 41
0.1524
 42
0.0305
 43
1.0000
 50
180.0000
  0
INSERT
  8
22
  2
RECT
 10
44.9031
 20
2.5674
 30
0.0000
 41
0.1219
 42
0.0305
 43
1.0000
 50
180.0000
  0
INSERT
  8
22
  2
RECT
 10
41.9770
 20
2.5674
 30
0.0000
 41
0.1219
 42
0.0305
 43
1.0000
 50
180.0000
  0
INSERT
  8
22
  2
RECT
 10
44.9031
 20
2.5979
 30
0.0000
 41
0.1219
 42
0.0305
 43
1.0000
 50
180.0000
  0
INSERT
  8
22
  2
RECT
 10
41.9618
 20
2.5979
 30
0.0000
 41
0.1524
 42
0.0305
 43
1.0000
 50
180.0000
  0
INSERT
  8
22
  2
RECT
 10
44.9336
 20
2.6283
 30
0.0000
 41
0.1219
 42
0.0305
 43
1.0000
 50
180.0000
  0
INSERT
  8
22
  2
RECT
 10
41.9465
 20
2.6283
 30
0.0000
 41
0.1219
 42
0.0305
 43
1.0000
 50
180.0000
  0
INSERT
  8
22
  2
RECT
 10
44.9336
 20
2.6588
 30
0.0000
 41
0.1219
 42
0.0305
 43
1.0000
 50
180.0000
  0
INSERT
  8
22
  2
RECT
 10
41.9465
 20
2.6588
 30
0.0000
 41
0.1219
 42
0.0305
 43
1.0000
 50
180.0000
  0
INSERT
  8
22
  2
RECT
 10
44.9488
 20
2.6893
 30
0.0000
 41
0.1524
 42
0.0305
 43
1.0000
 50
180.0000
  0
INSERT
  8
22
  2
RECT
 10
41.9160
 20
2.6893
 30
0.0000
 41
0.1219
 42
0.0305
 43
1.0000
 50
180.0000
  0
INSERT
  8
22
  2
RECT
 10
44.9641
 20
2.7198
 30
0.0000
 41
0.1219
 42
0.0305
 43
1.0000
 50
180.0000
  0
INSERT
  8
22
  2
RECT
 10
41.9160
 20
2.7198
 30
0.0000
 41
0.1219
 42
0.0305
 43
1.0000
 50
180.0000
  0
INSERT
  8
22
  2
RECT
 10
44.9641
 20
2.7503
 30
0.0000
 41
0.1219
 42
0.0305
 43
1.0000
 50
180.0000
  0
INSERT
  8
22
  2
RECT
 10
41.9160
 20
2.7503
 30
0.0000
 41
0.1219
 42
0.0305
 43
1.0000
 50
180.0000
  0
INSERT
  8
22
  2
RECT
 10
44.9641
 20
2.7807
 30
0.0000
 41
0.1219
 42
0.0305
 43
1.0000
 50
180.0000
  0
INSERT
  8
22
  2
RECT
 10
41.8856
 20
2.7807
 30
0.0000
 41
0.1219
 42
0.0305
 43
1.0000
 50
180.0000
  0
INSERT
  8
22
  2
RECT
 10
44.9945
 20
2.8112
 30
0.0000
 41
0.1219
 42
0.0305
 43
1.0000
 50
180.0000
  0
INSERT
  8
22
  2
RECT
 10
41.8856
 20
2.8112
 30
0.0000
 41
0.1219
 42
0.0305
 43
1.0000
 50
180.0000
  0
INSERT
  8
22
  2
RECT
 10
44.9945
 20
2.8417
 30
0.0000
 41
0.1219
 42
0.0305
 43
1.0000
 50
180.0000
  0
INSERT
  8
22
  2
RECT
 10
43.4553
 20
2.8417
 30
0.0000
 41
1.4935
 42
0.0305
 43
1.0000
 50
180.0000
  0
INSERT
  8
22
  2
RECT
 10
41.8856
 20
2.8417
 30
0.0000
 41
0.1219
 42
0.0305
 43
1.0000
 50
180.0000
  0
INSERT
  8
22
  2
RECT
 10
44.9945
 20
2.8722
 30
0.0000
 41
0.1219
 42
0.0305
 43
1.0000
 50
180.0000
  0
INSERT
  8
22
  2
RECT
 10
43.4553
 20
2.8722
 30
0.0000
 41
1.4935
 42
0.0305
 43
1.0000
 50
180.0000
  0
INSERT
  8
22
  2
RECT
 10
41.8703
 20
2.8722
 30
0.0000
 41
0.0914
 42
0.0305
 43
1.0000
 50
180.0000
  0
INSERT
  8
22
  2
RECT
 10
45.0098
 20
2.9026
 30
0.0000
 41
0.0914
 42
0.0305
 43
1.0000
 50
180.0000
  0
INSERT
  8
22
  2
RECT
 10
43.4553
 20
2.9026
 30
0.0000
 41
1.4935
 42
0.0305
 43
1.0000
 50
180.0000
  0
INSERT
  8
22
  2
RECT
 10
41.8551
 20
2.9026
 30
0.0000
 41
0.1219
 42
0.0305
 43
1.0000
 50
180.0000
  0
INSERT
  8
22
  2
RECT
 10
45.0250
 20
2.9331
 30
0.0000
 41
0.1219
 42
0.0305
 43
1.0000
 50
180.0000
  0
INSERT
  8
22
  2
RECT
 10
43.4553
 20
2.9331
 30
0.0000
 41
1.4935
 42
0.0305
 43
1.0000
 50
180.0000
  0
INSERT
  8
22
  2
RECT
 10
41.8551
 20
2.9331
 30
0.0000
 41
0.1219
 42
0.0305
 43
1.0000
 50
180.0000
  0
INSERT
  8
22
  2
RECT
 10
45.0250
 20
2.9636
 30
0.0000
 41
0.1219
 42
0.0305
 43
1.0000
 50
180.0000
  0
INSERT
  8
22
  2
RECT
 10
43.4553
 20
2.9636
 30
0.0000
 41
1.4935
 42
0.0305
 43
1.0000
 50
180.0000
  0
INSERT
  8
22
  2
RECT
 10
41.8551
 20
2.9636
 30
0.0000
 41
0.1219
 42
0.0305
 43
1.0000
 50
180.0000
  0
INSERT
  8
22
  2
RECT
 10
45.0250
 20
2.9941
 30
0.0000
 41
0.1219
 42
0.0305
 43
1.0000
 50
180.0000
  0
INSERT
  8
22
  2
RECT
 10
43.4553
 20
2.9941
 30
0.0000
 41
1.4935
 42
0.0305
 43
1.0000
 50
180.0000
  0
INSERT
  8
22
  2
RECT
 10
41.8551
 20
2.9941
 30
0.0000
 41
0.1219
 42
0.0305
 43
1.0000
 50
180.0000
  0
INSERT
  8
22
  2
RECT
 10
45.0250
 20
3.0246
 30
0.0000
 41
0.1219
 42
0.0305
 43
1.0000
 50
180.0000
  0
INSERT
  8
22
  2
RECT
 10
43.4553
 20
3.0246
 30
0.0000
 41
0.1524
 42
0.0305
 43
1.0000
 50
180.0000
  0
INSERT
  8
22
  2
RECT
 10
41.8399
 20
3.0246
 30
0.0000
 41
0.0914
 42
0.0305
 43
1.0000
 50
180.0000
  0
INSERT
  8
22
  2
RECT
 10
45.0403
 20
3.0551
 30
0.0000
 41
0.0914
 42
0.0305
 43
1.0000
 50
180.0000
  0
INSERT
  8
22
  2
RECT
 10
43.4553
 20
3.0551
 30
0.0000
 41
0.1524
 42
0.0305
 43
1.0000
 50
180.0000
  0
INSERT
  8
22
  2
RECT
 10
41.8399
 20
3.0551
 30
0.0000
 41
0.0914
 42
0.0305
 43
1.0000
 50
180.0000
  0
INSERT
  8
22
  2
RECT
 10
45.0403
 20
3.0855
 30
0.0000
 41
0.0914
 42
0.0305
 43
1.0000
 50
180.0000
  0
INSERT
  8
22
  2
RECT
 10
43.4553
 20
3.0855
 30
0.0000
 41
0.1524
 42
0.0305
 43
1.0000
 50
180.0000
  0
INSERT
  8
22
  2
RECT
 10
41.8399
 20
3.0855
 30
0.0000
 41
0.0914
 42
0.0305
 43
1.0000
 50
180.0000
  0
INSERT
  8
22
  2
RECT
 10
45.0403
 20
3.1160
 30
0.0000
 41
0.0914
 42
0.0305
 43
1.0000
 50
180.0000
  0
INSERT
  8
22
  2
RECT
 10
43.4553
 20
3.1160
 30
0.0000
 41
0.1524
 42
0.0305
 43
1.0000
 50
180.0000
  0
INSERT
  8
22
  2
RECT
 10
41.8246
 20
3.1160
 30
0.0000
 41
0.1219
 42
0.0305
 43
1.0000
 50
180.0000
  0
INSERT
  8
22
  2
RECT
 10
45.0403
 20
3.1465
 30
0.0000
 41
0.0914
 42
0.0305
 43
1.0000
 50
180.0000
  0
INSERT
  8
22
  2
RECT
 10
43.4553
 20
3.1465
 30
0.0000
 41
0.1524
 42
0.0305
 43
1.0000
 50
180.0000
  0
INSERT
  8
22
  2
RECT
 10
41.8246
 20
3.1465
 30
0.0000
 41
0.1219
 42
0.0305
 43
1.0000
 50
180.0000
  0
INSERT
  8
22
  2
RECT
 10
45.0403
 20
3.1770
 30
0.0000
 41
0.0914
 42
0.0305
 43
1.0000
 50
180.0000
  0
INSERT
  8
22
  2
RECT
 10
43.4553
 20
3.1770
 30
0.0000
 41
0.1524
 42
0.0305
 43
1.0000
 50
180.0000
  0
INSERT
  8
22
  2
RECT
 10
41.8246
 20
3.1770
 30
0.0000
 41
0.1219
 42
0.0305
 43
1.0000
 50
180.0000
  0
INSERT
  8
22
  2
RECT
 10
45.0555
 20
3.2075
 30
0.0000
 41
0.1219
 42
0.0305
 43
1.0000
 50
180.0000
  0
INSERT
  8
22
  2
RECT
 10
43.4553
 20
3.2075
 30
0.0000
 41
0.1524
 42
0.0305
 43
1.0000
 50
180.0000
  0
INSERT
  8
22
  2
RECT
 10
41.8246
 20
3.2075
 30
0.0000
 41
0.1219
 42
0.0305
 43
1.0000
 50
180.0000
  0
INSERT
  8
22
  2
RECT
 10
45.0555
 20
3.2379
 30
0.0000
 41
0.1219
 42
0.0305
 43
1.0000
 50
180.0000
  0
INSERT
  8
22
  2
RECT
 10
43.4553
 20
3.2379
 30
0.0000
 41
0.1524
 42
0.0305
 43
1.0000
 50
180.0000
  0
INSERT
  8
22
  2
RECT
 10
41.8246
 20
3.2379
 30
0.0000
 41
0.1219
 42
0.0305
 43
1.0000
 50
180.0000
  0
INSERT
  8
22
  2
RECT
 10
45.0555
 20
3.2684
 30
0.0000
 41
0.1219
 42
0.0305
 43
1.0000
 50
180.0000
  0
INSERT
  8
22
  2
RECT
 10
43.4553
 20
3.2684
 30
0.0000
 41
0.1524
 42
0.0305
 43
1.0000
 50
180.0000
  0
INSERT
  8
22
  2
RECT
 10
41.8246
 20
3.2684
 30
0.0000
 41
0.1219
 42
0.0305
 43
1.0000
 50
180.0000
  0
INSERT
  8
22
  2
RECT
 10
45.0555
 20
3.2989
 30
0.0000
 41
0.1219
 42
0.0305
 43
1.0000
 50
180.0000
  0
INSERT
  8
22
  2
RECT
 10
43.4553
 20
3.2989
 30
0.0000
 41
0.1524
 42
0.0305
 43
1.0000
 50
180.0000
  0
INSERT
  8
22
  2
RECT
 10
41.8246
 20
3.2989
 30
0.0000
 41
0.1219
 42
0.0305
 43
1.0000
 50
180.0000
  0
INSERT
  8
22
  2
RECT
 10
45.0555
 20
3.3294
 30
0.0000
 41
0.1219
 42
0.0305
 43
1.0000
 50
180.0000
  0
INSERT
  8
22
  2
RECT
 10
43.4553
 20
3.3294
 30
0.0000
 41
0.1524
 42
0.0305
 43
1.0000
 50
180.0000
  0
INSERT
  8
22
  2
RECT
 10
41.8246
 20
3.3294
 30
0.0000
 41
0.1219
 42
0.0305
 43
1.0000
 50
180.0000
  0
INSERT
  8
22
  2
RECT
 10
45.0555
 20
3.3599
 30
0.0000
 41
0.1219
 42
0.0305
 43
1.0000
 50
180.0000
  0
INSERT
  8
22
  2
RECT
 10
43.4553
 20
3.3599
 30
0.0000
 41
0.1524
 42
0.0305
 43
1.0000
 50
180.0000
  0
INSERT
  8
22
  2
RECT
 10
41.8246
 20
3.3599
 30
0.0000
 41
0.1219
 42
0.0305
 43
1.0000
 50
180.0000
  0
INSERT
  8
22
  2
RECT
 10
45.0555
 20
3.3903
 30
0.0000
 41
0.1219
 42
0.0305
 43
1.0000
 50
180.0000
  0
INSERT
  8
22
  2
RECT
 10
43.4553
 20
3.3903
 30
0.0000
 41
0.1524
 42
0.0305
 43
1.0000
 50
180.0000
  0
INSERT
  8
22
  2
RECT
 10
41.8246
 20
3.3903
 30
0.0000
 41
0.1219
 42
0.0305
 43
1.0000
 50
180.0000
  0
INSERT
  8
22
  2
RECT
 10
45.0555
 20
3.4208
 30
0.0000
 41
0.1219
 42
0.0305
 43
1.0000
 50
180.0000
  0
INSERT
  8
22
  2
RECT
 10
43.4553
 20
3.4208
 30
0.0000
 41
0.1524
 42
0.0305
 43
1.0000
 50
180.0000
  0
INSERT
  8
22
  2
RECT
 10
41.8246
 20
3.4208
 30
0.0000
 41
0.1219
 42
0.0305
 43
1.0000
 50
180.0000
  0
INSERT
  8
22
  2
RECT
 10
45.0555
 20
3.4513
 30
0.0000
 41
0.1219
 42
0.0305
 43
1.0000
 50
180.0000
  0
INSERT
  8
22
  2
RECT
 10
43.4553
 20
3.4513
 30
0.0000
 41
0.1524
 42
0.0305
 43
1.0000
 50
180.0000
  0
INSERT
  8
22
  2
RECT
 10
41.8246
 20
3.4513
 30
0.0000
 41
0.1219
 42
0.0305
 43
1.0000
 50
180.0000
  0
INSERT
  8
22
  2
RECT
 10
45.0555
 20
3.4818
 30
0.0000
 41
0.1219
 42
0.0305
 43
1.0000
 50
180.0000
  0
INSERT
  8
22
  2
RECT
 10
43.4553
 20
3.4818
 30
0.0000
 41
0.1524
 42
0.0305
 43
1.0000
 50
180.0000
  0
INSERT
  8
22
  2
RECT
 10
41.8246
 20
3.4818
 30
0.0000
 41
0.1219
 42
0.0305
 43
1.0000
 50
180.0000
  0
INSERT
  8
22
  2
RECT
 10
45.0555
 20
3.5123
 30
0.0000
 41
0.1219
 42
0.0305
 43
1.0000
 50
180.0000
  0
INSERT
  8
22
  2
RECT
 10
43.4553
 20
3.5123
 30
0.0000
 41
0.1524
 42
0.0305
 43
1.0000
 50
180.0000
  0
INSERT
  8
22
  2
RECT
 10
41.8246
 20
3.5123
 30
0.0000
 41
0.1219
 42
0.0305
 43
1.0000
 50
180.0000
  0
INSERT
  8
22
  2
RECT
 10
45.0555
 20
3.5427
 30
0.0000
 41
0.1219
 42
0.0305
 43
1.0000
 50
180.0000
  0
INSERT
  8
22
  2
RECT
 10
43.4553
 20
3.5427
 30
0.0000
 41
0.1524
 42
0.0305
 43
1.0000
 50
180.0000
  0
INSERT
  8
22
  2
RECT
 10
41.8246
 20
3.5427
 30
0.0000
 41
0.1219
 42
0.0305
 43
1.0000
 50
180.0000
  0
INSERT
  8
22
  2
RECT
 10
45.0555
 20
3.5732
 30
0.0000
 41
0.1219
 42
0.0305
 43
1.0000
 50
180.0000
  0
INSERT
  8
22
  2
RECT
 10
43.4553
 20
3.5732
 30
0.0000
 41
0.1524
 42
0.0305
 43
1.0000
 50
180.0000
  0
INSERT
  8
22
  2
RECT
 10
41.8246
 20
3.5732
 30
0.0000
 41
0.1219
 42
0.0305
 43
1.0000
 50
180.0000
  0
INSERT
  8
22
  2
RECT
 10
45.0555
 20
3.6037
 30
0.0000
 41
0.1219
 42
0.0305
 43
1.0000
 50
180.0000
  0
INSERT
  8
22
  2
RECT
 10
43.4553
 20
3.6037
 30
0.0000
 41
0.1524
 42
0.0305
 43
1.0000
 50
180.0000
  0
INSERT
  8
22
  2
RECT
 10
41.8246
 20
3.6037
 30
0.0000
 41
0.1219
 42
0.0305
 43
1.0000
 50
180.0000
  0
INSERT
  8
22
  2
RECT
 10
45.0555
 20
3.6342
 30
0.0000
 41
0.1219
 42
0.0305
 43
1.0000
 50
180.0000
  0
INSERT
  8
22
  2
RECT
 10
43.4553
 20
3.6342
 30
0.0000
 41
0.1524
 42
0.0305
 43
1.0000
 50
180.0000
  0
INSERT
  8
22
  2
RECT
 10
41.8246
 20
3.6342
 30
0.0000
 41
0.1219
 42
0.0305
 43
1.0000
 50
180.0000
  0
INSERT
  8
22
  2
RECT
 10
45.0555
 20
3.6646
 30
0.0000
 41
0.1219
 42
0.0305
 43
1.0000
 50
180.0000
  0
INSERT
  8
22
  2
RECT
 10
43.4553
 20
3.6646
 30
0.0000
 41
0.1524
 42
0.0305
 43
1.0000
 50
180.0000
  0
INSERT
  8
22
  2
RECT
 10
41.8246
 20
3.6646
 30
0.0000
 41
0.1219
 42
0.0305
 43
1.0000
 50
180.0000
  0
INSERT
  8
22
  2
RECT
 10
45.0555
 20
3.6951
 30
0.0000
 41
0.1219
 42
0.0305
 43
1.0000
 50
180.0000
  0
INSERT
  8
22
  2
RECT
 10
43.4553
 20
3.6951
 30
0.0000
 41
0.1524
 42
0.0305
 43
1.0000
 50
180.0000
  0
INSERT
  8
22
  2
RECT
 10
41.8246
 20
3.6951
 30
0.0000
 41
0.1219
 42
0.0305
 43
1.0000
 50
180.0000
  0
INSERT
  8
22
  2
RECT
 10
45.0555
 20
3.7256
 30
0.0000
 41
0.1219
 42
0.0305
 43
1.0000
 50
180.0000
  0
INSERT
  8
22
  2
RECT
 10
43.4553
 20
3.7256
 30
0.0000
 41
0.1524
 42
0.0305
 43
1.0000
 50
180.0000
  0
INSERT
  8
22
  2
RECT
 10
41.8246
 20
3.7256
 30
0.0000
 41
0.1219
 42
0.0305
 43
1.0000
 50
180.0000
  0
INSERT
  8
22
  2
RECT
 10
45.0555
 20
3.7561
 30
0.0000
 41
0.1219
 42
0.0305
 43
1.0000
 50
180.0000
  0
INSERT
  8
22
  2
RECT
 10
43.4553
 20
3.7561
 30
0.0000
 41
0.2134
 42
0.0305
 43
1.0000
 50
180.0000
  0
INSERT
  8
22
  2
RECT
 10
41.8246
 20
3.7561
 30
0.0000
 41
0.1219
 42
0.0305
 43
1.0000
 50
180.0000
  0
INSERT
  8
22
  2
RECT
 10
45.0555
 20
3.7866
 30
0.0000
 41
0.1219
 42
0.0305
 43
1.0000
 50
180.0000
  0
INSERT
  8
22
  2
RECT
 10
43.4400
 20
3.7866
 30
0.0000
 41
1.7069
 42
0.0305
 43
1.0000
 50
180.0000
  0
INSERT
  8
22
  2
RECT
 10
41.8246
 20
3.7866
 30
0.0000
 41
0.1219
 42
0.0305
 43
1.0000
 50
180.0000
  0
INSERT
  8
22
  2
RECT
 10
45.0555
 20
3.8171
 30
0.0000
 41
0.1219
 42
0.0305
 43
1.0000
 50
180.0000
  0
INSERT
  8
22
  2
RECT
 10
43.4400
 20
3.8171
 30
0.0000
 41
1.7069
 42
0.0305
 43
1.0000
 50
180.0000
  0
INSERT
  8
22
  2
RECT
 10
41.8246
 20
3.8171
 30
0.0000
 41
0.1219
 42
0.0305
 43
1.0000
 50
180.0000
  0
INSERT
  8
22
  2
RECT
 10
45.0555
 20
3.8475
 30
0.0000
 41
0.1219
 42
0.0305
 43
1.0000
 50
180.0000
  0
INSERT
  8
22
  2
RECT
 10
43.4400
 20
3.8475
 30
0.0000
 41
1.7069
 42
0.0305
 43
1.0000
 50
180.0000
  0
INSERT
  8
22
  2
RECT
 10
41.8246
 20
3.8475
 30
0.0000
 41
0.1219
 42
0.0305
 43
1.0000
 50
180.0000
  0
INSERT
  8
22
  2
RECT
 10
45.0555
 20
3.8780
 30
0.0000
 41
0.1219
 42
0.0305
 43
1.0000
 50
180.0000
  0
INSERT
  8
22
  2
RECT
 10
43.4400
 20
3.8780
 30
0.0000
 41
1.7069
 42
0.0305
 43
1.0000
 50
180.0000
  0
INSERT
  8
22
  2
RECT
 10
41.8246
 20
3.8780
 30
0.0000
 41
0.1219
 42
0.0305
 43
1.0000
 50
180.0000
  0
INSERT
  8
22
  2
RECT
 10
45.0555
 20
3.9085
 30
0.0000
 41
0.1219
 42
0.0305
 43
1.0000
 50
180.0000
  0
INSERT
  8
22
  2
RECT
 10
43.4400
 20
3.9085
 30
0.0000
 41
1.7069
 42
0.0305
 43
1.0000
 50
180.0000
  0
INSERT
  8
22
  2
RECT
 10
41.8246
 20
3.9085
 30
0.0000
 41
0.1219
 42
0.0305
 43
1.0000
 50
180.0000
  0
INSERT
  8
22
  2
RECT
 10
45.0555
 20
3.9390
 30
0.0000
 41
0.1219
 42
0.0305
 43
1.0000
 50
180.0000
  0
INSERT
  8
22
  2
RECT
 10
43.4705
 20
3.9390
 30
0.0000
 41
0.1829
 42
0.0305
 43
1.0000
 50
180.0000
  0
INSERT
  8
22
  2
RECT
 10
41.8246
 20
3.9390
 30
0.0000
 41
0.1219
 42
0.0305
 43
1.0000
 50
180.0000
  0
INSERT
  8
22
  2
RECT
 10
45.0555
 20
3.9695
 30
0.0000
 41
0.1219
 42
0.0305
 43
1.0000
 50
180.0000
  0
INSERT
  8
22
  2
RECT
 10
43.4553
 20
3.9695
 30
0.0000
 41
0.1524
 42
0.0305
 43
1.0000
 50
180.0000
  0
INSERT
  8
22
  2
RECT
 10
41.8246
 20
3.9695
 30
0.0000
 41
0.1219
 42
0.0305
 43
1.0000
 50
180.0000
  0
INSERT
  8
22
  2
RECT
 10
45.0555
 20
3.9999
 30
0.0000
 41
0.1219
 42
0.0305
 43
1.0000
 50
180.0000
  0
INSERT
  8
22
  2
RECT
 10
43.4553
 20
3.9999
 30
0.0000
 41
0.1524
 42
0.0305
 43
1.0000
 50
180.0000
  0
INSERT
  8
22
  2
RECT
 10
41.8246
 20
3.9999
 30
0.0000
 41
0.1219
 42
0.0305
 43
1.0000
 50
180.0000
  0
INSERT
  8
22
  2
RECT
 10
45.0555
 20
4.0304
 30
0.0000
 41
0.1219
 42
0.0305
 43
1.0000
 50
180.0000
  0
INSERT
  8
22
  2
RECT
 10
43.4553
 20
4.0304
 30
0.0000
 41
0.1524
 42
0.0305
 43
1.0000
 50
180.0000
  0
INSERT
  8
22
  2
RECT
 10
41.8246
 20
4.0304
 30
0.0000
 41
0.1219
 42
0.0305
 43
1.0000
 50
180.0000
  0
INSERT
  8
22
  2
RECT
 10
45.0555
 20
4.0609
 30
0.0000
 41
0.1219
 42
0.0305
 43
1.0000
 50
180.0000
  0
INSERT
  8
22
  2
RECT
 10
43.4553
 20
4.0609
 30
0.0000
 41
0.1524
 42
0.0305
 43
1.0000
 50
180.0000
  0
INSERT
  8
22
  2
RECT
 10
41.8246
 20
4.0609
 30
0.0000
 41
0.1219
 42
0.0305
 43
1.0000
 50
180.0000
  0
INSERT
  8
22
  2
RECT
 10
45.0555
 20
4.0914
 30
0.0000
 41
0.1219
 42
0.0305
 43
1.0000
 50
180.0000
  0
INSERT
  8
22
  2
RECT
 10
43.4553
 20
4.0914
 30
0.0000
 41
0.1524
 42
0.0305
 43
1.0000
 50
180.0000
  0
INSERT
  8
22
  2
RECT
 10
41.8246
 20
4.0914
 30
0.0000
 41
0.1219
 42
0.0305
 43
1.0000
 50
180.0000
  0
INSERT
  8
22
  2
RECT
 10
45.0555
 20
4.1219
 30
0.0000
 41
0.1219
 42
0.0305
 43
1.0000
 50
180.0000
  0
INSERT
  8
22
  2
RECT
 10
43.4553
 20
4.1219
 30
0.0000
 41
0.1524
 42
0.0305
 43
1.0000
 50
180.0000
  0
INSERT
  8
22
  2
RECT
 10
41.8246
 20
4.1219
 30
0.0000
 41
0.1219
 42
0.0305
 43
1.0000
 50
180.0000
  0
INSERT
  8
22
  2
RECT
 10
45.0555
 20
4.1523
 30
0.0000
 41
0.1219
 42
0.0305
 43
1.0000
 50
180.0000
  0
INSERT
  8
22
  2
RECT
 10
43.4553
 20
4.1523
 30
0.0000
 41
0.1524
 42
0.0305
 43
1.0000
 50
180.0000
  0
INSERT
  8
22
  2
RECT
 10
41.8246
 20
4.1523
 30
0.0000
 41
0.1219
 42
0.0305
 43
1.0000
 50
180.0000
  0
INSERT
  8
22
  2
RECT
 10
45.0555
 20
4.1828
 30
0.0000
 41
0.1219
 42
0.0305
 43
1.0000
 50
180.0000
  0
INSERT
  8
22
  2
RECT
 10
43.4553
 20
4.1828
 30
0.0000
 41
0.1524
 42
0.0305
 43
1.0000
 50
180.0000
  0
INSERT
  8
22
  2
RECT
 10
41.8246
 20
4.1828
 30
0.0000
 41
0.1219
 42
0.0305
 43
1.0000
 50
180.0000
  0
INSERT
  8
22
  2
RECT
 10
45.0555
 20
4.2133
 30
0.0000
 41
0.1219
 42
0.0305
 43
1.0000
 50
180.0000
  0
INSERT
  8
22
  2
RECT
 10
43.4553
 20
4.2133
 30
0.0000
 41
0.1524
 42
0.0305
 43
1.0000
 50
180.0000
  0
INSERT
  8
22
  2
RECT
 10
41.8246
 20
4.2133
 30
0.0000
 41
0.1219
 42
0.0305
 43
1.0000
 50
180.0000
  0
INSERT
  8
22
  2
RECT
 10
45.0555
 20
4.2438
 30
0.0000
 41
0.1219
 42
0.0305
 43
1.0000
 50
180.0000
  0
INSERT
  8
22
  2
RECT
 10
43.4553
 20
4.2438
 30
0.0000
 41
0.1524
 42
0.0305
 43
1.0000
 50
180.0000
  0
INSERT
  8
22
  2
RECT
 10
41.8246
 20
4.2438
 30
0.0000
 41
0.1219
 42
0.0305
 43
1.0000
 50
180.0000
  0
INSERT
  8
22
  2
RECT
 10
45.0555
 20
4.2743
 30
0.0000
 41
0.1219
 42
0.0305
 43
1.0000
 50
180.0000
  0
INSERT
  8
22
  2
RECT
 10
43.4553
 20
4.2743
 30
0.0000
 41
0.1524
 42
0.0305
 43
1.0000
 50
180.0000
  0
INSERT
  8
22
  2
RECT
 10
41.8246
 20
4.2743
 30
0.0000
 41
0.1219
 42
0.0305
 43
1.0000
 50
180.0000
  0
INSERT
  8
22
  2
RECT
 10
45.0555
 20
4.3047
 30
0.0000
 41
0.1219
 42
0.0305
 43
1.0000
 50
180.0000
  0
INSERT
  8
22
  2
RECT
 10
43.4553
 20
4.3047
 30
0.0000
 41
0.1524
 42
0.0305
 43
1.0000
 50
180.0000
  0
INSERT
  8
22
  2
RECT
 10
41.8246
 20
4.3047
 30
0.0000
 41
0.1219
 42
0.0305
 43
1.0000
 50
180.0000
  0
INSERT
  8
22
  2
RECT
 10
45.0555
 20
4.3352
 30
0.0000
 41
0.1219
 42
0.0305
 43
1.0000
 50
180.0000
  0
INSERT
  8
22
  2
RECT
 10
43.4553
 20
4.3352
 30
0.0000
 41
0.1524
 42
0.0305
 43
1.0000
 50
180.0000
  0
INSERT
  8
22
  2
RECT
 10
41.8246
 20
4.3352
 30
0.0000
 41
0.1219
 42
0.0305
 43
1.0000
 50
180.0000
  0
INSERT
  8
22
  2
RECT
 10
45.0555
 20
4.3657
 30
0.0000
 41
0.1219
 42
0.0305
 43
1.0000
 50
180.0000
  0
INSERT
  8
22
  2
RECT
 10
43.4553
 20
4.3657
 30
0.0000
 41
0.1524
 42
0.0305
 43
1.0000
 50
180.0000
  0
INSERT
  8
22
  2
RECT
 10
41.8246
 20
4.3657
 30
0.0000
 41
0.1219
 42
0.0305
 43
1.0000
 50
180.0000
  0
INSERT
  8
22
  2
RECT
 10
45.0555
 20
4.3962
 30
0.0000
 41
0.1219
 42
0.0305
 43
1.0000
 50
180.0000
  0
INSERT
  8
22
  2
RECT
 10
43.4400
 20
4.3962
 30
0.0000
 41
0.1829
 42
0.0305
 43
1.0000
 50
180.0000
  0
INSERT
  8
22
  2
RECT
 10
41.8246
 20
4.3962
 30
0.0000
 41
0.1219
 42
0.0305
 43
1.0000
 50
180.0000
  0
INSERT
  8
22
  2
RECT
 10
45.0555
 20
4.4267
 30
0.0000
 41
0.1219
 42
0.0305
 43
1.0000
 50
180.0000
  0
INSERT
  8
22
  2
RECT
 10
43.4553
 20
4.4267
 30
0.0000
 41
0.1524
 42
0.0305
 43
1.0000
 50
180.0000
  0
INSERT
  8
22
  2
RECT
 10
41.8246
 20
4.4267
 30
0.0000
 41
0.1219
 42
0.0305
 43
1.0000
 50
180.0000
  0
INSERT
  8
22
  2
RECT
 10
45.0555
 20
4.4571
 30
0.0000
 41
0.1219
 42
0.0305
 43
1.0000
 50
180.0000
  0
INSERT
  8
22
  2
RECT
 10
41.8246
 20
4.4571
 30
0.0000
 41
0.1219
 42
0.0305
 43
1.0000
 50
180.0000
  0
INSERT
  8
22
  2
RECT
 10
45.0555
 20
4.4876
 30
0.0000
 41
0.1219
 42
0.0305
 43
1.0000
 50
180.0000
  0
INSERT
  8
22
  2
RECT
 10
41.8246
 20
4.4876
 30
0.0000
 41
0.1219
 42
0.0305
 43
1.0000
 50
180.0000
  0
INSERT
  8
22
  2
RECT
 10
45.0555
 20
4.5181
 30
0.0000
 41
0.1219
 42
0.0305
 43
1.0000
 50
180.0000
  0
INSERT
  8
22
  2
RECT
 10
41.8246
 20
4.5181
 30
0.0000
 41
0.1219
 42
0.0305
 43
1.0000
 50
180.0000
  0
INSERT
  8
22
  2
RECT
 10
45.0555
 20
4.5486
 30
0.0000
 41
0.1219
 42
0.0305
 43
1.0000
 50
180.0000
  0
INSERT
  8
22
  2
RECT
 10
41.8246
 20
4.5486
 30
0.0000
 41
0.1219
 42
0.0305
 43
1.0000
 50
180.0000
  0
INSERT
  8
22
  2
RECT
 10
45.0555
 20
4.5791
 30
0.0000
 41
0.1219
 42
0.0305
 43
1.0000
 50
180.0000
  0
INSERT
  8
22
  2
RECT
 10
41.8246
 20
4.5791
 30
0.0000
 41
0.1219
 42
0.0305
 43
1.0000
 50
180.0000
  0
INSERT
  8
22
  2
RECT
 10
45.0555
 20
4.6095
 30
0.0000
 41
0.1219
 42
0.0305
 43
1.0000
 50
180.0000
  0
INSERT
  8
22
  2
RECT
 10
41.8246
 20
4.6095
 30
0.0000
 41
0.1219
 42
0.0305
 43
1.0000
 50
180.0000
  0
INSERT
  8
22
  2
RECT
 10
45.0555
 20
4.6400
 30
0.0000
 41
0.1219
 42
0.0305
 43
1.0000
 50
180.0000
  0
INSERT
  8
22
  2
RECT
 10
41.8246
 20
4.6400
 30
0.0000
 41
0.1219
 42
0.0305
 43
1.0000
 50
180.0000
  0
INSERT
  8
22
  2
RECT
 10
45.0555
 20
4.6705
 30
0.0000
 41
0.1219
 42
0.0305
 43
1.0000
 50
180.0000
  0
INSERT
  8
22
  2
RECT
 10
41.8246
 20
4.6705
 30
0.0000
 41
0.1219
 42
0.0305
 43
1.0000
 50
180.0000
  0
INSERT
  8
22
  2
RECT
 10
45.0555
 20
4.7010
 30
0.0000
 41
0.1219
 42
0.0305
 43
1.0000
 50
180.0000
  0
INSERT
  8
22
  2
RECT
 10
41.8246
 20
4.7010
 30
0.0000
 41
0.1219
 42
0.0305
 43
1.0000
 50
180.0000
  0
INSERT
  8
22
  2
RECT
 10
45.0555
 20
4.7315
 30
0.0000
 41
0.1219
 42
0.0305
 43
1.0000
 50
180.0000
  0
INSERT
  8
22
  2
RECT
 10
41.8246
 20
4.7315
 30
0.0000
 41
0.1219
 42
0.0305
 43
1.0000
 50
180.0000
  0
INSERT
  8
22
  2
RECT
 10
45.0555
 20
4.7619
 30
0.0000
 41
0.1219
 42
0.0305
 43
1.0000
 50
180.0000
  0
INSERT
  8
22
  2
RECT
 10
41.8246
 20
4.7619
 30
0.0000
 41
0.1219
 42
0.0305
 43
1.0000
 50
180.0000
  0
INSERT
  8
22
  2
RECT
 10
45.0555
 20
4.7924
 30
0.0000
 41
0.1219
 42
0.0305
 43
1.0000
 50
180.0000
  0
INSERT
  8
22
  2
RECT
 10
41.8246
 20
4.7924
 30
0.0000
 41
0.1219
 42
0.0305
 43
1.0000
 50
180.0000
  0
INSERT
  8
22
  2
RECT
 10
45.0555
 20
4.8229
 30
0.0000
 41
0.1219
 42
0.0305
 43
1.0000
 50
180.0000
  0
INSERT
  8
22
  2
RECT
 10
41.8246
 20
4.8229
 30
0.0000
 41
0.1219
 42
0.0305
 43
1.0000
 50
180.0000
  0
INSERT
  8
22
  2
RECT
 10
45.0555
 20
4.8534
 30
0.0000
 41
0.1219
 42
0.0305
 43
1.0000
 50
180.0000
  0
INSERT
  8
22
  2
RECT
 10
41.8246
 20
4.8534
 30
0.0000
 41
0.1219
 42
0.0305
 43
1.0000
 50
180.0000
  0
INSERT
  8
22
  2
RECT
 10
45.0555
 20
4.8838
 30
0.0000
 41
0.1219
 42
0.0305
 43
1.0000
 50
180.0000
  0
INSERT
  8
22
  2
RECT
 10
41.8246
 20
4.8838
 30
0.0000
 41
0.1219
 42
0.0305
 43
1.0000
 50
180.0000
  0
INSERT
  8
22
  2
RECT
 10
45.0555
 20
4.9143
 30
0.0000
 41
0.1219
 42
0.0305
 43
1.0000
 50
180.0000
  0
INSERT
  8
22
  2
RECT
 10
41.8246
 20
4.9143
 30
0.0000
 41
0.1219
 42
0.0305
 43
1.0000
 50
180.0000
  0
INSERT
  8
22
  2
RECT
 10
45.0555
 20
4.9448
 30
0.0000
 41
0.1219
 42
0.0305
 43
1.0000
 50
180.0000
  0
INSERT
  8
22
  2
RECT
 10
41.8246
 20
4.9448
 30
0.0000
 41
0.1219
 42
0.0305
 43
1.0000
 50
180.0000
  0
INSERT
  8
22
  2
RECT
 10
45.0555
 20
4.9753
 30
0.0000
 41
0.1219
 42
0.0305
 43
1.0000
 50
180.0000
  0
INSERT
  8
22
  2
RECT
 10
41.8246
 20
4.9753
 30
0.0000
 41
0.1219
 42
0.0305
 43
1.0000
 50
180.0000
  0
INSERT
  8
22
  2
RECT
 10
45.0555
 20
5.0058
 30
0.0000
 41
0.1219
 42
0.0305
 43
1.0000
 50
180.0000
  0
INSERT
  8
22
  2
RECT
 10
41.8246
 20
5.0058
 30
0.0000
 41
0.1219
 42
0.0305
 43
1.0000
 50
180.0000
  0
INSERT
  8
22
  2
RECT
 10
45.0555
 20
5.0362
 30
0.0000
 41
0.1219
 42
0.0305
 43
1.0000
 50
180.0000
  0
INSERT
  8
22
  2
RECT
 10
41.8246
 20
5.0362
 30
0.0000
 41
0.1219
 42
0.0305
 43
1.0000
 50
180.0000
  0
INSERT
  8
22
  2
RECT
 10
45.0555
 20
5.0667
 30
0.0000
 41
0.1219
 42
0.0305
 43
1.0000
 50
180.0000
  0
INSERT
  8
22
  2
RECT
 10
41.8246
 20
5.0667
 30
0.0000
 41
0.1219
 42
0.0305
 43
1.0000
 50
180.0000
  0
INSERT
  8
22
  2
RECT
 10
45.0555
 20
5.0972
 30
0.0000
 41
0.1219
 42
0.0305
 43
1.0000
 50
180.0000
  0
INSERT
  8
22
  2
RECT
 10
41.8246
 20
5.0972
 30
0.0000
 41
0.1219
 42
0.0305
 43
1.0000
 50
180.0000
  0
INSERT
  8
22
  2
RECT
 10
45.0555
 20
5.1277
 30
0.0000
 41
0.1219
 42
0.0305
 43
1.0000
 50
180.0000
  0
INSERT
  8
22
  2
RECT
 10
41.8246
 20
5.1277
 30
0.0000
 41
0.1219
 42
0.0305
 43
1.0000
 50
180.0000
  0
INSERT
  8
22
  2
RECT
 10
45.0555
 20
5.1582
 30
0.0000
 41
0.1219
 42
0.0305
 43
1.0000
 50
180.0000
  0
INSERT
  8
22
  2
RECT
 10
41.8246
 20
5.1582
 30
0.0000
 41
0.1219
 42
0.0305
 43
1.0000
 50
180.0000
  0
INSERT
  8
22
  2
RECT
 10
45.0555
 20
5.1886
 30
0.0000
 41
0.1219
 42
0.0305
 43
1.0000
 50
180.0000
  0
INSERT
  8
22
  2
RECT
 10
41.8246
 20
5.1886
 30
0.0000
 41
0.1219
 42
0.0305
 43
1.0000
 50
180.0000
  0
INSERT
  8
22
  2
RECT
 10
45.0555
 20
5.2191
 30
0.0000
 41
0.1219
 42
0.0305
 43
1.0000
 50
180.0000
  0
INSERT
  8
22
  2
RECT
 10
41.8246
 20
5.2191
 30
0.0000
 41
0.1219
 42
0.0305
 43
1.0000
 50
180.0000
  0
INSERT
  8
22
  2
RECT
 10
45.0555
 20
5.2496
 30
0.0000
 41
0.1219
 42
0.0305
 43
1.0000
 50
180.0000
  0
INSERT
  8
22
  2
RECT
 10
43.8363
 20
5.2496
 30
0.0000
 41
0.1219
 42
0.0305
 43
1.0000
 50
180.0000
  0
INSERT
  8
22
  2
RECT
 10
41.8246
 20
5.2496
 30
0.0000
 41
0.1219
 42
0.0305
 43
1.0000
 50
180.0000
  0
INSERT
  8
22
  2
RECT
 10
45.0555
 20
5.2801
 30
0.0000
 41
0.1219
 42
0.0305
 43
1.0000
 50
180.0000
  0
INSERT
  8
22
  2
RECT
 10
43.8363
 20
5.2801
 30
0.0000
 41
0.1219
 42
0.0305
 43
1.0000
 50
180.0000
  0
INSERT
  8
22
  2
RECT
 10
43.4705
 20
5.2801
 30
0.0000
 41
0.1219
 42
0.0305
 43
1.0000
 50
180.0000
  0
INSERT
  8
22
  2
RECT
 10
42.6780
 20
5.2801
 30
0.0000
 41
0.0610
 42
0.0305
 43
1.0000
 50
180.0000
  0
INSERT
  8
22
  2
RECT
 10
41.8246
 20
5.2801
 30
0.0000
 41
0.1219
 42
0.0305
 43
1.0000
 50
180.0000
  0
INSERT
  8
22
  2
RECT
 10
45.0555
 20
5.3106
 30
0.0000
 41
0.1219
 42
0.0305
 43
1.0000
 50
180.0000
  0
INSERT
  8
22
  2
RECT
 10
43.8363
 20
5.3106
 30
0.0000
 41
0.1219
 42
0.0305
 43
1.0000
 50
180.0000
  0
INSERT
  8
22
  2
RECT
 10
43.4400
 20
5.3106
 30
0.0000
 41
0.1829
 42
0.0305
 43
1.0000
 50
180.0000
  0
INSERT
  8
22
  2
RECT
 10
42.6780
 20
5.3106
 30
0.0000
 41
0.1829
 42
0.0305
 43
1.0000
 50
180.0000
  0
INSERT
  8
22
  2
RECT
 10
41.8246
 20
5.3106
 30
0.0000
 41
0.1219
 42
0.0305
 43
1.0000
 50
180.0000
  0
INSERT
  8
22
  2
RECT
 10
45.0555
 20
5.3411
 30
0.0000
 41
0.1219
 42
0.0305
 43
1.0000
 50
180.0000
  0
INSERT
  8
22
  2
RECT
 10
43.8363
 20
5.3411
 30
0.0000
 41
0.1219
 42
0.0305
 43
1.0000
 50
180.0000
  0
INSERT
  8
22
  2
RECT
 10
43.4248
 20
5.3411
 30
0.0000
 41
0.2743
 42
0.0305
 43
1.0000
 50
180.0000
  0
INSERT
  8
22
  2
RECT
 10
42.6933
 20
5.3411
 30
0.0000
 41
0.2134
 42
0.0305
 43
1.0000
 50
180.0000
  0
INSERT
  8
22
  2
RECT
 10
41.8246
 20
5.3411
 30
0.0000
 41
0.1219
 42
0.0305
 43
1.0000
 50
180.0000
  0
INSERT
  8
22
  2
RECT
 10
45.0555
 20
5.3715
 30
0.0000
 41
0.1219
 42
0.0305
 43
1.0000
 50
180.0000
  0
INSERT
  8
22
  2
RECT
 10
43.8363
 20
5.3715
 30
0.0000
 41
0.1219
 42
0.0305
 43
1.0000
 50
180.0000
  0
INSERT
  8
22
  2
RECT
 10
43.3943
 20
5.3715
 30
0.0000
 41
0.3353
 42
0.0305
 43
1.0000
 50
180.0000
  0
INSERT
  8
22
  2
RECT
 10
42.6933
 20
5.3715
 30
0.0000
 41
0.2743
 42
0.0305
 43
1.0000
 50
180.0000
  0
INSERT
  8
22
  2
RECT
 10
41.8246
 20
5.3715
 30
0.0000
 41
0.1219
 42
0.0305
 43
1.0000
 50
180.0000
  0
INSERT
  8
22
  2
RECT
 10
45.0555
 20
5.4020
 30
0.0000
 41
0.1219
 42
0.0305
 43
1.0000
 50
180.0000
  0
INSERT
  8
22
  2
RECT
 10
43.8363
 20
5.4020
 30
0.0000
 41
0.1219
 42
0.0305
 43
1.0000
 50
180.0000
  0
INSERT
  8
22
  2
RECT
 10
43.3638
 20
5.4020
 30
0.0000
 41
0.3353
 42
0.0305
 43
1.0000
 50
180.0000
  0
INSERT
  8
22
  2
RECT
 10
42.7085
 20
5.4020
 30
0.0000
 41
0.3048
 42
0.0305
 43
1.0000
 50
180.0000
  0
INSERT
  8
22
  2
RECT
 10
41.8246
 20
5.4020
 30
0.0000
 41
0.1219
 42
0.0305
 43
1.0000
 50
180.0000
  0
INSERT
  8
22
  2
RECT
 10
45.0555
 20
5.4325
 30
0.0000
 41
0.1219
 42
0.0305
 43
1.0000
 50
180.0000
  0
INSERT
  8
22
  2
RECT
 10
43.8363
 20
5.4325
 30
0.0000
 41
0.1219
 42
0.0305
 43
1.0000
 50
180.0000
  0
INSERT
  8
22
  2
RECT
 10
43.3029
 20
5.4325
 30
0.0000
 41
0.3353
 42
0.0305
 43
1.0000
 50
180.0000
  0
INSERT
  8
22
  2
RECT
 10
42.7238
 20
5.4325
 30
0.0000
 41
0.3353
 42
0.0305
 43
1.0000
 50
180.0000
  0
INSERT
  8
22
  2
RECT
 10
41.8246
 20
5.4325
 30
0.0000
 41
0.1219
 42
0.0305
 43
1.0000
 50
180.0000
  0
INSERT
  8
22
  2
RECT
 10
45.0555
 20
5.4630
 30
0.0000
 41
0.1219
 42
0.0305
 43
1.0000
 50
180.0000
  0
INSERT
  8
22
  2
RECT
 10
43.8363
 20
5.4630
 30
0.0000
 41
0.1219
 42
0.0305
 43
1.0000
 50
180.0000
  0
INSERT
  8
22
  2
RECT
 10
43.2572
 20
5.4630
 30
0.0000
 41
0.3048
 42
0.0305
 43
1.0000
 50
180.0000
  0
INSERT
  8
22
  2
RECT
 10
42.7390
 20
5.4630
 30
0.0000
 41
0.3658
 42
0.0305
 43
1.0000
 50
180.0000
  0
INSERT
  8
22
  2
RECT
 10
41.8246
 20
5.4630
 30
0.0000
 41
0.1219
 42
0.0305
 43
1.0000
 50
180.0000
  0
INSERT
  8
22
  2
RECT
 10
45.0555
 20
5.4935
 30
0.0000
 41
0.1219
 42
0.0305
 43
1.0000
 50
180.0000
  0
INSERT
  8
22
  2
RECT
 10
43.8363
 20
5.4935
 30
0.0000
 41
0.1219
 42
0.0305
 43
1.0000
 50
180.0000
  0
INSERT
  8
22
  2
RECT
 10
43.2114
 20
5.4935
 30
0.0000
 41
0.2743
 42
0.0305
 43
1.0000
 50
180.0000
  0
INSERT
  8
22
  2
RECT
 10
42.7238
 20
5.4935
 30
0.0000
 41
0.3962
 42
0.0305
 43
1.0000
 50
180.0000
  0
INSERT
  8
22
  2
RECT
 10
41.8246
 20
5.4935
 30
0.0000
 41
0.1219
 42
0.0305
 43
1.0000
 50
180.0000
  0
INSERT
  8
22
  2
RECT
 10
45.0555
 20
5.5239
 30
0.0000
 41
0.1219
 42
0.0305
 43
1.0000
 50
180.0000
  0
INSERT
  8
22
  2
RECT
 10
43.8363
 20
5.5239
 30
0.0000
 41
0.1219
 42
0.0305
 43
1.0000
 50
180.0000
  0
INSERT
  8
22
  2
RECT
 10
43.1657
 20
5.5239
 30
0.0000
 41
0.2438
 42
0.0305
 43
1.0000
 50
180.0000
  0
INSERT
  8
22
  2
RECT
 10
42.8609
 20
5.5239
 30
0.0000
 41
0.1829
 42
0.0305
 43
1.0000
 50
180.0000
  0
INSERT
  8
22
  2
RECT
 10
42.6018
 20
5.5239
 30
0.0000
 41
0.1524
 42
0.0305
 43
1.0000
 50
180.0000
  0
INSERT
  8
22
  2
RECT
 10
41.8246
 20
5.5239
 30
0.0000
 41
0.1219
 42
0.0305
 43
1.0000
 50
180.0000
  0
INSERT
  8
22
  2
RECT
 10
45.0555
 20
5.5544
 30
0.0000
 41
0.1219
 42
0.0305
 43
1.0000
 50
180.0000
  0
INSERT
  8
22
  2
RECT
 10
43.8363
 20
5.5544
 30
0.0000
 41
0.1219
 42
0.0305
 43
1.0000
 50
180.0000
  0
INSERT
  8
22
  2
RECT
 10
43.1352
 20
5.5544
 30
0.0000
 41
0.2438
 42
0.0305
 43
1.0000
 50
180.0000
  0
INSERT
  8
22
  2
RECT
 10
42.8609
 20
5.5544
 30
0.0000
 41
0.1829
 42
0.0305
 43
1.0000
 50
180.0000
  0
INSERT
  8
22
  2
RECT
 10
42.6018
 20
5.5544
 30
0.0000
 41
0.1524
 42
0.0305
 43
1.0000
 50
180.0000
  0
INSERT
  8
22
  2
RECT
 10
41.8246
 20
5.5544
 30
0.0000
 41
0.1219
 42
0.0305
 43
1.0000
 50
180.0000
  0
INSERT
  8
22
  2
RECT
 10
45.0555
 20
5.5849
 30
0.0000
 41
0.1219
 42
0.0305
 43
1.0000
 50
180.0000
  0
INSERT
  8
22
  2
RECT
 10
43.8363
 20
5.5849
 30
0.0000
 41
0.1219
 42
0.0305
 43
1.0000
 50
180.0000
  0
INSERT
  8
22
  2
RECT
 10
42.9981
 20
5.5849
 30
0.0000
 41
0.3962
 42
0.0305
 43
1.0000
 50
180.0000
  0
INSERT
  8
22
  2
RECT
 10
42.6018
 20
5.5849
 30
0.0000
 41
0.1524
 42
0.0305
 43
1.0000
 50
180.0000
  0
INSERT
  8
22
  2
RECT
 10
41.8246
 20
5.5849
 30
0.0000
 41
0.1219
 42
0.0305
 43
1.0000
 50
180.0000
  0
INSERT
  8
22
  2
RECT
 10
45.0555
 20
5.6154
 30
0.0000
 41
0.1219
 42
0.0305
 43
1.0000
 50
180.0000
  0
INSERT
  8
22
  2
RECT
 10
43.8363
 20
5.6154
 30
0.0000
 41
0.1219
 42
0.0305
 43
1.0000
 50
180.0000
  0
INSERT
  8
22
  2
RECT
 10
42.9981
 20
5.6154
 30
0.0000
 41
0.3353
 42
0.0305
 43
1.0000
 50
180.0000
  0
INSERT
  8
22
  2
RECT
 10
42.5866
 20
5.6154
 30
0.0000
 41
0.1219
 42
0.0305
 43
1.0000
 50
180.0000
  0
INSERT
  8
22
  2
RECT
 10
41.8246
 20
5.6154
 30
0.0000
 41
0.1219
 42
0.0305
 43
1.0000
 50
180.0000
  0
INSERT
  8
22
  2
RECT
 10
45.0555
 20
5.6459
 30
0.0000
 41
0.1219
 42
0.0305
 43
1.0000
 50
180.0000
  0
INSERT
  8
22
  2
RECT
 10
43.8363
 20
5.6459
 30
0.0000
 41
1.0363
 42
0.0305
 43
1.0000
 50
180.0000
  0
INSERT
  8
22
  2
RECT
 10
42.9828
 20
5.6459
 30
0.0000
 41
0.3048
 42
0.0305
 43
1.0000
 50
180.0000
  0
INSERT
  8
22
  2
RECT
 10
42.6018
 20
5.6459
 30
0.0000
 41
0.0914
 42
0.0305
 43
1.0000
 50
180.0000
  0
INSERT
  8
22
  2
RECT
 10
41.8246
 20
5.6459
 30
0.0000
 41
0.1219
 42
0.0305
 43
1.0000
 50
180.0000
  0
INSERT
  8
22
  2
RECT
 10
45.0555
 20
5.6763
 30
0.0000
 41
0.1219
 42
0.0305
 43
1.0000
 50
180.0000
  0
INSERT
  8
22
  2
RECT
 10
43.8363
 20
5.6763
 30
0.0000
 41
1.0363
 42
0.0305
 43
1.0000
 50
180.0000
  0
INSERT
  8
22
  2
RECT
 10
42.9828
 20
5.6763
 30
0.0000
 41
0.2438
 42
0.0305
 43
1.0000
 50
180.0000
  0
INSERT
  8
22
  2
RECT
 10
42.6171
 20
5.6763
 30
0.0000
 41
0.0610
 42
0.0305
 43
1.0000
 50
180.0000
  0
INSERT
  8
22
  2
RECT
 10
41.8246
 20
5.6763
 30
0.0000
 41
0.1219
 42
0.0305
 43
1.0000
 50
180.0000
  0
INSERT
  8
22
  2
RECT
 10
45.0555
 20
5.7068
 30
0.0000
 41
0.1219
 42
0.0305
 43
1.0000
 50
180.0000
  0
INSERT
  8
22
  2
RECT
 10
43.8363
 20
5.7068
 30
0.0000
 41
1.0363
 42
0.0305
 43
1.0000
 50
180.0000
  0
INSERT
  8
22
  2
RECT
 10
42.9676
 20
5.7068
 30
0.0000
 41
0.2134
 42
0.0305
 43
1.0000
 50
180.0000
  0
INSERT
  8
22
  2
RECT
 10
41.8246
 20
5.7068
 30
0.0000
 41
0.1219
 42
0.0305
 43
1.0000
 50
180.0000
  0
INSERT
  8
22
  2
RECT
 10
45.0555
 20
5.7373
 30
0.0000
 41
0.1219
 42
0.0305
 43
1.0000
 50
180.0000
  0
INSERT
  8
22
  2
RECT
 10
43.8363
 20
5.7373
 30
0.0000
 41
1.0363
 42
0.0305
 43
1.0000
 50
180.0000
  0
INSERT
  8
22
  2
RECT
 10
42.9676
 20
5.7373
 30
0.0000
 41
0.2134
 42
0.0305
 43
1.0000
 50
180.0000
  0
INSERT
  8
22
  2
RECT
 10
41.8246
 20
5.7373
 30
0.0000
 41
0.1219
 42
0.0305
 43
1.0000
 50
180.0000
  0
INSERT
  8
22
  2
RECT
 10
45.0555
 20
5.7678
 30
0.0000
 41
0.1219
 42
0.0305
 43
1.0000
 50
180.0000
  0
INSERT
  8
22
  2
RECT
 10
43.8363
 20
5.7678
 30
0.0000
 41
1.0363
 42
0.0305
 43
1.0000
 50
180.0000
  0
INSERT
  8
22
  2
RECT
 10
42.9676
 20
5.7678
 30
0.0000
 41
0.2134
 42
0.0305
 43
1.0000
 50
180.0000
  0
INSERT
  8
22
  2
RECT
 10
41.8246
 20
5.7678
 30
0.0000
 41
0.1219
 42
0.0305
 43
1.0000
 50
180.0000
  0
INSERT
  8
22
  2
RECT
 10
45.0555
 20
5.7983
 30
0.0000
 41
0.1219
 42
0.0305
 43
1.0000
 50
180.0000
  0
INSERT
  8
22
  2
RECT
 10
43.8363
 20
5.7983
 30
0.0000
 41
0.1219
 42
0.0305
 43
1.0000
 50
180.0000
  0
INSERT
  8
22
  2
RECT
 10
42.9524
 20
5.7983
 30
0.0000
 41
0.2438
 42
0.0305
 43
1.0000
 50
180.0000
  0
INSERT
  8
22
  2
RECT
 10
41.8246
 20
5.7983
 30
0.0000
 41
0.1219
 42
0.0305
 43
1.0000
 50
180.0000
  0
INSERT
  8
22
  2
RECT
 10
45.0555
 20
5.8287
 30
0.0000
 41
0.1219
 42
0.0305
 43
1.0000
 50
180.0000
  0
INSERT
  8
22
  2
RECT
 10
43.8363
 20
5.8287
 30
0.0000
 41
0.1219
 42
0.0305
 43
1.0000
 50
180.0000
  0
INSERT
  8
22
  2
RECT
 10
42.9371
 20
5.8287
 30
0.0000
 41
0.2743
 42
0.0305
 43
1.0000
 50
180.0000
  0
INSERT
  8
22
  2
RECT
 10
41.8246
 20
5.8287
 30
0.0000
 41
0.1219
 42
0.0305
 43
1.0000
 50
180.0000
  0
INSERT
  8
22
  2
RECT
 10
45.0555
 20
5.8592
 30
0.0000
 41
0.1219
 42
0.0305
 43
1.0000
 50
180.0000
  0
INSERT
  8
22
  2
RECT
 10
43.8363
 20
5.8592
 30
0.0000
 41
0.1219
 42
0.0305
 43
1.0000
 50
180.0000
  0
INSERT
  8
22
  2
RECT
 10
42.9524
 20
5.8592
 30
0.0000
 41
0.3048
 42
0.0305
 43
1.0000
 50
180.0000
  0
INSERT
  8
22
  2
RECT
 10
41.8246
 20
5.8592
 30
0.0000
 41
0.1219
 42
0.0305
 43
1.0000
 50
180.0000
  0
INSERT
  8
22
  2
RECT
 10
45.0555
 20
5.8897
 30
0.0000
 41
0.1219
 42
0.0305
 43
1.0000
 50
180.0000
  0
INSERT
  8
22
  2
RECT
 10
44.2020
 20
5.8897
 30
0.0000
 41
0.1219
 42
0.0305
 43
1.0000
 50
180.0000
  0
INSERT
  8
22
  2
RECT
 10
43.8363
 20
5.8897
 30
0.0000
 41
0.1219
 42
0.0305
 43
1.0000
 50
180.0000
  0
INSERT
  8
22
  2
RECT
 10
43.4705
 20
5.8897
 30
0.0000
 41
0.1219
 42
0.0305
 43
1.0000
 50
180.0000
  0
INSERT
  8
22
  2
RECT
 10
42.9371
 20
5.8897
 30
0.0000
 41
0.3353
 42
0.0305
 43
1.0000
 50
180.0000
  0
INSERT
  8
22
  2
RECT
 10
41.8246
 20
5.8897
 30
0.0000
 41
0.1219
 42
0.0305
 43
1.0000
 50
180.0000
  0
INSERT
  8
22
  2
RECT
 10
45.0555
 20
5.9202
 30
0.0000
 41
0.1219
 42
0.0305
 43
1.0000
 50
180.0000
  0
INSERT
  8
22
  2
RECT
 10
44.2020
 20
5.9202
 30
0.0000
 41
0.1219
 42
0.0305
 43
1.0000
 50
180.0000
  0
INSERT
  8
22
  2
RECT
 10
43.8363
 20
5.9202
 30
0.0000
 41
0.1219
 42
0.0305
 43
1.0000
 50
180.0000
  0
INSERT
  8
22
  2
RECT
 10
43.4705
 20
5.9202
 30
0.0000
 41
0.1219
 42
0.0305
 43
1.0000
 50
180.0000
  0
INSERT
  8
22
  2
RECT
 10
43.0286
 20
5.9202
 30
0.0000
 41
0.1524
 42
0.0305
 43
1.0000
 50
180.0000
  0
INSERT
  8
22
  2
RECT
 10
42.8457
 20
5.9202
 30
0.0000
 41
0.1524
 42
0.0305
 43
1.0000
 50
180.0000
  0
INSERT
  8
22
  2
RECT
 10
41.8246
 20
5.9202
 30
0.0000
 41
0.1219
 42
0.0305
 43
1.0000
 50
180.0000
  0
INSERT
  8
22
  2
RECT
 10
45.0555
 20
5.9507
 30
0.0000
 41
0.1219
 42
0.0305
 43
1.0000
 50
180.0000
  0
INSERT
  8
22
  2
RECT
 10
43.8363
 20
5.9507
 30
0.0000
 41
0.8534
 42
0.0305
 43
1.0000
 50
180.0000
  0
INSERT
  8
22
  2
RECT
 10
43.0286
 20
5.9507
 30
0.0000
 41
0.1524
 42
0.0305
 43
1.0000
 50
180.0000
  0
INSERT
  8
22
  2
RECT
 10
42.8304
 20
5.9507
 30
0.0000
 41
0.1829
 42
0.0305
 43
1.0000
 50
180.0000
  0
INSERT
  8
22
  2
RECT
 10
41.8246
 20
5.9507
 30
0.0000
 41
0.1219
 42
0.0305
 43
1.0000
 50
180.0000
  0
INSERT
  8
22
  2
RECT
 10
45.0555
 20
5.9811
 30
0.0000
 41
0.1219
 42
0.0305
 43
1.0000
 50
180.0000
  0
INSERT
  8
22
  2
RECT
 10
43.8363
 20
5.9811
 30
0.0000
 41
0.8534
 42
0.0305
 43
1.0000
 50
180.0000
  0
INSERT
  8
22
  2
RECT
 10
43.0590
 20
5.9811
 30
0.0000
 41
0.1524
 42
0.0305
 43
1.0000
 50
180.0000
  0
INSERT
  8
22
  2
RECT
 10
42.8152
 20
5.9811
 30
0.0000
 41
0.1524
 42
0.0305
 43
1.0000
 50
180.0000
  0
INSERT
  8
22
  2
RECT
 10
41.8246
 20
5.9811
 30
0.0000
 41
0.1219
 42
0.0305
 43
1.0000
 50
180.0000
  0
INSERT
  8
22
  2
RECT
 10
45.0555
 20
6.0116
 30
0.0000
 41
0.1219
 42
0.0305
 43
1.0000
 50
180.0000
  0
INSERT
  8
22
  2
RECT
 10
43.8363
 20
6.0116
 30
0.0000
 41
0.8534
 42
0.0305
 43
1.0000
 50
180.0000
  0
INSERT
  8
22
  2
RECT
 10
43.0590
 20
6.0116
 30
0.0000
 41
0.1524
 42
0.0305
 43
1.0000
 50
180.0000
  0
INSERT
  8
22
  2
RECT
 10
42.8152
 20
6.0116
 30
0.0000
 41
0.1524
 42
0.0305
 43
1.0000
 50
180.0000
  0
INSERT
  8
22
  2
RECT
 10
41.8246
 20
6.0116
 30
0.0000
 41
0.1219
 42
0.0305
 43
1.0000
 50
180.0000
  0
INSERT
  8
22
  2
RECT
 10
45.0555
 20
6.0421
 30
0.0000
 41
0.1219
 42
0.0305
 43
1.0000
 50
180.0000
  0
INSERT
  8
22
  2
RECT
 10
43.8363
 20
6.0421
 30
0.0000
 41
0.8534
 42
0.0305
 43
1.0000
 50
180.0000
  0
INSERT
  8
22
  2
RECT
 10
43.0590
 20
6.0421
 30
0.0000
 41
0.1524
 42
0.0305
 43
1.0000
 50
180.0000
  0
INSERT
  8
22
  2
RECT
 10
42.7847
 20
6.0421
 30
0.0000
 41
0.1524
 42
0.0305
 43
1.0000
 50
180.0000
  0
INSERT
  8
22
  2
RECT
 10
41.8246
 20
6.0421
 30
0.0000
 41
0.1219
 42
0.0305
 43
1.0000
 50
180.0000
  0
INSERT
  8
22
  2
RECT
 10
45.0555
 20
6.0726
 30
0.0000
 41
0.1219
 42
0.0305
 43
1.0000
 50
180.0000
  0
INSERT
  8
22
  2
RECT
 10
44.2020
 20
6.0726
 30
0.0000
 41
0.1219
 42
0.0305
 43
1.0000
 50
180.0000
  0
INSERT
  8
22
  2
RECT
 10
43.8363
 20
6.0726
 30
0.0000
 41
0.1219
 42
0.0305
 43
1.0000
 50
180.0000
  0
INSERT
  8
22
  2
RECT
 10
43.4705
 20
6.0726
 30
0.0000
 41
0.1219
 42
0.0305
 43
1.0000
 50
180.0000
  0
INSERT
  8
22
  2
RECT
 10
43.0590
 20
6.0726
 30
0.0000
 41
0.1524
 42
0.0305
 43
1.0000
 50
180.0000
  0
INSERT
  8
22
  2
RECT
 10
42.7847
 20
6.0726
 30
0.0000
 41
0.1524
 42
0.0305
 43
1.0000
 50
180.0000
  0
INSERT
  8
22
  2
RECT
 10
41.8246
 20
6.0726
 30
0.0000
 41
0.1219
 42
0.0305
 43
1.0000
 50
180.0000
  0
INSERT
  8
22
  2
RECT
 10
45.0555
 20
6.1031
 30
0.0000
 41
0.1219
 42
0.0305
 43
1.0000
 50
180.0000
  0
INSERT
  8
22
  2
RECT
 10
44.2020
 20
6.1031
 30
0.0000
 41
0.1219
 42
0.0305
 43
1.0000
 50
180.0000
  0
INSERT
  8
22
  2
RECT
 10
43.8363
 20
6.1031
 30
0.0000
 41
0.1219
 42
0.0305
 43
1.0000
 50
180.0000
  0
INSERT
  8
22
  2
RECT
 10
43.4705
 20
6.1031
 30
0.0000
 41
0.1219
 42
0.0305
 43
1.0000
 50
180.0000
  0
INSERT
  8
22
  2
RECT
 10
43.0590
 20
6.1031
 30
0.0000
 41
0.1524
 42
0.0305
 43
1.0000
 50
180.0000
  0
INSERT
  8
22
  2
RECT
 10
42.7695
 20
6.1031
 30
0.0000
 41
0.1829
 42
0.0305
 43
1.0000
 50
180.0000
  0
INSERT
  8
22
  2
RECT
 10
41.8246
 20
6.1031
 30
0.0000
 41
0.1219
 42
0.0305
 43
1.0000
 50
180.0000
  0
INSERT
  8
22
  2
RECT
 10
45.0555
 20
6.1335
 30
0.0000
 41
0.1219
 42
0.0305
 43
1.0000
 50
180.0000
  0
INSERT
  8
22
  2
RECT
 10
44.2020
 20
6.1335
 30
0.0000
 41
0.1219
 42
0.0305
 43
1.0000
 50
180.0000
  0
INSERT
  8
22
  2
RECT
 10
43.8363
 20
6.1335
 30
0.0000
 41
0.1219
 42
0.0305
 43
1.0000
 50
180.0000
  0
INSERT
  8
22
  2
RECT
 10
43.4705
 20
6.1335
 30
0.0000
 41
0.1219
 42
0.0305
 43
1.0000
 50
180.0000
  0
INSERT
  8
22
  2
RECT
 10
43.0590
 20
6.1335
 30
0.0000
 41
0.1524
 42
0.0305
 43
1.0000
 50
180.0000
  0
INSERT
  8
22
  2
RECT
 10
42.7542
 20
6.1335
 30
0.0000
 41
0.1524
 42
0.0305
 43
1.0000
 50
180.0000
  0
INSERT
  8
22
  2
RECT
 10
41.8246
 20
6.1335
 30
0.0000
 41
0.1219
 42
0.0305
 43
1.0000
 50
180.0000
  0
INSERT
  8
22
  2
RECT
 10
45.0555
 20
6.1640
 30
0.0000
 41
0.1219
 42
0.0305
 43
1.0000
 50
180.0000
  0
INSERT
  8
22
  2
RECT
 10
44.2020
 20
6.1640
 30
0.0000
 41
0.1219
 42
0.0305
 43
1.0000
 50
180.0000
  0
INSERT
  8
22
  2
RECT
 10
43.8363
 20
6.1640
 30
0.0000
 41
0.1219
 42
0.0305
 43
1.0000
 50
180.0000
  0
INSERT
  8
22
  2
RECT
 10
43.4705
 20
6.1640
 30
0.0000
 41
0.1219
 42
0.0305
 43
1.0000
 50
180.0000
  0
INSERT
  8
22
  2
RECT
 10
43.0895
 20
6.1640
 30
0.0000
 41
0.1524
 42
0.0305
 43
1.0000
 50
180.0000
  0
INSERT
  8
22
  2
RECT
 10
42.7542
 20
6.1640
 30
0.0000
 41
0.1524
 42
0.0305
 43
1.0000
 50
180.0000
  0
INSERT
  8
22
  2
RECT
 10
41.8246
 20
6.1640
 30
0.0000
 41
0.1219
 42
0.0305
 43
1.0000
 50
180.0000
  0
INSERT
  8
22
  2
RECT
 10
45.0555
 20
6.1945
 30
0.0000
 41
0.1219
 42
0.0305
 43
1.0000
 50
180.0000
  0
INSERT
  8
22
  2
RECT
 10
44.2020
 20
6.1945
 30
0.0000
 41
0.1219
 42
0.0305
 43
1.0000
 50
180.0000
  0
INSERT
  8
22
  2
RECT
 10
43.8363
 20
6.1945
 30
0.0000
 41
0.1219
 42
0.0305
 43
1.0000
 50
180.0000
  0
INSERT
  8
22
  2
RECT
 10
43.4705
 20
6.1945
 30
0.0000
 41
0.1219
 42
0.0305
 43
1.0000
 50
180.0000
  0
INSERT
  8
22
  2
RECT
 10
43.0895
 20
6.1945
 30
0.0000
 41
0.1524
 42
0.0305
 43
1.0000
 50
180.0000
  0
INSERT
  8
22
  2
RECT
 10
42.7238
 20
6.1945
 30
0.0000
 41
0.1524
 42
0.0305
 43
1.0000
 50
180.0000
  0
INSERT
  8
22
  2
RECT
 10
41.8246
 20
6.1945
 30
0.0000
 41
0.1219
 42
0.0305
 43
1.0000
 50
180.0000
  0
INSERT
  8
22
  2
RECT
 10
45.0555
 20
6.2250
 30
0.0000
 41
0.1219
 42
0.0305
 43
1.0000
 50
180.0000
  0
INSERT
  8
22
  2
RECT
 10
43.8363
 20
6.2250
 30
0.0000
 41
0.8534
 42
0.0305
 43
1.0000
 50
180.0000
  0
INSERT
  8
22
  2
RECT
 10
43.0895
 20
6.2250
 30
0.0000
 41
0.1524
 42
0.0305
 43
1.0000
 50
180.0000
  0
INSERT
  8
22
  2
RECT
 10
42.7238
 20
6.2250
 30
0.0000
 41
0.1524
 42
0.0305
 43
1.0000
 50
180.0000
  0
INSERT
  8
22
  2
RECT
 10
41.8246
 20
6.2250
 30
0.0000
 41
0.1219
 42
0.0305
 43
1.0000
 50
180.0000
  0
INSERT
  8
22
  2
RECT
 10
45.0555
 20
6.2555
 30
0.0000
 41
0.1219
 42
0.0305
 43
1.0000
 50
180.0000
  0
INSERT
  8
22
  2
RECT
 10
43.8363
 20
6.2555
 30
0.0000
 41
0.8534
 42
0.0305
 43
1.0000
 50
180.0000
  0
INSERT
  8
22
  2
RECT
 10
43.0895
 20
6.2555
 30
0.0000
 41
0.1524
 42
0.0305
 43
1.0000
 50
180.0000
  0
INSERT
  8
22
  2
RECT
 10
42.7542
 20
6.2555
 30
0.0000
 41
0.0914
 42
0.0305
 43
1.0000
 50
180.0000
  0
INSERT
  8
22
  2
RECT
 10
41.8246
 20
6.2555
 30
0.0000
 41
0.1219
 42
0.0305
 43
1.0000
 50
180.0000
  0
INSERT
  8
22
  2
RECT
 10
45.0555
 20
6.2859
 30
0.0000
 41
0.1219
 42
0.0305
 43
1.0000
 50
180.0000
  0
INSERT
  8
22
  2
RECT
 10
43.8363
 20
6.2859
 30
0.0000
 41
0.8534
 42
0.0305
 43
1.0000
 50
180.0000
  0
INSERT
  8
22
  2
RECT
 10
43.0895
 20
6.2859
 30
0.0000
 41
0.1524
 42
0.0305
 43
1.0000
 50
180.0000
  0
INSERT
  8
22
  2
RECT
 10
41.8246
 20
6.2859
 30
0.0000
 41
0.1219
 42
0.0305
 43
1.0000
 50
180.0000
  0
INSERT
  8
22
  2
RECT
 10
45.0555
 20
6.3164
 30
0.0000
 41
0.1219
 42
0.0305
 43
1.0000
 50
180.0000
  0
INSERT
  8
22
  2
RECT
 10
43.8363
 20
6.3164
 30
0.0000
 41
0.8534
 42
0.0305
 43
1.0000
 50
180.0000
  0
INSERT
  8
22
  2
RECT
 10
43.0895
 20
6.3164
 30
0.0000
 41
0.1524
 42
0.0305
 43
1.0000
 50
180.0000
  0
INSERT
  8
22
  2
RECT
 10
41.8246
 20
6.3164
 30
0.0000
 41
0.1219
 42
0.0305
 43
1.0000
 50
180.0000
  0
INSERT
  8
22
  2
RECT
 10
45.0555
 20
6.3469
 30
0.0000
 41
0.1219
 42
0.0305
 43
1.0000
 50
180.0000
  0
INSERT
  8
22
  2
RECT
 10
44.1868
 20
6.3469
 30
0.0000
 41
0.1524
 42
0.0305
 43
1.0000
 50
180.0000
  0
INSERT
  8
22
  2
RECT
 10
43.8363
 20
6.3469
 30
0.0000
 41
0.1219
 42
0.0305
 43
1.0000
 50
180.0000
  0
INSERT
  8
22
  2
RECT
 10
43.4705
 20
6.3469
 30
0.0000
 41
0.1219
 42
0.0305
 43
1.0000
 50
180.0000
  0
INSERT
  8
22
  2
RECT
 10
43.0895
 20
6.3469
 30
0.0000
 41
0.1524
 42
0.0305
 43
1.0000
 50
180.0000
  0
INSERT
  8
22
  2
RECT
 10
41.8246
 20
6.3469
 30
0.0000
 41
0.1219
 42
0.0305
 43
1.0000
 50
180.0000
  0
INSERT
  8
22
  2
RECT
 10
45.0555
 20
6.3774
 30
0.0000
 41
0.1219
 42
0.0305
 43
1.0000
 50
180.0000
  0
INSERT
  8
22
  2
RECT
 10
44.2020
 20
6.3774
 30
0.0000
 41
0.1219
 42
0.0305
 43
1.0000
 50
180.0000
  0
INSERT
  8
22
  2
RECT
 10
43.8363
 20
6.3774
 30
0.0000
 41
0.1219
 42
0.0305
 43
1.0000
 50
180.0000
  0
INSERT
  8
22
  2
RECT
 10
43.4705
 20
6.3774
 30
0.0000
 41
0.1219
 42
0.0305
 43
1.0000
 50
180.0000
  0
INSERT
  8
22
  2
RECT
 10
43.1657
 20
6.3774
 30
0.0000
 41
0.3048
 42
0.0305
 43
1.0000
 50
180.0000
  0
INSERT
  8
22
  2
RECT
 10
41.8246
 20
6.3774
 30
0.0000
 41
0.1219
 42
0.0305
 43
1.0000
 50
180.0000
  0
INSERT
  8
22
  2
RECT
 10
45.0555
 20
6.4079
 30
0.0000
 41
0.1219
 42
0.0305
 43
1.0000
 50
180.0000
  0
INSERT
  8
22
  2
RECT
 10
44.2020
 20
6.4079
 30
0.0000
 41
0.1219
 42
0.0305
 43
1.0000
 50
180.0000
  0
INSERT
  8
22
  2
RECT
 10
43.8363
 20
6.4079
 30
0.0000
 41
0.1219
 42
0.0305
 43
1.0000
 50
180.0000
  0
INSERT
  8
22
  2
RECT
 10
43.4705
 20
6.4079
 30
0.0000
 41
0.1219
 42
0.0305
 43
1.0000
 50
180.0000
  0
INSERT
  8
22
  2
RECT
 10
42.9981
 20
6.4079
 30
0.0000
 41
0.6401
 42
0.0305
 43
1.0000
 50
180.0000
  0
INSERT
  8
22
  2
RECT
 10
41.8246
 20
6.4079
 30
0.0000
 41
0.1219
 42
0.0305
 43
1.0000
 50
180.0000
  0
INSERT
  8
22
  2
RECT
 10
45.0555
 20
6.4383
 30
0.0000
 41
0.1219
 42
0.0305
 43
1.0000
 50
180.0000
  0
INSERT
  8
22
  2
RECT
 10
44.2020
 20
6.4383
 30
0.0000
 41
0.1219
 42
0.0305
 43
1.0000
 50
180.0000
  0
INSERT
  8
22
  2
RECT
 10
43.8363
 20
6.4383
 30
0.0000
 41
0.1219
 42
0.0305
 43
1.0000
 50
180.0000
  0
INSERT
  8
22
  2
RECT
 10
43.4705
 20
6.4383
 30
0.0000
 41
0.1219
 42
0.0305
 43
1.0000
 50
180.0000
  0
INSERT
  8
22
  2
RECT
 10
42.9524
 20
6.4383
 30
0.0000
 41
0.7315
 42
0.0305
 43
1.0000
 50
180.0000
  0
INSERT
  8
22
  2
RECT
 10
41.8246
 20
6.4383
 30
0.0000
 41
0.1219
 42
0.0305
 43
1.0000
 50
180.0000
  0
INSERT
  8
22
  2
RECT
 10
45.0555
 20
6.4688
 30
0.0000
 41
0.1219
 42
0.0305
 43
1.0000
 50
180.0000
  0
INSERT
  8
22
  2
RECT
 10
44.2020
 20
6.4688
 30
0.0000
 41
0.1219
 42
0.0305
 43
1.0000
 50
180.0000
  0
INSERT
  8
22
  2
RECT
 10
43.8363
 20
6.4688
 30
0.0000
 41
0.1219
 42
0.0305
 43
1.0000
 50
180.0000
  0
INSERT
  8
22
  2
RECT
 10
43.4705
 20
6.4688
 30
0.0000
 41
0.1219
 42
0.0305
 43
1.0000
 50
180.0000
  0
INSERT
  8
22
  2
RECT
 10
42.9524
 20
6.4688
 30
0.0000
 41
0.7315
 42
0.0305
 43
1.0000
 50
180.0000
  0
INSERT
  8
22
  2
RECT
 10
41.8246
 20
6.4688
 30
0.0000
 41
0.1219
 42
0.0305
 43
1.0000
 50
180.0000
  0
INSERT
  8
22
  2
RECT
 10
45.0555
 20
6.4993
 30
0.0000
 41
0.1219
 42
0.0305
 43
1.0000
 50
180.0000
  0
INSERT
  8
22
  2
RECT
 10
43.8363
 20
6.4993
 30
0.0000
 41
0.8534
 42
0.0305
 43
1.0000
 50
180.0000
  0
INSERT
  8
22
  2
RECT
 10
42.9524
 20
6.4993
 30
0.0000
 41
0.7315
 42
0.0305
 43
1.0000
 50
180.0000
  0
INSERT
  8
22
  2
RECT
 10
41.8246
 20
6.4993
 30
0.0000
 41
0.1219
 42
0.0305
 43
1.0000
 50
180.0000
  0
INSERT
  8
22
  2
RECT
 10
45.0555
 20
6.5298
 30
0.0000
 41
0.1219
 42
0.0305
 43
1.0000
 50
180.0000
  0
INSERT
  8
22
  2
RECT
 10
43.8363
 20
6.5298
 30
0.0000
 41
0.8534
 42
0.0305
 43
1.0000
 50
180.0000
  0
INSERT
  8
22
  2
RECT
 10
42.8914
 20
6.5298
 30
0.0000
 41
0.6096
 42
0.0305
 43
1.0000
 50
180.0000
  0
INSERT
  8
22
  2
RECT
 10
41.8246
 20
6.5298
 30
0.0000
 41
0.1219
 42
0.0305
 43
1.0000
 50
180.0000
  0
INSERT
  8
22
  2
RECT
 10
45.0555
 20
6.5602
 30
0.0000
 41
0.1219
 42
0.0305
 43
1.0000
 50
180.0000
  0
INSERT
  8
22
  2
RECT
 10
43.8363
 20
6.5602
 30
0.0000
 41
0.8534
 42
0.0305
 43
1.0000
 50
180.0000
  0
INSERT
  8
22
  2
RECT
 10
43.0895
 20
6.5602
 30
0.0000
 41
0.1524
 42
0.0305
 43
1.0000
 50
180.0000
  0
INSERT
  8
22
  2
RECT
 10
41.8246
 20
6.5602
 30
0.0000
 41
0.1219
 42
0.0305
 43
1.0000
 50
180.0000
  0
INSERT
  8
22
  2
RECT
 10
45.0555
 20
6.5907
 30
0.0000
 41
0.1219
 42
0.0305
 43
1.0000
 50
180.0000
  0
INSERT
  8
22
  2
RECT
 10
43.8363
 20
6.5907
 30
0.0000
 41
0.8534
 42
0.0305
 43
1.0000
 50
180.0000
  0
INSERT
  8
22
  2
RECT
 10
43.0895
 20
6.5907
 30
0.0000
 41
0.1524
 42
0.0305
 43
1.0000
 50
180.0000
  0
INSERT
  8
22
  2
RECT
 10
41.8246
 20
6.5907
 30
0.0000
 41
0.1219
 42
0.0305
 43
1.0000
 50
180.0000
  0
INSERT
  8
22
  2
RECT
 10
45.0555
 20
6.6212
 30
0.0000
 41
0.1219
 42
0.0305
 43
1.0000
 50
180.0000
  0
INSERT
  8
22
  2
RECT
 10
43.0895
 20
6.6212
 30
0.0000
 41
0.1524
 42
0.0305
 43
1.0000
 50
180.0000
  0
INSERT
  8
22
  2
RECT
 10
41.8246
 20
6.6212
 30
0.0000
 41
0.1219
 42
0.0305
 43
1.0000
 50
180.0000
  0
INSERT
  8
22
  2
RECT
 10
45.0555
 20
6.6517
 30
0.0000
 41
0.1219
 42
0.0305
 43
1.0000
 50
180.0000
  0
INSERT
  8
22
  2
RECT
 10
43.0895
 20
6.6517
 30
0.0000
 41
0.1524
 42
0.0305
 43
1.0000
 50
180.0000
  0
INSERT
  8
22
  2
RECT
 10
42.8000
 20
6.6517
 30
0.0000
 41
0.0610
 42
0.0305
 43
1.0000
 50
180.0000
  0
INSERT
  8
22
  2
RECT
 10
41.8246
 20
6.6517
 30
0.0000
 41
0.1219
 42
0.0305
 43
1.0000
 50
180.0000
  0
INSERT
  8
22
  2
RECT
 10
45.0555
 20
6.6822
 30
0.0000
 41
0.1219
 42
0.0305
 43
1.0000
 50
180.0000
  0
INSERT
  8
22
  2
RECT
 10
44.1563
 20
6.6822
 30
0.0000
 41
0.0305
 42
0.0305
 43
1.0000
 50
180.0000
  0
INSERT
  8
22
  2
RECT
 10
43.5315
 20
6.6822
 30
0.0000
 41
0.0610
 42
0.0305
 43
1.0000
 50
180.0000
  0
INSERT
  8
22
  2
RECT
 10
43.0895
 20
6.6822
 30
0.0000
 41
0.1524
 42
0.0305
 43
1.0000
 50
180.0000
  0
INSERT
  8
22
  2
RECT
 10
42.7695
 20
6.6822
 30
0.0000
 41
0.1219
 42
0.0305
 43
1.0000
 50
180.0000
  0
INSERT
  8
22
  2
RECT
 10
41.8246
 20
6.6822
 30
0.0000
 41
0.1219
 42
0.0305
 43
1.0000
 50
180.0000
  0
INSERT
  8
22
  2
RECT
 10
45.0555
 20
6.7127
 30
0.0000
 41
0.1219
 42
0.0305
 43
1.0000
 50
180.0000
  0
INSERT
  8
22
  2
RECT
 10
44.1411
 20
6.7127
 30
0.0000
 41
0.1219
 42
0.0305
 43
1.0000
 50
180.0000
  0
INSERT
  8
22
  2
RECT
 10
43.8363
 20
6.7127
 30
0.0000
 41
0.0610
 42
0.0305
 43
1.0000
 50
180.0000
  0
INSERT
  8
22
  2
RECT
 10
43.5467
 20
6.7127
 30
0.0000
 41
0.1524
 42
0.0305
 43
1.0000
 50
180.0000
  0
INSERT
  8
22
  2
RECT
 10
43.0895
 20
6.7127
 30
0.0000
 41
0.1524
 42
0.0305
 43
1.0000
 50
180.0000
  0
INSERT
  8
22
  2
RECT
 10
42.7695
 20
6.7127
 30
0.0000
 41
0.1829
 42
0.0305
 43
1.0000
 50
180.0000
  0
INSERT
  8
22
  2
RECT
 10
41.8246
 20
6.7127
 30
0.0000
 41
0.1219
 42
0.0305
 43
1.0000
 50
180.0000
  0
INSERT
  8
22
  2
RECT
 10
45.0555
 20
6.7431
 30
0.0000
 41
0.1219
 42
0.0305
 43
1.0000
 50
180.0000
  0
INSERT
  8
22
  2
RECT
 10
44.1258
 20
6.7431
 30
0.0000
 41
0.2134
 42
0.0305
 43
1.0000
 50
180.0000
  0
INSERT
  8
22
  2
RECT
 10
43.8363
 20
6.7431
 30
0.0000
 41
0.1219
 42
0.0305
 43
1.0000
 50
180.0000
  0
INSERT
  8
22
  2
RECT
 10
43.5620
 20
6.7431
 30
0.0000
 41
0.1829
 42
0.0305
 43
1.0000
 50
180.0000
  0
INSERT
  8
22
  2
RECT
 10
43.0895
 20
6.7431
 30
0.0000
 41
0.1524
 42
0.0305
 43
1.0000
 50
180.0000
  0
INSERT
  8
22
  2
RECT
 10
42.7695
 20
6.7431
 30
0.0000
 41
0.1829
 42
0.0305
 43
1.0000
 50
180.0000
  0
INSERT
  8
22
  2
RECT
 10
41.8246
 20
6.7431
 30
0.0000
 41
0.1219
 42
0.0305
 43
1.0000
 50
180.0000
  0
INSERT
  8
22
  2
RECT
 10
45.0555
 20
6.7736
 30
0.0000
 41
0.1219
 42
0.0305
 43
1.0000
 50
180.0000
  0
INSERT
  8
22
  2
RECT
 10
44.1411
 20
6.7736
 30
0.0000
 41
0.1829
 42
0.0305
 43
1.0000
 50
180.0000
  0
INSERT
  8
22
  2
RECT
 10
43.8058
 20
6.7736
 30
0.0000
 41
0.1829
 42
0.0305
 43
1.0000
 50
180.0000
  0
INSERT
  8
22
  2
RECT
 10
43.5315
 20
6.7736
 30
0.0000
 41
0.1829
 42
0.0305
 43
1.0000
 50
180.0000
  0
INSERT
  8
22
  2
RECT
 10
43.0895
 20
6.7736
 30
0.0000
 41
0.1524
 42
0.0305
 43
1.0000
 50
180.0000
  0
INSERT
  8
22
  2
RECT
 10
42.8000
 20
6.7736
 30
0.0000
 41
0.1829
 42
0.0305
 43
1.0000
 50
180.0000
  0
INSERT
  8
22
  2
RECT
 10
41.8246
 20
6.7736
 30
0.0000
 41
0.1219
 42
0.0305
 43
1.0000
 50
180.0000
  0
INSERT
  8
22
  2
RECT
 10
45.0555
 20
6.8041
 30
0.0000
 41
0.1219
 42
0.0305
 43
1.0000
 50
180.0000
  0
INSERT
  8
22
  2
RECT
 10
44.1716
 20
6.8041
 30
0.0000
 41
0.1829
 42
0.0305
 43
1.0000
 50
180.0000
  0
INSERT
  8
22
  2
RECT
 10
43.8363
 20
6.8041
 30
0.0000
 41
0.1829
 42
0.0305
 43
1.0000
 50
180.0000
  0
INSERT
  8
22
  2
RECT
 10
43.5315
 20
6.8041
 30
0.0000
 41
0.1829
 42
0.0305
 43
1.0000
 50
180.0000
  0
INSERT
  8
22
  2
RECT
 10
43.0895
 20
6.8041
 30
0.0000
 41
0.1524
 42
0.0305
 43
1.0000
 50
180.0000
  0
INSERT
  8
22
  2
RECT
 10
42.8304
 20
6.8041
 30
0.0000
 41
0.1829
 42
0.0305
 43
1.0000
 50
180.0000
  0
INSERT
  8
22
  2
RECT
 10
41.8246
 20
6.8041
 30
0.0000
 41
0.1219
 42
0.0305
 43
1.0000
 50
180.0000
  0
INSERT
  8
22
  2
RECT
 10
45.0555
 20
6.8346
 30
0.0000
 41
0.1219
 42
0.0305
 43
1.0000
 50
180.0000
  0
INSERT
  8
22
  2
RECT
 10
44.1716
 20
6.8346
 30
0.0000
 41
0.1829
 42
0.0305
 43
1.0000
 50
180.0000
  0
INSERT
  8
22
  2
RECT
 10
43.8363
 20
6.8346
 30
0.0000
 41
0.1829
 42
0.0305
 43
1.0000
 50
180.0000
  0
INSERT
  8
22
  2
RECT
 10
43.5010
 20
6.8346
 30
0.0000
 41
0.1829
 42
0.0305
 43
1.0000
 50
180.0000
  0
INSERT
  8
22
  2
RECT
 10
43.0895
 20
6.8346
 30
0.0000
 41
0.1524
 42
0.0305
 43
1.0000
 50
180.0000
  0
INSERT
  8
22
  2
RECT
 10
42.8304
 20
6.8346
 30
0.0000
 41
0.1829
 42
0.0305
 43
1.0000
 50
180.0000
  0
INSERT
  8
22
  2
RECT
 10
41.8246
 20
6.8346
 30
0.0000
 41
0.1219
 42
0.0305
 43
1.0000
 50
180.0000
  0
INSERT
  8
22
  2
RECT
 10
45.0555
 20
6.8651
 30
0.0000
 41
0.1219
 42
0.0305
 43
1.0000
 50
180.0000
  0
INSERT
  8
22
  2
RECT
 10
44.2020
 20
6.8651
 30
0.0000
 41
0.1829
 42
0.0305
 43
1.0000
 50
180.0000
  0
INSERT
  8
22
  2
RECT
 10
43.8668
 20
6.8651
 30
0.0000
 41
0.1829
 42
0.0305
 43
1.0000
 50
180.0000
  0
INSERT
  8
22
  2
RECT
 10
43.5010
 20
6.8651
 30
0.0000
 41
0.1829
 42
0.0305
 43
1.0000
 50
180.0000
  0
INSERT
  8
22
  2
RECT
 10
43.0895
 20
6.8651
 30
0.0000
 41
0.1524
 42
0.0305
 43
1.0000
 50
180.0000
  0
INSERT
  8
22
  2
RECT
 10
42.8609
 20
6.8651
 30
0.0000
 41
0.1829
 42
0.0305
 43
1.0000
 50
180.0000
  0
INSERT
  8
22
  2
RECT
 10
41.8246
 20
6.8651
 30
0.0000
 41
0.1219
 42
0.0305
 43
1.0000
 50
180.0000
  0
INSERT
  8
22
  2
RECT
 10
45.0555
 20
6.8955
 30
0.0000
 41
0.1219
 42
0.0305
 43
1.0000
 50
180.0000
  0
INSERT
  8
22
  2
RECT
 10
44.2325
 20
6.8955
 30
0.0000
 41
0.1829
 42
0.0305
 43
1.0000
 50
180.0000
  0
INSERT
  8
22
  2
RECT
 10
43.8820
 20
6.8955
 30
0.0000
 41
0.2134
 42
0.0305
 43
1.0000
 50
180.0000
  0
INSERT
  8
22
  2
RECT
 10
43.4705
 20
6.8955
 30
0.0000
 41
0.1829
 42
0.0305
 43
1.0000
 50
180.0000
  0
INSERT
  8
22
  2
RECT
 10
43.0895
 20
6.8955
 30
0.0000
 41
0.1524
 42
0.0305
 43
1.0000
 50
180.0000
  0
INSERT
  8
22
  2
RECT
 10
42.8762
 20
6.8955
 30
0.0000
 41
0.1524
 42
0.0305
 43
1.0000
 50
180.0000
  0
INSERT
  8
22
  2
RECT
 10
41.8246
 20
6.8955
 30
0.0000
 41
0.1219
 42
0.0305
 43
1.0000
 50
180.0000
  0
INSERT
  8
22
  2
RECT
 10
45.0555
 20
6.9260
 30
0.0000
 41
0.1219
 42
0.0305
 43
1.0000
 50
180.0000
  0
INSERT
  8
22
  2
RECT
 10
44.2325
 20
6.9260
 30
0.0000
 41
0.1829
 42
0.0305
 43
1.0000
 50
180.0000
  0
INSERT
  8
22
  2
RECT
 10
43.8972
 20
6.9260
 30
0.0000
 41
0.1829
 42
0.0305
 43
1.0000
 50
180.0000
  0
INSERT
  8
22
  2
RECT
 10
43.4553
 20
6.9260
 30
0.0000
 41
0.2134
 42
0.0305
 43
1.0000
 50
180.0000
  0
INSERT
  8
22
  2
RECT
 10
43.0895
 20
6.9260
 30
0.0000
 41
0.1524
 42
0.0305
 43
1.0000
 50
180.0000
  0
INSERT
  8
22
  2
RECT
 10
42.8457
 20
6.9260
 30
0.0000
 41
0.0914
 42
0.0305
 43
1.0000
 50
180.0000
  0
INSERT
  8
22
  2
RECT
 10
41.8246
 20
6.9260
 30
0.0000
 41
0.1219
 42
0.0305
 43
1.0000
 50
180.0000
  0
INSERT
  8
22
  2
RECT
 10
45.0555
 20
6.9565
 30
0.0000
 41
0.1219
 42
0.0305
 43
1.0000
 50
180.0000
  0
INSERT
  8
22
  2
RECT
 10
44.2173
 20
6.9565
 30
0.0000
 41
0.0914
 42
0.0305
 43
1.0000
 50
180.0000
  0
INSERT
  8
22
  2
RECT
 10
43.9277
 20
6.9565
 30
0.0000
 41
0.1829
 42
0.0305
 43
1.0000
 50
180.0000
  0
INSERT
  8
22
  2
RECT
 10
43.4400
 20
6.9565
 30
0.0000
 41
0.1829
 42
0.0305
 43
1.0000
 50
180.0000
  0
INSERT
  8
22
  2
RECT
 10
43.0895
 20
6.9565
 30
0.0000
 41
0.1524
 42
0.0305
 43
1.0000
 50
180.0000
  0
INSERT
  8
22
  2
RECT
 10
42.8457
 20
6.9565
 30
0.0000
 41
0.0305
 42
0.0305
 43
1.0000
 50
180.0000
  0
INSERT
  8
22
  2
RECT
 10
41.8246
 20
6.9565
 30
0.0000
 41
0.1219
 42
0.0305
 43
1.0000
 50
180.0000
  0
INSERT
  8
22
  2
RECT
 10
45.0555
 20
6.9870
 30
0.0000
 41
0.1219
 42
0.0305
 43
1.0000
 50
180.0000
  0
INSERT
  8
22
  2
RECT
 10
43.9125
 20
6.9870
 30
0.0000
 41
0.0914
 42
0.0305
 43
1.0000
 50
180.0000
  0
INSERT
  8
22
  2
RECT
 10
43.4705
 20
6.9870
 30
0.0000
 41
0.1219
 42
0.0305
 43
1.0000
 50
180.0000
  0
INSERT
  8
22
  2
RECT
 10
43.0895
 20
6.9870
 30
0.0000
 41
0.1524
 42
0.0305
 43
1.0000
 50
180.0000
  0
INSERT
  8
22
  2
RECT
 10
41.8246
 20
6.9870
 30
0.0000
 41
0.1219
 42
0.0305
 43
1.0000
 50
180.0000
  0
INSERT
  8
22
  2
RECT
 10
45.0555
 20
7.0175
 30
0.0000
 41
0.1219
 42
0.0305
 43
1.0000
 50
180.0000
  0
INSERT
  8
22
  2
RECT
 10
43.8972
 20
7.0175
 30
0.0000
 41
0.0610
 42
0.0305
 43
1.0000
 50
180.0000
  0
INSERT
  8
22
  2
RECT
 10
43.4858
 20
7.0175
 30
0.0000
 41
0.0305
 42
0.0305
 43
1.0000
 50
180.0000
  0
INSERT
  8
22
  2
RECT
 10
43.0895
 20
7.0175
 30
0.0000
 41
0.1524
 42
0.0305
 43
1.0000
 50
180.0000
  0
INSERT
  8
22
  2
RECT
 10
41.8246
 20
7.0175
 30
0.0000
 41
0.1219
 42
0.0305
 43
1.0000
 50
180.0000
  0
INSERT
  8
22
  2
RECT
 10
45.0555
 20
7.0479
 30
0.0000
 41
0.1219
 42
0.0305
 43
1.0000
 50
180.0000
  0
INSERT
  8
22
  2
RECT
 10
41.8246
 20
7.0479
 30
0.0000
 41
0.1219
 42
0.0305
 43
1.0000
 50
180.0000
  0
INSERT
  8
22
  2
RECT
 10
45.0555
 20
7.0784
 30
0.0000
 41
0.1219
 42
0.0305
 43
1.0000
 50
180.0000
  0
INSERT
  8
22
  2
RECT
 10
41.8246
 20
7.0784
 30
0.0000
 41
0.1219
 42
0.0305
 43
1.0000
 50
180.0000
  0
INSERT
  8
22
  2
RECT
 10
45.0555
 20
7.1089
 30
0.0000
 41
0.1219
 42
0.0305
 43
1.0000
 50
180.0000
  0
INSERT
  8
22
  2
RECT
 10
41.8246
 20
7.1089
 30
0.0000
 41
0.1219
 42
0.0305
 43
1.0000
 50
180.0000
  0
INSERT
  8
22
  2
RECT
 10
45.0555
 20
7.1394
 30
0.0000
 41
0.1219
 42
0.0305
 43
1.0000
 50
180.0000
  0
INSERT
  8
22
  2
RECT
 10
41.8246
 20
7.1394
 30
0.0000
 41
0.1219
 42
0.0305
 43
1.0000
 50
180.0000
  0
INSERT
  8
22
  2
RECT
 10
45.0555
 20
7.1699
 30
0.0000
 41
0.1219
 42
0.0305
 43
1.0000
 50
180.0000
  0
INSERT
  8
22
  2
RECT
 10
41.8246
 20
7.1699
 30
0.0000
 41
0.1219
 42
0.0305
 43
1.0000
 50
180.0000
  0
INSERT
  8
22
  2
RECT
 10
45.0555
 20
7.2003
 30
0.0000
 41
0.1219
 42
0.0305
 43
1.0000
 50
180.0000
  0
INSERT
  8
22
  2
RECT
 10
41.8246
 20
7.2003
 30
0.0000
 41
0.1219
 42
0.0305
 43
1.0000
 50
180.0000
  0
INSERT
  8
22
  2
RECT
 10
45.0555
 20
7.2308
 30
0.0000
 41
0.1219
 42
0.0305
 43
1.0000
 50
180.0000
  0
INSERT
  8
22
  2
RECT
 10
41.8246
 20
7.2308
 30
0.0000
 41
0.1219
 42
0.0305
 43
1.0000
 50
180.0000
  0
INSERT
  8
22
  2
RECT
 10
45.0555
 20
7.2613
 30
0.0000
 41
0.1219
 42
0.0305
 43
1.0000
 50
180.0000
  0
INSERT
  8
22
  2
RECT
 10
41.8246
 20
7.2613
 30
0.0000
 41
0.1219
 42
0.0305
 43
1.0000
 50
180.0000
  0
INSERT
  8
22
  2
RECT
 10
45.0555
 20
7.2918
 30
0.0000
 41
0.1219
 42
0.0305
 43
1.0000
 50
180.0000
  0
INSERT
  8
22
  2
RECT
 10
41.8246
 20
7.2918
 30
0.0000
 41
0.1219
 42
0.0305
 43
1.0000
 50
180.0000
  0
INSERT
  8
22
  2
RECT
 10
45.0555
 20
7.3223
 30
0.0000
 41
0.1219
 42
0.0305
 43
1.0000
 50
180.0000
  0
INSERT
  8
22
  2
RECT
 10
41.8246
 20
7.3223
 30
0.0000
 41
0.1219
 42
0.0305
 43
1.0000
 50
180.0000
  0
INSERT
  8
22
  2
RECT
 10
45.0555
 20
7.3527
 30
0.0000
 41
0.1219
 42
0.0305
 43
1.0000
 50
180.0000
  0
INSERT
  8
22
  2
RECT
 10
41.8246
 20
7.3527
 30
0.0000
 41
0.1219
 42
0.0305
 43
1.0000
 50
180.0000
  0
INSERT
  8
22
  2
RECT
 10
45.0555
 20
7.3832
 30
0.0000
 41
0.1219
 42
0.0305
 43
1.0000
 50
180.0000
  0
INSERT
  8
22
  2
RECT
 10
41.8246
 20
7.3832
 30
0.0000
 41
0.1219
 42
0.0305
 43
1.0000
 50
180.0000
  0
INSERT
  8
22
  2
RECT
 10
45.0555
 20
7.4137
 30
0.0000
 41
0.1219
 42
0.0305
 43
1.0000
 50
180.0000
  0
INSERT
  8
22
  2
RECT
 10
41.8246
 20
7.4137
 30
0.0000
 41
0.1219
 42
0.0305
 43
1.0000
 50
180.0000
  0
INSERT
  8
22
  2
RECT
 10
45.0555
 20
7.4442
 30
0.0000
 41
0.1219
 42
0.0305
 43
1.0000
 50
180.0000
  0
INSERT
  8
22
  2
RECT
 10
41.8246
 20
7.4442
 30
0.0000
 41
0.1219
 42
0.0305
 43
1.0000
 50
180.0000
  0
INSERT
  8
22
  2
RECT
 10
45.0555
 20
7.4747
 30
0.0000
 41
0.1219
 42
0.0305
 43
1.0000
 50
180.0000
  0
INSERT
  8
22
  2
RECT
 10
41.8246
 20
7.4747
 30
0.0000
 41
0.1219
 42
0.0305
 43
1.0000
 50
180.0000
  0
INSERT
  8
22
  2
RECT
 10
45.0555
 20
7.5051
 30
0.0000
 41
0.1219
 42
0.0305
 43
1.0000
 50
180.0000
  0
INSERT
  8
22
  2
RECT
 10
41.8246
 20
7.5051
 30
0.0000
 41
0.1219
 42
0.0305
 43
1.0000
 50
180.0000
  0
INSERT
  8
22
  2
RECT
 10
45.0555
 20
7.5356
 30
0.0000
 41
0.1219
 42
0.0305
 43
1.0000
 50
180.0000
  0
INSERT
  8
22
  2
RECT
 10
41.8246
 20
7.5356
 30
0.0000
 41
0.1219
 42
0.0305
 43
1.0000
 50
180.0000
  0
INSERT
  8
22
  2
RECT
 10
45.0555
 20
7.5661
 30
0.0000
 41
0.1219
 42
0.0305
 43
1.0000
 50
180.0000
  0
INSERT
  8
22
  2
RECT
 10
41.8246
 20
7.5661
 30
0.0000
 41
0.1219
 42
0.0305
 43
1.0000
 50
180.0000
  0
INSERT
  8
22
  2
RECT
 10
45.0555
 20
7.5966
 30
0.0000
 41
0.1219
 42
0.0305
 43
1.0000
 50
180.0000
  0
INSERT
  8
22
  2
RECT
 10
41.8246
 20
7.5966
 30
0.0000
 41
0.1219
 42
0.0305
 43
1.0000
 50
180.0000
  0
INSERT
  8
22
  2
RECT
 10
45.0555
 20
7.6271
 30
0.0000
 41
0.1219
 42
0.0305
 43
1.0000
 50
180.0000
  0
INSERT
  8
22
  2
RECT
 10
41.8246
 20
7.6271
 30
0.0000
 41
0.1219
 42
0.0305
 43
1.0000
 50
180.0000
  0
INSERT
  8
22
  2
RECT
 10
45.0555
 20
7.6575
 30
0.0000
 41
0.1219
 42
0.0305
 43
1.0000
 50
180.0000
  0
INSERT
  8
22
  2
RECT
 10
41.8246
 20
7.6575
 30
0.0000
 41
0.1219
 42
0.0305
 43
1.0000
 50
180.0000
  0
INSERT
  8
22
  2
RECT
 10
45.0555
 20
7.6880
 30
0.0000
 41
0.1219
 42
0.0305
 43
1.0000
 50
180.0000
  0
INSERT
  8
22
  2
RECT
 10
41.8246
 20
7.6880
 30
0.0000
 41
0.1219
 42
0.0305
 43
1.0000
 50
180.0000
  0
INSERT
  8
22
  2
RECT
 10
45.0555
 20
7.7185
 30
0.0000
 41
0.1219
 42
0.0305
 43
1.0000
 50
180.0000
  0
INSERT
  8
22
  2
RECT
 10
41.8246
 20
7.7185
 30
0.0000
 41
0.1219
 42
0.0305
 43
1.0000
 50
180.0000
  0
INSERT
  8
22
  2
RECT
 10
45.0555
 20
7.7490
 30
0.0000
 41
0.1219
 42
0.0305
 43
1.0000
 50
180.0000
  0
INSERT
  8
22
  2
RECT
 10
41.8246
 20
7.7490
 30
0.0000
 41
0.1219
 42
0.0305
 43
1.0000
 50
180.0000
  0
INSERT
  8
22
  2
RECT
 10
45.0555
 20
7.7795
 30
0.0000
 41
0.1219
 42
0.0305
 43
1.0000
 50
180.0000
  0
INSERT
  8
22
  2
RECT
 10
41.8246
 20
7.7795
 30
0.0000
 41
0.1219
 42
0.0305
 43
1.0000
 50
180.0000
  0
INSERT
  8
22
  2
RECT
 10
45.0555
 20
7.8099
 30
0.0000
 41
0.1219
 42
0.0305
 43
1.0000
 50
180.0000
  0
INSERT
  8
22
  2
RECT
 10
41.8246
 20
7.8099
 30
0.0000
 41
0.1219
 42
0.0305
 43
1.0000
 50
180.0000
  0
INSERT
  8
22
  2
RECT
 10
45.0555
 20
7.8404
 30
0.0000
 41
0.1219
 42
0.0305
 43
1.0000
 50
180.0000
  0
INSERT
  8
22
  2
RECT
 10
41.8246
 20
7.8404
 30
0.0000
 41
0.1219
 42
0.0305
 43
1.0000
 50
180.0000
  0
INSERT
  8
22
  2
RECT
 10
45.0555
 20
7.8709
 30
0.0000
 41
0.1219
 42
0.0305
 43
1.0000
 50
180.0000
  0
INSERT
  8
22
  2
RECT
 10
41.8246
 20
7.8709
 30
0.0000
 41
0.1219
 42
0.0305
 43
1.0000
 50
180.0000
  0
INSERT
  8
22
  2
RECT
 10
45.0555
 20
7.9014
 30
0.0000
 41
0.1219
 42
0.0305
 43
1.0000
 50
180.0000
  0
INSERT
  8
22
  2
RECT
 10
41.8246
 20
7.9014
 30
0.0000
 41
0.1219
 42
0.0305
 43
1.0000
 50
180.0000
  0
INSERT
  8
22
  2
RECT
 10
45.0555
 20
7.9319
 30
0.0000
 41
0.1219
 42
0.0305
 43
1.0000
 50
180.0000
  0
INSERT
  8
22
  2
RECT
 10
41.8246
 20
7.9319
 30
0.0000
 41
0.1219
 42
0.0305
 43
1.0000
 50
180.0000
  0
INSERT
  8
22
  2
RECT
 10
45.0555
 20
7.9623
 30
0.0000
 41
0.1219
 42
0.0305
 43
1.0000
 50
180.0000
  0
INSERT
  8
22
  2
RECT
 10
43.8515
 20
7.9623
 30
0.0000
 41
0.2134
 42
0.0305
 43
1.0000
 50
180.0000
  0
INSERT
  8
22
  2
RECT
 10
41.8246
 20
7.9623
 30
0.0000
 41
0.1219
 42
0.0305
 43
1.0000
 50
180.0000
  0
INSERT
  8
22
  2
RECT
 10
45.0555
 20
7.9928
 30
0.0000
 41
0.1219
 42
0.0305
 43
1.0000
 50
180.0000
  0
INSERT
  8
22
  2
RECT
 10
43.8363
 20
7.9928
 30
0.0000
 41
0.3048
 42
0.0305
 43
1.0000
 50
180.0000
  0
INSERT
  8
22
  2
RECT
 10
41.8246
 20
7.9928
 30
0.0000
 41
0.1219
 42
0.0305
 43
1.0000
 50
180.0000
  0
INSERT
  8
22
  2
RECT
 10
45.0555
 20
8.0233
 30
0.0000
 41
0.1219
 42
0.0305
 43
1.0000
 50
180.0000
  0
INSERT
  8
22
  2
RECT
 10
43.8515
 20
8.0233
 30
0.0000
 41
0.3962
 42
0.0305
 43
1.0000
 50
180.0000
  0
INSERT
  8
22
  2
RECT
 10
41.8246
 20
8.0233
 30
0.0000
 41
0.1219
 42
0.0305
 43
1.0000
 50
180.0000
  0
INSERT
  8
22
  2
RECT
 10
45.0555
 20
8.0538
 30
0.0000
 41
0.1219
 42
0.0305
 43
1.0000
 50
180.0000
  0
INSERT
  8
22
  2
RECT
 10
43.8363
 20
8.0538
 30
0.0000
 41
0.4267
 42
0.0305
 43
1.0000
 50
180.0000
  0
INSERT
  8
22
  2
RECT
 10
41.8246
 20
8.0538
 30
0.0000
 41
0.1219
 42
0.0305
 43
1.0000
 50
180.0000
  0
INSERT
  8
22
  2
RECT
 10
45.0555
 20
8.0843
 30
0.0000
 41
0.1219
 42
0.0305
 43
1.0000
 50
180.0000
  0
INSERT
  8
22
  2
RECT
 10
43.8363
 20
8.0843
 30
0.0000
 41
0.4877
 42
0.0305
 43
1.0000
 50
180.0000
  0
INSERT
  8
22
  2
RECT
 10
41.8246
 20
8.0843
 30
0.0000
 41
0.1219
 42
0.0305
 43
1.0000
 50
180.0000
  0
INSERT
  8
22
  2
RECT
 10
45.0555
 20
8.1147
 30
0.0000
 41
0.1219
 42
0.0305
 43
1.0000
 50
180.0000
  0
INSERT
  8
22
  2
RECT
 10
43.8515
 20
8.1147
 30
0.0000
 41
0.5182
 42
0.0305
 43
1.0000
 50
180.0000
  0
INSERT
  8
22
  2
RECT
 10
41.8246
 20
8.1147
 30
0.0000
 41
0.1219
 42
0.0305
 43
1.0000
 50
180.0000
  0
INSERT
  8
22
  2
RECT
 10
45.0555
 20
8.1452
 30
0.0000
 41
0.1219
 42
0.0305
 43
1.0000
 50
180.0000
  0
INSERT
  8
22
  2
RECT
 10
44.0039
 20
8.1452
 30
0.0000
 41
0.2134
 42
0.0305
 43
1.0000
 50
180.0000
  0
INSERT
  8
22
  2
RECT
 10
43.6839
 20
8.1452
 30
0.0000
 41
0.2438
 42
0.0305
 43
1.0000
 50
180.0000
  0
INSERT
  8
22
  2
RECT
 10
41.8246
 20
8.1452
 30
0.0000
 41
0.1219
 42
0.0305
 43
1.0000
 50
180.0000
  0
INSERT
  8
22
  2
RECT
 10
45.0555
 20
8.1757
 30
0.0000
 41
0.1219
 42
0.0305
 43
1.0000
 50
180.0000
  0
INSERT
  8
22
  2
RECT
 10
44.0344
 20
8.1757
 30
0.0000
 41
0.2134
 42
0.0305
 43
1.0000
 50
180.0000
  0
INSERT
  8
22
  2
RECT
 10
43.6382
 20
8.1757
 30
0.0000
 41
0.2134
 42
0.0305
 43
1.0000
 50
180.0000
  0
INSERT
  8
22
  2
RECT
 10
41.8246
 20
8.1757
 30
0.0000
 41
0.1219
 42
0.0305
 43
1.0000
 50
180.0000
  0
INSERT
  8
22
  2
RECT
 10
45.0555
 20
8.2062
 30
0.0000
 41
0.1219
 42
0.0305
 43
1.0000
 50
180.0000
  0
INSERT
  8
22
  2
RECT
 10
44.0496
 20
8.2062
 30
0.0000
 41
0.1829
 42
0.0305
 43
1.0000
 50
180.0000
  0
INSERT
  8
22
  2
RECT
 10
43.6382
 20
8.2062
 30
0.0000
 41
0.2134
 42
0.0305
 43
1.0000
 50
180.0000
  0
INSERT
  8
22
  2
RECT
 10
41.8246
 20
8.2062
 30
0.0000
 41
0.1219
 42
0.0305
 43
1.0000
 50
180.0000
  0
INSERT
  8
22
  2
RECT
 10
45.0555
 20
8.2367
 30
0.0000
 41
0.1219
 42
0.0305
 43
1.0000
 50
180.0000
  0
INSERT
  8
22
  2
RECT
 10
44.0496
 20
8.2367
 30
0.0000
 41
0.1829
 42
0.0305
 43
1.0000
 50
180.0000
  0
INSERT
  8
22
  2
RECT
 10
43.6077
 20
8.2367
 30
0.0000
 41
0.2134
 42
0.0305
 43
1.0000
 50
180.0000
  0
INSERT
  8
22
  2
RECT
 10
41.8246
 20
8.2367
 30
0.0000
 41
0.1219
 42
0.0305
 43
1.0000
 50
180.0000
  0
INSERT
  8
22
  2
RECT
 10
45.0555
 20
8.2671
 30
0.0000
 41
0.1219
 42
0.0305
 43
1.0000
 50
180.0000
  0
INSERT
  8
22
  2
RECT
 10
44.0496
 20
8.2671
 30
0.0000
 41
0.1829
 42
0.0305
 43
1.0000
 50
180.0000
  0
INSERT
  8
22
  2
RECT
 10
43.5924
 20
8.2671
 30
0.0000
 41
0.1829
 42
0.0305
 43
1.0000
 50
180.0000
  0
INSERT
  8
22
  2
RECT
 10
41.8246
 20
8.2671
 30
0.0000
 41
0.1219
 42
0.0305
 43
1.0000
 50
180.0000
  0
INSERT
  8
22
  2
RECT
 10
45.0555
 20
8.2976
 30
0.0000
 41
0.1219
 42
0.0305
 43
1.0000
 50
180.0000
  0
INSERT
  8
22
  2
RECT
 10
44.0649
 20
8.2976
 30
0.0000
 41
0.1524
 42
0.0305
 43
1.0000
 50
180.0000
  0
INSERT
  8
22
  2
RECT
 10
43.5924
 20
8.2976
 30
0.0000
 41
0.1829
 42
0.0305
 43
1.0000
 50
180.0000
  0
INSERT
  8
22
  2
RECT
 10
41.8246
 20
8.2976
 30
0.0000
 41
0.1219
 42
0.0305
 43
1.0000
 50
180.0000
  0
INSERT
  8
22
  2
RECT
 10
45.0555
 20
8.3281
 30
0.0000
 41
0.1219
 42
0.0305
 43
1.0000
 50
180.0000
  0
INSERT
  8
22
  2
RECT
 10
44.0801
 20
8.3281
 30
0.0000
 41
0.1829
 42
0.0305
 43
1.0000
 50
180.0000
  0
INSERT
  8
22
  2
RECT
 10
43.5620
 20
8.3281
 30
0.0000
 41
0.1829
 42
0.0305
 43
1.0000
 50
180.0000
  0
INSERT
  8
22
  2
RECT
 10
42.7542
 20
8.3281
 30
0.0000
 41
0.0305
 42
0.0305
 43
1.0000
 50
180.0000
  0
INSERT
  8
22
  2
RECT
 10
41.8246
 20
8.3281
 30
0.0000
 41
0.1219
 42
0.0305
 43
1.0000
 50
180.0000
  0
INSERT
  8
22
  2
RECT
 10
45.0555
 20
8.3586
 30
0.0000
 41
0.1219
 42
0.0305
 43
1.0000
 50
180.0000
  0
INSERT
  8
22
  2
RECT
 10
44.0801
 20
8.3586
 30
0.0000
 41
0.1829
 42
0.0305
 43
1.0000
 50
180.0000
  0
INSERT
  8
22
  2
RECT
 10
43.5772
 20
8.3586
 30
0.0000
 41
0.1524
 42
0.0305
 43
1.0000
 50
180.0000
  0
INSERT
  8
22
  2
RECT
 10
42.6933
 20
8.3586
 30
0.0000
 41
0.1524
 42
0.0305
 43
1.0000
 50
180.0000
  0
INSERT
  8
22
  2
RECT
 10
41.8246
 20
8.3586
 30
0.0000
 41
0.1219
 42
0.0305
 43
1.0000
 50
180.0000
  0
INSERT
  8
22
  2
RECT
 10
45.0555
 20
8.3891
 30
0.0000
 41
0.1219
 42
0.0305
 43
1.0000
 50
180.0000
  0
INSERT
  8
22
  2
RECT
 10
44.0801
 20
8.3891
 30
0.0000
 41
0.1829
 42
0.0305
 43
1.0000
 50
180.0000
  0
INSERT
  8
22
  2
RECT
 10
43.5924
 20
8.3891
 30
0.0000
 41
0.1219
 42
0.0305
 43
1.0000
 50
180.0000
  0
INSERT
  8
22
  2
RECT
 10
42.6628
 20
8.3891
 30
0.0000
 41
0.2134
 42
0.0305
 43
1.0000
 50
180.0000
  0
INSERT
  8
22
  2
RECT
 10
41.8246
 20
8.3891
 30
0.0000
 41
0.1219
 42
0.0305
 43
1.0000
 50
180.0000
  0
INSERT
  8
22
  2
RECT
 10
45.0555
 20
8.4195
 30
0.0000
 41
0.1219
 42
0.0305
 43
1.0000
 50
180.0000
  0
INSERT
  8
22
  2
RECT
 10
44.0801
 20
8.4195
 30
0.0000
 41
0.1829
 42
0.0305
 43
1.0000
 50
180.0000
  0
INSERT
  8
22
  2
RECT
 10
43.5924
 20
8.4195
 30
0.0000
 41
0.0610
 42
0.0305
 43
1.0000
 50
180.0000
  0
INSERT
  8
22
  2
RECT
 10
42.6628
 20
8.4195
 30
0.0000
 41
0.2134
 42
0.0305
 43
1.0000
 50
180.0000
  0
INSERT
  8
22
  2
RECT
 10
41.8246
 20
8.4195
 30
0.0000
 41
0.1219
 42
0.0305
 43
1.0000
 50
180.0000
  0
INSERT
  8
22
  2
RECT
 10
45.0555
 20
8.4500
 30
0.0000
 41
0.1219
 42
0.0305
 43
1.0000
 50
180.0000
  0
INSERT
  8
22
  2
RECT
 10
44.0801
 20
8.4500
 30
0.0000
 41
0.1829
 42
0.0305
 43
1.0000
 50
180.0000
  0
INSERT
  8
22
  2
RECT
 10
42.6933
 20
8.4500
 30
0.0000
 41
0.2134
 42
0.0305
 43
1.0000
 50
180.0000
  0
INSERT
  8
22
  2
RECT
 10
41.8246
 20
8.4500
 30
0.0000
 41
0.1219
 42
0.0305
 43
1.0000
 50
180.0000
  0
INSERT
  8
22
  2
RECT
 10
45.0555
 20
8.4805
 30
0.0000
 41
0.1219
 42
0.0305
 43
1.0000
 50
180.0000
  0
INSERT
  8
22
  2
RECT
 10
44.0954
 20
8.4805
 30
0.0000
 41
0.1524
 42
0.0305
 43
1.0000
 50
180.0000
  0
INSERT
  8
22
  2
RECT
 10
42.6933
 20
8.4805
 30
0.0000
 41
0.2134
 42
0.0305
 43
1.0000
 50
180.0000
  0
INSERT
  8
22
  2
RECT
 10
41.8246
 20
8.4805
 30
0.0000
 41
0.1219
 42
0.0305
 43
1.0000
 50
180.0000
  0
INSERT
  8
22
  2
RECT
 10
45.0555
 20
8.5110
 30
0.0000
 41
0.1219
 42
0.0305
 43
1.0000
 50
180.0000
  0
INSERT
  8
22
  2
RECT
 10
44.0954
 20
8.5110
 30
0.0000
 41
0.1524
 42
0.0305
 43
1.0000
 50
180.0000
  0
INSERT
  8
22
  2
RECT
 10
42.6933
 20
8.5110
 30
0.0000
 41
0.2134
 42
0.0305
 43
1.0000
 50
180.0000
  0
INSERT
  8
22
  2
RECT
 10
41.8246
 20
8.5110
 30
0.0000
 41
0.1219
 42
0.0305
 43
1.0000
 50
180.0000
  0
INSERT
  8
22
  2
RECT
 10
45.0555
 20
8.5415
 30
0.0000
 41
0.1219
 42
0.0305
 43
1.0000
 50
180.0000
  0
INSERT
  8
22
  2
RECT
 10
44.0954
 20
8.5415
 30
0.0000
 41
0.1524
 42
0.0305
 43
1.0000
 50
180.0000
  0
INSERT
  8
22
  2
RECT
 10
42.6933
 20
8.5415
 30
0.0000
 41
0.2134
 42
0.0305
 43
1.0000
 50
180.0000
  0
INSERT
  8
22
  2
RECT
 10
41.8246
 20
8.5415
 30
0.0000
 41
0.1219
 42
0.0305
 43
1.0000
 50
180.0000
  0
INSERT
  8
22
  2
RECT
 10
45.0555
 20
8.5719
 30
0.0000
 41
0.1219
 42
0.0305
 43
1.0000
 50
180.0000
  0
INSERT
  8
22
  2
RECT
 10
44.0954
 20
8.5719
 30
0.0000
 41
0.1524
 42
0.0305
 43
1.0000
 50
180.0000
  0
INSERT
  8
22
  2
RECT
 10
42.7238
 20
8.5719
 30
0.0000
 41
0.2134
 42
0.0305
 43
1.0000
 50
180.0000
  0
INSERT
  8
22
  2
RECT
 10
41.8246
 20
8.5719
 30
0.0000
 41
0.1219
 42
0.0305
 43
1.0000
 50
180.0000
  0
INSERT
  8
22
  2
RECT
 10
45.0555
 20
8.6024
 30
0.0000
 41
0.1219
 42
0.0305
 43
1.0000
 50
180.0000
  0
INSERT
  8
22
  2
RECT
 10
44.0954
 20
8.6024
 30
0.0000
 41
0.1524
 42
0.0305
 43
1.0000
 50
180.0000
  0
INSERT
  8
22
  2
RECT
 10
42.7238
 20
8.6024
 30
0.0000
 41
0.2134
 42
0.0305
 43
1.0000
 50
180.0000
  0
INSERT
  8
22
  2
RECT
 10
41.8246
 20
8.6024
 30
0.0000
 41
0.1219
 42
0.0305
 43
1.0000
 50
180.0000
  0
INSERT
  8
22
  2
RECT
 10
45.0555
 20
8.6329
 30
0.0000
 41
0.1219
 42
0.0305
 43
1.0000
 50
180.0000
  0
INSERT
  8
22
  2
RECT
 10
44.0954
 20
8.6329
 30
0.0000
 41
0.1524
 42
0.0305
 43
1.0000
 50
180.0000
  0
INSERT
  8
22
  2
RECT
 10
42.7238
 20
8.6329
 30
0.0000
 41
0.2134
 42
0.0305
 43
1.0000
 50
180.0000
  0
INSERT
  8
22
  2
RECT
 10
41.8246
 20
8.6329
 30
0.0000
 41
0.1219
 42
0.0305
 43
1.0000
 50
180.0000
  0
INSERT
  8
22
  2
RECT
 10
45.0555
 20
8.6634
 30
0.0000
 41
0.1219
 42
0.0305
 43
1.0000
 50
180.0000
  0
INSERT
  8
22
  2
RECT
 10
44.0954
 20
8.6634
 30
0.0000
 41
0.1524
 42
0.0305
 43
1.0000
 50
180.0000
  0
INSERT
  8
22
  2
RECT
 10
42.7390
 20
8.6634
 30
0.0000
 41
0.2438
 42
0.0305
 43
1.0000
 50
180.0000
  0
INSERT
  8
22
  2
RECT
 10
41.8246
 20
8.6634
 30
0.0000
 41
0.1219
 42
0.0305
 43
1.0000
 50
180.0000
  0
INSERT
  8
22
  2
RECT
 10
45.0555
 20
8.6939
 30
0.0000
 41
0.1219
 42
0.0305
 43
1.0000
 50
180.0000
  0
INSERT
  8
22
  2
RECT
 10
44.0954
 20
8.6939
 30
0.0000
 41
0.1524
 42
0.0305
 43
1.0000
 50
180.0000
  0
INSERT
  8
22
  2
RECT
 10
42.7542
 20
8.6939
 30
0.0000
 41
0.2134
 42
0.0305
 43
1.0000
 50
180.0000
  0
INSERT
  8
22
  2
RECT
 10
41.8246
 20
8.6939
 30
0.0000
 41
0.1219
 42
0.0305
 43
1.0000
 50
180.0000
  0
INSERT
  8
22
  2
RECT
 10
45.0555
 20
8.7243
 30
0.0000
 41
0.1219
 42
0.0305
 43
1.0000
 50
180.0000
  0
INSERT
  8
22
  2
RECT
 10
44.0954
 20
8.7243
 30
0.0000
 41
0.1524
 42
0.0305
 43
1.0000
 50
180.0000
  0
INSERT
  8
22
  2
RECT
 10
42.7542
 20
8.7243
 30
0.0000
 41
0.2134
 42
0.0305
 43
1.0000
 50
180.0000
  0
INSERT
  8
22
  2
RECT
 10
41.8246
 20
8.7243
 30
0.0000
 41
0.1219
 42
0.0305
 43
1.0000
 50
180.0000
  0
INSERT
  8
22
  2
RECT
 10
45.0555
 20
8.7548
 30
0.0000
 41
0.1219
 42
0.0305
 43
1.0000
 50
180.0000
  0
INSERT
  8
22
  2
RECT
 10
44.0954
 20
8.7548
 30
0.0000
 41
0.1524
 42
0.0305
 43
1.0000
 50
180.0000
  0
INSERT
  8
22
  2
RECT
 10
42.7695
 20
8.7548
 30
0.0000
 41
0.2438
 42
0.0305
 43
1.0000
 50
180.0000
  0
INSERT
  8
22
  2
RECT
 10
41.8246
 20
8.7548
 30
0.0000
 41
0.1219
 42
0.0305
 43
1.0000
 50
180.0000
  0
INSERT
  8
22
  2
RECT
 10
45.0555
 20
8.7853
 30
0.0000
 41
0.1219
 42
0.0305
 43
1.0000
 50
180.0000
  0
INSERT
  8
22
  2
RECT
 10
44.0954
 20
8.7853
 30
0.0000
 41
0.1524
 42
0.0305
 43
1.0000
 50
180.0000
  0
INSERT
  8
22
  2
RECT
 10
42.7847
 20
8.7853
 30
0.0000
 41
0.2134
 42
0.0305
 43
1.0000
 50
180.0000
  0
INSERT
  8
22
  2
RECT
 10
41.8246
 20
8.7853
 30
0.0000
 41
0.1219
 42
0.0305
 43
1.0000
 50
180.0000
  0
INSERT
  8
22
  2
RECT
 10
45.0555
 20
8.8158
 30
0.0000
 41
0.1219
 42
0.0305
 43
1.0000
 50
180.0000
  0
INSERT
  8
22
  2
RECT
 10
44.0954
 20
8.8158
 30
0.0000
 41
0.1524
 42
0.0305
 43
1.0000
 50
180.0000
  0
INSERT
  8
22
  2
RECT
 10
42.8000
 20
8.8158
 30
0.0000
 41
0.2438
 42
0.0305
 43
1.0000
 50
180.0000
  0
INSERT
  8
22
  2
RECT
 10
41.8246
 20
8.8158
 30
0.0000
 41
0.1219
 42
0.0305
 43
1.0000
 50
180.0000
  0
INSERT
  8
22
  2
RECT
 10
45.0555
 20
8.8463
 30
0.0000
 41
0.1219
 42
0.0305
 43
1.0000
 50
180.0000
  0
INSERT
  8
22
  2
RECT
 10
44.0954
 20
8.8463
 30
0.0000
 41
0.1524
 42
0.0305
 43
1.0000
 50
180.0000
  0
INSERT
  8
22
  2
RECT
 10
42.8152
 20
8.8463
 30
0.0000
 41
0.2134
 42
0.0305
 43
1.0000
 50
180.0000
  0
INSERT
  8
22
  2
RECT
 10
41.8246
 20
8.8463
 30
0.0000
 41
0.1219
 42
0.0305
 43
1.0000
 50
180.0000
  0
INSERT
  8
22
  2
RECT
 10
45.0555
 20
8.8767
 30
0.0000
 41
0.1219
 42
0.0305
 43
1.0000
 50
180.0000
  0
INSERT
  8
22
  2
RECT
 10
44.0954
 20
8.8767
 30
0.0000
 41
0.1524
 42
0.0305
 43
1.0000
 50
180.0000
  0
INSERT
  8
22
  2
RECT
 10
42.8304
 20
8.8767
 30
0.0000
 41
0.2438
 42
0.0305
 43
1.0000
 50
180.0000
  0
INSERT
  8
22
  2
RECT
 10
41.8246
 20
8.8767
 30
0.0000
 41
0.1219
 42
0.0305
 43
1.0000
 50
180.0000
  0
INSERT
  8
22
  2
RECT
 10
45.0555
 20
8.9072
 30
0.0000
 41
0.1219
 42
0.0305
 43
1.0000
 50
180.0000
  0
INSERT
  8
22
  2
RECT
 10
44.0954
 20
8.9072
 30
0.0000
 41
0.1524
 42
0.0305
 43
1.0000
 50
180.0000
  0
INSERT
  8
22
  2
RECT
 10
42.8457
 20
8.9072
 30
0.0000
 41
0.2134
 42
0.0305
 43
1.0000
 50
180.0000
  0
INSERT
  8
22
  2
RECT
 10
41.8246
 20
8.9072
 30
0.0000
 41
0.1219
 42
0.0305
 43
1.0000
 50
180.0000
  0
INSERT
  8
22
  2
RECT
 10
45.0555
 20
8.9377
 30
0.0000
 41
0.1219
 42
0.0305
 43
1.0000
 50
180.0000
  0
INSERT
  8
22
  2
RECT
 10
44.0954
 20
8.9377
 30
0.0000
 41
0.1524
 42
0.0305
 43
1.0000
 50
180.0000
  0
INSERT
  8
22
  2
RECT
 10
42.8609
 20
8.9377
 30
0.0000
 41
0.2438
 42
0.0305
 43
1.0000
 50
180.0000
  0
INSERT
  8
22
  2
RECT
 10
41.8246
 20
8.9377
 30
0.0000
 41
0.1219
 42
0.0305
 43
1.0000
 50
180.0000
  0
INSERT
  8
22
  2
RECT
 10
45.0555
 20
8.9682
 30
0.0000
 41
0.1219
 42
0.0305
 43
1.0000
 50
180.0000
  0
INSERT
  8
22
  2
RECT
 10
44.0954
 20
8.9682
 30
0.0000
 41
0.1524
 42
0.0305
 43
1.0000
 50
180.0000
  0
INSERT
  8
22
  2
RECT
 10
42.8762
 20
8.9682
 30
0.0000
 41
0.2134
 42
0.0305
 43
1.0000
 50
180.0000
  0
INSERT
  8
22
  2
RECT
 10
41.8246
 20
8.9682
 30
0.0000
 41
0.1219
 42
0.0305
 43
1.0000
 50
180.0000
  0
INSERT
  8
22
  2
RECT
 10
45.0555
 20
8.9986
 30
0.0000
 41
0.1219
 42
0.0305
 43
1.0000
 50
180.0000
  0
INSERT
  8
22
  2
RECT
 10
44.0954
 20
8.9986
 30
0.0000
 41
0.1524
 42
0.0305
 43
1.0000
 50
180.0000
  0
INSERT
  8
22
  2
RECT
 10
42.8914
 20
8.9986
 30
0.0000
 41
0.2438
 42
0.0305
 43
1.0000
 50
180.0000
  0
INSERT
  8
22
  2
RECT
 10
41.8246
 20
8.9986
 30
0.0000
 41
0.1219
 42
0.0305
 43
1.0000
 50
180.0000
  0
INSERT
  8
22
  2
RECT
 10
45.0555
 20
9.0291
 30
0.0000
 41
0.1219
 42
0.0305
 43
1.0000
 50
180.0000
  0
INSERT
  8
22
  2
RECT
 10
44.0801
 20
9.0291
 30
0.0000
 41
0.1829
 42
0.0305
 43
1.0000
 50
180.0000
  0
INSERT
  8
22
  2
RECT
 10
42.9219
 20
9.0291
 30
0.0000
 41
0.2438
 42
0.0305
 43
1.0000
 50
180.0000
  0
INSERT
  8
22
  2
RECT
 10
41.8246
 20
9.0291
 30
0.0000
 41
0.1219
 42
0.0305
 43
1.0000
 50
180.0000
  0
INSERT
  8
22
  2
RECT
 10
45.0555
 20
9.0596
 30
0.0000
 41
0.1219
 42
0.0305
 43
1.0000
 50
180.0000
  0
INSERT
  8
22
  2
RECT
 10
44.0801
 20
9.0596
 30
0.0000
 41
0.1829
 42
0.0305
 43
1.0000
 50
180.0000
  0
INSERT
  8
22
  2
RECT
 10
42.9371
 20
9.0596
 30
0.0000
 41
0.2134
 42
0.0305
 43
1.0000
 50
180.0000
  0
INSERT
  8
22
  2
RECT
 10
41.8246
 20
9.0596
 30
0.0000
 41
0.1219
 42
0.0305
 43
1.0000
 50
180.0000
  0
INSERT
  8
22
  2
RECT
 10
45.0555
 20
9.0901
 30
0.0000
 41
0.1219
 42
0.0305
 43
1.0000
 50
180.0000
  0
INSERT
  8
22
  2
RECT
 10
44.0801
 20
9.0901
 30
0.0000
 41
0.1829
 42
0.0305
 43
1.0000
 50
180.0000
  0
INSERT
  8
22
  2
RECT
 10
42.9524
 20
9.0901
 30
0.0000
 41
0.2438
 42
0.0305
 43
1.0000
 50
180.0000
  0
INSERT
  8
22
  2
RECT
 10
41.8246
 20
9.0901
 30
0.0000
 41
0.1219
 42
0.0305
 43
1.0000
 50
180.0000
  0
INSERT
  8
22
  2
RECT
 10
45.0555
 20
9.1206
 30
0.0000
 41
0.1219
 42
0.0305
 43
1.0000
 50
180.0000
  0
INSERT
  8
22
  2
RECT
 10
44.0801
 20
9.1206
 30
0.0000
 41
0.1829
 42
0.0305
 43
1.0000
 50
180.0000
  0
INSERT
  8
22
  2
RECT
 10
42.9828
 20
9.1206
 30
0.0000
 41
0.2438
 42
0.0305
 43
1.0000
 50
180.0000
  0
INSERT
  8
22
  2
RECT
 10
41.8246
 20
9.1206
 30
0.0000
 41
0.1219
 42
0.0305
 43
1.0000
 50
180.0000
  0
INSERT
  8
22
  2
RECT
 10
45.0555
 20
9.1510
 30
0.0000
 41
0.1219
 42
0.0305
 43
1.0000
 50
180.0000
  0
INSERT
  8
22
  2
RECT
 10
44.0801
 20
9.1510
 30
0.0000
 41
0.1829
 42
0.0305
 43
1.0000
 50
180.0000
  0
INSERT
  8
22
  2
RECT
 10
43.0133
 20
9.1510
 30
0.0000
 41
0.2438
 42
0.0305
 43
1.0000
 50
180.0000
  0
INSERT
  8
22
  2
RECT
 10
41.8246
 20
9.1510
 30
0.0000
 41
0.1219
 42
0.0305
 43
1.0000
 50
180.0000
  0
INSERT
  8
22
  2
RECT
 10
45.0555
 20
9.1815
 30
0.0000
 41
0.1219
 42
0.0305
 43
1.0000
 50
180.0000
  0
INSERT
  8
22
  2
RECT
 10
44.0801
 20
9.1815
 30
0.0000
 41
0.1829
 42
0.0305
 43
1.0000
 50
180.0000
  0
INSERT
  8
22
  2
RECT
 10
43.0286
 20
9.1815
 30
0.0000
 41
0.2134
 42
0.0305
 43
1.0000
 50
180.0000
  0
INSERT
  8
22
  2
RECT
 10
41.8246
 20
9.1815
 30
0.0000
 41
0.1219
 42
0.0305
 43
1.0000
 50
180.0000
  0
INSERT
  8
22
  2
RECT
 10
45.0555
 20
9.2120
 30
0.0000
 41
0.1219
 42
0.0305
 43
1.0000
 50
180.0000
  0
INSERT
  8
22
  2
RECT
 10
44.0801
 20
9.2120
 30
0.0000
 41
0.1829
 42
0.0305
 43
1.0000
 50
180.0000
  0
INSERT
  8
22
  2
RECT
 10
43.0133
 20
9.2120
 30
0.0000
 41
0.1219
 42
0.0305
 43
1.0000
 50
180.0000
  0
INSERT
  8
22
  2
RECT
 10
41.8246
 20
9.2120
 30
0.0000
 41
0.1219
 42
0.0305
 43
1.0000
 50
180.0000
  0
INSERT
  8
22
  2
RECT
 10
45.0555
 20
9.2425
 30
0.0000
 41
0.1219
 42
0.0305
 43
1.0000
 50
180.0000
  0
INSERT
  8
22
  2
RECT
 10
44.0801
 20
9.2425
 30
0.0000
 41
0.1829
 42
0.0305
 43
1.0000
 50
180.0000
  0
INSERT
  8
22
  2
RECT
 10
43.0133
 20
9.2425
 30
0.0000
 41
0.0610
 42
0.0305
 43
1.0000
 50
180.0000
  0
INSERT
  8
22
  2
RECT
 10
41.8246
 20
9.2425
 30
0.0000
 41
0.1219
 42
0.0305
 43
1.0000
 50
180.0000
  0
INSERT
  8
22
  2
RECT
 10
45.0555
 20
9.2730
 30
0.0000
 41
0.1219
 42
0.0305
 43
1.0000
 50
180.0000
  0
INSERT
  8
22
  2
RECT
 10
44.0496
 20
9.2730
 30
0.0000
 41
0.1829
 42
0.0305
 43
1.0000
 50
180.0000
  0
INSERT
  8
22
  2
RECT
 10
41.8246
 20
9.2730
 30
0.0000
 41
0.1219
 42
0.0305
 43
1.0000
 50
180.0000
  0
INSERT
  8
22
  2
RECT
 10
45.0555
 20
9.3034
 30
0.0000
 41
0.1219
 42
0.0305
 43
1.0000
 50
180.0000
  0
INSERT
  8
22
  2
RECT
 10
44.0496
 20
9.3034
 30
0.0000
 41
0.1829
 42
0.0305
 43
1.0000
 50
180.0000
  0
INSERT
  8
22
  2
RECT
 10
41.8246
 20
9.3034
 30
0.0000
 41
0.1219
 42
0.0305
 43
1.0000
 50
180.0000
  0
INSERT
  8
22
  2
RECT
 10
45.0555
 20
9.3339
 30
0.0000
 41
0.1219
 42
0.0305
 43
1.0000
 50
180.0000
  0
INSERT
  8
22
  2
RECT
 10
44.0496
 20
9.3339
 30
0.0000
 41
0.1829
 42
0.0305
 43
1.0000
 50
180.0000
  0
INSERT
  8
22
  2
RECT
 10
41.8246
 20
9.3339
 30
0.0000
 41
0.1219
 42
0.0305
 43
1.0000
 50
180.0000
  0
INSERT
  8
22
  2
RECT
 10
45.0555
 20
9.3644
 30
0.0000
 41
0.1219
 42
0.0305
 43
1.0000
 50
180.0000
  0
INSERT
  8
22
  2
RECT
 10
44.1106
 20
9.3644
 30
0.0000
 41
0.0610
 42
0.0305
 43
1.0000
 50
180.0000
  0
INSERT
  8
22
  2
RECT
 10
41.8246
 20
9.3644
 30
0.0000
 41
0.1219
 42
0.0305
 43
1.0000
 50
180.0000
  0
INSERT
  8
22
  2
RECT
 10
45.0555
 20
9.3949
 30
0.0000
 41
0.1219
 42
0.0305
 43
1.0000
 50
180.0000
  0
INSERT
  8
22
  2
RECT
 10
41.8246
 20
9.3949
 30
0.0000
 41
0.1219
 42
0.0305
 43
1.0000
 50
180.0000
  0
INSERT
  8
22
  2
RECT
 10
45.0555
 20
9.4254
 30
0.0000
 41
0.1219
 42
0.0305
 43
1.0000
 50
180.0000
  0
INSERT
  8
22
  2
RECT
 10
41.8246
 20
9.4254
 30
0.0000
 41
0.1219
 42
0.0305
 43
1.0000
 50
180.0000
  0
INSERT
  8
22
  2
RECT
 10
45.0555
 20
9.4558
 30
0.0000
 41
0.1219
 42
0.0305
 43
1.0000
 50
180.0000
  0
INSERT
  8
22
  2
RECT
 10
41.8246
 20
9.4558
 30
0.0000
 41
0.1219
 42
0.0305
 43
1.0000
 50
180.0000
  0
INSERT
  8
22
  2
RECT
 10
45.0555
 20
9.4863
 30
0.0000
 41
0.1219
 42
0.0305
 43
1.0000
 50
180.0000
  0
INSERT
  8
22
  2
RECT
 10
41.8246
 20
9.4863
 30
0.0000
 41
0.1219
 42
0.0305
 43
1.0000
 50
180.0000
  0
INSERT
  8
22
  2
RECT
 10
45.0555
 20
9.5168
 30
0.0000
 41
0.1219
 42
0.0305
 43
1.0000
 50
180.0000
  0
INSERT
  8
22
  2
RECT
 10
41.8246
 20
9.5168
 30
0.0000
 41
0.1219
 42
0.0305
 43
1.0000
 50
180.0000
  0
INSERT
  8
22
  2
RECT
 10
45.0555
 20
9.5473
 30
0.0000
 41
0.1219
 42
0.0305
 43
1.0000
 50
180.0000
  0
INSERT
  8
22
  2
RECT
 10
41.8246
 20
9.5473
 30
0.0000
 41
0.1219
 42
0.0305
 43
1.0000
 50
180.0000
  0
INSERT
  8
22
  2
RECT
 10
45.0555
 20
9.5778
 30
0.0000
 41
0.1219
 42
0.0305
 43
1.0000
 50
180.0000
  0
INSERT
  8
22
  2
RECT
 10
41.8246
 20
9.5778
 30
0.0000
 41
0.1219
 42
0.0305
 43
1.0000
 50
180.0000
  0
INSERT
  8
22
  2
RECT
 10
45.0555
 20
9.6082
 30
0.0000
 41
0.1219
 42
0.0305
 43
1.0000
 50
180.0000
  0
INSERT
  8
22
  2
RECT
 10
41.8246
 20
9.6082
 30
0.0000
 41
0.1219
 42
0.0305
 43
1.0000
 50
180.0000
  0
INSERT
  8
22
  2
RECT
 10
45.0555
 20
9.6387
 30
0.0000
 41
0.1219
 42
0.0305
 43
1.0000
 50
180.0000
  0
INSERT
  8
22
  2
RECT
 10
41.8246
 20
9.6387
 30
0.0000
 41
0.1219
 42
0.0305
 43
1.0000
 50
180.0000
  0
INSERT
  8
22
  2
RECT
 10
45.0555
 20
9.6692
 30
0.0000
 41
0.1219
 42
0.0305
 43
1.0000
 50
180.0000
  0
INSERT
  8
22
  2
RECT
 10
41.8246
 20
9.6692
 30
0.0000
 41
0.1219
 42
0.0305
 43
1.0000
 50
180.0000
  0
INSERT
  8
22
  2
RECT
 10
45.0555
 20
9.6997
 30
0.0000
 41
0.1219
 42
0.0305
 43
1.0000
 50
180.0000
  0
INSERT
  8
22
  2
RECT
 10
41.8246
 20
9.6997
 30
0.0000
 41
0.1219
 42
0.0305
 43
1.0000
 50
180.0000
  0
INSERT
  8
22
  2
RECT
 10
45.0555
 20
9.7302
 30
0.0000
 41
0.1219
 42
0.0305
 43
1.0000
 50
180.0000
  0
INSERT
  8
22
  2
RECT
 10
41.8246
 20
9.7302
 30
0.0000
 41
0.1219
 42
0.0305
 43
1.0000
 50
180.0000
  0
INSERT
  8
22
  2
RECT
 10
45.0555
 20
9.7607
 30
0.0000
 41
0.1219
 42
0.0305
 43
1.0000
 50
180.0000
  0
INSERT
  8
22
  2
RECT
 10
41.8246
 20
9.7607
 30
0.0000
 41
0.1219
 42
0.0305
 43
1.0000
 50
180.0000
  0
INSERT
  8
22
  2
RECT
 10
45.0555
 20
9.7911
 30
0.0000
 41
0.1219
 42
0.0305
 43
1.0000
 50
180.0000
  0
INSERT
  8
22
  2
RECT
 10
41.8246
 20
9.7911
 30
0.0000
 41
0.1219
 42
0.0305
 43
1.0000
 50
180.0000
  0
INSERT
  8
22
  2
RECT
 10
45.0555
 20
9.8216
 30
0.0000
 41
0.1219
 42
0.0305
 43
1.0000
 50
180.0000
  0
INSERT
  8
22
  2
RECT
 10
41.8246
 20
9.8216
 30
0.0000
 41
0.1219
 42
0.0305
 43
1.0000
 50
180.0000
  0
INSERT
  8
22
  2
RECT
 10
45.0555
 20
9.8521
 30
0.0000
 41
0.1219
 42
0.0305
 43
1.0000
 50
180.0000
  0
INSERT
  8
22
  2
RECT
 10
41.8246
 20
9.8521
 30
0.0000
 41
0.1219
 42
0.0305
 43
1.0000
 50
180.0000
  0
INSERT
  8
22
  2
RECT
 10
45.0555
 20
9.8826
 30
0.0000
 41
0.1219
 42
0.0305
 43
1.0000
 50
180.0000
  0
INSERT
  8
22
  2
RECT
 10
41.8246
 20
9.8826
 30
0.0000
 41
0.1219
 42
0.0305
 43
1.0000
 50
180.0000
  0
INSERT
  8
22
  2
RECT
 10
45.0555
 20
9.9131
 30
0.0000
 41
0.1219
 42
0.0305
 43
1.0000
 50
180.0000
  0
INSERT
  8
22
  2
RECT
 10
41.8246
 20
9.9131
 30
0.0000
 41
0.1219
 42
0.0305
 43
1.0000
 50
180.0000
  0
INSERT
  8
22
  2
RECT
 10
45.0555
 20
9.9435
 30
0.0000
 41
0.1219
 42
0.0305
 43
1.0000
 50
180.0000
  0
INSERT
  8
22
  2
RECT
 10
41.8246
 20
9.9435
 30
0.0000
 41
0.1219
 42
0.0305
 43
1.0000
 50
180.0000
  0
INSERT
  8
22
  2
RECT
 10
45.0555
 20
9.9740
 30
0.0000
 41
0.1219
 42
0.0305
 43
1.0000
 50
180.0000
  0
INSERT
  8
22
  2
RECT
 10
41.8246
 20
9.9740
 30
0.0000
 41
0.1219
 42
0.0305
 43
1.0000
 50
180.0000
  0
INSERT
  8
22
  2
RECT
 10
45.0555
 20
10.0045
 30
0.0000
 41
0.1219
 42
0.0305
 43
1.0000
 50
180.0000
  0
INSERT
  8
22
  2
RECT
 10
41.8246
 20
10.0045
 30
0.0000
 41
0.1219
 42
0.0305
 43
1.0000
 50
180.0000
  0
INSERT
  8
22
  2
RECT
 10
45.0555
 20
10.0350
 30
0.0000
 41
0.1219
 42
0.0305
 43
1.0000
 50
180.0000
  0
INSERT
  8
22
  2
RECT
 10
41.8246
 20
10.0350
 30
0.0000
 41
0.1219
 42
0.0305
 43
1.0000
 50
180.0000
  0
INSERT
  8
22
  2
RECT
 10
45.0555
 20
10.0655
 30
0.0000
 41
0.1219
 42
0.0305
 43
1.0000
 50
180.0000
  0
INSERT
  8
22
  2
RECT
 10
41.8246
 20
10.0655
 30
0.0000
 41
0.1219
 42
0.0305
 43
1.0000
 50
180.0000
  0
INSERT
  8
22
  2
RECT
 10
45.0555
 20
10.0959
 30
0.0000
 41
0.1219
 42
0.0305
 43
1.0000
 50
180.0000
  0
INSERT
  8
22
  2
RECT
 10
41.8246
 20
10.0959
 30
0.0000
 41
0.1219
 42
0.0305
 43
1.0000
 50
180.0000
  0
INSERT
  8
22
  2
RECT
 10
45.0555
 20
10.1264
 30
0.0000
 41
0.1219
 42
0.0305
 43
1.0000
 50
180.0000
  0
INSERT
  8
22
  2
RECT
 10
41.8246
 20
10.1264
 30
0.0000
 41
0.1219
 42
0.0305
 43
1.0000
 50
180.0000
  0
INSERT
  8
22
  2
RECT
 10
45.0555
 20
10.1569
 30
0.0000
 41
0.1219
 42
0.0305
 43
1.0000
 50
180.0000
  0
INSERT
  8
22
  2
RECT
 10
41.8246
 20
10.1569
 30
0.0000
 41
0.1219
 42
0.0305
 43
1.0000
 50
180.0000
  0
INSERT
  8
22
  2
RECT
 10
45.0555
 20
10.1874
 30
0.0000
 41
0.1219
 42
0.0305
 43
1.0000
 50
180.0000
  0
INSERT
  8
22
  2
RECT
 10
41.8246
 20
10.1874
 30
0.0000
 41
0.1219
 42
0.0305
 43
1.0000
 50
180.0000
  0
INSERT
  8
22
  2
RECT
 10
45.0555
 20
10.2179
 30
0.0000
 41
0.1219
 42
0.0305
 43
1.0000
 50
180.0000
  0
INSERT
  8
22
  2
RECT
 10
41.8246
 20
10.2179
 30
0.0000
 41
0.1219
 42
0.0305
 43
1.0000
 50
180.0000
  0
INSERT
  8
22
  2
RECT
 10
45.0555
 20
10.2483
 30
0.0000
 41
0.1219
 42
0.0305
 43
1.0000
 50
180.0000
  0
INSERT
  8
22
  2
RECT
 10
41.8246
 20
10.2483
 30
0.0000
 41
0.1219
 42
0.0305
 43
1.0000
 50
180.0000
  0
INSERT
  8
22
  2
RECT
 10
45.0555
 20
10.2788
 30
0.0000
 41
0.1219
 42
0.0305
 43
1.0000
 50
180.0000
  0
INSERT
  8
22
  2
RECT
 10
41.8246
 20
10.2788
 30
0.0000
 41
0.1219
 42
0.0305
 43
1.0000
 50
180.0000
  0
INSERT
  8
22
  2
RECT
 10
45.0555
 20
10.3093
 30
0.0000
 41
0.1219
 42
0.0305
 43
1.0000
 50
180.0000
  0
INSERT
  8
22
  2
RECT
 10
41.8246
 20
10.3093
 30
0.0000
 41
0.1219
 42
0.0305
 43
1.0000
 50
180.0000
  0
INSERT
  8
22
  2
RECT
 10
45.0555
 20
10.3398
 30
0.0000
 41
0.1219
 42
0.0305
 43
1.0000
 50
180.0000
  0
INSERT
  8
22
  2
RECT
 10
43.7906
 20
10.3398
 30
0.0000
 41
0.1524
 42
0.0305
 43
1.0000
 50
180.0000
  0
INSERT
  8
22
  2
RECT
 10
41.8246
 20
10.3398
 30
0.0000
 41
0.1219
 42
0.0305
 43
1.0000
 50
180.0000
  0
INSERT
  8
22
  2
RECT
 10
45.0555
 20
10.3703
 30
0.0000
 41
0.1219
 42
0.0305
 43
1.0000
 50
180.0000
  0
INSERT
  8
22
  2
RECT
 10
43.7906
 20
10.3703
 30
0.0000
 41
0.1524
 42
0.0305
 43
1.0000
 50
180.0000
  0
INSERT
  8
22
  2
RECT
 10
42.9066
 20
10.3703
 30
0.0000
 41
0.1524
 42
0.0305
 43
1.0000
 50
180.0000
  0
INSERT
  8
22
  2
RECT
 10
41.8246
 20
10.3703
 30
0.0000
 41
0.1219
 42
0.0305
 43
1.0000
 50
180.0000
  0
INSERT
  8
22
  2
RECT
 10
45.0555
 20
10.4007
 30
0.0000
 41
0.1219
 42
0.0305
 43
1.0000
 50
180.0000
  0
INSERT
  8
22
  2
RECT
 10
43.7906
 20
10.4007
 30
0.0000
 41
0.1524
 42
0.0305
 43
1.0000
 50
180.0000
  0
INSERT
  8
22
  2
RECT
 10
42.9066
 20
10.4007
 30
0.0000
 41
0.1524
 42
0.0305
 43
1.0000
 50
180.0000
  0
INSERT
  8
22
  2
RECT
 10
41.8246
 20
10.4007
 30
0.0000
 41
0.1219
 42
0.0305
 43
1.0000
 50
180.0000
  0
INSERT
  8
22
  2
RECT
 10
45.0555
 20
10.4312
 30
0.0000
 41
0.1219
 42
0.0305
 43
1.0000
 50
180.0000
  0
INSERT
  8
22
  2
RECT
 10
43.3486
 20
10.4312
 30
0.0000
 41
1.0363
 42
0.0305
 43
1.0000
 50
180.0000
  0
INSERT
  8
22
  2
RECT
 10
41.8246
 20
10.4312
 30
0.0000
 41
0.1219
 42
0.0305
 43
1.0000
 50
180.0000
  0
INSERT
  8
22
  2
RECT
 10
45.0555
 20
10.4617
 30
0.0000
 41
0.1219
 42
0.0305
 43
1.0000
 50
180.0000
  0
INSERT
  8
22
  2
RECT
 10
43.3486
 20
10.4617
 30
0.0000
 41
1.0363
 42
0.0305
 43
1.0000
 50
180.0000
  0
INSERT
  8
22
  2
RECT
 10
41.8246
 20
10.4617
 30
0.0000
 41
0.1219
 42
0.0305
 43
1.0000
 50
180.0000
  0
INSERT
  8
22
  2
RECT
 10
45.0555
 20
10.4922
 30
0.0000
 41
0.1219
 42
0.0305
 43
1.0000
 50
180.0000
  0
INSERT
  8
22
  2
RECT
 10
43.3486
 20
10.4922
 30
0.0000
 41
1.0363
 42
0.0305
 43
1.0000
 50
180.0000
  0
INSERT
  8
22
  2
RECT
 10
41.8246
 20
10.4922
 30
0.0000
 41
0.1219
 42
0.0305
 43
1.0000
 50
180.0000
  0
INSERT
  8
22
  2
RECT
 10
45.0555
 20
10.5227
 30
0.0000
 41
0.1219
 42
0.0305
 43
1.0000
 50
180.0000
  0
INSERT
  8
22
  2
RECT
 10
43.3486
 20
10.5227
 30
0.0000
 41
1.0363
 42
0.0305
 43
1.0000
 50
180.0000
  0
INSERT
  8
22
  2
RECT
 10
41.8246
 20
10.5227
 30
0.0000
 41
0.1219
 42
0.0305
 43
1.0000
 50
180.0000
  0
INSERT
  8
22
  2
RECT
 10
45.0555
 20
10.5531
 30
0.0000
 41
0.1219
 42
0.0305
 43
1.0000
 50
180.0000
  0
INSERT
  8
22
  2
RECT
 10
43.3486
 20
10.5531
 30
0.0000
 41
1.0363
 42
0.0305
 43
1.0000
 50
180.0000
  0
INSERT
  8
22
  2
RECT
 10
41.8246
 20
10.5531
 30
0.0000
 41
0.1219
 42
0.0305
 43
1.0000
 50
180.0000
  0
INSERT
  8
22
  2
RECT
 10
45.0555
 20
10.5836
 30
0.0000
 41
0.1219
 42
0.0305
 43
1.0000
 50
180.0000
  0
INSERT
  8
22
  2
RECT
 10
43.7906
 20
10.5836
 30
0.0000
 41
0.1524
 42
0.0305
 43
1.0000
 50
180.0000
  0
INSERT
  8
22
  2
RECT
 10
42.9066
 20
10.5836
 30
0.0000
 41
0.1524
 42
0.0305
 43
1.0000
 50
180.0000
  0
INSERT
  8
22
  2
RECT
 10
41.8246
 20
10.5836
 30
0.0000
 41
0.1219
 42
0.0305
 43
1.0000
 50
180.0000
  0
INSERT
  8
22
  2
RECT
 10
45.0555
 20
10.6141
 30
0.0000
 41
0.1219
 42
0.0305
 43
1.0000
 50
180.0000
  0
INSERT
  8
22
  2
RECT
 10
44.2478
 20
10.6141
 30
0.0000
 41
0.0914
 42
0.0305
 43
1.0000
 50
180.0000
  0
INSERT
  8
22
  2
RECT
 10
43.7906
 20
10.6141
 30
0.0000
 41
0.1524
 42
0.0305
 43
1.0000
 50
180.0000
  0
INSERT
  8
22
  2
RECT
 10
42.9066
 20
10.6141
 30
0.0000
 41
0.1524
 42
0.0305
 43
1.0000
 50
180.0000
  0
INSERT
  8
22
  2
RECT
 10
41.8246
 20
10.6141
 30
0.0000
 41
0.1219
 42
0.0305
 43
1.0000
 50
180.0000
  0
INSERT
  8
22
  2
RECT
 10
45.0555
 20
10.6446
 30
0.0000
 41
0.1219
 42
0.0305
 43
1.0000
 50
180.0000
  0
INSERT
  8
22
  2
RECT
 10
44.2173
 20
10.6446
 30
0.0000
 41
0.1524
 42
0.0305
 43
1.0000
 50
180.0000
  0
INSERT
  8
22
  2
RECT
 10
43.7906
 20
10.6446
 30
0.0000
 41
0.1524
 42
0.0305
 43
1.0000
 50
180.0000
  0
INSERT
  8
22
  2
RECT
 10
42.9066
 20
10.6446
 30
0.0000
 41
0.1524
 42
0.0305
 43
1.0000
 50
180.0000
  0
INSERT
  8
22
  2
RECT
 10
41.8246
 20
10.6446
 30
0.0000
 41
0.1219
 42
0.0305
 43
1.0000
 50
180.0000
  0
INSERT
  8
22
  2
RECT
 10
45.0555
 20
10.6751
 30
0.0000
 41
0.1219
 42
0.0305
 43
1.0000
 50
180.0000
  0
INSERT
  8
22
  2
RECT
 10
44.1868
 20
10.6751
 30
0.0000
 41
0.2134
 42
0.0305
 43
1.0000
 50
180.0000
  0
INSERT
  8
22
  2
RECT
 10
43.7906
 20
10.6751
 30
0.0000
 41
0.1524
 42
0.0305
 43
1.0000
 50
180.0000
  0
INSERT
  8
22
  2
RECT
 10
42.9066
 20
10.6751
 30
0.0000
 41
0.1524
 42
0.0305
 43
1.0000
 50
180.0000
  0
INSERT
  8
22
  2
RECT
 10
41.8246
 20
10.6751
 30
0.0000
 41
0.1219
 42
0.0305
 43
1.0000
 50
180.0000
  0
INSERT
  8
22
  2
RECT
 10
45.0555
 20
10.7055
 30
0.0000
 41
0.1219
 42
0.0305
 43
1.0000
 50
180.0000
  0
INSERT
  8
22
  2
RECT
 10
44.1868
 20
10.7055
 30
0.0000
 41
0.2743
 42
0.0305
 43
1.0000
 50
180.0000
  0
INSERT
  8
22
  2
RECT
 10
43.7906
 20
10.7055
 30
0.0000
 41
0.1524
 42
0.0305
 43
1.0000
 50
180.0000
  0
INSERT
  8
22
  2
RECT
 10
42.9066
 20
10.7055
 30
0.0000
 41
0.1524
 42
0.0305
 43
1.0000
 50
180.0000
  0
INSERT
  8
22
  2
RECT
 10
41.8246
 20
10.7055
 30
0.0000
 41
0.1219
 42
0.0305
 43
1.0000
 50
180.0000
  0
INSERT
  8
22
  2
RECT
 10
45.0555
 20
10.7360
 30
0.0000
 41
0.1219
 42
0.0305
 43
1.0000
 50
180.0000
  0
INSERT
  8
22
  2
RECT
 10
44.1563
 20
10.7360
 30
0.0000
 41
0.3353
 42
0.0305
 43
1.0000
 50
180.0000
  0
INSERT
  8
22
  2
RECT
 10
43.7906
 20
10.7360
 30
0.0000
 41
0.1524
 42
0.0305
 43
1.0000
 50
180.0000
  0
INSERT
  8
22
  2
RECT
 10
42.9066
 20
10.7360
 30
0.0000
 41
0.1524
 42
0.0305
 43
1.0000
 50
180.0000
  0
INSERT
  8
22
  2
RECT
 10
41.8246
 20
10.7360
 30
0.0000
 41
0.1219
 42
0.0305
 43
1.0000
 50
180.0000
  0
INSERT
  8
22
  2
RECT
 10
45.0555
 20
10.7665
 30
0.0000
 41
0.1219
 42
0.0305
 43
1.0000
 50
180.0000
  0
INSERT
  8
22
  2
RECT
 10
44.1106
 20
10.7665
 30
0.0000
 41
0.3048
 42
0.0305
 43
1.0000
 50
180.0000
  0
INSERT
  8
22
  2
RECT
 10
43.7906
 20
10.7665
 30
0.0000
 41
0.1524
 42
0.0305
 43
1.0000
 50
180.0000
  0
INSERT
  8
22
  2
RECT
 10
42.9066
 20
10.7665
 30
0.0000
 41
0.1524
 42
0.0305
 43
1.0000
 50
180.0000
  0
INSERT
  8
22
  2
RECT
 10
41.8246
 20
10.7665
 30
0.0000
 41
0.1219
 42
0.0305
 43
1.0000
 50
180.0000
  0
INSERT
  8
22
  2
RECT
 10
45.0555
 20
10.7970
 30
0.0000
 41
0.1219
 42
0.0305
 43
1.0000
 50
180.0000
  0
INSERT
  8
22
  2
RECT
 10
44.0649
 20
10.7970
 30
0.0000
 41
0.2743
 42
0.0305
 43
1.0000
 50
180.0000
  0
INSERT
  8
22
  2
RECT
 10
43.7906
 20
10.7970
 30
0.0000
 41
0.1524
 42
0.0305
 43
1.0000
 50
180.0000
  0
INSERT
  8
22
  2
RECT
 10
42.9066
 20
10.7970
 30
0.0000
 41
0.1524
 42
0.0305
 43
1.0000
 50
180.0000
  0
INSERT
  8
22
  2
RECT
 10
41.8246
 20
10.7970
 30
0.0000
 41
0.1219
 42
0.0305
 43
1.0000
 50
180.0000
  0
INSERT
  8
22
  2
RECT
 10
45.0555
 20
10.8275
 30
0.0000
 41
0.1219
 42
0.0305
 43
1.0000
 50
180.0000
  0
INSERT
  8
22
  2
RECT
 10
43.9277
 20
10.8275
 30
0.0000
 41
0.4267
 42
0.0305
 43
1.0000
 50
180.0000
  0
INSERT
  8
22
  2
RECT
 10
42.9066
 20
10.8275
 30
0.0000
 41
0.1524
 42
0.0305
 43
1.0000
 50
180.0000
  0
INSERT
  8
22
  2
RECT
 10
41.8246
 20
10.8275
 30
0.0000
 41
0.1219
 42
0.0305
 43
1.0000
 50
180.0000
  0
INSERT
  8
22
  2
RECT
 10
45.0555
 20
10.8579
 30
0.0000
 41
0.1219
 42
0.0305
 43
1.0000
 50
180.0000
  0
INSERT
  8
22
  2
RECT
 10
43.9125
 20
10.8579
 30
0.0000
 41
0.3962
 42
0.0305
 43
1.0000
 50
180.0000
  0
INSERT
  8
22
  2
RECT
 10
42.9066
 20
10.8579
 30
0.0000
 41
0.1524
 42
0.0305
 43
1.0000
 50
180.0000
  0
INSERT
  8
22
  2
RECT
 10
41.8246
 20
10.8579
 30
0.0000
 41
0.1219
 42
0.0305
 43
1.0000
 50
180.0000
  0
INSERT
  8
22
  2
RECT
 10
45.0555
 20
10.8884
 30
0.0000
 41
0.1219
 42
0.0305
 43
1.0000
 50
180.0000
  0
INSERT
  8
22
  2
RECT
 10
43.8820
 20
10.8884
 30
0.0000
 41
0.3353
 42
0.0305
 43
1.0000
 50
180.0000
  0
INSERT
  8
22
  2
RECT
 10
42.9066
 20
10.8884
 30
0.0000
 41
0.1524
 42
0.0305
 43
1.0000
 50
180.0000
  0
INSERT
  8
22
  2
RECT
 10
41.8246
 20
10.8884
 30
0.0000
 41
0.1219
 42
0.0305
 43
1.0000
 50
180.0000
  0
INSERT
  8
22
  2
RECT
 10
45.0555
 20
10.9189
 30
0.0000
 41
0.1219
 42
0.0305
 43
1.0000
 50
180.0000
  0
INSERT
  8
22
  2
RECT
 10
43.4248
 20
10.9189
 30
0.0000
 41
1.1887
 42
0.0305
 43
1.0000
 50
180.0000
  0
INSERT
  8
22
  2
RECT
 10
41.8246
 20
10.9189
 30
0.0000
 41
0.1219
 42
0.0305
 43
1.0000
 50
180.0000
  0
INSERT
  8
22
  2
RECT
 10
45.0555
 20
10.9494
 30
0.0000
 41
0.1219
 42
0.0305
 43
1.0000
 50
180.0000
  0
INSERT
  8
22
  2
RECT
 10
43.4096
 20
10.9494
 30
0.0000
 41
1.1582
 42
0.0305
 43
1.0000
 50
180.0000
  0
INSERT
  8
22
  2
RECT
 10
41.8246
 20
10.9494
 30
0.0000
 41
0.1219
 42
0.0305
 43
1.0000
 50
180.0000
  0
INSERT
  8
22
  2
RECT
 10
45.0555
 20
10.9799
 30
0.0000
 41
0.1219
 42
0.0305
 43
1.0000
 50
180.0000
  0
INSERT
  8
22
  2
RECT
 10
43.3943
 20
10.9799
 30
0.0000
 41
1.1278
 42
0.0305
 43
1.0000
 50
180.0000
  0
INSERT
  8
22
  2
RECT
 10
41.8246
 20
10.9799
 30
0.0000
 41
0.1219
 42
0.0305
 43
1.0000
 50
180.0000
  0
INSERT
  8
22
  2
RECT
 10
45.0555
 20
11.0103
 30
0.0000
 41
0.1219
 42
0.0305
 43
1.0000
 50
180.0000
  0
INSERT
  8
22
  2
RECT
 10
43.3791
 20
11.0103
 30
0.0000
 41
1.0973
 42
0.0305
 43
1.0000
 50
180.0000
  0
INSERT
  8
22
  2
RECT
 10
41.8246
 20
11.0103
 30
0.0000
 41
0.1219
 42
0.0305
 43
1.0000
 50
180.0000
  0
INSERT
  8
22
  2
RECT
 10
45.0555
 20
11.0408
 30
0.0000
 41
0.1219
 42
0.0305
 43
1.0000
 50
180.0000
  0
INSERT
  8
22
  2
RECT
 10
43.3638
 20
11.0408
 30
0.0000
 41
1.0668
 42
0.0305
 43
1.0000
 50
180.0000
  0
INSERT
  8
22
  2
RECT
 10
41.8246
 20
11.0408
 30
0.0000
 41
0.1219
 42
0.0305
 43
1.0000
 50
180.0000
  0
INSERT
  8
22
  2
RECT
 10
45.0555
 20
11.0713
 30
0.0000
 41
0.1219
 42
0.0305
 43
1.0000
 50
180.0000
  0
INSERT
  8
22
  2
RECT
 10
43.7753
 20
11.0713
 30
0.0000
 41
0.1829
 42
0.0305
 43
1.0000
 50
180.0000
  0
INSERT
  8
22
  2
RECT
 10
41.8246
 20
11.0713
 30
0.0000
 41
0.1219
 42
0.0305
 43
1.0000
 50
180.0000
  0
INSERT
  8
22
  2
RECT
 10
45.0555
 20
11.1018
 30
0.0000
 41
0.1219
 42
0.0305
 43
1.0000
 50
180.0000
  0
INSERT
  8
22
  2
RECT
 10
43.7448
 20
11.1018
 30
0.0000
 41
0.1829
 42
0.0305
 43
1.0000
 50
180.0000
  0
INSERT
  8
22
  2
RECT
 10
41.8246
 20
11.1018
 30
0.0000
 41
0.1219
 42
0.0305
 43
1.0000
 50
180.0000
  0
INSERT
  8
22
  2
RECT
 10
45.0555
 20
11.1323
 30
0.0000
 41
0.1219
 42
0.0305
 43
1.0000
 50
180.0000
  0
INSERT
  8
22
  2
RECT
 10
43.7144
 20
11.1323
 30
0.0000
 41
0.1829
 42
0.0305
 43
1.0000
 50
180.0000
  0
INSERT
  8
22
  2
RECT
 10
41.8246
 20
11.1323
 30
0.0000
 41
0.1219
 42
0.0305
 43
1.0000
 50
180.0000
  0
INSERT
  8
22
  2
RECT
 10
45.0555
 20
11.1627
 30
0.0000
 41
0.1219
 42
0.0305
 43
1.0000
 50
180.0000
  0
INSERT
  8
22
  2
RECT
 10
43.6991
 20
11.1627
 30
0.0000
 41
0.1524
 42
0.0305
 43
1.0000
 50
180.0000
  0
INSERT
  8
22
  2
RECT
 10
41.8246
 20
11.1627
 30
0.0000
 41
0.1219
 42
0.0305
 43
1.0000
 50
180.0000
  0
INSERT
  8
22
  2
RECT
 10
45.0555
 20
11.1932
 30
0.0000
 41
0.1219
 42
0.0305
 43
1.0000
 50
180.0000
  0
INSERT
  8
22
  2
RECT
 10
43.6839
 20
11.1932
 30
0.0000
 41
0.1829
 42
0.0305
 43
1.0000
 50
180.0000
  0
INSERT
  8
22
  2
RECT
 10
41.8246
 20
11.1932
 30
0.0000
 41
0.1219
 42
0.0305
 43
1.0000
 50
180.0000
  0
INSERT
  8
22
  2
RECT
 10
45.0555
 20
11.2237
 30
0.0000
 41
0.1219
 42
0.0305
 43
1.0000
 50
180.0000
  0
INSERT
  8
22
  2
RECT
 10
43.6534
 20
11.2237
 30
0.0000
 41
0.1829
 42
0.0305
 43
1.0000
 50
180.0000
  0
INSERT
  8
22
  2
RECT
 10
41.8246
 20
11.2237
 30
0.0000
 41
0.1219
 42
0.0305
 43
1.0000
 50
180.0000
  0
INSERT
  8
22
  2
RECT
 10
45.0555
 20
11.2542
 30
0.0000
 41
0.1219
 42
0.0305
 43
1.0000
 50
180.0000
  0
INSERT
  8
22
  2
RECT
 10
43.6382
 20
11.2542
 30
0.0000
 41
0.1524
 42
0.0305
 43
1.0000
 50
180.0000
  0
INSERT
  8
22
  2
RECT
 10
41.8246
 20
11.2542
 30
0.0000
 41
0.1219
 42
0.0305
 43
1.0000
 50
180.0000
  0
INSERT
  8
22
  2
RECT
 10
45.0555
 20
11.2847
 30
0.0000
 41
0.1219
 42
0.0305
 43
1.0000
 50
180.0000
  0
INSERT
  8
22
  2
RECT
 10
43.4400
 20
11.2847
 30
0.0000
 41
1.7069
 42
0.0305
 43
1.0000
 50
180.0000
  0
INSERT
  8
22
  2
RECT
 10
41.8246
 20
11.2847
 30
0.0000
 41
0.1219
 42
0.0305
 43
1.0000
 50
180.0000
  0
INSERT
  8
22
  2
RECT
 10
45.0555
 20
11.3151
 30
0.0000
 41
0.1219
 42
0.0305
 43
1.0000
 50
180.0000
  0
INSERT
  8
22
  2
RECT
 10
43.4400
 20
11.3151
 30
0.0000
 41
1.7069
 42
0.0305
 43
1.0000
 50
180.0000
  0
INSERT
  8
22
  2
RECT
 10
41.8246
 20
11.3151
 30
0.0000
 41
0.1219
 42
0.0305
 43
1.0000
 50
180.0000
  0
INSERT
  8
22
  2
RECT
 10
45.0555
 20
11.3456
 30
0.0000
 41
0.1219
 42
0.0305
 43
1.0000
 50
180.0000
  0
INSERT
  8
22
  2
RECT
 10
43.4400
 20
11.3456
 30
0.0000
 41
1.7069
 42
0.0305
 43
1.0000
 50
180.0000
  0
INSERT
  8
22
  2
RECT
 10
41.8246
 20
11.3456
 30
0.0000
 41
0.1219
 42
0.0305
 43
1.0000
 50
180.0000
  0
INSERT
  8
22
  2
RECT
 10
45.0555
 20
11.3761
 30
0.0000
 41
0.1219
 42
0.0305
 43
1.0000
 50
180.0000
  0
INSERT
  8
22
  2
RECT
 10
43.4400
 20
11.3761
 30
0.0000
 41
1.7069
 42
0.0305
 43
1.0000
 50
180.0000
  0
INSERT
  8
22
  2
RECT
 10
41.8246
 20
11.3761
 30
0.0000
 41
0.1219
 42
0.0305
 43
1.0000
 50
180.0000
  0
INSERT
  8
22
  2
RECT
 10
45.0555
 20
11.4066
 30
0.0000
 41
0.1219
 42
0.0305
 43
1.0000
 50
180.0000
  0
INSERT
  8
22
  2
RECT
 10
43.4400
 20
11.4066
 30
0.0000
 41
1.7069
 42
0.0305
 43
1.0000
 50
180.0000
  0
INSERT
  8
22
  2
RECT
 10
41.8246
 20
11.4066
 30
0.0000
 41
0.1219
 42
0.0305
 43
1.0000
 50
180.0000
  0
INSERT
  8
22
  2
RECT
 10
45.0555
 20
11.4371
 30
0.0000
 41
0.1219
 42
0.0305
 43
1.0000
 50
180.0000
  0
INSERT
  8
22
  2
RECT
 10
43.5620
 20
11.4371
 30
0.0000
 41
0.1829
 42
0.0305
 43
1.0000
 50
180.0000
  0
INSERT
  8
22
  2
RECT
 10
41.8246
 20
11.4371
 30
0.0000
 41
0.1219
 42
0.0305
 43
1.0000
 50
180.0000
  0
INSERT
  8
22
  2
RECT
 10
45.0555
 20
11.4675
 30
0.0000
 41
0.1219
 42
0.0305
 43
1.0000
 50
180.0000
  0
INSERT
  8
22
  2
RECT
 10
43.5467
 20
11.4675
 30
0.0000
 41
0.1524
 42
0.0305
 43
1.0000
 50
180.0000
  0
INSERT
  8
22
  2
RECT
 10
41.8246
 20
11.4675
 30
0.0000
 41
0.1219
 42
0.0305
 43
1.0000
 50
180.0000
  0
INSERT
  8
22
  2
RECT
 10
45.0555
 20
11.4980
 30
0.0000
 41
0.1219
 42
0.0305
 43
1.0000
 50
180.0000
  0
INSERT
  8
22
  2
RECT
 10
43.5467
 20
11.4980
 30
0.0000
 41
0.1524
 42
0.0305
 43
1.0000
 50
180.0000
  0
INSERT
  8
22
  2
RECT
 10
41.8246
 20
11.4980
 30
0.0000
 41
0.1219
 42
0.0305
 43
1.0000
 50
180.0000
  0
INSERT
  8
22
  2
RECT
 10
45.0555
 20
11.5285
 30
0.0000
 41
0.1219
 42
0.0305
 43
1.0000
 50
180.0000
  0
INSERT
  8
22
  2
RECT
 10
43.5315
 20
11.5285
 30
0.0000
 41
0.1829
 42
0.0305
 43
1.0000
 50
180.0000
  0
INSERT
  8
22
  2
RECT
 10
41.8246
 20
11.5285
 30
0.0000
 41
0.1219
 42
0.0305
 43
1.0000
 50
180.0000
  0
INSERT
  8
22
  2
RECT
 10
45.0555
 20
11.5590
 30
0.0000
 41
0.1219
 42
0.0305
 43
1.0000
 50
180.0000
  0
INSERT
  8
22
  2
RECT
 10
43.5162
 20
11.5590
 30
0.0000
 41
0.1524
 42
0.0305
 43
1.0000
 50
180.0000
  0
INSERT
  8
22
  2
RECT
 10
41.8246
 20
11.5590
 30
0.0000
 41
0.1219
 42
0.0305
 43
1.0000
 50
180.0000
  0
INSERT
  8
22
  2
RECT
 10
45.0555
 20
11.5895
 30
0.0000
 41
0.1219
 42
0.0305
 43
1.0000
 50
180.0000
  0
INSERT
  8
22
  2
RECT
 10
43.7601
 20
11.5895
 30
0.0000
 41
0.1524
 42
0.0305
 43
1.0000
 50
180.0000
  0
INSERT
  8
22
  2
RECT
 10
43.5010
 20
11.5895
 30
0.0000
 41
0.1829
 42
0.0305
 43
1.0000
 50
180.0000
  0
INSERT
  8
22
  2
RECT
 10
43.1505
 20
11.5895
 30
0.0000
 41
0.1524
 42
0.0305
 43
1.0000
 50
180.0000
  0
INSERT
  8
22
  2
RECT
 10
41.8246
 20
11.5895
 30
0.0000
 41
0.1219
 42
0.0305
 43
1.0000
 50
180.0000
  0
INSERT
  8
22
  2
RECT
 10
45.0555
 20
11.6199
 30
0.0000
 41
0.1219
 42
0.0305
 43
1.0000
 50
180.0000
  0
INSERT
  8
22
  2
RECT
 10
43.7601
 20
11.6199
 30
0.0000
 41
0.1524
 42
0.0305
 43
1.0000
 50
180.0000
  0
INSERT
  8
22
  2
RECT
 10
43.5315
 20
11.6199
 30
0.0000
 41
0.1219
 42
0.0305
 43
1.0000
 50
180.0000
  0
INSERT
  8
22
  2
RECT
 10
43.1505
 20
11.6199
 30
0.0000
 41
0.1524
 42
0.0305
 43
1.0000
 50
180.0000
  0
INSERT
  8
22
  2
RECT
 10
41.8246
 20
11.6199
 30
0.0000
 41
0.1219
 42
0.0305
 43
1.0000
 50
180.0000
  0
INSERT
  8
22
  2
RECT
 10
45.0555
 20
11.6504
 30
0.0000
 41
0.1219
 42
0.0305
 43
1.0000
 50
180.0000
  0
INSERT
  8
22
  2
RECT
 10
43.7601
 20
11.6504
 30
0.0000
 41
0.1524
 42
0.0305
 43
1.0000
 50
180.0000
  0
INSERT
  8
22
  2
RECT
 10
43.1505
 20
11.6504
 30
0.0000
 41
0.1524
 42
0.0305
 43
1.0000
 50
180.0000
  0
INSERT
  8
22
  2
RECT
 10
41.8246
 20
11.6504
 30
0.0000
 41
0.1219
 42
0.0305
 43
1.0000
 50
180.0000
  0
INSERT
  8
22
  2
RECT
 10
45.0555
 20
11.6809
 30
0.0000
 41
0.1219
 42
0.0305
 43
1.0000
 50
180.0000
  0
INSERT
  8
22
  2
RECT
 10
43.7601
 20
11.6809
 30
0.0000
 41
0.1524
 42
0.0305
 43
1.0000
 50
180.0000
  0
INSERT
  8
22
  2
RECT
 10
43.1505
 20
11.6809
 30
0.0000
 41
0.1524
 42
0.0305
 43
1.0000
 50
180.0000
  0
INSERT
  8
22
  2
RECT
 10
41.8246
 20
11.6809
 30
0.0000
 41
0.1219
 42
0.0305
 43
1.0000
 50
180.0000
  0
INSERT
  8
22
  2
RECT
 10
45.0555
 20
11.7114
 30
0.0000
 41
0.1219
 42
0.0305
 43
1.0000
 50
180.0000
  0
INSERT
  8
22
  2
RECT
 10
43.7601
 20
11.7114
 30
0.0000
 41
0.1524
 42
0.0305
 43
1.0000
 50
180.0000
  0
INSERT
  8
22
  2
RECT
 10
43.1505
 20
11.7114
 30
0.0000
 41
0.1524
 42
0.0305
 43
1.0000
 50
180.0000
  0
INSERT
  8
22
  2
RECT
 10
41.8246
 20
11.7114
 30
0.0000
 41
0.1219
 42
0.0305
 43
1.0000
 50
180.0000
  0
INSERT
  8
22
  2
RECT
 10
45.0555
 20
11.7419
 30
0.0000
 41
0.1219
 42
0.0305
 43
1.0000
 50
180.0000
  0
INSERT
  8
22
  2
RECT
 10
43.7601
 20
11.7419
 30
0.0000
 41
0.1524
 42
0.0305
 43
1.0000
 50
180.0000
  0
INSERT
  8
22
  2
RECT
 10
43.1505
 20
11.7419
 30
0.0000
 41
0.1524
 42
0.0305
 43
1.0000
 50
180.0000
  0
INSERT
  8
22
  2
RECT
 10
41.8246
 20
11.7419
 30
0.0000
 41
0.1219
 42
0.0305
 43
1.0000
 50
180.0000
  0
INSERT
  8
22
  2
RECT
 10
45.0403
 20
11.7723
 30
0.0000
 41
0.0914
 42
0.0305
 43
1.0000
 50
180.0000
  0
INSERT
  8
22
  2
RECT
 10
43.4705
 20
11.7723
 30
0.0000
 41
1.7069
 42
0.0305
 43
1.0000
 50
180.0000
  0
INSERT
  8
22
  2
RECT
 10
41.8246
 20
11.7723
 30
0.0000
 41
0.1219
 42
0.0305
 43
1.0000
 50
180.0000
  0
INSERT
  8
22
  2
RECT
 10
45.0403
 20
11.8028
 30
0.0000
 41
0.0914
 42
0.0305
 43
1.0000
 50
180.0000
  0
INSERT
  8
22
  2
RECT
 10
43.4705
 20
11.8028
 30
0.0000
 41
1.7069
 42
0.0305
 43
1.0000
 50
180.0000
  0
INSERT
  8
22
  2
RECT
 10
41.8246
 20
11.8028
 30
0.0000
 41
0.1219
 42
0.0305
 43
1.0000
 50
180.0000
  0
INSERT
  8
22
  2
RECT
 10
45.0403
 20
11.8333
 30
0.0000
 41
0.0914
 42
0.0305
 43
1.0000
 50
180.0000
  0
INSERT
  8
22
  2
RECT
 10
43.4705
 20
11.8333
 30
0.0000
 41
1.7069
 42
0.0305
 43
1.0000
 50
180.0000
  0
INSERT
  8
22
  2
RECT
 10
41.8246
 20
11.8333
 30
0.0000
 41
0.1219
 42
0.0305
 43
1.0000
 50
180.0000
  0
INSERT
  8
22
  2
RECT
 10
45.0403
 20
11.8638
 30
0.0000
 41
0.0914
 42
0.0305
 43
1.0000
 50
180.0000
  0
INSERT
  8
22
  2
RECT
 10
43.4705
 20
11.8638
 30
0.0000
 41
1.7069
 42
0.0305
 43
1.0000
 50
180.0000
  0
INSERT
  8
22
  2
RECT
 10
41.8399
 20
11.8638
 30
0.0000
 41
0.0914
 42
0.0305
 43
1.0000
 50
180.0000
  0
INSERT
  8
22
  2
RECT
 10
45.0403
 20
11.8943
 30
0.0000
 41
0.0914
 42
0.0305
 43
1.0000
 50
180.0000
  0
INSERT
  8
22
  2
RECT
 10
43.4705
 20
11.8943
 30
0.0000
 41
1.7069
 42
0.0305
 43
1.0000
 50
180.0000
  0
INSERT
  8
22
  2
RECT
 10
41.8399
 20
11.8943
 30
0.0000
 41
0.0914
 42
0.0305
 43
1.0000
 50
180.0000
  0
INSERT
  8
22
  2
RECT
 10
45.0250
 20
11.9247
 30
0.0000
 41
0.1219
 42
0.0305
 43
1.0000
 50
180.0000
  0
INSERT
  8
22
  2
RECT
 10
43.7601
 20
11.9247
 30
0.0000
 41
0.1524
 42
0.0305
 43
1.0000
 50
180.0000
  0
INSERT
  8
22
  2
RECT
 10
43.1505
 20
11.9247
 30
0.0000
 41
0.1524
 42
0.0305
 43
1.0000
 50
180.0000
  0
INSERT
  8
22
  2
RECT
 10
41.8399
 20
11.9247
 30
0.0000
 41
0.0914
 42
0.0305
 43
1.0000
 50
180.0000
  0
INSERT
  8
22
  2
RECT
 10
45.0250
 20
11.9552
 30
0.0000
 41
0.1219
 42
0.0305
 43
1.0000
 50
180.0000
  0
INSERT
  8
22
  2
RECT
 10
43.7601
 20
11.9552
 30
0.0000
 41
0.1524
 42
0.0305
 43
1.0000
 50
180.0000
  0
INSERT
  8
22
  2
RECT
 10
43.1505
 20
11.9552
 30
0.0000
 41
0.1524
 42
0.0305
 43
1.0000
 50
180.0000
  0
INSERT
  8
22
  2
RECT
 10
41.8551
 20
11.9552
 30
0.0000
 41
0.1219
 42
0.0305
 43
1.0000
 50
180.0000
  0
INSERT
  8
22
  2
RECT
 10
45.0250
 20
11.9857
 30
0.0000
 41
0.1219
 42
0.0305
 43
1.0000
 50
180.0000
  0
INSERT
  8
22
  2
RECT
 10
43.7601
 20
11.9857
 30
0.0000
 41
0.1524
 42
0.0305
 43
1.0000
 50
180.0000
  0
INSERT
  8
22
  2
RECT
 10
43.1505
 20
11.9857
 30
0.0000
 41
0.1524
 42
0.0305
 43
1.0000
 50
180.0000
  0
INSERT
  8
22
  2
RECT
 10
41.8551
 20
11.9857
 30
0.0000
 41
0.1219
 42
0.0305
 43
1.0000
 50
180.0000
  0
INSERT
  8
22
  2
RECT
 10
45.0250
 20
12.0162
 30
0.0000
 41
0.1219
 42
0.0305
 43
1.0000
 50
180.0000
  0
INSERT
  8
22
  2
RECT
 10
43.7601
 20
12.0162
 30
0.0000
 41
0.1524
 42
0.0305
 43
1.0000
 50
180.0000
  0
INSERT
  8
22
  2
RECT
 10
43.1505
 20
12.0162
 30
0.0000
 41
0.1524
 42
0.0305
 43
1.0000
 50
180.0000
  0
INSERT
  8
22
  2
RECT
 10
41.8551
 20
12.0162
 30
0.0000
 41
0.1219
 42
0.0305
 43
1.0000
 50
180.0000
  0
INSERT
  8
22
  2
RECT
 10
45.0098
 20
12.0467
 30
0.0000
 41
0.0914
 42
0.0305
 43
1.0000
 50
180.0000
  0
INSERT
  8
22
  2
RECT
 10
43.7601
 20
12.0467
 30
0.0000
 41
0.1524
 42
0.0305
 43
1.0000
 50
180.0000
  0
INSERT
  8
22
  2
RECT
 10
43.1505
 20
12.0467
 30
0.0000
 41
0.1524
 42
0.0305
 43
1.0000
 50
180.0000
  0
INSERT
  8
22
  2
RECT
 10
41.8551
 20
12.0467
 30
0.0000
 41
0.1219
 42
0.0305
 43
1.0000
 50
180.0000
  0
INSERT
  8
22
  2
RECT
 10
44.9945
 20
12.0771
 30
0.0000
 41
0.1219
 42
0.0305
 43
1.0000
 50
180.0000
  0
INSERT
  8
22
  2
RECT
 10
43.7601
 20
12.0771
 30
0.0000
 41
0.1524
 42
0.0305
 43
1.0000
 50
180.0000
  0
INSERT
  8
22
  2
RECT
 10
43.1505
 20
12.0771
 30
0.0000
 41
0.1524
 42
0.0305
 43
1.0000
 50
180.0000
  0
INSERT
  8
22
  2
RECT
 10
41.8703
 20
12.0771
 30
0.0000
 41
0.0914
 42
0.0305
 43
1.0000
 50
180.0000
  0
INSERT
  8
22
  2
RECT
 10
44.9945
 20
12.1076
 30
0.0000
 41
0.1219
 42
0.0305
 43
1.0000
 50
180.0000
  0
INSERT
  8
22
  2
RECT
 10
43.7601
 20
12.1076
 30
0.0000
 41
0.1524
 42
0.0305
 43
1.0000
 50
180.0000
  0
INSERT
  8
22
  2
RECT
 10
43.1505
 20
12.1076
 30
0.0000
 41
0.1524
 42
0.0305
 43
1.0000
 50
180.0000
  0
INSERT
  8
22
  2
RECT
 10
41.8856
 20
12.1076
 30
0.0000
 41
0.1219
 42
0.0305
 43
1.0000
 50
180.0000
  0
INSERT
  8
22
  2
RECT
 10
44.9945
 20
12.1381
 30
0.0000
 41
0.1219
 42
0.0305
 43
1.0000
 50
180.0000
  0
INSERT
  8
22
  2
RECT
 10
41.8856
 20
12.1381
 30
0.0000
 41
0.1219
 42
0.0305
 43
1.0000
 50
180.0000
  0
INSERT
  8
22
  2
RECT
 10
44.9641
 20
12.1686
 30
0.0000
 41
0.1219
 42
0.0305
 43
1.0000
 50
180.0000
  0
INSERT
  8
22
  2
RECT
 10
41.8856
 20
12.1686
 30
0.0000
 41
0.1219
 42
0.0305
 43
1.0000
 50
180.0000
  0
INSERT
  8
22
  2
RECT
 10
44.9641
 20
12.1990
 30
0.0000
 41
0.1219
 42
0.0305
 43
1.0000
 50
180.0000
  0
INSERT
  8
22
  2
RECT
 10
41.9160
 20
12.1990
 30
0.0000
 41
0.1219
 42
0.0305
 43
1.0000
 50
180.0000
  0
INSERT
  8
22
  2
RECT
 10
44.9641
 20
12.2295
 30
0.0000
 41
0.1219
 42
0.0305
 43
1.0000
 50
180.0000
  0
INSERT
  8
22
  2
RECT
 10
41.9160
 20
12.2295
 30
0.0000
 41
0.1219
 42
0.0305
 43
1.0000
 50
180.0000
  0
INSERT
  8
22
  2
RECT
 10
44.9336
 20
12.2600
 30
0.0000
 41
0.1219
 42
0.0305
 43
1.0000
 50
180.0000
  0
INSERT
  8
22
  2
RECT
 10
41.9160
 20
12.2600
 30
0.0000
 41
0.1219
 42
0.0305
 43
1.0000
 50
180.0000
  0
INSERT
  8
22
  2
RECT
 10
44.9336
 20
12.2905
 30
0.0000
 41
0.1219
 42
0.0305
 43
1.0000
 50
180.0000
  0
INSERT
  8
22
  2
RECT
 10
41.9465
 20
12.2905
 30
0.0000
 41
0.1219
 42
0.0305
 43
1.0000
 50
180.0000
  0
INSERT
  8
22
  2
RECT
 10
44.9183
 20
12.3210
 30
0.0000
 41
0.1524
 42
0.0305
 43
1.0000
 50
180.0000
  0
INSERT
  8
22
  2
RECT
 10
41.9465
 20
12.3210
 30
0.0000
 41
0.1219
 42
0.0305
 43
1.0000
 50
180.0000
  0
INSERT
  8
22
  2
RECT
 10
44.9031
 20
12.3514
 30
0.0000
 41
0.1219
 42
0.0305
 43
1.0000
 50
180.0000
  0
INSERT
  8
22
  2
RECT
 10
41.9618
 20
12.3514
 30
0.0000
 41
0.1524
 42
0.0305
 43
1.0000
 50
180.0000
  0
INSERT
  8
22
  2
RECT
 10
44.8879
 20
12.3819
 30
0.0000
 41
0.1524
 42
0.0305
 43
1.0000
 50
180.0000
  0
INSERT
  8
22
  2
RECT
 10
41.9770
 20
12.3819
 30
0.0000
 41
0.1219
 42
0.0305
 43
1.0000
 50
180.0000
  0
INSERT
  8
22
  2
RECT
 10
44.8879
 20
12.4124
 30
0.0000
 41
0.1524
 42
0.0305
 43
1.0000
 50
180.0000
  0
INSERT
  8
22
  2
RECT
 10
41.9922
 20
12.4124
 30
0.0000
 41
0.1524
 42
0.0305
 43
1.0000
 50
180.0000
  0
INSERT
  8
22
  2
RECT
 10
44.8574
 20
12.4429
 30
0.0000
 41
0.1524
 42
0.0305
 43
1.0000
 50
180.0000
  0
INSERT
  8
22
  2
RECT
 10
42.0227
 20
12.4429
 30
0.0000
 41
0.1524
 42
0.0305
 43
1.0000
 50
180.0000
  0
INSERT
  8
22
  2
RECT
 10
44.8574
 20
12.4734
 30
0.0000
 41
0.1524
 42
0.0305
 43
1.0000
 50
180.0000
  0
INSERT
  8
22
  2
RECT
 10
42.0227
 20
12.4734
 30
0.0000
 41
0.1524
 42
0.0305
 43
1.0000
 50
180.0000
  0
INSERT
  8
22
  2
RECT
 10
44.8269
 20
12.5038
 30
0.0000
 41
0.1524
 42
0.0305
 43
1.0000
 50
180.0000
  0
INSERT
  8
22
  2
RECT
 10
42.0532
 20
12.5038
 30
0.0000
 41
0.1524
 42
0.0305
 43
1.0000
 50
180.0000
  0
INSERT
  8
22
  2
RECT
 10
44.7964
 20
12.5343
 30
0.0000
 41
0.1524
 42
0.0305
 43
1.0000
 50
180.0000
  0
INSERT
  8
22
  2
RECT
 10
42.0684
 20
12.5343
 30
0.0000
 41
0.1829
 42
0.0305
 43
1.0000
 50
180.0000
  0
INSERT
  8
22
  2
RECT
 10
44.7812
 20
12.5648
 30
0.0000
 41
0.1829
 42
0.0305
 43
1.0000
 50
180.0000
  0
INSERT
  8
22
  2
RECT
 10
42.0837
 20
12.5648
 30
0.0000
 41
0.1524
 42
0.0305
 43
1.0000
 50
180.0000
  0
INSERT
  8
22
  2
RECT
 10
44.7507
 20
12.5953
 30
0.0000
 41
0.1829
 42
0.0305
 43
1.0000
 50
180.0000
  0
INSERT
  8
22
  2
RECT
 10
42.1142
 20
12.5953
 30
0.0000
 41
0.1524
 42
0.0305
 43
1.0000
 50
180.0000
  0
INSERT
  8
22
  2
RECT
 10
44.7202
 20
12.6258
 30
0.0000
 41
0.1829
 42
0.0305
 43
1.0000
 50
180.0000
  0
INSERT
  8
22
  2
RECT
 10
42.1294
 20
12.6258
 30
0.0000
 41
0.1829
 42
0.0305
 43
1.0000
 50
180.0000
  0
INSERT
  8
22
  2
RECT
 10
44.7050
 20
12.6563
 30
0.0000
 41
0.2134
 42
0.0305
 43
1.0000
 50
180.0000
  0
INSERT
  8
22
  2
RECT
 10
42.1599
 20
12.6563
 30
0.0000
 41
0.1829
 42
0.0305
 43
1.0000
 50
180.0000
  0
INSERT
  8
22
  2
RECT
 10
44.6745
 20
12.6867
 30
0.0000
 41
0.2134
 42
0.0305
 43
1.0000
 50
180.0000
  0
INSERT
  8
22
  2
RECT
 10
42.2056
 20
12.6867
 30
0.0000
 41
0.2134
 42
0.0305
 43
1.0000
 50
180.0000
  0
INSERT
  8
22
  2
RECT
 10
44.6288
 20
12.7172
 30
0.0000
 41
0.2438
 42
0.0305
 43
1.0000
 50
180.0000
  0
INSERT
  8
22
  2
RECT
 10
42.2361
 20
12.7172
 30
0.0000
 41
0.2134
 42
0.0305
 43
1.0000
 50
180.0000
  0
INSERT
  8
22
  2
RECT
 10
44.5983
 20
12.7477
 30
0.0000
 41
0.2438
 42
0.0305
 43
1.0000
 50
180.0000
  0
INSERT
  8
22
  2
RECT
 10
42.2818
 20
12.7477
 30
0.0000
 41
0.2438
 42
0.0305
 43
1.0000
 50
180.0000
  0
INSERT
  8
22
  2
RECT
 10
44.5373
 20
12.7782
 30
0.0000
 41
0.3048
 42
0.0305
 43
1.0000
 50
180.0000
  0
INSERT
  8
22
  2
RECT
 10
42.3428
 20
12.7782
 30
0.0000
 41
0.3048
 42
0.0305
 43
1.0000
 50
180.0000
  0
INSERT
  8
22
  2
RECT
 10
43.4400
 20
12.8087
 30
0.0000
 41
2.4384
 42
0.0305
 43
1.0000
 50
180.0000
  0
INSERT
  8
22
  2
RECT
 10
43.4400
 20
12.8391
 30
0.0000
 41
2.3774
 42
0.0305
 43
1.0000
 50
180.0000
  0
INSERT
  8
22
  2
RECT
 10
43.4400
 20
12.8696
 30
0.0000
 41
2.2555
 42
0.0305
 43
1.0000
 50
180.0000
  0
INSERT
  8
22
  2
RECT
 10
43.4248
 20
12.9001
 30
0.0000
 41
2.1641
 42
0.0305
 43
1.0000
 50
180.0000
  0
INSERT
  8
22
  2
RECT
 10
43.4400
 20
12.9306
 30
0.0000
 41
2.0117
 42
0.0305
 43
1.0000
 50
180.0000
  0
INSERT
  8
22
  2
RECT
 10
43.4400
 20
12.9611
 30
0.0000
 41
1.7678
 42
0.0305
 43
1.0000
 50
180.0000
  0
LINE
  8
22
 10
52.9336
 20
41.5502
 30
0.0000
 11
52.9336
 21
42.8964
 31
0.0000
  0
LINE
  8
22
 10
52.9336
 20
42.8964
 30
0.0000
 11
52.5597
 21
42.8964
 31
0.0000
  0
ARC
  8
22
 10
52.5597
 20
42.6720
 30
0.0000
 40
0.2244
 50
90.0000
 51
179.9992
  0
LINE
  8
22
 10
52.3353
 20
42.6720
 30
0.0000
 11
52.3353
 21
42.2233
 31
0.0000
  0
ARC
  8
22
 10
52.5597
 20
42.2233
 30
0.0000
 40
0.2244
 50
180.0000
 51
270.0000
  0
LINE
  8
22
 10
52.5597
 20
41.9989
 30
0.0000
 11
52.9336
 21
41.9989
 31
0.0000
  0
LINE
  8
22
 10
51.7440
 20
43.3451
 30
0.0000
 11
51.7440
 21
42.2233
 31
0.0000
  0
ARC
  8
22
 10
51.5196
 20
42.2233
 30
0.0000
 40
0.2244
 50
270.0008
 51
0.0000
  0
LINE
  8
22
 10
50.4361
 20
42.5224
 30
0.0000
 11
50.7726
 21
42.5224
 31
0.0000
  0
ARC
  8
22
 10
50.7726
 20
42.2607
 30
0.0000
 40
0.2618
 50
270.0000
 51
90.0000
  0
LINE
  8
22
 10
50.7726
 20
41.9989
 30
0.0000
 11
50.4361
 21
41.9989
 31
0.0000
  0
LINE
  8
22
 10
50.4361
 20
41.9989
 30
0.0000
 11
50.4361
 21
42.6720
 31
0.0000
  0
ARC
  8
22
 10
50.6605
 20
42.6720
 30
0.0000
 40
0.2244
 50
89.9992
 51
180.0000
  0
LINE
  8
22
 10
50.6605
 20
42.8964
 30
0.0000
 11
50.9596
 21
42.8964
 31
0.0000
  0
LINE
  8
22
 10
49.2684
 20
41.9989
 30
0.0000
 11
49.5675
 21
41.9989
 31
0.0000
  0
ARC
  8
22
 10
49.5675
 20
42.2233
 30
0.0000
 40
0.2244
 50
270.0000
 51
0.0008
  0
LINE
  8
22
 10
49.7919
 20
42.2233
 30
0.0000
 11
49.7919
 21
42.6720
 31
0.0000
  0
ARC
  8
22
 10
49.5675
 20
42.6720
 30
0.0000
 40
0.2244
 50
0.0000
 51
90.0000
  0
LINE
  8
22
 10
49.5675
 20
42.8964
 30
0.0000
 11
49.2684
 21
42.8964
 31
0.0000
  0
LINE
  8
22
 10
48.1461
 20
41.9989
 30
0.0000
 11
48.5200
 21
41.9989
 31
0.0000
  0
ARC
  8
22
 10
48.5200
 20
42.2233
 30
0.0000
 40
0.2244
 50
270.0000
 51
0.0008
  0
LINE
  8
22
 10
48.7444
 20
42.2233
 30
0.0000
 11
48.7444
 21
42.5972
 31
0.0000
  0
ARC
  8
22
 10
48.4452
 20
42.5972
 30
0.0000
 40
0.2992
 50
0.0000
 51
180.0000
  0
LINE
  8
22
 10
48.1461
 20
42.5972
 30
0.0000
 11
48.1461
 21
42.4476
 31
0.0000
  0
LINE
  8
22
 10
48.1461
 20
42.4476
 30
0.0000
 11
48.7444
 21
42.4476
 31
0.0000
  0
LINE
  8
22
 10
47.4795
 20
41.9989
 30
0.0000
 11
47.4795
 21
42.8964
 31
0.0000
  0
LINE
  8
22
 10
47.4795
 20
42.8964
 30
0.0000
 11
46.8064
 21
42.8964
 31
0.0000
  0
ARC
  8
22
 10
46.8064
 20
42.6720
 30
0.0000
 40
0.2244
 50
90.0000
 51
179.9992
  0
LINE
  8
22
 10
46.5820
 20
42.6720
 30
0.0000
 11
46.5820
 21
41.9989
 31
0.0000
  0
LINE
  8
22
 10
47.0308
 20
41.9989
 30
0.0000
 11
47.0308
 21
42.8964
 31
0.0000
  0
LINE
  8
22
 10
45.3171
 20
41.9989
 30
0.0000
 11
45.6911
 21
41.9989
 31
0.0000
  0
ARC
  8
22
 10
45.6911
 20
42.2233
 30
0.0000
 40
0.2244
 50
270.0000
 51
0.0008
  0
LINE
  8
22
 10
45.9154
 20
42.2233
 30
0.0000
 11
45.9154
 21
42.5972
 31
0.0000
  0
ARC
  8
22
 10
45.6163
 20
42.5972
 30
0.0000
 40
0.2992
 50
0.0000
 51
180.0000
  0
LINE
  8
22
 10
45.3171
 20
42.5972
 30
0.0000
 11
45.3171
 21
42.4476
 31
0.0000
  0
LINE
  8
22
 10
45.3171
 20
42.4476
 30
0.0000
 11
45.9154
 21
42.4476
 31
0.0000
  0
LINE
  8
22
 10
44.6835
 20
41.9989
 30
0.0000
 11
44.6835
 21
42.8964
 31
0.0000
  0
LINE
  8
22
 10
44.6835
 20
42.8964
 30
0.0000
 11
44.3095
 21
42.8964
 31
0.0000
  0
ARC
  8
22
 10
44.3095
 20
42.6720
 30
0.0000
 40
0.2244
 50
90.0000
 51
179.9992
  0
LINE
  8
22
 10
44.0851
 20
42.6720
 30
0.0000
 11
44.0851
 21
41.9989
 31
0.0000
  0
LINE
  8
22
 10
43.5727
 20
42.8964
 30
0.0000
 11
43.1240
 21
42.8964
 31
0.0000
  0
LINE
  8
22
 10
43.4231
 20
43.3451
 30
0.0000
 11
43.4231
 21
42.2233
 31
0.0000
  0
ARC
  8
22
 10
43.1988
 20
42.2233
 30
0.0000
 40
0.2244
 50
269.9992
 51
360.0000
  0
LINE
  8
22
 10
43.1988
 20
41.9989
 30
0.0000
 11
43.1240
 21
41.9989
 31
0.0000
  0
LINE
  8
22
 10
41.3684
 20
42.3728
 30
0.0000
 11
41.7423
 21
42.5224
 31
0.0000
  0
ARC
  8
22
 10
41.6703
 20
42.7025
 30
0.0000
 40
0.1939
 50
291.8014
 51
90.8190
  0
ARC
  8
22
 10
41.6797
 20
42.0471
 30
0.0000
 40
0.8493
 50
90.8190
 51
114.2391
  0
ARC
  8
22
 10
41.4404
 20
42.1928
 30
0.0000
 40
0.1939
 50
111.8014
 51
270.8190
  0
ARC
  8
22
 10
41.4250
 20
43.2672
 30
0.0000
 40
1.2684
 50
270.8190
 51
289.7904
  0
LINE
  8
22
 10
40.6682
 20
42.2981
 30
0.0000
 11
40.6682
 21
42.5972
 31
0.0000
  0
ARC
  8
22
 10
40.3690
 20
42.5972
 30
0.0000
 40
0.2992
 50
0.0000
 51
180.0000
  0
LINE
  8
22
 10
40.0699
 20
42.5972
 30
0.0000
 11
40.0699
 21
42.2981
 31
0.0000
  0
ARC
  8
22
 10
40.3690
 20
42.2981
 30
0.0000
 40
0.2992
 50
180.0000
 51
0.0000
  0
LINE
  8
22
 10
39.4699
 20
43.3451
 30
0.0000
 11
39.4699
 21
42.2233
 31
0.0000
  0
ARC
  8
22
 10
39.2456
 20
42.2233
 30
0.0000
 40
0.2244
 50
270.0008
 51
0.0000
  0
LINE
  8
22
 10
38.1621
 20
43.3451
 30
0.0000
 11
38.1621
 21
41.9989
 31
0.0000
  0
LINE
  8
22
 10
38.1621
 20
41.9989
 30
0.0000
 11
38.5360
 21
41.9989
 31
0.0000
  0
ARC
  8
22
 10
38.5360
 20
42.2233
 30
0.0000
 40
0.2244
 50
270.0000
 51
0.0008
  0
LINE
  8
22
 10
38.7604
 20
42.2233
 30
0.0000
 11
38.7604
 21
42.6720
 31
0.0000
  0
ARC
  8
22
 10
38.5360
 20
42.6720
 30
0.0000
 40
0.2244
 50
0.0000
 51
90.0000
  0
LINE
  8
22
 10
38.5360
 20
42.8964
 30
0.0000
 11
38.1621
 21
42.8964
 31
0.0000
  0
LINE
  8
22
 10
36.9215
 20
41.9989
 30
0.0000
 11
37.2954
 21
41.9989
 31
0.0000
  0
ARC
  8
22
 10
37.2954
 20
42.2233
 30
0.0000
 40
0.2244
 50
270.0000
 51
0.0008
  0
LINE
  8
22
 10
37.5198
 20
42.2233
 30
0.0000
 11
37.5198
 21
42.5972
 31
0.0000
  0
ARC
  8
22
 10
37.2206
 20
42.5972
 30
0.0000
 40
0.2992
 50
0.0000
 51
180.0000
  0
LINE
  8
22
 10
36.9215
 20
42.5972
 30
0.0000
 11
36.9215
 21
42.4476
 31
0.0000
  0
LINE
  8
22
 10
36.9215
 20
42.4476
 30
0.0000
 11
37.5198
 21
42.4476
 31
0.0000
  0
LINE
  8
22
 10
36.2781
 20
41.9989
 30
0.0000
 11
36.2781
 21
42.8964
 31
0.0000
  0
LINE
  8
22
 10
36.2781
 20
42.8964
 30
0.0000
 11
35.8294
 21
42.8964
 31
0.0000
  0
LINE
  8
22
 10
35.8294
 20
42.8964
 30
0.0000
 11
35.8294
 21
42.7468
 31
0.0000
  0
LINE
  8
22
 10
34.1591
 20
42.3728
 30
0.0000
 11
34.5330
 21
42.5224
 31
0.0000
  0
ARC
  8
22
 10
34.4610
 20
42.7025
 30
0.0000
 40
0.1939
 50
291.8014
 51
90.8190
  0
ARC
  8
22
 10
34.4704
 20
42.0471
 30
0.0000
 40
0.8493
 50
90.8190
 51
114.2391
  0
ARC
  8
22
 10
34.2311
 20
42.1928
 30
0.0000
 40
0.1939
 50
111.8014
 51
270.8190
  0
ARC
  8
22
 10
34.2157
 20
43.2672
 30
0.0000
 40
1.2684
 50
270.8190
 51
289.7904
  0
LINE
  8
22
 10
33.4791
 20
41.9989
 30
0.0000
 11
33.4791
 21
42.8964
 31
0.0000
  0
LINE
  8
22
 10
33.5165
 20
43.2703
 30
0.0000
 11
33.5165
 21
43.3451
 31
0.0000
  0
LINE
  8
22
 10
33.5165
 20
43.3451
 30
0.0000
 11
33.4417
 21
43.3451
 31
0.0000
  0
LINE
  8
22
 10
33.4417
 20
43.3451
 30
0.0000
 11
33.4417
 21
43.2703
 31
0.0000
  0
LINE
  8
22
 10
33.4417
 20
43.2703
 30
0.0000
 11
33.5165
 21
43.2703
 31
0.0000
  0
LINE
  8
22
 10
32.3216
 20
43.3451
 30
0.0000
 11
32.3216
 21
41.9989
 31
0.0000
  0
LINE
  8
22
 10
32.3216
 20
41.9989
 30
0.0000
 11
32.6956
 21
41.9989
 31
0.0000
  0
ARC
  8
22
 10
32.6956
 20
42.2233
 30
0.0000
 40
0.2244
 50
270.0000
 51
0.0008
  0
LINE
  8
22
 10
32.9199
 20
42.2233
 30
0.0000
 11
32.9199
 21
42.6720
 31
0.0000
  0
ARC
  8
22
 10
32.6956
 20
42.6720
 30
0.0000
 40
0.2244
 50
0.0000
 51
90.0000
  0
LINE
  8
22
 10
32.6956
 20
42.8964
 30
0.0000
 11
32.3216
 21
42.8964
 31
0.0000
  0
LINE
  8
22
 10
31.0811
 20
41.9989
 30
0.0000
 11
31.4550
 21
41.9989
 31
0.0000
  0
ARC
  8
22
 10
31.4550
 20
42.2233
 30
0.0000
 40
0.2244
 50
270.0000
 51
0.0008
  0
LINE
  8
22
 10
31.6794
 20
42.2233
 30
0.0000
 11
31.6794
 21
42.5972
 31
0.0000
  0
ARC
  8
22
 10
31.3802
 20
42.5972
 30
0.0000
 40
0.2992
 50
0.0000
 51
180.0000
  0
LINE
  8
22
 10
31.0811
 20
42.5972
 30
0.0000
 11
31.0811
 21
42.4476
 31
0.0000
  0
LINE
  8
22
 10
31.0811
 20
42.4476
 30
0.0000
 11
31.6794
 21
42.4476
 31
0.0000
  0
ENDSEC
  0
EOF
