  0
SECTION
  2
HEADER
  9
$ACADVER
  1
AC1009
  9
$FILLMODE
 70
0
  9
$EXTMIN
 10
-1.0160
 20
-0.0650
 30
0.0000
  9
$EXTMAX
 10
54.6862
 20
56.5912
 30
0.0000
  0
ENDSEC
  0
SECTION
  2
TABLES
  0
TABLE
  2
LTYPE
 70
1
  0
LTYPE
  2
CONTINUOUS
 70
64
  3
Solid line
 72
65
 73
0
 40
0
  0
ENDTAB
  0
TABLE
  2
LAYER
 70
255
  0
LAYER
  2
20
 70
64
 62
30
  6
CONTINUOUS
  0
LAYER
  2
21
 70
64
 62
253
  6
CONTINUOUS
  0
LAYER
  2
51
 70
64
 62
253
  6
CONTINUOUS
  0
ENDTAB
  0
ENDSEC
  0
SECTION
  2
BLOCKS
  0
BLOCK
  8
0
  2
RECT
 70
64
 10
0.0000
 20
0.0000
 30
0.0000
  3
RECT
  0
SOLID
  8
0
 10
-0.5000
 20
-0.5000
 30
0.0000
 11
0.5000
 21
-0.5000
 31
0.0000
 12
-0.5000
 22
0.5000
 32
0.0000
 13
0.5000
 23
0.5000
 33
0.0000
  0
ENDBLK
  8
0
  0
BLOCK
  8
0
  2
PIE
 70
64
 10
0.0000
 20
0.0000
 30
0.0000
  3
PIE
  0
CIRCLE
  8
0
 10
0.0000
 20
0.0000
 30
0.0000
 40
0.5000
  0
ENDBLK
  8
0
  0
BLOCK
  8
0
  2
OCTAGONP
 70
64
 10
0.0000
 20
0.0000
 30
0.0000
  3
OCTAGONP
  0
POLYLINE
  8
0
 66
1
 10
0.0000
 20
0.0000
 30
0.0000
 40
0.0000
 41
0.0000
 70
1
  0
VERTEX
  8
0
 10
-0.5000
 20
-0.2071
 30
0.0000
  0
VERTEX
  8
0
 10
-0.5000
 20
0.2071
 30
0.0000
  0
VERTEX
  8
0
 10
-0.2071
 20
0.5000
 30
0.0000
  0
VERTEX
  8
0
 10
0.2071
 20
0.5000
 30
0.0000
  0
VERTEX
  8
0
 10
0.5000
 20
0.2071
 30
0.0000
  0
VERTEX
  8
0
 10
0.5000
 20
-0.2071
 30
0.0000
  0
VERTEX
  8
0
 10
0.2071
 20
-0.5000
 30
0.0000
  0
VERTEX
  8
0
 10
-0.2071
 20
-0.5000
 30
0.0000
  0
SEQEND
  8
0
  0
ENDBLK
  8
0
  0
BLOCK
  8
0
  2
SQUAREP
 70
64
 10
0.0000
 20
0.0000
 30
0.0000
  3
SQUAREP
  0
SOLID
  8
0
 10
-0.5000
 20
-0.5000
 30
0.0000
 11
0.5000
 21
-0.5000
 31
0.0000
 12
-0.5000
 22
0.5000
 32
0.0000
 13
0.5000
 23
0.5000
 33
0.0000
  0
ENDBLK
  8
0
  0
BLOCK
  8
0
  2
ROUNDP
 70
64
 10
0.0000
 20
0.0000
 30
0.0000
  3
ROUNDP
  0
CIRCLE
  8
0
 10
0.0000
 20
0.0000
 30
0.0000
 40
0.5000
  0
ENDBLK
  8
0
  0
BLOCK
  8
0
  2
ANNULUSP
 70
64
 10
0.0000
 20
0.0000
 30
0.0000
  3
ANNULUSP
  0
CIRCLE
  8
0
 10
0.0000
 20
0.0000
 30
0.0000
 40
0.5000
  0
ENDBLK
  8
0
  0
BLOCK
  8
0
  2
THERMALP
 70
64
 10
0.0000
 20
0.0000
 30
0.0000
  3
THERMALP
  0
LINE
  8
0
 10
-0.2379
 20
0.4500
 30
0.0000
 11
0.2379
 21
0.4500
 31
0.0000
  0
LINE
  8
0
 10
0.4500
 20
0.2379
 30
0.0000
 11
0.4500
 21
-0.2379
 31
0.0000
  0
LINE
  8
0
 10
0.2379
 20
-0.4500
 30
0.0000
 11
-0.2379
 21
-0.4500
 31
0.0000
  0
LINE
  8
0
 10
-0.4500
 20
-0.2379
 30
0.0000
 11
-0.4500
 21
0.2379
 31
0.0000
  0
ENDBLK
  8
0
  0
BLOCK
  8
0
  2
OCTAGONV
 70
64
 10
0.0000
 20
0.0000
 30
0.0000
  3
OCTAGONV
  0
POLYLINE
  8
0
 66
1
 10
0.0000
 20
0.0000
 30
0.0000
 40
0.0000
 41
0.0000
 70
1
  0
VERTEX
  8
0
 10
-0.5000
 20
-0.2071
 30
0.0000
  0
VERTEX
  8
0
 10
-0.5000
 20
0.2071
 30
0.0000
  0
VERTEX
  8
0
 10
-0.2071
 20
0.5000
 30
0.0000
  0
VERTEX
  8
0
 10
0.2071
 20
0.5000
 30
0.0000
  0
VERTEX
  8
0
 10
0.5000
 20
0.2071
 30
0.0000
  0
VERTEX
  8
0
 10
0.5000
 20
-0.2071
 30
0.0000
  0
VERTEX
  8
0
 10
0.2071
 20
-0.5000
 30
0.0000
  0
VERTEX
  8
0
 10
-0.2071
 20
-0.5000
 30
0.0000
  0
SEQEND
  8
0
  0
ENDBLK
  8
0
  0
BLOCK
  8
0
  2
SQUAREV
 70
64
 10
0.0000
 20
0.0000
 30
0.0000
  3
SQUAREV
  0
SOLID
  8
0
 10
-0.5000
 20
-0.5000
 30
0.0000
 11
0.5000
 21
-0.5000
 31
0.0000
 12
-0.5000
 22
0.5000
 32
0.0000
 13
0.5000
 23
0.5000
 33
0.0000
  0
ENDBLK
  8
0
  0
BLOCK
  8
0
  2
ROUNDV
 70
64
 10
0.0000
 20
0.0000
 30
0.0000
  3
ROUNDV
  0
CIRCLE
  8
0
 10
0.0000
 20
0.0000
 30
0.0000
 40
0.5000
  0
ENDBLK
  8
0
  0
BLOCK
  8
0
  2
ANNULUSV
 70
64
 10
0.0000
 20
0.0000
 30
0.0000
  3
ANNULUSV
  0
CIRCLE
  8
0
 10
0.0000
 20
0.0000
 30
0.0000
 40
0.5000
  0
ENDBLK
  8
0
  0
BLOCK
  8
0
  2
THERMALV
 70
64
 10
0.0000
 20
0.0000
 30
0.0000
  3
THERMALV
  0
LINE
  8
0
 10
-0.2379
 20
0.4500
 30
0.0000
 11
0.2379
 21
0.4500
 31
0.0000
  0
LINE
  8
0
 10
0.4500
 20
0.2379
 30
0.0000
 11
0.4500
 21
-0.2379
 31
0.0000
  0
LINE
  8
0
 10
0.2379
 20
-0.4500
 30
0.0000
 11
-0.2379
 21
-0.4500
 31
0.0000
  0
LINE
  8
0
 10
-0.4500
 20
-0.2379
 30
0.0000
 11
-0.4500
 21
0.2379
 31
0.0000
  0
ENDBLK
  8
0
  0
BLOCK
  8
0
  2
OFFSETP100
 70
64
 10
0.0000
 20
0.0000
 30
0.0000
  3
OFFSETP100
  0
POLYLINE
  8
0
 66
1
 10
0.0000
 20
0.0000
 30
0.0000
 40
0.0000
 41
0.0000
 70
1
  0
VERTEX
  8
0
 10
0.0000
 20
-0.5000
 30
0.0000
  0
VERTEX
  8
0
 10
1.0000
 20
-0.5000
 30
0.0000
 42
1.0000
  0
VERTEX
  8
0
 10
1.0000
 20
0.5000
 30
0.0000
  0
VERTEX
  8
0
 10
0.0000
 20
0.5000
 30
0.0000
 42
1.0000
  0
SEQEND
  8
0
  0
ENDBLK
  8
0
  0
ENDSEC
  0
SECTION
  2
ENTITIES
  0
LINE
  8
20
 10
1.0000
 20
34.0000
 30
0.0000
 11
47.0000
 21
34.0000
 31
0.0000
  0
ARC
  8
20
 10
47.0000
 20
33.0000
 30
0.0000
 40
1.0000
 50
0.0000
 51
90.0000
  0
LINE
  8
20
 10
48.0000
 20
33.0000
 30
0.0000
 11
48.0000
 21
1.0000
 31
0.0000
  0
ARC
  8
20
 10
47.0000
 20
1.0000
 30
0.0000
 40
1.0000
 50
270.0000
 51
0.0000
  0
LINE
  8
20
 10
47.0000
 20
0.0000
 30
0.0000
 11
1.0000
 21
0.0000
 31
0.0000
  0
ARC
  8
20
 10
1.0000
 20
1.0000
 30
0.0000
 40
1.0000
 50
180.0000
 51
270.0000
  0
LINE
  8
20
 10
0.0000
 20
1.0000
 30
0.0000
 11
0.0000
 21
33.0000
 31
0.0000
  0
ARC
  8
20
 10
1.0000
 20
33.0000
 30
0.0000
 40
1.0000
 50
90.0000
 51
180.0000
  0
LINE
  8
21
 10
38.5108
 20
30.0508
 30
0.0000
 11
38.2511
 21
30.0508
 31
0.0000
  0
ARC
  8
21
 10
38.2511
 20
30.3104
 30
0.0000
 40
0.2596
 50
180.0000
 51
270.0000
  0
LINE
  8
21
 10
37.9915
 20
30.3104
 30
0.0000
 11
37.9915
 21
30.9596
 31
0.0000
  0
ARC
  8
21
 10
38.2511
 20
30.9596
 30
0.0000
 40
0.2596
 50
90.0007
 51
180.0000
  0
LINE
  8
21
 10
38.2511
 20
31.2192
 30
0.0000
 11
38.5108
 21
31.2192
 31
0.0000
  0
LINE
  8
21
 10
38.9360
 20
30.3104
 30
0.0000
 11
38.9360
 21
30.5701
 31
0.0000
  0
ARC
  8
21
 10
39.1957
 20
30.5701
 30
0.0000
 40
0.2596
 50
0.0000
 51
180.0000
  0
LINE
  8
21
 10
39.4553
 20
30.5701
 30
0.0000
 11
39.4553
 21
30.3104
 31
0.0000
  0
ARC
  8
21
 10
39.1957
 20
30.3104
 30
0.0000
 40
0.2596
 50
180.0000
 51
0.0000
  0
LINE
  8
21
 10
39.9873
 20
30.0508
 30
0.0000
 11
39.9873
 21
30.8297
 31
0.0000
  0
LINE
  8
21
 10
39.9873
 20
30.8297
 30
0.0000
 11
40.5715
 21
30.8297
 31
0.0000
  0
ARC
  8
21
 10
40.5715
 20
30.6350
 30
0.0000
 40
0.1947
 50
0.0000
 51
90.0000
  0
LINE
  8
21
 10
40.7662
 20
30.6350
 30
0.0000
 11
40.7662
 21
30.0508
 31
0.0000
  0
LINE
  8
21
 10
40.3768
 20
30.0508
 30
0.0000
 11
40.3768
 21
30.8297
 31
0.0000
  0
LINE
  8
21
 10
41.3422
 20
29.6613
 30
0.0000
 11
41.3422
 21
30.8297
 31
0.0000
  0
LINE
  8
21
 10
41.3422
 20
30.8297
 30
0.0000
 11
41.6668
 21
30.8297
 31
0.0000
  0
ARC
  8
21
 10
41.6668
 20
30.6350
 30
0.0000
 40
0.1947
 50
0.0009
 51
90.0000
  0
LINE
  8
21
 10
41.8615
 20
30.6350
 30
0.0000
 11
41.8615
 21
30.2455
 31
0.0000
  0
ARC
  8
21
 10
41.6668
 20
30.2455
 30
0.0000
 40
0.1947
 50
270.0000
 51
0.0000
  0
LINE
  8
21
 10
41.6668
 20
30.0508
 30
0.0000
 11
41.3422
 21
30.0508
 31
0.0000
  0
LINE
  8
21
 10
42.3269
 20
30.3104
 30
0.0000
 11
42.3269
 21
30.5701
 31
0.0000
  0
ARC
  8
21
 10
42.5866
 20
30.5701
 30
0.0000
 40
0.2596
 50
0.0000
 51
180.0000
  0
LINE
  8
21
 10
42.8462
 20
30.5701
 30
0.0000
 11
42.8462
 21
30.3104
 31
0.0000
  0
ARC
  8
21
 10
42.5866
 20
30.3104
 30
0.0000
 40
0.2596
 50
180.0000
 51
0.0000
  0
LINE
  8
21
 10
43.7394
 20
30.3754
 30
0.0000
 11
43.4149
 21
30.5052
 31
0.0000
  0
ARC
  8
21
 10
43.4774
 20
30.6614
 30
0.0000
 40
0.1683
 50
89.1818
 51
248.1989
  0
ARC
  8
21
 10
43.4693
 20
30.0927
 30
0.0000
 40
0.7371
 50
65.7612
 51
89.1819
  0
ARC
  8
21
 10
43.6769
 20
30.2191
 30
0.0000
 40
0.1683
 50
269.1818
 51
68.1989
  0
ARC
  8
21
 10
43.6903
 20
31.1515
 30
0.0000
 40
1.1008
 50
250.2090
 51
269.1819
  0
LINE
  8
21
 10
44.3011
 20
30.0508
 30
0.0000
 11
44.3011
 21
30.8297
 31
0.0000
  0
LINE
  8
21
 10
44.2686
 20
31.1543
 30
0.0000
 11
44.2686
 21
31.2192
 31
0.0000
  0
LINE
  8
21
 10
44.2686
 20
31.2192
 30
0.0000
 11
44.3335
 21
31.2192
 31
0.0000
  0
LINE
  8
21
 10
44.3335
 20
31.2192
 30
0.0000
 11
44.3335
 21
31.1543
 31
0.0000
  0
LINE
  8
21
 10
44.3335
 20
31.1543
 30
0.0000
 11
44.2686
 21
31.1543
 31
0.0000
  0
LINE
  8
21
 10
44.6686
 20
30.8297
 30
0.0000
 11
45.0581
 21
30.8297
 31
0.0000
  0
LINE
  8
21
 10
44.7984
 20
31.2192
 30
0.0000
 11
44.7984
 21
30.2455
 31
0.0000
  0
ARC
  8
21
 10
44.9931
 20
30.2455
 30
0.0000
 40
0.1947
 50
180.0000
 51
270.0000
  0
LINE
  8
21
 10
44.9931
 20
30.0508
 30
0.0000
 11
45.0581
 21
30.0508
 31
0.0000
  0
LINE
  8
21
 10
46.0085
 20
30.0508
 30
0.0000
 11
45.6840
 21
30.0508
 31
0.0000
  0
ARC
  8
21
 10
45.6840
 20
30.2455
 30
0.0000
 40
0.1947
 50
180.0000
 51
270.0000
  0
LINE
  8
21
 10
45.4892
 20
30.2455
 30
0.0000
 11
45.4892
 21
30.5701
 31
0.0000
  0
ARC
  8
21
 10
45.7489
 20
30.5701
 30
0.0000
 40
0.2596
 50
0.0000
 51
180.0000
  0
LINE
  8
21
 10
46.0085
 20
30.5701
 30
0.0000
 11
46.0085
 21
30.4403
 31
0.0000
  0
LINE
  8
21
 10
46.0085
 20
30.4403
 30
0.0000
 11
45.4892
 21
30.4403
 31
0.0000
  0
LINE
  8
21
 10
2.7037
 20
30.0508
 30
0.0000
 11
3.0931
 21
31.2192
 31
0.0000
  0
LINE
  8
21
 10
3.0931
 20
31.2192
 30
0.0000
 11
3.4826
 21
30.0508
 31
0.0000
  0
LINE
  8
21
 10
3.3852
 20
30.3429
 30
0.0000
 11
2.8010
 21
30.3429
 31
0.0000
  0
LINE
  8
21
 10
3.9384
 20
30.8297
 30
0.0000
 11
3.9384
 21
30.2455
 31
0.0000
  0
ARC
  8
21
 10
4.1331
 20
30.2455
 30
0.0000
 40
0.1947
 50
180.0000
 51
270.0000
  0
LINE
  8
21
 10
4.1331
 20
30.0508
 30
0.0000
 11
4.4577
 21
30.0508
 31
0.0000
  0
LINE
  8
21
 10
4.4577
 20
30.0508
 30
0.0000
 11
4.4577
 21
30.8297
 31
0.0000
  0
LINE
  8
21
 10
5.4805
 20
31.2192
 30
0.0000
 11
5.4805
 21
30.0508
 31
0.0000
  0
LINE
  8
21
 10
5.4805
 20
30.0508
 30
0.0000
 11
5.1559
 21
30.0508
 31
0.0000
  0
ARC
  8
21
 10
5.1559
 20
30.2455
 30
0.0000
 40
0.1947
 50
180.0000
 51
270.0000
  0
LINE
  8
21
 10
4.9612
 20
30.2455
 30
0.0000
 11
4.9612
 21
30.6350
 31
0.0000
  0
ARC
  8
21
 10
5.1559
 20
30.6350
 30
0.0000
 40
0.1947
 50
90.0000
 51
180.0000
  0
LINE
  8
21
 10
5.1559
 20
30.8297
 30
0.0000
 11
5.4805
 21
30.8297
 31
0.0000
  0
LINE
  8
21
 10
5.9887
 20
30.0508
 30
0.0000
 11
5.9887
 21
30.8297
 31
0.0000
  0
LINE
  8
21
 10
5.9563
 20
31.1543
 30
0.0000
 11
5.9563
 21
31.2192
 31
0.0000
  0
LINE
  8
21
 10
5.9563
 20
31.2192
 30
0.0000
 11
6.0212
 21
31.2192
 31
0.0000
  0
LINE
  8
21
 10
6.0212
 20
31.2192
 30
0.0000
 11
6.0212
 21
31.1543
 31
0.0000
  0
LINE
  8
21
 10
6.0212
 20
31.1543
 30
0.0000
 11
5.9563
 21
31.1543
 31
0.0000
  0
LINE
  8
21
 10
6.4530
 20
30.3104
 30
0.0000
 11
6.4530
 21
30.5701
 31
0.0000
  0
ARC
  8
21
 10
6.7126
 20
30.5701
 30
0.0000
 40
0.2596
 50
0.0000
 51
180.0000
  0
LINE
  8
21
 10
6.9723
 20
30.5701
 30
0.0000
 11
6.9723
 21
30.3104
 31
0.0000
  0
ARC
  8
21
 10
6.7126
 20
30.3104
 30
0.0000
 40
0.2596
 50
180.0000
 51
0.0000
  0
LINE
  8
21
 10
8.1604
 20
31.2192
 30
0.0000
 11
8.1604
 21
30.0508
 31
0.0000
  0
LINE
  8
21
 10
8.0306
 20
30.0508
 30
0.0000
 11
8.2902
 21
30.0508
 31
0.0000
  0
LINE
  8
21
 10
8.0306
 20
31.2192
 30
0.0000
 11
8.2902
 21
31.2192
 31
0.0000
  0
LINE
  8
21
 10
8.7771
 20
30.0508
 30
0.0000
 11
8.7771
 21
30.8297
 31
0.0000
  0
LINE
  8
21
 10
8.7771
 20
30.8297
 30
0.0000
 11
9.1016
 21
30.8297
 31
0.0000
  0
ARC
  8
21
 10
9.1016
 20
30.6350
 30
0.0000
 40
0.1947
 50
0.0009
 51
90.0000
  0
LINE
  8
21
 10
9.2964
 20
30.6350
 30
0.0000
 11
9.2964
 21
30.0508
 31
0.0000
  0
LINE
  8
21
 10
13.2681
 20
30.0508
 30
0.0000
 11
13.6576
 21
31.2192
 31
0.0000
  0
LINE
  8
21
 10
13.6576
 20
31.2192
 30
0.0000
 11
14.0471
 21
30.0508
 31
0.0000
  0
LINE
  8
21
 10
13.9497
 20
30.3429
 30
0.0000
 11
13.3655
 21
30.3429
 31
0.0000
  0
LINE
  8
21
 10
14.5029
 20
30.8297
 30
0.0000
 11
14.5029
 21
30.2455
 31
0.0000
  0
ARC
  8
21
 10
14.6976
 20
30.2455
 30
0.0000
 40
0.1947
 50
180.0000
 51
270.0000
  0
LINE
  8
21
 10
14.6976
 20
30.0508
 30
0.0000
 11
15.0221
 21
30.0508
 31
0.0000
  0
LINE
  8
21
 10
15.0221
 20
30.0508
 30
0.0000
 11
15.0221
 21
30.8297
 31
0.0000
  0
LINE
  8
21
 10
16.0449
 20
31.2192
 30
0.0000
 11
16.0449
 21
30.0508
 31
0.0000
  0
LINE
  8
21
 10
16.0449
 20
30.0508
 30
0.0000
 11
15.7204
 21
30.0508
 31
0.0000
  0
ARC
  8
21
 10
15.7204
 20
30.2455
 30
0.0000
 40
0.1947
 50
180.0000
 51
270.0000
  0
LINE
  8
21
 10
15.5257
 20
30.2455
 30
0.0000
 11
15.5257
 21
30.6350
 31
0.0000
  0
ARC
  8
21
 10
15.7204
 20
30.6350
 30
0.0000
 40
0.1947
 50
90.0000
 51
180.0000
  0
LINE
  8
21
 10
15.7204
 20
30.8297
 30
0.0000
 11
16.0449
 21
30.8297
 31
0.0000
  0
LINE
  8
21
 10
16.5532
 20
30.0508
 30
0.0000
 11
16.5532
 21
30.8297
 31
0.0000
  0
LINE
  8
21
 10
16.5207
 20
31.1543
 30
0.0000
 11
16.5207
 21
31.2192
 31
0.0000
  0
LINE
  8
21
 10
16.5207
 20
31.2192
 30
0.0000
 11
16.5856
 21
31.2192
 31
0.0000
  0
LINE
  8
21
 10
16.5856
 20
31.2192
 30
0.0000
 11
16.5856
 21
31.1543
 31
0.0000
  0
LINE
  8
21
 10
16.5856
 20
31.1543
 30
0.0000
 11
16.5207
 21
31.1543
 31
0.0000
  0
LINE
  8
21
 10
17.0174
 20
30.3104
 30
0.0000
 11
17.0174
 21
30.5701
 31
0.0000
  0
ARC
  8
21
 10
17.2771
 20
30.5701
 30
0.0000
 40
0.2596
 50
0.0000
 51
180.0000
  0
LINE
  8
21
 10
17.5367
 20
30.5701
 30
0.0000
 11
17.5367
 21
30.3104
 31
0.0000
  0
ARC
  8
21
 10
17.2771
 20
30.3104
 30
0.0000
 40
0.2596
 50
180.0000
 51
0.0000
  0
LINE
  8
21
 10
18.6289
 20
30.3754
 30
0.0000
 11
18.6289
 21
30.8946
 31
0.0000
  0
ARC
  8
21
 10
18.9535
 20
30.8946
 30
0.0000
 40
0.3246
 50
0.0000
 51
180.0000
  0
LINE
  8
21
 10
19.2780
 20
30.8946
 30
0.0000
 11
19.2780
 21
30.3754
 31
0.0000
  0
ARC
  8
21
 10
18.9535
 20
30.3754
 30
0.0000
 40
0.3246
 50
180.0000
 51
0.0000
  0
LINE
  8
21
 10
19.7987
 20
30.8297
 30
0.0000
 11
19.7987
 21
30.2455
 31
0.0000
  0
ARC
  8
21
 10
19.9935
 20
30.2455
 30
0.0000
 40
0.1947
 50
180.0000
 51
270.0000
  0
LINE
  8
21
 10
19.9935
 20
30.0508
 30
0.0000
 11
20.3180
 21
30.0508
 31
0.0000
  0
LINE
  8
21
 10
20.3180
 20
30.0508
 30
0.0000
 11
20.3180
 21
30.8297
 31
0.0000
  0
LINE
  8
21
 10
20.7307
 20
30.8297
 30
0.0000
 11
21.1202
 21
30.8297
 31
0.0000
  0
LINE
  8
21
 10
20.8605
 20
31.2192
 30
0.0000
 11
20.8605
 21
30.2455
 31
0.0000
  0
ARC
  8
21
 10
21.0553
 20
30.2455
 30
0.0000
 40
0.1947
 50
180.0000
 51
270.0000
  0
LINE
  8
21
 10
21.0553
 20
30.0508
 30
0.0000
 11
21.1202
 21
30.0508
 31
0.0000
  0
LINE
  8
21
 10
22.2126
 20
31.2192
 30
0.0000
 11
22.2126
 21
30.0508
 31
0.0000
  0
LINE
  8
21
 10
22.2126
 20
30.0508
 30
0.0000
 11
22.7319
 21
30.0508
 31
0.0000
  0
LINE
  8
21
 10
25.2007
 20
30.0508
 30
0.0000
 11
25.5901
 21
31.2192
 31
0.0000
  0
LINE
  8
21
 10
25.5901
 20
31.2192
 30
0.0000
 11
25.9796
 21
30.0508
 31
0.0000
  0
LINE
  8
21
 10
25.8822
 20
30.3429
 30
0.0000
 11
25.2980
 21
30.3429
 31
0.0000
  0
LINE
  8
21
 10
26.4354
 20
30.8297
 30
0.0000
 11
26.4354
 21
30.2455
 31
0.0000
  0
ARC
  8
21
 10
26.6301
 20
30.2455
 30
0.0000
 40
0.1947
 50
180.0000
 51
270.0000
  0
LINE
  8
21
 10
26.6301
 20
30.0508
 30
0.0000
 11
26.9547
 21
30.0508
 31
0.0000
  0
LINE
  8
21
 10
26.9547
 20
30.0508
 30
0.0000
 11
26.9547
 21
30.8297
 31
0.0000
  0
LINE
  8
21
 10
27.9775
 20
31.2192
 30
0.0000
 11
27.9775
 21
30.0508
 31
0.0000
  0
LINE
  8
21
 10
27.9775
 20
30.0508
 30
0.0000
 11
27.6529
 21
30.0508
 31
0.0000
  0
ARC
  8
21
 10
27.6529
 20
30.2455
 30
0.0000
 40
0.1947
 50
180.0000
 51
270.0000
  0
LINE
  8
21
 10
27.4582
 20
30.2455
 30
0.0000
 11
27.4582
 21
30.6350
 31
0.0000
  0
ARC
  8
21
 10
27.6529
 20
30.6350
 30
0.0000
 40
0.1947
 50
90.0000
 51
180.0000
  0
LINE
  8
21
 10
27.6529
 20
30.8297
 30
0.0000
 11
27.9775
 21
30.8297
 31
0.0000
  0
LINE
  8
21
 10
28.4857
 20
30.0508
 30
0.0000
 11
28.4857
 21
30.8297
 31
0.0000
  0
LINE
  8
21
 10
28.4533
 20
31.1543
 30
0.0000
 11
28.4533
 21
31.2192
 31
0.0000
  0
LINE
  8
21
 10
28.4533
 20
31.2192
 30
0.0000
 11
28.5182
 21
31.2192
 31
0.0000
  0
LINE
  8
21
 10
28.5182
 20
31.2192
 30
0.0000
 11
28.5182
 21
31.1543
 31
0.0000
  0
LINE
  8
21
 10
28.5182
 20
31.1543
 30
0.0000
 11
28.4533
 21
31.1543
 31
0.0000
  0
LINE
  8
21
 10
28.9500
 20
30.3104
 30
0.0000
 11
28.9500
 21
30.5701
 31
0.0000
  0
ARC
  8
21
 10
29.2096
 20
30.5701
 30
0.0000
 40
0.2596
 50
0.0000
 51
180.0000
  0
LINE
  8
21
 10
29.4693
 20
30.5701
 30
0.0000
 11
29.4693
 21
30.3104
 31
0.0000
  0
ARC
  8
21
 10
29.2096
 20
30.3104
 30
0.0000
 40
0.2596
 50
180.0000
 51
0.0000
  0
LINE
  8
21
 10
30.5615
 20
30.3754
 30
0.0000
 11
30.5615
 21
30.8946
 31
0.0000
  0
ARC
  8
21
 10
30.8860
 20
30.8946
 30
0.0000
 40
0.3246
 50
0.0000
 51
180.0000
  0
LINE
  8
21
 10
31.2106
 20
30.8946
 30
0.0000
 11
31.2106
 21
30.3754
 31
0.0000
  0
ARC
  8
21
 10
30.8860
 20
30.3754
 30
0.0000
 40
0.3246
 50
180.0000
 51
0.0000
  0
LINE
  8
21
 10
31.7313
 20
30.8297
 30
0.0000
 11
31.7313
 21
30.2455
 31
0.0000
  0
ARC
  8
21
 10
31.9260
 20
30.2455
 30
0.0000
 40
0.1947
 50
180.0000
 51
270.0000
  0
LINE
  8
21
 10
31.9260
 20
30.0508
 30
0.0000
 11
32.2506
 21
30.0508
 31
0.0000
  0
LINE
  8
21
 10
32.2506
 20
30.0508
 30
0.0000
 11
32.2506
 21
30.8297
 31
0.0000
  0
LINE
  8
21
 10
32.6633
 20
30.8297
 30
0.0000
 11
33.0527
 21
30.8297
 31
0.0000
  0
LINE
  8
21
 10
32.7931
 20
31.2192
 30
0.0000
 11
32.7931
 21
30.2455
 31
0.0000
  0
ARC
  8
21
 10
32.9878
 20
30.2455
 30
0.0000
 40
0.1947
 50
180.0000
 51
270.0000
  0
LINE
  8
21
 10
32.9878
 20
30.0508
 30
0.0000
 11
33.0527
 21
30.0508
 31
0.0000
  0
LINE
  8
21
 10
34.1502
 20
30.0508
 30
0.0000
 11
34.1502
 21
31.2192
 31
0.0000
  0
LINE
  8
21
 10
34.1502
 20
31.2192
 30
0.0000
 11
34.4748
 21
31.2192
 31
0.0000
  0
ARC
  8
21
 10
34.4748
 20
30.8946
 30
0.0000
 40
0.3246
 50
270.0000
 51
90.0000
  0
LINE
  8
21
 10
34.4748
 20
30.5701
 30
0.0000
 11
34.1502
 21
30.5701
 31
0.0000
  0
LINE
  8
21
 10
34.7993
 20
30.0508
 30
0.0000
 11
34.5397
 21
30.5701
 31
0.0000
  0
LINE
  8
21
 10
24.4919
 20
15.9021
 30
0.0000
 11
24.4919
 21
17.0705
 31
0.0000
  0
LINE
  8
21
 10
24.4919
 20
17.0705
 30
0.0000
 11
24.8814
 21
16.4213
 31
0.0000
  0
LINE
  8
21
 10
24.8814
 20
16.4213
 30
0.0000
 11
25.2709
 21
17.0705
 31
0.0000
  0
LINE
  8
21
 10
25.2709
 20
17.0705
 30
0.0000
 11
25.2709
 21
15.9021
 31
0.0000
  0
LINE
  8
21
 10
25.8141
 20
16.2266
 30
0.0000
 11
25.8141
 21
16.7459
 31
0.0000
  0
ARC
  8
21
 10
26.1387
 20
16.7459
 30
0.0000
 40
0.3246
 50
0.0000
 51
180.0000
  0
LINE
  8
21
 10
26.4633
 20
16.7459
 30
0.0000
 11
26.4633
 21
16.2266
 31
0.0000
  0
ARC
  8
21
 10
26.1387
 20
16.2266
 30
0.0000
 40
0.3246
 50
180.0000
 51
0.0000
  0
LINE
  8
21
 10
26.9952
 20
15.9021
 30
0.0000
 11
26.9952
 21
17.0705
 31
0.0000
  0
LINE
  8
21
 10
26.9952
 20
17.0705
 30
0.0000
 11
27.6444
 21
15.9021
 31
0.0000
  0
LINE
  8
21
 10
27.6444
 20
15.9021
 30
0.0000
 11
27.6444
 21
17.0705
 31
0.0000
  0
LINE
  8
21
 10
28.1763
 20
16.2266
 30
0.0000
 11
28.1763
 21
16.7459
 31
0.0000
  0
ARC
  8
21
 10
28.5009
 20
16.7459
 30
0.0000
 40
0.3246
 50
0.0000
 51
180.0000
  0
LINE
  8
21
 10
28.8255
 20
16.7459
 30
0.0000
 11
28.8255
 21
16.2266
 31
0.0000
  0
ARC
  8
21
 10
28.5009
 20
16.2266
 30
0.0000
 40
0.3246
 50
180.0000
 51
0.0000
  0
ARC
  8
21
 10
37.5715
 20
16.1617
 30
0.0000
 40
0.2596
 50
270.0000
 51
0.0000
  0
ARC
  8
21
 10
37.5715
 20
16.4506
 30
0.0000
 40
0.5485
 50
224.7610
 51
269.9999
  0
ARC
  8
21
 10
37.4741
 20
16.8108
 30
0.0000
 40
0.2596
 50
89.9993
 51
180.0000
  0
ARC
  8
21
 10
37.4741
 20
16.5836
 30
0.0000
 40
0.4868
 50
53.1301
 51
89.9993
  0
ARC
  8
21
 10
37.4782
 20
16.8108
 30
0.0000
 40
0.2637
 50
179.9998
 51
239.4902
  0
ARC
  8
21
 10
37.5675
 20
16.1617
 30
0.0000
 40
0.2637
 50
0.0001
 51
59.4899
  0
LINE
  8
21
 10
37.7013
 20
16.3889
 30
0.0000
 11
37.3443
 21
16.5836
 31
0.0000
  0
LINE
  8
21
 10
38.5353
 20
15.9021
 30
0.0000
 11
38.5353
 21
17.0705
 31
0.0000
  0
LINE
  8
21
 10
38.2107
 20
17.0705
 30
0.0000
 11
38.8599
 21
17.0705
 31
0.0000
  0
LINE
  8
21
 10
39.8372
 20
15.9021
 30
0.0000
 11
39.3179
 21
15.9021
 31
0.0000
  0
LINE
  8
21
 10
39.3179
 20
15.9021
 30
0.0000
 11
39.3179
 21
17.0705
 31
0.0000
  0
LINE
  8
21
 10
39.3179
 20
17.0705
 30
0.0000
 11
39.8372
 21
17.0705
 31
0.0000
  0
LINE
  8
21
 10
39.3179
 20
16.5512
 30
0.0000
 11
39.7074
 21
16.5512
 31
0.0000
  0
LINE
  8
21
 10
40.3136
 20
15.9021
 30
0.0000
 11
40.3136
 21
17.0705
 31
0.0000
  0
LINE
  8
21
 10
40.3136
 20
17.0705
 30
0.0000
 11
40.6382
 21
17.0705
 31
0.0000
  0
ARC
  8
21
 10
40.6382
 20
16.7459
 30
0.0000
 40
0.3246
 50
270.0000
 51
90.0000
  0
LINE
  8
21
 10
40.6382
 20
16.4213
 30
0.0000
 11
40.3136
 21
16.4213
 31
0.0000
  0
LINE
  8
21
 10
40.9627
 20
15.9021
 30
0.0000
 11
40.7031
 21
16.4213
 31
0.0000
  0
LINE
  8
21
 10
42.0089
 20
15.9021
 30
0.0000
 11
41.4896
 21
15.9021
 31
0.0000
  0
LINE
  8
21
 10
41.4896
 20
15.9021
 30
0.0000
 11
41.4896
 21
17.0705
 31
0.0000
  0
LINE
  8
21
 10
41.4896
 20
17.0705
 30
0.0000
 11
42.0089
 21
17.0705
 31
0.0000
  0
LINE
  8
21
 10
41.4896
 20
16.5512
 30
0.0000
 11
41.8791
 21
16.5512
 31
0.0000
  0
LINE
  8
21
 10
42.4398
 20
16.2266
 30
0.0000
 11
42.4398
 21
16.7459
 31
0.0000
  0
ARC
  8
21
 10
42.7644
 20
16.7459
 30
0.0000
 40
0.3246
 50
0.0000
 51
180.0000
  0
LINE
  8
21
 10
43.0890
 20
16.7459
 30
0.0000
 11
43.0890
 21
16.2266
 31
0.0000
  0
ARC
  8
21
 10
42.7644
 20
16.2266
 30
0.0000
 40
0.3246
 50
180.0000
 51
0.0000
  0
LINE
  8
21
 10
37.9817
 20
1.2051
 30
0.0000
 11
37.9817
 21
0.9454
 31
0.0000
  0
ARC
  8
21
 10
37.7221
 20
0.9454
 30
0.0000
 40
0.2596
 50
270.0000
 51
0.0000
  0
LINE
  8
21
 10
37.7221
 20
0.6858
 30
0.0000
 11
37.0729
 21
0.6858
 31
0.0000
  0
ARC
  8
21
 10
37.0729
 20
0.9455
 30
0.0000
 40
0.2596
 50
180.0014
 51
270.0000
  0
LINE
  8
21
 10
36.8133
 20
0.9454
 30
0.0000
 11
36.8133
 21
1.2051
 31
0.0000
  0
LINE
  8
21
 10
37.9817
 20
1.6797
 30
0.0000
 11
36.8133
 21
1.6797
 31
0.0000
  0
LINE
  8
21
 10
37.3326
 20
1.6797
 30
0.0000
 11
37.3326
 21
2.3288
 31
0.0000
  0
LINE
  8
21
 10
36.8133
 20
2.3288
 30
0.0000
 11
37.9817
 21
2.3288
 31
0.0000
  0
LINE
  8
21
 10
37.9817
 20
2.9063
 30
0.0000
 11
36.8133
 21
2.9063
 31
0.0000
  0
LINE
  8
21
 10
36.8133
 20
2.9063
 30
0.0000
 11
36.8133
 21
3.2308
 31
0.0000
  0
ARC
  8
21
 10
37.1379
 20
3.2308
 30
0.0000
 40
0.3246
 50
0.0000
 51
180.0000
  0
LINE
  8
21
 10
37.4624
 20
3.2308
 30
0.0000
 11
37.4624
 21
2.9063
 31
0.0000
  0
LINE
  8
21
 10
37.9817
 20
3.5554
 30
0.0000
 11
37.4624
 21
3.2957
 31
0.0000
  0
LINE
  8
21
 10
37.6571
 20
4.0419
 30
0.0000
 11
37.1379
 21
4.0419
 31
0.0000
  0
ARC
  8
21
 10
37.1379
 20
4.3665
 30
0.0000
 40
0.3246
 50
90.0000
 51
270.0000
  0
LINE
  8
21
 10
37.1379
 20
4.6910
 30
0.0000
 11
37.6571
 21
4.6910
 31
0.0000
  0
ARC
  8
21
 10
37.6571
 20
4.3665
 30
0.0000
 40
0.3246
 50
270.0000
 51
90.0000
  0
LINE
  8
21
 10
37.9817
 20
5.2343
 30
0.0000
 11
36.8133
 21
5.2343
 31
0.0000
  0
LINE
  8
21
 10
36.8133
 20
5.2343
 30
0.0000
 11
37.4624
 21
5.6238
 31
0.0000
  0
LINE
  8
21
 10
37.4624
 20
5.6238
 30
0.0000
 11
36.8133
 21
6.0132
 31
0.0000
  0
LINE
  8
21
 10
36.8133
 20
6.0132
 30
0.0000
 11
37.9817
 21
6.0132
 31
0.0000
  0
LINE
  8
21
 10
37.9817
 20
6.4916
 30
0.0000
 11
36.8133
 21
6.8811
 31
0.0000
  0
LINE
  8
21
 10
36.8133
 20
6.8811
 30
0.0000
 11
37.9817
 21
7.2705
 31
0.0000
  0
LINE
  8
21
 10
37.6896
 20
7.1732
 30
0.0000
 11
37.6896
 21
6.5890
 31
0.0000
  0
LINE
  8
21
 10
37.9817
 20
8.3472
 30
0.0000
 11
36.8133
 21
8.3472
 31
0.0000
  0
LINE
  8
21
 10
37.3326
 20
8.3472
 30
0.0000
 11
37.3326
 21
8.9963
 31
0.0000
  0
LINE
  8
21
 10
36.8133
 20
8.9963
 30
0.0000
 11
37.9817
 21
8.9963
 31
0.0000
  0
LINE
  8
21
 10
36.8133
 20
9.6243
 30
0.0000
 11
37.9817
 21
9.6243
 31
0.0000
  0
LINE
  8
21
 10
37.9817
 20
9.4944
 30
0.0000
 11
37.9817
 21
9.7541
 31
0.0000
  0
LINE
  8
21
 10
36.8133
 20
9.4944
 30
0.0000
 11
36.8133
 21
9.7541
 31
0.0000
  0
LINE
  8
21
 10
8.5462
 20
13.9971
 30
0.0000
 11
8.9356
 21
15.1654
 31
0.0000
  0
LINE
  8
21
 10
8.9356
 20
15.1654
 30
0.0000
 11
9.3251
 21
13.9971
 31
0.0000
  0
LINE
  8
21
 10
9.2277
 20
14.2892
 30
0.0000
 11
8.6435
 21
14.2892
 31
0.0000
  0
LINE
  8
21
 10
9.7809
 20
14.7760
 30
0.0000
 11
9.7809
 21
14.1918
 31
0.0000
  0
ARC
  8
21
 10
9.9756
 20
14.1918
 30
0.0000
 40
0.1947
 50
180.0000
 51
270.0000
  0
LINE
  8
21
 10
9.9756
 20
13.9971
 30
0.0000
 11
10.3002
 21
13.9971
 31
0.0000
  0
LINE
  8
21
 10
10.3002
 20
13.9971
 30
0.0000
 11
10.3002
 21
14.7760
 31
0.0000
  0
LINE
  8
21
 10
11.3230
 20
15.1654
 30
0.0000
 11
11.3230
 21
13.9971
 31
0.0000
  0
LINE
  8
21
 10
11.3230
 20
13.9971
 30
0.0000
 11
10.9984
 21
13.9971
 31
0.0000
  0
ARC
  8
21
 10
10.9984
 20
14.1918
 30
0.0000
 40
0.1947
 50
180.0000
 51
270.0000
  0
LINE
  8
21
 10
10.8037
 20
14.1918
 30
0.0000
 11
10.8037
 21
14.5813
 31
0.0000
  0
ARC
  8
21
 10
10.9984
 20
14.5813
 30
0.0000
 40
0.1947
 50
90.0000
 51
180.0000
  0
LINE
  8
21
 10
10.9984
 20
14.7760
 30
0.0000
 11
11.3230
 21
14.7760
 31
0.0000
  0
LINE
  8
21
 10
11.8312
 20
13.9971
 30
0.0000
 11
11.8312
 21
14.7760
 31
0.0000
  0
LINE
  8
21
 10
11.7988
 20
15.1005
 30
0.0000
 11
11.7988
 21
15.1654
 31
0.0000
  0
LINE
  8
21
 10
11.7988
 20
15.1654
 30
0.0000
 11
11.8637
 21
15.1654
 31
0.0000
  0
LINE
  8
21
 10
11.8637
 20
15.1654
 30
0.0000
 11
11.8637
 21
15.1005
 31
0.0000
  0
LINE
  8
21
 10
11.8637
 20
15.1005
 30
0.0000
 11
11.7988
 21
15.1005
 31
0.0000
  0
LINE
  8
21
 10
12.2955
 20
14.2567
 30
0.0000
 11
12.2955
 21
14.5163
 31
0.0000
  0
ARC
  8
21
 10
12.5551
 20
14.5163
 30
0.0000
 40
0.2596
 50
0.0000
 51
180.0000
  0
LINE
  8
21
 10
12.8148
 20
14.5163
 30
0.0000
 11
12.8148
 21
14.2567
 31
0.0000
  0
ARC
  8
21
 10
12.5551
 20
14.2567
 30
0.0000
 40
0.2596
 50
180.0000
 51
0.0000
  0
LINE
  8
21
 10
14.0029
 20
15.1654
 30
0.0000
 11
14.0029
 21
13.9971
 31
0.0000
  0
LINE
  8
21
 10
13.8731
 20
13.9971
 30
0.0000
 11
14.1327
 21
13.9971
 31
0.0000
  0
LINE
  8
21
 10
13.8731
 20
15.1654
 30
0.0000
 11
14.1327
 21
15.1654
 31
0.0000
  0
LINE
  8
21
 10
14.6196
 20
13.9971
 30
0.0000
 11
14.6196
 21
14.7760
 31
0.0000
  0
LINE
  8
21
 10
14.6196
 20
14.7760
 30
0.0000
 11
14.9441
 21
14.7760
 31
0.0000
  0
ARC
  8
21
 10
14.9441
 20
14.5812
 30
0.0000
 40
0.1947
 50
0.0009
 51
90.0000
  0
LINE
  8
21
 10
15.1389
 20
14.5813
 30
0.0000
 11
15.1389
 21
13.9971
 31
0.0000
  0
ARC
  8
21
 10
16.7211
 20
13.0503
 30
0.0000
 40
0.2596
 50
299.9983
 51
30.0014
  0
ARC
  8
21
 10
16.5766
 20
13.3005
 30
0.0000
 40
0.5485
 50
254.7631
 51
299.9983
  0
ARC
  8
21
 10
16.3122
 20
13.5638
 30
0.0000
 40
0.2596
 50
120.0008
 51
209.9992
  0
ARC
  8
21
 10
16.4258
 20
13.3671
 30
0.0000
 40
0.4868
 50
83.1282
 51
120.0007
  0
ARC
  8
21
 10
16.3157
 20
13.5658
 30
0.0000
 40
0.2637
 50
209.9998
 51
269.4906
  0
ARC
  8
21
 10
16.7175
 20
13.0483
 30
0.0000
 40
0.2637
 50
30.0003
 51
89.4901
  0
LINE
  8
21
 10
16.7199
 20
13.3120
 30
0.0000
 11
16.3133
 21
13.3021
 31
0.0000
  0
LINE
  8
21
 10
17.2531
 20
13.5823
 30
0.0000
 11
17.9276
 21
13.9718
 31
0.0000
  0
LINE
  8
21
 10
17.9519
 20
14.8103
 30
0.0000
 11
18.8734
 21
13.9931
 31
0.0000
  0
LINE
  8
21
 10
18.8734
 20
13.9931
 30
0.0000
 11
18.6265
 21
15.1997
 31
0.0000
  0
LINE
  8
21
 10
19.0811
 20
15.4622
 30
0.0000
 11
19.6653
 21
14.4503
 31
0.0000
  0
LINE
  8
21
 10
19.5528
 20
14.3854
 30
0.0000
 11
19.7777
 21
14.5152
 31
0.0000
  0
LINE
  8
21
 10
18.9686
 20
15.3973
 30
0.0000
 11
19.1935
 21
15.5271
 31
0.0000
  0
LINE
  8
21
 10
20.2091
 20
14.7643
 30
0.0000
 11
19.6249
 21
15.7762
 31
0.0000
  0
LINE
  8
21
 10
19.6249
 20
15.7762
 30
0.0000
 11
19.9059
 21
15.9384
 31
0.0000
  0
ARC
  8
21
 10
20.0682
 20
15.6574
 30
0.0000
 40
0.3246
 50
29.9991
 51
120.0006
  0
LINE
  8
21
 10
20.3493
 20
15.8196
 30
0.0000
 11
20.6089
 21
15.3699
 31
0.0000
  0
ARC
  8
21
 10
20.3279
 20
15.2077
 30
0.0000
 40
0.3246
 50
300.0000
 51
29.9998
  0
LINE
  8
21
 10
20.4901
 20
14.9266
 30
0.0000
 11
20.2091
 21
14.7643
 31
0.0000
  0
LINE
  8
21
 10
21.7166
 20
15.6347
 30
0.0000
 11
21.2669
 21
15.3750
 31
0.0000
  0
LINE
  8
21
 10
21.2669
 20
15.3750
 30
0.0000
 11
20.6827
 21
16.3869
 31
0.0000
  0
LINE
  8
21
 10
20.6827
 20
16.3869
 30
0.0000
 11
21.1324
 21
16.6465
 31
0.0000
  0
LINE
  8
21
 10
20.9423
 20
15.9372
 30
0.0000
 11
21.2796
 21
16.1319
 31
0.0000
  0
LINE
  8
21
 10
21.9275
 20
16.1312
 30
0.0000
 11
21.6679
 21
16.5809
 31
0.0000
  0
ARC
  8
21
 10
21.9490
 20
16.7432
 30
0.0000
 40
0.3246
 50
30.0006
 51
209.9996
  0
LINE
  8
21
 10
22.2300
 20
16.9055
 30
0.0000
 11
22.4897
 21
16.4558
 31
0.0000
  0
ARC
  8
21
 10
22.2086
 20
16.2935
 30
0.0000
 40
0.3246
 50
210.0006
 51
29.9996
  0
LINE
  8
21
 10
14.0394
 20
32.0508
 30
0.0000
 11
13.7798
 21
32.0508
 31
0.0000
  0
ARC
  8
21
 10
13.7798
 20
32.3104
 30
0.0000
 40
0.2596
 50
180.0000
 51
270.0000
  0
LINE
  8
21
 10
13.5202
 20
32.3104
 30
0.0000
 11
13.5202
 21
32.9596
 31
0.0000
  0
ARC
  8
21
 10
13.7798
 20
32.9596
 30
0.0000
 40
0.2596
 50
90.0007
 51
180.0000
  0
LINE
  8
21
 10
13.7798
 20
33.2192
 30
0.0000
 11
14.0394
 21
33.2192
 31
0.0000
  0
LINE
  8
21
 10
14.4760
 20
32.9596
 30
0.0000
 11
14.8005
 21
33.2192
 31
0.0000
  0
LINE
  8
21
 10
14.8005
 20
33.2192
 30
0.0000
 11
14.8005
 21
32.0508
 31
0.0000
  0
LINE
  8
21
 10
14.4760
 20
32.0508
 30
0.0000
 11
15.1251
 21
32.0508
 31
0.0000
  0
ARC
  8
21
 10
15.9760
 20
32.9271
 30
0.0000
 40
0.2921
 50
0.0000
 51
90.0000
  0
ARC
  8
21
 10
15.9760
 20
32.8439
 30
0.0000
 40
0.3753
 50
90.0001
 51
162.0549
  0
ARC
  8
21
 10
15.9543
 20
32.9271
 30
0.0000
 40
0.3138
 50
313.6040
 51
359.9996
  0
LINE
  8
21
 10
16.1707
 20
32.6999
 30
0.0000
 11
15.6190
 21
32.0508
 31
0.0000
  0
LINE
  8
21
 10
15.6190
 20
32.0508
 30
0.0000
 11
16.2681
 21
32.0508
 31
0.0000
  0
ARC
  8
21
 10
17.0865
 20
32.3754
 30
0.0000
 40
0.3246
 50
0.0000
 51
180.0000
  0
ARC
  8
21
 10
17.0865
 20
32.3754
 30
0.0000
 40
0.3246
 50
180.0000
 51
0.0000
  0
ARC
  8
21
 10
17.0865
 20
32.9596
 30
0.0000
 40
0.2596
 50
0.0000
 51
180.0000
  0
ARC
  8
21
 10
17.0865
 20
32.9596
 30
0.0000
 40
0.2596
 50
180.0000
 51
0.0000
  0
LINE
  8
21
 10
18.4497
 20
32.0508
 30
0.0000
 11
18.8391
 21
33.2192
 31
0.0000
  0
LINE
  8
21
 10
18.8391
 20
33.2192
 30
0.0000
 11
19.2286
 21
32.0508
 31
0.0000
  0
LINE
  8
21
 10
19.1312
 20
32.3429
 30
0.0000
 11
18.5470
 21
32.3429
 31
0.0000
  0
LINE
  8
21
 10
19.6082
 20
31.9210
 30
0.0000
 11
20.1275
 21
33.3490
 31
0.0000
  0
LINE
  8
21
 10
20.5070
 20
33.2192
 30
0.0000
 11
20.8965
 21
32.0508
 31
0.0000
  0
LINE
  8
21
 10
20.8965
 20
32.0508
 30
0.0000
 11
21.2860
 21
33.2192
 31
0.0000
  0
LINE
  8
21
 10
22.2597
 20
32.0508
 30
0.0000
 11
22.6491
 21
33.2192
 31
0.0000
  0
LINE
  8
21
 10
22.6491
 20
33.2192
 30
0.0000
 11
23.0386
 21
32.0508
 31
0.0000
  0
LINE
  8
21
 10
22.9412
 20
32.3429
 30
0.0000
 11
22.3570
 21
32.3429
 31
0.0000
  0
LINE
  8
21
 10
23.9697
 20
33.2192
 30
0.0000
 11
23.9697
 21
32.0508
 31
0.0000
  0
LINE
  8
21
 10
23.9697
 20
32.0508
 30
0.0000
 11
23.6451
 21
32.0508
 31
0.0000
  0
ARC
  8
21
 10
23.6451
 20
32.2455
 30
0.0000
 40
0.1947
 50
180.0000
 51
270.0000
  0
LINE
  8
21
 10
23.4504
 20
32.2455
 30
0.0000
 11
23.4504
 21
32.6350
 31
0.0000
  0
ARC
  8
21
 10
23.6451
 20
32.6350
 30
0.0000
 40
0.1947
 50
90.0000
 51
180.0000
  0
LINE
  8
21
 10
23.6451
 20
32.8297
 30
0.0000
 11
23.9697
 21
32.8297
 31
0.0000
  0
LINE
  8
21
 10
24.9984
 20
32.5052
 30
0.0000
 11
24.7063
 21
32.5052
 31
0.0000
  0
ARC
  8
21
 10
24.7063
 20
32.2780
 30
0.0000
 40
0.2272
 50
90.0000
 51
270.0000
  0
LINE
  8
21
 10
24.7063
 20
32.0508
 30
0.0000
 11
24.9984
 21
32.0508
 31
0.0000
  0
LINE
  8
21
 10
24.9984
 20
32.0508
 30
0.0000
 11
24.9984
 21
32.6350
 31
0.0000
  0
ARC
  8
21
 10
24.8036
 20
32.6350
 30
0.0000
 40
0.1947
 50
0.0000
 51
90.0000
  0
LINE
  8
21
 10
24.8036
 20
32.8297
 30
0.0000
 11
24.5440
 21
32.8297
 31
0.0000
  0
LINE
  8
21
 10
25.5577
 20
31.6613
 30
0.0000
 11
25.5577
 21
32.8297
 31
0.0000
  0
LINE
  8
21
 10
25.5577
 20
32.8297
 30
0.0000
 11
25.8822
 21
32.8297
 31
0.0000
  0
ARC
  8
21
 10
25.8822
 20
32.6350
 30
0.0000
 40
0.1947
 50
0.0009
 51
90.0000
  0
LINE
  8
21
 10
26.0769
 20
32.6350
 30
0.0000
 11
26.0769
 21
32.2455
 31
0.0000
  0
ARC
  8
21
 10
25.8822
 20
32.2455
 30
0.0000
 40
0.1947
 50
270.0000
 51
0.0000
  0
LINE
  8
21
 10
25.8822
 20
32.0508
 30
0.0000
 11
25.5577
 21
32.0508
 31
0.0000
  0
LINE
  8
21
 10
26.4456
 20
32.8297
 30
0.0000
 11
26.8351
 21
32.8297
 31
0.0000
  0
LINE
  8
21
 10
26.5755
 20
33.2192
 30
0.0000
 11
26.5755
 21
32.2455
 31
0.0000
  0
ARC
  8
21
 10
26.7702
 20
32.2455
 30
0.0000
 40
0.1947
 50
180.0000
 51
270.0000
  0
LINE
  8
21
 10
26.7702
 20
32.0508
 30
0.0000
 11
26.8351
 21
32.0508
 31
0.0000
  0
LINE
  8
21
 10
27.2663
 20
32.3104
 30
0.0000
 11
27.2663
 21
32.5701
 31
0.0000
  0
ARC
  8
21
 10
27.5259
 20
32.5701
 30
0.0000
 40
0.2596
 50
0.0000
 51
180.0000
  0
LINE
  8
21
 10
27.7855
 20
32.5701
 30
0.0000
 11
27.7855
 21
32.3104
 31
0.0000
  0
ARC
  8
21
 10
27.5259
 20
32.3104
 30
0.0000
 40
0.2596
 50
180.0000
 51
0.0000
  0
LINE
  8
21
 10
28.3016
 20
32.0508
 30
0.0000
 11
28.3016
 21
32.8297
 31
0.0000
  0
LINE
  8
21
 10
28.3016
 20
32.8297
 30
0.0000
 11
28.6911
 21
32.8297
 31
0.0000
  0
LINE
  8
21
 10
28.6911
 20
32.8297
 30
0.0000
 11
28.6911
 21
32.6999
 31
0.0000
  0
LINE
  8
21
 10
29.7233
 20
32.0508
 30
0.0000
 11
29.7233
 21
33.2192
 31
0.0000
  0
LINE
  8
21
 10
29.7233
 20
33.2192
 30
0.0000
 11
30.0479
 21
33.2192
 31
0.0000
  0
ARC
  8
21
 10
30.0479
 20
32.8946
 30
0.0000
 40
0.3246
 50
270.0000
 51
90.0000
  0
LINE
  8
21
 10
30.0479
 20
32.5701
 30
0.0000
 11
29.7233
 21
32.5701
 31
0.0000
  0
LINE
  8
21
 10
30.3724
 20
32.0508
 30
0.0000
 11
30.1128
 21
32.5701
 31
0.0000
  0
LINE
  8
21
 10
31.3669
 20
32.0508
 30
0.0000
 11
31.0424
 21
32.0508
 31
0.0000
  0
ARC
  8
21
 10
31.0424
 20
32.2455
 30
0.0000
 40
0.1947
 50
180.0000
 51
270.0000
  0
LINE
  8
21
 10
30.8477
 20
32.2455
 30
0.0000
 11
30.8477
 21
32.5701
 31
0.0000
  0
ARC
  8
21
 10
31.1073
 20
32.5701
 30
0.0000
 40
0.2596
 50
0.0000
 51
180.0000
  0
LINE
  8
21
 10
31.3669
 20
32.5701
 30
0.0000
 11
31.3669
 21
32.4403
 31
0.0000
  0
LINE
  8
21
 10
31.3669
 20
32.4403
 30
0.0000
 11
30.8477
 21
32.4403
 31
0.0000
  0
LINE
  8
21
 10
31.8002
 20
32.8297
 30
0.0000
 11
32.0598
 21
32.0508
 31
0.0000
  0
LINE
  8
21
 10
32.0598
 20
32.0508
 30
0.0000
 11
32.3194
 21
32.8297
 31
0.0000
  0
LINE
  8
21
 10
32.7131
 20
32.0508
 30
0.0000
 11
32.7131
 21
32.1157
 31
0.0000
  0
LINE
  8
21
 10
32.7131
 20
32.1157
 30
0.0000
 11
32.7781
 21
32.1157
 31
0.0000
  0
LINE
  8
21
 10
32.7781
 20
32.1157
 30
0.0000
 11
32.7781
 21
32.0508
 31
0.0000
  0
LINE
  8
21
 10
32.7781
 20
32.0508
 30
0.0000
 11
32.7131
 21
32.0508
 31
0.0000
  0
ARC
  8
21
 10
34.7936
 20
32.6350
 30
0.0000
 40
0.9628
 50
154.0109
 51
180.0001
  0
ARC
  8
21
 10
34.1553
 20
32.9790
 30
0.0000
 40
0.2402
 50
90.0000
 51
161.0751
  0
ARC
  8
21
 10
34.1553
 20
32.9790
 30
0.0000
 40
0.2402
 50
18.9248
 51
90.0002
  0
ARC
  8
21
 10
33.5170
 20
32.6350
 30
0.0000
 40
0.9629
 50
359.9999
 51
25.9891
  0
ARC
  8
21
 10
34.7936
 20
32.6350
 30
0.0000
 40
0.9629
 50
180.0000
 51
205.9888
  0
ARC
  8
21
 10
34.1553
 20
32.2910
 30
0.0000
 40
0.2402
 50
198.9254
 51
269.9998
  0
ARC
  8
21
 10
33.5170
 20
32.6350
 30
0.0000
 40
0.9629
 50
334.0112
 51
360.0000
  0
ARC
  8
21
 10
34.1553
 20
32.2910
 30
0.0000
 40
0.2402
 50
270.0000
 51
341.0747
  0
LINE
  8
21
 10
33.8957
 20
32.3104
 30
0.0000
 11
34.4149
 21
32.9596
 31
0.0000
  0
LINE
  8
21
 10
16.0508
 20
16.4904
 30
0.0000
 11
16.0508
 21
17.0096
 31
0.0000
  0
ARC
  8
21
 10
16.3754
 20
17.0096
 30
0.0000
 40
0.3246
 50
0.0000
 51
180.0000
  0
LINE
  8
21
 10
16.6999
 20
17.0096
 30
0.0000
 11
16.6999
 21
16.4904
 31
0.0000
  0
ARC
  8
21
 10
16.3754
 20
16.4904
 30
0.0000
 40
0.3246
 50
180.0000
 51
0.0000
  0
LINE
  8
21
 10
17.2342
 20
16.1658
 30
0.0000
 11
17.2342
 21
17.3342
 31
0.0000
  0
LINE
  8
21
 10
17.2342
 20
17.3342
 30
0.0000
 11
17.7534
 21
17.3342
 31
0.0000
  0
LINE
  8
21
 10
17.2342
 20
16.8149
 30
0.0000
 11
17.7534
 21
16.8149
 31
0.0000
  0
LINE
  8
21
 10
18.2248
 20
16.1658
 30
0.0000
 11
18.2248
 21
17.3342
 31
0.0000
  0
LINE
  8
21
 10
18.2248
 20
17.3342
 30
0.0000
 11
18.7440
 21
17.3342
 31
0.0000
  0
LINE
  8
21
 10
18.2248
 20
16.8149
 30
0.0000
 11
18.7440
 21
16.8149
 31
0.0000
  0
LINE
  8
21
 10
5.6190
 20
16.4904
 30
0.0000
 11
5.6190
 21
17.0096
 31
0.0000
  0
ARC
  8
21
 10
5.9435
 20
17.0096
 30
0.0000
 40
0.3246
 50
0.0000
 51
180.0000
  0
LINE
  8
21
 10
6.2681
 20
17.0096
 30
0.0000
 11
6.2681
 21
16.4904
 31
0.0000
  0
ARC
  8
21
 10
5.9435
 20
16.4904
 30
0.0000
 40
0.3246
 50
180.0000
 51
0.0000
  0
LINE
  8
21
 10
6.8001
 20
16.1658
 30
0.0000
 11
6.8001
 21
17.3342
 31
0.0000
  0
LINE
  8
21
 10
6.8001
 20
17.3342
 30
0.0000
 11
7.4492
 21
16.1658
 31
0.0000
  0
LINE
  8
21
 10
7.4492
 20
16.1658
 30
0.0000
 11
7.4492
 21
17.3342
 31
0.0000
  0
LINE
  8
21
 10
34.4031
 20
12.5621
 30
0.0000
 11
34.4031
 21
13.5019
 31
0.0000
  0
LINE
  8
21
 10
34.4031
 20
13.1886
 30
0.0000
 11
34.6642
 21
13.1886
 31
0.0000
  0
ARC
  8
21
 10
34.6642
 20
13.0320
 30
0.0000
 40
0.1566
 50
0.0011
 51
90.0000
  0
LINE
  8
21
 10
34.8208
 20
13.0320
 30
0.0000
 11
34.8208
 21
12.5621
 31
0.0000
  0
LINE
  8
21
 10
35.1492
 20
13.1886
 30
0.0000
 11
35.4625
 21
13.1886
 31
0.0000
  0
LINE
  8
21
 10
35.2536
 20
13.5019
 30
0.0000
 11
35.2536
 21
12.7187
 31
0.0000
  0
ARC
  8
21
 10
35.4102
 20
12.7187
 30
0.0000
 40
0.1566
 50
180.0000
 51
270.0000
  0
LINE
  8
21
 10
35.4102
 20
12.5621
 30
0.0000
 11
35.4625
 21
12.5621
 31
0.0000
  0
LINE
  8
21
 10
35.7283
 20
13.1886
 30
0.0000
 11
36.0416
 21
13.1886
 31
0.0000
  0
LINE
  8
21
 10
35.8327
 20
13.5019
 30
0.0000
 11
35.8327
 21
12.7187
 31
0.0000
  0
ARC
  8
21
 10
35.9894
 20
12.7187
 30
0.0000
 40
0.1566
 50
180.0000
 51
270.0000
  0
LINE
  8
21
 10
35.9894
 20
12.5621
 30
0.0000
 11
36.0416
 21
12.5621
 31
0.0000
  0
LINE
  8
21
 10
36.4193
 20
12.2488
 30
0.0000
 11
36.4193
 21
13.1886
 31
0.0000
  0
LINE
  8
21
 10
36.4193
 20
13.1886
 30
0.0000
 11
36.6804
 21
13.1886
 31
0.0000
  0
ARC
  8
21
 10
36.6804
 20
13.0320
 30
0.0000
 40
0.1566
 50
0.0011
 51
90.0000
  0
LINE
  8
21
 10
36.8370
 20
13.0320
 30
0.0000
 11
36.8370
 21
12.7187
 31
0.0000
  0
ARC
  8
21
 10
36.6804
 20
12.7187
 30
0.0000
 40
0.1566
 50
270.0000
 51
0.0000
  0
LINE
  8
21
 10
36.6804
 20
12.5621
 30
0.0000
 11
36.4193
 21
12.5621
 31
0.0000
  0
LINE
  8
21
 10
37.2071
 20
12.6404
 30
0.0000
 11
37.2071
 21
12.6926
 31
0.0000
  0
LINE
  8
21
 10
37.2071
 20
12.6926
 30
0.0000
 11
37.2593
 21
12.6926
 31
0.0000
  0
LINE
  8
21
 10
37.2593
 20
12.6926
 30
0.0000
 11
37.2593
 21
12.6404
 31
0.0000
  0
LINE
  8
21
 10
37.2593
 20
12.6404
 30
0.0000
 11
37.2071
 21
12.6404
 31
0.0000
  0
LINE
  8
21
 10
37.2071
 20
13.0581
 30
0.0000
 11
37.2071
 21
13.1103
 31
0.0000
  0
LINE
  8
21
 10
37.2071
 20
13.1103
 30
0.0000
 11
37.2593
 21
13.1103
 31
0.0000
  0
LINE
  8
21
 10
37.2593
 20
13.1103
 30
0.0000
 11
37.2593
 21
13.0581
 31
0.0000
  0
LINE
  8
21
 10
37.2593
 20
13.0581
 30
0.0000
 11
37.2071
 21
13.0581
 31
0.0000
  0
LINE
  8
21
 10
37.6035
 20
12.4577
 30
0.0000
 11
38.0212
 21
13.6063
 31
0.0000
  0
LINE
  8
21
 10
38.3350
 20
12.4577
 30
0.0000
 11
38.7527
 21
13.6063
 31
0.0000
  0
LINE
  8
21
 10
39.5101
 20
12.5621
 30
0.0000
 11
39.2490
 21
12.5621
 31
0.0000
  0
ARC
  8
21
 10
39.2490
 20
12.7187
 30
0.0000
 40
0.1566
 50
180.0000
 51
270.0000
  0
LINE
  8
21
 10
39.0924
 20
12.7187
 30
0.0000
 11
39.0924
 21
13.0320
 31
0.0000
  0
ARC
  8
21
 10
39.2490
 20
13.0320
 30
0.0000
 40
0.1566
 50
90.0000
 51
180.0000
  0
LINE
  8
21
 10
39.2490
 20
13.1886
 30
0.0000
 11
39.5101
 21
13.1886
 31
0.0000
  0
LINE
  8
21
 10
39.5101
 20
13.1886
 30
0.0000
 11
39.5101
 21
12.4055
 31
0.0000
  0
ARC
  8
21
 10
39.3535
 20
12.4055
 30
0.0000
 40
0.1566
 50
270.0011
 51
0.0000
  0
LINE
  8
21
 10
39.3535
 20
12.2488
 30
0.0000
 11
39.1446
 21
12.2488
 31
0.0000
  0
LINE
  8
21
 10
39.9154
 20
12.5621
 30
0.0000
 11
39.9154
 21
13.1886
 31
0.0000
  0
LINE
  8
21
 10
39.8893
 20
13.4497
 30
0.0000
 11
39.8893
 21
13.5019
 31
0.0000
  0
LINE
  8
21
 10
39.8893
 20
13.5019
 30
0.0000
 11
39.9415
 21
13.5019
 31
0.0000
  0
LINE
  8
21
 10
39.9415
 20
13.5019
 30
0.0000
 11
39.9415
 21
13.4497
 31
0.0000
  0
LINE
  8
21
 10
39.9415
 20
13.4497
 30
0.0000
 11
39.8893
 21
13.4497
 31
0.0000
  0
LINE
  8
21
 10
40.2088
 20
13.1886
 30
0.0000
 11
40.5221
 21
13.1886
 31
0.0000
  0
LINE
  8
21
 10
40.3132
 20
13.5019
 30
0.0000
 11
40.3132
 21
12.7187
 31
0.0000
  0
ARC
  8
21
 10
40.4699
 20
12.7187
 30
0.0000
 40
0.1566
 50
180.0000
 51
270.0000
  0
LINE
  8
21
 10
40.4699
 20
12.5621
 30
0.0000
 11
40.5221
 21
12.5621
 31
0.0000
  0
LINE
  8
21
 10
40.8953
 20
12.5621
 30
0.0000
 11
40.8953
 21
13.5019
 31
0.0000
  0
LINE
  8
21
 10
40.8953
 20
13.1886
 30
0.0000
 11
41.1563
 21
13.1886
 31
0.0000
  0
ARC
  8
21
 10
41.1563
 20
13.0320
 30
0.0000
 40
0.1566
 50
0.0011
 51
90.0000
  0
LINE
  8
21
 10
41.3130
 20
13.0320
 30
0.0000
 11
41.3130
 21
12.5621
 31
0.0000
  0
LINE
  8
21
 10
41.7487
 20
13.1886
 30
0.0000
 11
41.7487
 21
12.7187
 31
0.0000
  0
ARC
  8
21
 10
41.9054
 20
12.7187
 30
0.0000
 40
0.1566
 50
180.0000
 51
270.0000
  0
LINE
  8
21
 10
41.9054
 20
12.5621
 30
0.0000
 11
42.1664
 21
12.5621
 31
0.0000
  0
LINE
  8
21
 10
42.1664
 20
12.5621
 30
0.0000
 11
42.1664
 21
13.1886
 31
0.0000
  0
LINE
  8
21
 10
42.6067
 20
13.5019
 30
0.0000
 11
42.6067
 21
12.5621
 31
0.0000
  0
LINE
  8
21
 10
42.6067
 20
12.5621
 30
0.0000
 11
42.8678
 21
12.5621
 31
0.0000
  0
ARC
  8
21
 10
42.8678
 20
12.7187
 30
0.0000
 40
0.1566
 50
270.0000
 51
359.9989
  0
LINE
  8
21
 10
43.0244
 20
12.7187
 30
0.0000
 11
43.0244
 21
13.0320
 31
0.0000
  0
ARC
  8
21
 10
42.8678
 20
13.0320
 30
0.0000
 40
0.1566
 50
0.0000
 51
90.0000
  0
LINE
  8
21
 10
42.8678
 20
13.1886
 30
0.0000
 11
42.6067
 21
13.1886
 31
0.0000
  0
LINE
  8
21
 10
43.3640
 20
12.5621
 30
0.0000
 11
43.3640
 21
12.6143
 31
0.0000
  0
LINE
  8
21
 10
43.3640
 20
12.6143
 30
0.0000
 11
43.4162
 21
12.6143
 31
0.0000
  0
LINE
  8
21
 10
43.4162
 20
12.6143
 30
0.0000
 11
43.4162
 21
12.5621
 31
0.0000
  0
LINE
  8
21
 10
43.4162
 20
12.5621
 30
0.0000
 11
43.3640
 21
12.5621
 31
0.0000
  0
LINE
  8
21
 10
44.1269
 20
12.5621
 30
0.0000
 11
43.9181
 21
12.5621
 31
0.0000
  0
ARC
  8
21
 10
43.9181
 20
12.7187
 30
0.0000
 40
0.1566
 50
180.0000
 51
270.0000
  0
LINE
  8
21
 10
43.7614
 20
12.7187
 30
0.0000
 11
43.7614
 21
13.0320
 31
0.0000
  0
ARC
  8
21
 10
43.9181
 20
13.0320
 30
0.0000
 40
0.1566
 50
90.0000
 51
180.0000
  0
LINE
  8
21
 10
43.9181
 20
13.1886
 30
0.0000
 11
44.1269
 21
13.1886
 31
0.0000
  0
LINE
  8
21
 10
44.4614
 20
12.7709
 30
0.0000
 11
44.4614
 21
12.9798
 31
0.0000
  0
ARC
  8
21
 10
44.6703
 20
12.9798
 30
0.0000
 40
0.2088
 50
0.0000
 51
180.0000
  0
LINE
  8
21
 10
44.8791
 20
12.9798
 30
0.0000
 11
44.8791
 21
12.7709
 31
0.0000
  0
ARC
  8
21
 10
44.6703
 20
12.7709
 30
0.0000
 40
0.2088
 50
180.0000
 51
0.0000
  0
LINE
  8
21
 10
45.3019
 20
12.5621
 30
0.0000
 11
45.3019
 21
13.1886
 31
0.0000
  0
LINE
  8
21
 10
45.3019
 20
13.1886
 30
0.0000
 11
45.7718
 21
13.1886
 31
0.0000
  0
ARC
  8
21
 10
45.7718
 20
13.0320
 30
0.0000
 40
0.1566
 50
0.0000
 51
90.0000
  0
LINE
  8
21
 10
45.9284
 20
13.0320
 30
0.0000
 11
45.9284
 21
12.5621
 31
0.0000
  0
LINE
  8
21
 10
45.6152
 20
12.5621
 30
0.0000
 11
45.6152
 21
13.1886
 31
0.0000
  0
LINE
  8
21
 10
46.3207
 20
12.4577
 30
0.0000
 11
46.7384
 21
13.6063
 31
0.0000
  0
LINE
  8
21
 10
34.7686
 20
11.2992
 30
0.0000
 11
34.5075
 21
11.4036
 31
0.0000
  0
ARC
  8
21
 10
34.5578
 20
11.5293
 30
0.0000
 40
0.1354
 50
89.1826
 51
248.1983
  0
ARC
  8
21
 10
34.5513
 20
11.0718
 30
0.0000
 40
0.5929
 50
65.7606
 51
89.1826
  0
ARC
  8
21
 10
34.7183
 20
11.1735
 30
0.0000
 40
0.1354
 50
269.1826
 51
68.1983
  0
ARC
  8
21
 10
34.7290
 20
11.9234
 30
0.0000
 40
0.8854
 50
250.2085
 51
269.1826
  0
LINE
  8
21
 10
35.1912
 20
11.6646
 30
0.0000
 11
35.4000
 21
11.0381
 31
0.0000
  0
LINE
  8
21
 10
35.4000
 20
11.0381
 30
0.0000
 11
35.6089
 21
11.6646
 31
0.0000
  0
LINE
  8
21
 10
36.3709
 20
11.0381
 30
0.0000
 11
36.1098
 21
11.0381
 31
0.0000
  0
ARC
  8
21
 10
36.1098
 20
11.1947
 30
0.0000
 40
0.1566
 50
180.0000
 51
270.0000
  0
LINE
  8
21
 10
35.9532
 20
11.1947
 30
0.0000
 11
35.9532
 21
11.4558
 31
0.0000
  0
ARC
  8
21
 10
36.1620
 20
11.4558
 30
0.0000
 40
0.2088
 50
0.0000
 51
180.0000
  0
LINE
  8
21
 10
36.3709
 20
11.4558
 30
0.0000
 11
36.3709
 21
11.3514
 31
0.0000
  0
LINE
  8
21
 10
36.3709
 20
11.3514
 30
0.0000
 11
35.9532
 21
11.3514
 31
0.0000
  0
LINE
  8
21
 10
36.7762
 20
11.0381
 30
0.0000
 11
36.7762
 21
11.6646
 31
0.0000
  0
LINE
  8
21
 10
36.7762
 20
11.6646
 30
0.0000
 11
37.0372
 21
11.6646
 31
0.0000
  0
ARC
  8
21
 10
37.0372
 20
11.5080
 30
0.0000
 40
0.1566
 50
0.0011
 51
90.0000
  0
LINE
  8
21
 10
37.1938
 20
11.5080
 30
0.0000
 11
37.1938
 21
11.0381
 31
0.0000
  0
LINE
  8
21
 10
37.6342
 20
10.7248
 30
0.0000
 11
37.6342
 21
11.6646
 31
0.0000
  0
LINE
  8
21
 10
37.6342
 20
11.6646
 30
0.0000
 11
37.8952
 21
11.6646
 31
0.0000
  0
ARC
  8
21
 10
37.8952
 20
11.5080
 30
0.0000
 40
0.1566
 50
0.0011
 51
90.0000
  0
LINE
  8
21
 10
38.0518
 20
11.5080
 30
0.0000
 11
38.0518
 21
11.1947
 31
0.0000
  0
ARC
  8
21
 10
37.8952
 20
11.1947
 30
0.0000
 40
0.1566
 50
270.0000
 51
0.0000
  0
LINE
  8
21
 10
37.8952
 20
11.0381
 30
0.0000
 11
37.6342
 21
11.0381
 31
0.0000
  0
LINE
  8
21
 10
38.8397
 20
11.0381
 30
0.0000
 11
38.5787
 21
11.0381
 31
0.0000
  0
ARC
  8
21
 10
38.5787
 20
11.1947
 30
0.0000
 40
0.1566
 50
180.0000
 51
270.0000
  0
LINE
  8
21
 10
38.4221
 20
11.1947
 30
0.0000
 11
38.4221
 21
11.4558
 31
0.0000
  0
ARC
  8
21
 10
38.6309
 20
11.4558
 30
0.0000
 40
0.2088
 50
0.0000
 51
180.0000
  0
LINE
  8
21
 10
38.8397
 20
11.4558
 30
0.0000
 11
38.8397
 21
11.3514
 31
0.0000
  0
LINE
  8
21
 10
38.8397
 20
11.3514
 30
0.0000
 11
38.4221
 21
11.3514
 31
0.0000
  0
LINE
  8
21
 10
39.1377
 20
11.6646
 30
0.0000
 11
39.4509
 21
11.6646
 31
0.0000
  0
LINE
  8
21
 10
39.2421
 20
11.9779
 30
0.0000
 11
39.2421
 21
11.1947
 31
0.0000
  0
ARC
  8
21
 10
39.3987
 20
11.1947
 30
0.0000
 40
0.1566
 50
180.0000
 51
270.0000
  0
LINE
  8
21
 10
39.3987
 20
11.0381
 30
0.0000
 11
39.4509
 21
11.0381
 31
0.0000
  0
LINE
  8
21
 10
40.2113
 20
11.0381
 30
0.0000
 11
39.9503
 21
11.0381
 31
0.0000
  0
ARC
  8
21
 10
39.9503
 20
11.1947
 30
0.0000
 40
0.1566
 50
180.0000
 51
270.0000
  0
LINE
  8
21
 10
39.7936
 20
11.1947
 30
0.0000
 11
39.7936
 21
11.4558
 31
0.0000
  0
ARC
  8
21
 10
40.0025
 20
11.4558
 30
0.0000
 40
0.2088
 50
0.0000
 51
180.0000
  0
LINE
  8
21
 10
40.2113
 20
11.4558
 30
0.0000
 11
40.2113
 21
11.3514
 31
0.0000
  0
LINE
  8
21
 10
40.2113
 20
11.3514
 30
0.0000
 11
39.7936
 21
11.3514
 31
0.0000
  0
LINE
  8
21
 10
40.6218
 20
11.0381
 30
0.0000
 11
40.6218
 21
11.6646
 31
0.0000
  0
LINE
  8
21
 10
40.6218
 20
11.6646
 30
0.0000
 11
40.9350
 21
11.6646
 31
0.0000
  0
LINE
  8
21
 10
40.9350
 20
11.6646
 30
0.0000
 11
40.9350
 21
11.5602
 31
0.0000
  0
LINE
  8
21
 10
41.5656
 20
11.2992
 30
0.0000
 11
41.3045
 21
11.4036
 31
0.0000
  0
ARC
  8
21
 10
41.3548
 20
11.5293
 30
0.0000
 40
0.1354
 50
89.1826
 51
248.1983
  0
ARC
  8
21
 10
41.3483
 20
11.0718
 30
0.0000
 40
0.5929
 50
65.7606
 51
89.1826
  0
ARC
  8
21
 10
41.5153
 20
11.1735
 30
0.0000
 40
0.1354
 50
269.1826
 51
68.1983
  0
ARC
  8
21
 10
41.5260
 20
11.9234
 30
0.0000
 40
0.8854
 50
250.2085
 51
269.1826
  0
LINE
  8
21
 10
42.4364
 20
11.0381
 30
0.0000
 11
42.1753
 21
11.0381
 31
0.0000
  0
ARC
  8
21
 10
42.1753
 20
11.1947
 30
0.0000
 40
0.1566
 50
180.0000
 51
270.0000
  0
LINE
  8
21
 10
42.0187
 20
11.1947
 30
0.0000
 11
42.0187
 21
11.4558
 31
0.0000
  0
ARC
  8
21
 10
42.2275
 20
11.4558
 30
0.0000
 40
0.2088
 50
0.0000
 51
180.0000
  0
LINE
  8
21
 10
42.4364
 20
11.4558
 30
0.0000
 11
42.4364
 21
11.3514
 31
0.0000
  0
LINE
  8
21
 10
42.4364
 20
11.3514
 30
0.0000
 11
42.0187
 21
11.3514
 31
0.0000
  0
LINE
  8
21
 10
42.8416
 20
11.0381
 30
0.0000
 11
42.8416
 21
11.6646
 31
0.0000
  0
LINE
  8
21
 10
42.8416
 20
11.6646
 30
0.0000
 11
43.1027
 21
11.6646
 31
0.0000
  0
ARC
  8
21
 10
43.1027
 20
11.5080
 30
0.0000
 40
0.1566
 50
0.0011
 51
90.0000
  0
LINE
  8
21
 10
43.2593
 20
11.5080
 30
0.0000
 11
43.2593
 21
11.0381
 31
0.0000
  0
LINE
  8
21
 10
43.6733
 20
11.7691
 30
0.0000
 11
43.9344
 21
11.9779
 31
0.0000
  0
LINE
  8
21
 10
43.9344
 20
11.9779
 30
0.0000
 11
43.9344
 21
11.0381
 31
0.0000
  0
LINE
  8
21
 10
43.6733
 20
11.0381
 30
0.0000
 11
44.1955
 21
11.0381
 31
0.0000
  0
LINE
  8
21
 10
45.1098
 20
11.4558
 30
0.0000
 11
44.7966
 21
11.4558
 31
0.0000
  0
ARC
  8
21
 10
44.7966
 20
11.6646
 30
0.0000
 40
0.2088
 50
180.0000
 51
270.0000
  0
LINE
  8
21
 10
44.5877
 20
11.6646
 30
0.0000
 11
44.5877
 21
11.7168
 31
0.0000
  0
ARC
  8
21
 10
44.8488
 20
11.7168
 30
0.0000
 40
0.2611
 50
0.0000
 51
180.0000
  0
LINE
  8
21
 10
45.1098
 20
11.7168
 30
0.0000
 11
45.1098
 21
11.4558
 31
0.0000
  0
ARC
  8
21
 10
44.6922
 20
11.4558
 30
0.0000
 40
0.4177
 50
270.0000
 51
0.0000
  0
LINE
  8
21
 10
45.5021
 20
11.5602
 30
0.0000
 11
45.8154
 21
11.5602
 31
0.0000
  0
ARC
  8
21
 10
45.8154
 20
11.3514
 30
0.0000
 40
0.2088
 50
0.0000
 51
90.0000
  0
LINE
  8
21
 10
46.0242
 20
11.3514
 30
0.0000
 11
46.0242
 21
11.2992
 31
0.0000
  0
ARC
  8
21
 10
45.7632
 20
11.2992
 30
0.0000
 40
0.2611
 50
180.0000
 51
0.0000
  0
LINE
  8
21
 10
45.5021
 20
11.2992
 30
0.0000
 11
45.5021
 21
11.5602
 31
0.0000
  0
ARC
  8
21
 10
45.9198
 20
11.5602
 30
0.0000
 40
0.4177
 50
90.0004
 51
180.0000
  0
LINE
  8
21
 10
46.4165
 20
11.0381
 30
0.0000
 11
46.7298
 21
11.0381
 31
0.0000
  0
ARC
  8
21
 10
46.7298
 20
11.2469
 30
0.0000
 40
0.2088
 50
270.0000
 51
0.0000
  0
LINE
  8
21
 10
46.9386
 20
11.2469
 30
0.0000
 11
46.9386
 21
11.3514
 31
0.0000
  0
ARC
  8
21
 10
46.7298
 20
11.3514
 30
0.0000
 40
0.2088
 50
0.0000
 51
90.0000
  0
LINE
  8
21
 10
46.7298
 20
11.5602
 30
0.0000
 11
46.4165
 21
11.5602
 31
0.0000
  0
LINE
  8
21
 10
46.4165
 20
11.5602
 30
0.0000
 11
46.4165
 21
11.9779
 31
0.0000
  0
LINE
  8
21
 10
46.4165
 20
11.9779
 30
0.0000
 11
46.9386
 21
11.9779
 31
0.0000
  0
LINE
  8
21
 10
5.1181
 20
26.8542
 30
0.0000
 11
5.1181
 21
25.9144
 31
0.0000
  0
LINE
  8
21
 10
5.1181
 20
25.9144
 30
0.0000
 11
5.3792
 21
25.9144
 31
0.0000
  0
ARC
  8
21
 10
5.3792
 20
26.0710
 30
0.0000
 40
0.1566
 50
270.0000
 51
359.9989
  0
LINE
  8
21
 10
5.5358
 20
26.0710
 30
0.0000
 11
5.5358
 21
26.3843
 31
0.0000
  0
ARC
  8
21
 10
5.3792
 20
26.3843
 30
0.0000
 40
0.1566
 50
0.0000
 51
90.0000
  0
LINE
  8
21
 10
5.3792
 20
26.5409
 30
0.0000
 11
5.1181
 21
26.5409
 31
0.0000
  0
LINE
  8
21
 10
5.9186
 20
26.8542
 30
0.0000
 11
5.9186
 21
26.0710
 31
0.0000
  0
ARC
  8
21
 10
6.0752
 20
26.0710
 30
0.0000
 40
0.1566
 50
180.0000
 51
270.0000
  0
LINE
  8
21
 10
6.4347
 20
25.9144
 30
0.0000
 11
6.4347
 21
26.8542
 31
0.0000
  0
LINE
  8
21
 10
6.8524
 20
26.5409
 30
0.0000
 11
6.4347
 21
26.2276
 31
0.0000
  0
LINE
  8
21
 10
6.8524
 20
25.9144
 30
0.0000
 11
6.6174
 21
26.3581
 31
0.0000
  0
LINE
  8
21
 10
17.0244
 20
26.5409
 30
0.0000
 11
17.1810
 21
25.9144
 31
0.0000
  0
LINE
  8
21
 10
17.1810
 20
25.9144
 30
0.0000
 11
17.3376
 21
26.3320
 31
0.0000
  0
LINE
  8
21
 10
17.3376
 20
26.3320
 30
0.0000
 11
17.4943
 21
25.9144
 31
0.0000
  0
LINE
  8
21
 10
17.4943
 20
25.9144
 30
0.0000
 11
17.6509
 21
26.5409
 31
0.0000
  0
LINE
  8
21
 10
18.0432
 20
25.9144
 30
0.0000
 11
18.0432
 21
26.8542
 31
0.0000
  0
LINE
  8
21
 10
18.0432
 20
26.5409
 30
0.0000
 11
18.3042
 21
26.5409
 31
0.0000
  0
ARC
  8
21
 10
18.3042
 20
26.3842
 30
0.0000
 40
0.1566
 50
0.0011
 51
90.0000
  0
LINE
  8
21
 10
18.4609
 20
26.3843
 30
0.0000
 11
18.4609
 21
25.9144
 31
0.0000
  0
LINE
  8
21
 10
18.7893
 20
26.5409
 30
0.0000
 11
19.1025
 21
26.5409
 31
0.0000
  0
LINE
  8
21
 10
18.8937
 20
26.8542
 30
0.0000
 11
18.8937
 21
26.0710
 31
0.0000
  0
ARC
  8
21
 10
19.0503
 20
26.0710
 30
0.0000
 40
0.1566
 50
180.0000
 51
270.0000
  0
LINE
  8
21
 10
19.0503
 20
25.9144
 30
0.0000
 11
19.1025
 21
25.9144
 31
0.0000
  0
LINE
  8
21
 10
29.0894
 20
25.9144
 30
0.0000
 11
29.0894
 21
26.5409
 31
0.0000
  0
LINE
  8
21
 10
29.0894
 20
26.5409
 30
0.0000
 11
29.4026
 21
26.5409
 31
0.0000
  0
LINE
  8
21
 10
29.4026
 20
26.5409
 30
0.0000
 11
29.4026
 21
26.4365
 31
0.0000
  0
LINE
  8
21
 10
30.1115
 20
25.9144
 30
0.0000
 11
29.8504
 21
25.9144
 31
0.0000
  0
ARC
  8
21
 10
29.8504
 20
26.0710
 30
0.0000
 40
0.1566
 50
180.0000
 51
270.0000
  0
LINE
  8
21
 10
29.6938
 20
26.0710
 30
0.0000
 11
29.6938
 21
26.3320
 31
0.0000
  0
ARC
  8
21
 10
29.9026
 20
26.3320
 30
0.0000
 40
0.2088
 50
0.0000
 51
180.0000
  0
LINE
  8
21
 10
30.1115
 20
26.3320
 30
0.0000
 11
30.1115
 21
26.2276
 31
0.0000
  0
LINE
  8
21
 10
30.1115
 20
26.2276
 30
0.0000
 11
29.6938
 21
26.2276
 31
0.0000
  0
LINE
  8
21
 10
30.8994
 20
26.8542
 30
0.0000
 11
30.8994
 21
25.9144
 31
0.0000
  0
LINE
  8
21
 10
30.8994
 20
25.9144
 30
0.0000
 11
30.6383
 21
25.9144
 31
0.0000
  0
ARC
  8
21
 10
30.6383
 20
26.0710
 30
0.0000
 40
0.1566
 50
180.0000
 51
270.0000
  0
LINE
  8
21
 10
30.4817
 20
26.0710
 30
0.0000
 11
30.4817
 21
26.3843
 31
0.0000
  0
ARC
  8
21
 10
30.6383
 20
26.3843
 30
0.0000
 40
0.1566
 50
90.0000
 51
180.0000
  0
LINE
  8
21
 10
30.6383
 20
26.5409
 30
0.0000
 11
30.8994
 21
26.5409
 31
0.0000
  0
LINE
  8
21
 10
41.1544
 20
25.6011
 30
0.0000
 11
41.2588
 21
25.6011
 31
0.0000
  0
LINE
  8
21
 10
41.2588
 20
25.6011
 30
0.0000
 11
41.5720
 21
26.5409
 31
0.0000
  0
LINE
  8
21
 10
41.1544
 20
26.5409
 30
0.0000
 11
41.3632
 21
25.9144
 31
0.0000
  0
LINE
  8
21
 10
42.3340
 20
25.9144
 30
0.0000
 11
42.0730
 21
25.9144
 31
0.0000
  0
ARC
  8
21
 10
42.0730
 20
26.0710
 30
0.0000
 40
0.1566
 50
180.0000
 51
270.0000
  0
LINE
  8
21
 10
41.9163
 20
26.0710
 30
0.0000
 11
41.9163
 21
26.3320
 31
0.0000
  0
ARC
  8
21
 10
42.1252
 20
26.3320
 30
0.0000
 40
0.2088
 50
0.0000
 51
180.0000
  0
LINE
  8
21
 10
42.3340
 20
26.3320
 30
0.0000
 11
42.3340
 21
26.2276
 31
0.0000
  0
LINE
  8
21
 10
42.3340
 20
26.2276
 30
0.0000
 11
41.9163
 21
26.2276
 31
0.0000
  0
LINE
  8
21
 10
42.7214
 20
26.8542
 30
0.0000
 11
42.7214
 21
26.0710
 31
0.0000
  0
ARC
  8
21
 10
42.8780
 20
26.0710
 30
0.0000
 40
0.1566
 50
180.0000
 51
270.0000
  0
LINE
  8
21
 10
32.9830
 20
5.9856
 30
0.0000
 11
32.9830
 21
6.3102
 31
0.0000
  0
ARC
  8
21
 10
32.6584
 20
6.3102
 30
0.0000
 40
0.3246
 50
0.0000
 51
180.0000
  0
LINE
  8
21
 10
31.8146
 20
5.9856
 30
0.0000
 11
31.8146
 21
6.3751
 31
0.0000
  0
ARC
  8
21
 10
32.0742
 20
6.3751
 30
0.0000
 40
0.2596
 50
0.0000
 51
180.0000
  0
LINE
  8
21
 10
32.3338
 20
6.3751
 30
0.0000
 11
32.3338
 21
6.1155
 31
0.0000
  0
LINE
  8
21
 10
32.9830
 20
7.1286
 30
0.0000
 11
32.9830
 21
7.4532
 31
0.0000
  0
ARC
  8
21
 10
32.6584
 20
7.4532
 30
0.0000
 40
0.3246
 50
0.0000
 51
180.0000
  0
LINE
  8
21
 10
31.8146
 20
7.1286
 30
0.0000
 11
31.8146
 21
7.5181
 31
0.0000
  0
ARC
  8
21
 10
32.0742
 20
7.5181
 30
0.0000
 40
0.2596
 50
0.0000
 51
180.0000
  0
LINE
  8
21
 10
32.3338
 20
7.5181
 30
0.0000
 11
32.3338
 21
7.2585
 31
0.0000
  0
ARC
  8
21
 10
32.3987
 20
9.2345
 30
0.0000
 40
0.9629
 50
244.0111
 51
269.9999
  0
ARC
  8
21
 10
32.0547
 20
8.5962
 30
0.0000
 40
0.2402
 50
180.0000
 51
251.0758
  0
ARC
  8
21
 10
32.0547
 20
8.5962
 30
0.0000
 40
0.2402
 50
108.9240
 51
180.0001
  0
ARC
  8
21
 10
32.3988
 20
7.9579
 30
0.0000
 40
0.9629
 50
90.0001
 51
115.9889
  0
ARC
  8
21
 10
32.3987
 20
9.2345
 30
0.0000
 40
0.9629
 50
270.0000
 51
295.9888
  0
ARC
  8
21
 10
32.7428
 20
8.5962
 30
0.0000
 40
0.2402
 50
288.9254
 51
359.9998
  0
ARC
  8
21
 10
32.3987
 20
7.9579
 30
0.0000
 40
0.9629
 50
64.0112
 51
90.0000
  0
ARC
  8
21
 10
32.7428
 20
8.5962
 30
0.0000
 40
0.2402
 50
0.0000
 51
71.0747
  0
LINE
  8
21
 10
32.7233
 20
8.3365
 30
0.0000
 11
32.0742
 21
8.8558
 31
0.0000
  0
LINE
  8
21
 10
32.9830
 20
9.4601
 30
0.0000
 11
31.8146
 21
9.4601
 31
0.0000
  0
LINE
  8
21
 10
31.8146
 20
9.4601
 30
0.0000
 11
31.8146
 21
9.7846
 31
0.0000
  0
ARC
  8
21
 10
32.1391
 20
9.7846
 30
0.0000
 40
0.3246
 50
0.0000
 51
180.0000
  0
LINE
  8
21
 10
32.4637
 20
9.7846
 30
0.0000
 11
32.4637
 21
9.4601
 31
0.0000
  0
LINE
  8
21
 10
32.9830
 20
10.1092
 30
0.0000
 11
32.4637
 21
9.8496
 31
0.0000
  0
LINE
  8
21
 10
22.1000
 20
11.0000
 30
0.0000
 11
23.9000
 21
11.0000
 31
0.0000
  0
LINE
  8
21
 10
23.9000
 20
11.0000
 30
0.0000
 11
23.9000
 21
11.8000
 31
0.0000
  0
LINE
  8
21
 10
22.1000
 20
11.0000
 30
0.0000
 11
22.1000
 21
11.8000
 31
0.0000
  0
LINE
  8
21
 10
19.6000
 20
6.0000
 30
0.0000
 11
20.5000
 21
6.0000
 31
0.0000
  0
LINE
  8
21
 10
25.5000
 20
6.0000
 30
0.0000
 11
26.4000
 21
6.0000
 31
0.0000
  0
LINE
  8
21
 10
20.5000
 20
6.0000
 30
0.0000
 11
20.5000
 21
5.0000
 31
0.0000
  0
LINE
  8
21
 10
25.5000
 20
6.0000
 30
0.0000
 11
25.5000
 21
5.0000
 31
0.0000
  0
ARC
  8
21
 10
22.9842
 20
7.9825
 30
0.0000
 40
3.9186
 50
103.0415
 51
172.4112
  0
ARC
  8
21
 10
23.0158
 20
7.9825
 30
0.0000
 40
3.9186
 50
7.5888
 51
76.9585
  0
ARC
  8
21
 10
23.0102
 20
7.9701
 30
0.0000
 40
3.9384
 50
186.8551
 51
210.0148
  0
ARC
  8
21
 10
22.9898
 20
7.9701
 30
0.0000
 40
3.9384
 50
329.9852
 51
353.1449
  0
ARC
  8
21
 10
23.0000
 20
8.0000
 30
0.0000
 40
3.9051
 50
230.1944
 51
309.8056
  0
LINE
  8
21
 10
21.7000
 20
5.0000
 30
0.0000
 11
24.3000
 21
5.0000
 31
0.0000
  0
LINE
  8
21
 10
24.3000
 20
5.0000
 30
0.0000
 11
24.3000
 21
6.5000
 31
0.0000
  0
LINE
  8
21
 10
24.3000
 20
6.5000
 30
0.0000
 11
21.7000
 21
6.5000
 31
0.0000
  0
LINE
  8
21
 10
21.7000
 20
6.5000
 30
0.0000
 11
21.7000
 21
5.0000
 31
0.0000
  0
ARC
  8
21
 10
23.0000
 20
8.0000
 30
0.0000
 40
4.9031
 50
11.7683
 51
168.2317
  0
ARC
  8
21
 10
23.0000
 20
8.0500
 30
0.0000
 40
4.9135
 50
192.3391
 51
347.6609
  0
ARC
  8
51
 10
23.0000
 20
8.0000
 30
0.0000
 40
4.9031
 50
168.2317
 51
191.7683
  0
ARC
  8
51
 10
23.0000
 20
8.0000
 30
0.0000
 40
4.9031
 50
348.2317
 51
11.7683
  0
ARC
  8
51
 10
23.0000
 20
8.0000
 30
0.0000
 40
3.9319
 50
172.6942
 51
187.3058
  0
ARC
  8
51
 10
23.0000
 20
8.0000
 30
0.0000
 40
3.9319
 50
352.6942
 51
7.3058
  0
LINE
  8
21
 10
21.6000
 20
9.0000
 30
0.0000
 11
21.6000
 21
10.2000
 31
0.0000
  0
LINE
  8
21
 10
21.6000
 20
10.2000
 30
0.0000
 11
21.2000
 21
10.2000
 31
0.0000
  0
LINE
  8
21
 10
21.6000
 20
9.0000
 30
0.0000
 11
21.2000
 21
9.0000
 31
0.0000
  0
LINE
  8
21
 10
24.4000
 20
10.2000
 30
0.0000
 11
24.4000
 21
9.0000
 31
0.0000
  0
LINE
  8
21
 10
24.4000
 20
9.0000
 30
0.0000
 11
24.8000
 21
9.0000
 31
0.0000
  0
LINE
  8
21
 10
24.4000
 20
10.2000
 30
0.0000
 11
24.8000
 21
10.2000
 31
0.0000
  0
LINE
  8
51
 10
24.8000
 20
10.2000
 30
0.0000
 11
25.6000
 21
10.2000
 31
0.0000
  0
LINE
  8
51
 10
25.6000
 20
10.2000
 30
0.0000
 11
25.6000
 21
9.0000
 31
0.0000
  0
LINE
  8
51
 10
25.6000
 20
9.0000
 30
0.0000
 11
24.8000
 21
9.0000
 31
0.0000
  0
LINE
  8
51
 10
21.2000
 20
10.2000
 30
0.0000
 11
20.4000
 21
10.2000
 31
0.0000
  0
LINE
  8
51
 10
20.4000
 20
10.2000
 30
0.0000
 11
20.4000
 21
9.0000
 31
0.0000
  0
LINE
  8
51
 10
20.4000
 20
9.0000
 30
0.0000
 11
21.2000
 21
9.0000
 31
0.0000
  0
LINE
  8
21
 10
24.9000
 20
7.0000
 30
0.0000
 11
25.4000
 21
7.0000
 31
0.0000
  0
LINE
  8
21
 10
24.9000
 20
7.0000
 30
0.0000
 11
24.9000
 21
8.2000
 31
0.0000
  0
LINE
  8
21
 10
24.9000
 20
8.2000
 30
0.0000
 11
25.4000
 21
8.2000
 31
0.0000
  0
LINE
  8
21
 10
21.1000
 20
8.2000
 30
0.0000
 11
21.1000
 21
7.0000
 31
0.0000
  0
LINE
  8
21
 10
21.1000
 20
7.0000
 30
0.0000
 11
20.6000
 21
7.0000
 31
0.0000
  0
LINE
  8
21
 10
21.1000
 20
8.2000
 30
0.0000
 11
20.6000
 21
8.2000
 31
0.0000
  0
LINE
  8
51
 10
20.6000
 20
8.2000
 30
0.0000
 11
19.9000
 21
8.2000
 31
0.0000
  0
LINE
  8
51
 10
19.9000
 20
8.2000
 30
0.0000
 11
19.9000
 21
7.0000
 31
0.0000
  0
LINE
  8
51
 10
19.9000
 20
7.0000
 30
0.0000
 11
20.6000
 21
7.0000
 31
0.0000
  0
LINE
  8
51
 10
25.4000
 20
7.0000
 30
0.0000
 11
26.1000
 21
7.0000
 31
0.0000
  0
LINE
  8
51
 10
26.1000
 20
7.0000
 30
0.0000
 11
26.1000
 21
8.2000
 31
0.0000
  0
LINE
  8
51
 10
26.1000
 20
8.2000
 30
0.0000
 11
25.4000
 21
8.2000
 31
0.0000
  0
LINE
  8
21
 10
23.9389
 20
7.8611
 30
0.0000
 11
24.2000
 21
8.0699
 31
0.0000
  0
LINE
  8
21
 10
24.2000
 20
8.0699
 30
0.0000
 11
24.2000
 21
7.1301
 31
0.0000
  0
LINE
  8
21
 10
23.9389
 20
7.1301
 30
0.0000
 11
24.4611
 21
7.1301
 31
0.0000
  0
ARC
  8
21
 10
21.8261
 20
7.8350
 30
0.0000
 40
0.2350
 50
0.0000
 51
90.0000
  0
ARC
  8
21
 10
21.8261
 20
7.7681
 30
0.0000
 40
0.3018
 50
90.0001
 51
162.0550
  0
ARC
  8
21
 10
21.8087
 20
7.8350
 30
0.0000
 40
0.2524
 50
313.6042
 51
359.9995
  0
LINE
  8
21
 10
21.9827
 20
7.6522
 30
0.0000
 11
21.5389
 21
7.1301
 31
0.0000
  0
LINE
  8
21
 10
21.5389
 20
7.1301
 30
0.0000
 11
22.0611
 21
7.1301
 31
0.0000
  0
LINE
  8
21
 10
23.4389
 20
9.1301
 30
0.0000
 11
23.7000
 21
9.1301
 31
0.0000
  0
ARC
  8
21
 10
23.7000
 20
9.3912
 30
0.0000
 40
0.2611
 50
270.0000
 51
90.0000
  0
LINE
  8
21
 10
23.4389
 20
10.0699
 30
0.0000
 11
23.7522
 21
10.0699
 31
0.0000
  0
ARC
  8
21
 10
23.7522
 20
9.8611
 30
0.0000
 40
0.2088
 50
270.0000
 51
90.0000
  0
LINE
  8
21
 10
23.7522
 20
9.6522
 30
0.0000
 11
23.5434
 21
9.6522
 31
0.0000
  0
LINE
  8
21
 10
22.2478
 20
10.0699
 30
0.0000
 11
22.0389
 21
9.3389
 31
0.0000
  0
LINE
  8
21
 10
22.0389
 20
9.3389
 30
0.0000
 11
22.5611
 21
9.3389
 31
0.0000
  0
LINE
  8
21
 10
22.4044
 20
9.5478
 30
0.0000
 11
22.4044
 21
9.1301
 31
0.0000
  0
CIRCLE
  8
21
 10
23.0000
 20
8.0000
 30
0.0000
 40
6.9000
  0
CIRCLE
  8
21
 10
23.0000
 20
8.0000
 30
0.0000
 40
6.0000
  0
CIRCLE
  8
21
 10
23.0000
 20
8.0000
 30
0.0000
 40
5.6000
  0
ARC
  8
21
 10
18.0000
 20
24.0000
 30
0.0000
 40
4.1976
 50
147.3808
 51
212.6192
  0
ARC
  8
21
 10
18.0000
 20
24.0000
 30
0.0000
 40
4.1976
 50
57.3808
 51
122.6192
  0
ARC
  8
21
 10
18.0000
 20
24.0000
 30
0.0000
 40
4.1976
 50
327.3808
 51
32.6192
  0
ARC
  8
21
 10
18.0000
 20
24.0000
 30
0.0000
 40
4.1976
 50
237.3808
 51
302.6192
  0
ARC
  8
21
 10
18.0000
 20
24.0000
 30
0.0000
 40
4.9729
 50
60.1541
 51
119.8459
  0
ARC
  8
21
 10
18.0000
 20
24.0000
 30
0.0000
 40
4.9729
 50
330.1541
 51
29.8459
  0
ARC
  8
21
 10
18.0000
 20
24.0000
 30
0.0000
 40
4.9729
 50
240.1541
 51
299.8459
  0
ARC
  8
21
 10
18.0000
 20
24.0000
 30
0.0000
 40
4.9729
 50
150.1541
 51
209.8459
  0
ARC
  8
51
 10
18.0000
 20
24.0000
 30
0.0000
 40
4.9729
 50
119.8459
 51
150.1541
  0
ARC
  8
51
 10
18.0000
 20
24.0000
 30
0.0000
 40
4.9729
 50
29.8459
 51
60.1541
  0
ARC
  8
51
 10
18.0000
 20
24.0000
 30
0.0000
 40
4.9729
 50
299.8459
 51
330.1541
  0
ARC
  8
51
 10
18.0000
 20
24.0000
 30
0.0000
 40
4.9729
 50
209.8459
 51
240.1541
  0
ARC
  8
51
 10
18.0000
 20
24.0000
 30
0.0000
 40
4.1976
 50
212.6192
 51
237.3808
  0
ARC
  8
51
 10
18.0000
 20
24.0000
 30
0.0000
 40
4.1976
 50
122.6192
 51
147.3808
  0
ARC
  8
51
 10
18.0000
 20
24.0000
 30
0.0000
 40
4.1976
 50
32.6192
 51
57.3808
  0
ARC
  8
51
 10
18.0000
 20
24.0000
 30
0.0000
 40
4.1976
 50
302.6192
 51
327.3808
  0
CIRCLE
  8
21
 10
18.0000
 20
24.0000
 30
0.0000
 40
1.7000
  0
CIRCLE
  8
21
 10
18.0000
 20
24.0000
 30
0.0000
 40
3.1000
  0
ARC
  8
21
 10
30.0000
 20
24.0000
 30
0.0000
 40
4.1976
 50
147.3808
 51
212.6192
  0
ARC
  8
21
 10
30.0000
 20
24.0000
 30
0.0000
 40
4.1976
 50
57.3808
 51
122.6192
  0
ARC
  8
21
 10
30.0000
 20
24.0000
 30
0.0000
 40
4.1976
 50
327.3808
 51
32.6192
  0
ARC
  8
21
 10
30.0000
 20
24.0000
 30
0.0000
 40
4.1976
 50
237.3808
 51
302.6192
  0
ARC
  8
21
 10
30.0000
 20
24.0000
 30
0.0000
 40
4.9729
 50
60.1541
 51
119.8459
  0
ARC
  8
21
 10
30.0000
 20
24.0000
 30
0.0000
 40
4.9729
 50
330.1541
 51
29.8459
  0
ARC
  8
21
 10
30.0000
 20
24.0000
 30
0.0000
 40
4.9729
 50
240.1541
 51
299.8459
  0
ARC
  8
21
 10
30.0000
 20
24.0000
 30
0.0000
 40
4.9729
 50
150.1541
 51
209.8459
  0
ARC
  8
51
 10
30.0000
 20
24.0000
 30
0.0000
 40
4.9729
 50
119.8459
 51
150.1541
  0
ARC
  8
51
 10
30.0000
 20
24.0000
 30
0.0000
 40
4.9729
 50
29.8459
 51
60.1541
  0
ARC
  8
51
 10
30.0000
 20
24.0000
 30
0.0000
 40
4.9729
 50
299.8459
 51
330.1541
  0
ARC
  8
51
 10
30.0000
 20
24.0000
 30
0.0000
 40
4.9729
 50
209.8459
 51
240.1541
  0
ARC
  8
51
 10
30.0000
 20
24.0000
 30
0.0000
 40
4.1976
 50
212.6192
 51
237.3808
  0
ARC
  8
51
 10
30.0000
 20
24.0000
 30
0.0000
 40
4.1976
 50
122.6192
 51
147.3808
  0
ARC
  8
51
 10
30.0000
 20
24.0000
 30
0.0000
 40
4.1976
 50
32.6192
 51
57.3808
  0
ARC
  8
51
 10
30.0000
 20
24.0000
 30
0.0000
 40
4.1976
 50
302.6192
 51
327.3808
  0
CIRCLE
  8
21
 10
30.0000
 20
24.0000
 30
0.0000
 40
1.7000
  0
CIRCLE
  8
21
 10
30.0000
 20
24.0000
 30
0.0000
 40
3.1000
  0
ARC
  8
21
 10
6.0000
 20
24.0000
 30
0.0000
 40
4.1976
 50
147.3808
 51
212.6192
  0
ARC
  8
21
 10
6.0000
 20
24.0000
 30
0.0000
 40
4.1976
 50
57.3808
 51
122.6192
  0
ARC
  8
21
 10
6.0000
 20
24.0000
 30
0.0000
 40
4.1976
 50
327.3808
 51
32.6192
  0
ARC
  8
21
 10
6.0000
 20
24.0000
 30
0.0000
 40
4.1976
 50
237.3808
 51
302.6192
  0
ARC
  8
21
 10
6.0000
 20
24.0000
 30
0.0000
 40
4.9729
 50
60.1541
 51
119.8459
  0
ARC
  8
21
 10
6.0000
 20
24.0000
 30
0.0000
 40
4.9729
 50
330.1541
 51
29.8459
  0
ARC
  8
21
 10
6.0000
 20
24.0000
 30
0.0000
 40
4.9729
 50
240.1541
 51
299.8459
  0
ARC
  8
21
 10
6.0000
 20
24.0000
 30
0.0000
 40
4.9729
 50
150.1541
 51
209.8459
  0
ARC
  8
51
 10
6.0000
 20
24.0000
 30
0.0000
 40
4.9729
 50
119.8459
 51
150.1541
  0
ARC
  8
51
 10
6.0000
 20
24.0000
 30
0.0000
 40
4.9729
 50
29.8459
 51
60.1541
  0
ARC
  8
51
 10
6.0000
 20
24.0000
 30
0.0000
 40
4.9729
 50
299.8459
 51
330.1541
  0
ARC
  8
51
 10
6.0000
 20
24.0000
 30
0.0000
 40
4.9729
 50
209.8459
 51
240.1541
  0
ARC
  8
51
 10
6.0000
 20
24.0000
 30
0.0000
 40
4.1976
 50
212.6192
 51
237.3808
  0
ARC
  8
51
 10
6.0000
 20
24.0000
 30
0.0000
 40
4.1976
 50
122.6192
 51
147.3808
  0
ARC
  8
51
 10
6.0000
 20
24.0000
 30
0.0000
 40
4.1976
 50
32.6192
 51
57.3808
  0
ARC
  8
51
 10
6.0000
 20
24.0000
 30
0.0000
 40
4.1976
 50
302.6192
 51
327.3808
  0
CIRCLE
  8
21
 10
6.0000
 20
24.0000
 30
0.0000
 40
1.7000
  0
CIRCLE
  8
21
 10
6.0000
 20
24.0000
 30
0.0000
 40
3.1000
  0
ARC
  8
21
 10
42.0000
 20
24.0000
 30
0.0000
 40
4.1976
 50
147.3808
 51
212.6192
  0
ARC
  8
21
 10
42.0000
 20
24.0000
 30
0.0000
 40
4.1976
 50
57.3808
 51
122.6192
  0
ARC
  8
21
 10
42.0000
 20
24.0000
 30
0.0000
 40
4.1976
 50
327.3808
 51
32.6192
  0
ARC
  8
21
 10
42.0000
 20
24.0000
 30
0.0000
 40
4.1976
 50
237.3808
 51
302.6192
  0
ARC
  8
21
 10
42.0000
 20
24.0000
 30
0.0000
 40
4.9729
 50
60.1541
 51
119.8459
  0
ARC
  8
21
 10
42.0000
 20
24.0000
 30
0.0000
 40
4.9729
 50
330.1541
 51
29.8459
  0
ARC
  8
21
 10
42.0000
 20
24.0000
 30
0.0000
 40
4.9729
 50
240.1541
 51
299.8459
  0
ARC
  8
21
 10
42.0000
 20
24.0000
 30
0.0000
 40
4.9729
 50
150.1541
 51
209.8459
  0
ARC
  8
51
 10
42.0000
 20
24.0000
 30
0.0000
 40
4.9729
 50
119.8459
 51
150.1541
  0
ARC
  8
51
 10
42.0000
 20
24.0000
 30
0.0000
 40
4.9729
 50
29.8459
 51
60.1541
  0
ARC
  8
51
 10
42.0000
 20
24.0000
 30
0.0000
 40
4.9729
 50
299.8459
 51
330.1541
  0
ARC
  8
51
 10
42.0000
 20
24.0000
 30
0.0000
 40
4.9729
 50
209.8459
 51
240.1541
  0
ARC
  8
51
 10
42.0000
 20
24.0000
 30
0.0000
 40
4.1976
 50
212.6192
 51
237.3808
  0
ARC
  8
51
 10
42.0000
 20
24.0000
 30
0.0000
 40
4.1976
 50
122.6192
 51
147.3808
  0
ARC
  8
51
 10
42.0000
 20
24.0000
 30
0.0000
 40
4.1976
 50
32.6192
 51
57.3808
  0
ARC
  8
51
 10
42.0000
 20
24.0000
 30
0.0000
 40
4.1976
 50
302.6192
 51
327.3808
  0
CIRCLE
  8
21
 10
42.0000
 20
24.0000
 30
0.0000
 40
1.7000
  0
CIRCLE
  8
21
 10
42.0000
 20
24.0000
 30
0.0000
 40
3.1000
  0
LINE
  8
21
 10
36.5900
 20
5.1793
 30
0.0000
 11
36.5900
 21
3.9093
 31
0.0000
  0
LINE
  8
21
 10
36.5900
 20
3.9093
 30
0.0000
 11
35.9550
 21
3.2743
 31
0.0000
  0
LINE
  8
21
 10
35.9550
 20
3.2743
 30
0.0000
 11
34.6850
 21
3.2743
 31
0.0000
  0
LINE
  8
21
 10
34.6850
 20
3.2743
 30
0.0000
 11
34.0500
 21
3.9093
 31
0.0000
  0
LINE
  8
21
 10
35.9550
 20
5.8143
 30
0.0000
 11
34.6850
 21
5.8143
 31
0.0000
  0
LINE
  8
21
 10
36.5900
 20
5.1793
 30
0.0000
 11
35.9550
 21
5.8143
 31
0.0000
  0
LINE
  8
21
 10
34.6850
 20
5.8143
 30
0.0000
 11
34.0500
 21
5.8143
 31
0.0000
  0
LINE
  8
21
 10
34.0500
 20
5.8143
 30
0.0000
 11
34.0500
 21
5.1793
 31
0.0000
  0
LINE
  8
21
 10
34.0500
 20
3.9093
 30
0.0000
 11
34.0500
 21
5.1793
 31
0.0000
  0
LINE
  8
21
 10
35.9550
 20
3.2743
 30
0.0000
 11
36.5900
 21
2.6393
 31
0.0000
  0
LINE
  8
21
 10
36.5900
 20
2.6393
 30
0.0000
 11
36.5900
 21
1.3693
 31
0.0000
  0
LINE
  8
21
 10
36.5900
 20
1.3693
 30
0.0000
 11
35.9550
 21
0.7343
 31
0.0000
  0
LINE
  8
21
 10
35.9550
 20
0.7343
 30
0.0000
 11
34.6850
 21
0.7343
 31
0.0000
  0
LINE
  8
21
 10
34.6850
 20
0.7343
 30
0.0000
 11
34.0500
 21
1.3693
 31
0.0000
  0
LINE
  8
21
 10
34.0500
 20
1.3693
 30
0.0000
 11
34.0500
 21
2.6393
 31
0.0000
  0
LINE
  8
21
 10
34.0500
 20
2.6393
 30
0.0000
 11
34.6850
 21
3.2743
 31
0.0000
  0
INSERT
  8
51
  2
RECT
 10
35.3200
 20
4.5442
 30
0.0000
 41
0.5080
 42
0.5080
 43
1.0000
 50
270.0000
  0
INSERT
  8
51
  2
RECT
 10
35.3200
 20
2.0043
 30
0.0000
 41
0.5080
 42
0.5080
 43
1.0000
 50
270.0000
  0
LINE
  8
21
 10
15.0493
 20
15.2880
 30
0.0000
 11
13.7793
 21
15.2880
 31
0.0000
  0
LINE
  8
21
 10
13.7793
 20
15.2880
 30
0.0000
 11
13.1443
 21
15.9230
 31
0.0000
  0
LINE
  8
21
 10
13.1443
 20
15.9230
 30
0.0000
 11
13.1443
 21
17.1930
 31
0.0000
  0
LINE
  8
21
 10
13.1443
 20
17.1930
 30
0.0000
 11
13.7793
 21
17.8280
 31
0.0000
  0
LINE
  8
21
 10
13.1443
 20
15.9230
 30
0.0000
 11
12.5092
 21
15.2880
 31
0.0000
  0
LINE
  8
21
 10
12.5092
 20
15.2880
 30
0.0000
 11
11.2393
 21
15.2880
 31
0.0000
  0
LINE
  8
21
 10
11.2393
 20
15.2880
 30
0.0000
 11
10.6043
 21
15.9230
 31
0.0000
  0
LINE
  8
21
 10
10.6043
 20
15.9230
 30
0.0000
 11
10.6043
 21
17.1930
 31
0.0000
  0
LINE
  8
21
 10
10.6043
 20
17.1930
 30
0.0000
 11
11.2393
 21
17.8280
 31
0.0000
  0
LINE
  8
21
 10
11.2393
 20
17.8280
 30
0.0000
 11
12.5092
 21
17.8280
 31
0.0000
  0
LINE
  8
21
 10
12.5092
 20
17.8280
 30
0.0000
 11
13.1443
 21
17.1930
 31
0.0000
  0
LINE
  8
21
 10
15.6843
 20
15.9230
 30
0.0000
 11
15.6843
 21
17.1930
 31
0.0000
  0
LINE
  8
21
 10
15.0493
 20
15.2880
 30
0.0000
 11
15.6843
 21
15.9230
 31
0.0000
  0
LINE
  8
21
 10
15.6843
 20
17.1930
 30
0.0000
 11
15.6843
 21
17.8280
 31
0.0000
  0
LINE
  8
21
 10
15.6843
 20
17.8280
 30
0.0000
 11
15.0493
 21
17.8280
 31
0.0000
  0
LINE
  8
21
 10
13.7793
 20
17.8280
 30
0.0000
 11
15.0493
 21
17.8280
 31
0.0000
  0
LINE
  8
21
 10
10.6043
 20
15.9230
 30
0.0000
 11
9.9693
 21
15.2880
 31
0.0000
  0
LINE
  8
21
 10
9.9693
 20
15.2880
 30
0.0000
 11
8.6993
 21
15.2880
 31
0.0000
  0
LINE
  8
21
 10
8.6993
 20
15.2880
 30
0.0000
 11
8.0643
 21
15.9230
 31
0.0000
  0
LINE
  8
21
 10
8.0643
 20
15.9230
 30
0.0000
 11
8.0643
 21
17.1930
 31
0.0000
  0
LINE
  8
21
 10
8.0643
 20
17.1930
 30
0.0000
 11
8.6993
 21
17.8280
 31
0.0000
  0
LINE
  8
21
 10
8.6993
 20
17.8280
 30
0.0000
 11
9.9693
 21
17.8280
 31
0.0000
  0
LINE
  8
21
 10
9.9693
 20
17.8280
 30
0.0000
 11
10.6043
 21
17.1930
 31
0.0000
  0
INSERT
  8
51
  2
RECT
 10
11.8742
 20
16.5580
 30
0.0000
 41
0.5080
 42
0.5080
 43
1.0000
 50
180.0000
  0
INSERT
  8
51
  2
RECT
 10
14.4143
 20
16.5580
 30
0.0000
 41
0.5080
 42
0.5080
 43
1.0000
 50
180.0000
  0
INSERT
  8
51
  2
RECT
 10
9.3343
 20
16.5580
 30
0.0000
 41
0.5080
 42
0.5080
 43
1.0000
 50
180.0000
  0
LINE
  8
21
 10
36.2463
 20
15.2955
 30
0.0000
 11
34.9763
 21
15.2955
 31
0.0000
  0
LINE
  8
21
 10
34.9763
 20
15.2955
 30
0.0000
 11
34.3413
 21
15.9305
 31
0.0000
  0
LINE
  8
21
 10
34.3413
 20
15.9305
 30
0.0000
 11
34.3413
 21
17.2005
 31
0.0000
  0
LINE
  8
21
 10
34.3413
 20
17.2005
 30
0.0000
 11
34.9763
 21
17.8355
 31
0.0000
  0
LINE
  8
21
 10
34.3413
 20
15.9305
 30
0.0000
 11
33.7063
 21
15.2955
 31
0.0000
  0
LINE
  8
21
 10
33.7063
 20
15.2955
 30
0.0000
 11
32.4363
 21
15.2955
 31
0.0000
  0
LINE
  8
21
 10
32.4363
 20
15.2955
 30
0.0000
 11
31.8013
 21
15.9305
 31
0.0000
  0
LINE
  8
21
 10
31.8013
 20
15.9305
 30
0.0000
 11
31.8013
 21
17.2005
 31
0.0000
  0
LINE
  8
21
 10
31.8013
 20
17.2005
 30
0.0000
 11
32.4363
 21
17.8355
 31
0.0000
  0
LINE
  8
21
 10
32.4363
 20
17.8355
 30
0.0000
 11
33.7063
 21
17.8355
 31
0.0000
  0
LINE
  8
21
 10
33.7063
 20
17.8355
 30
0.0000
 11
34.3413
 21
17.2005
 31
0.0000
  0
LINE
  8
21
 10
36.8813
 20
15.9305
 30
0.0000
 11
36.8813
 21
17.2005
 31
0.0000
  0
LINE
  8
21
 10
36.2463
 20
15.2955
 30
0.0000
 11
36.8813
 21
15.9305
 31
0.0000
  0
LINE
  8
21
 10
36.8813
 20
17.2005
 30
0.0000
 11
36.8813
 21
17.8355
 31
0.0000
  0
LINE
  8
21
 10
36.8813
 20
17.8355
 30
0.0000
 11
36.2463
 21
17.8355
 31
0.0000
  0
LINE
  8
21
 10
34.9763
 20
17.8355
 30
0.0000
 11
36.2463
 21
17.8355
 31
0.0000
  0
LINE
  8
21
 10
31.8013
 20
15.9305
 30
0.0000
 11
31.1663
 21
15.2955
 31
0.0000
  0
LINE
  8
21
 10
31.1663
 20
15.2955
 30
0.0000
 11
29.8963
 21
15.2955
 31
0.0000
  0
LINE
  8
21
 10
29.8963
 20
15.2955
 30
0.0000
 11
29.2613
 21
15.9305
 31
0.0000
  0
LINE
  8
21
 10
29.2613
 20
15.9305
 30
0.0000
 11
29.2613
 21
17.2005
 31
0.0000
  0
LINE
  8
21
 10
29.2613
 20
17.2005
 30
0.0000
 11
29.8963
 21
17.8355
 31
0.0000
  0
LINE
  8
21
 10
29.8963
 20
17.8355
 30
0.0000
 11
31.1663
 21
17.8355
 31
0.0000
  0
LINE
  8
21
 10
31.1663
 20
17.8355
 30
0.0000
 11
31.8013
 21
17.2005
 31
0.0000
  0
INSERT
  8
51
  2
RECT
 10
33.0712
 20
16.5655
 30
0.0000
 41
0.5080
 42
0.5080
 43
1.0000
 50
180.0000
  0
INSERT
  8
51
  2
RECT
 10
35.6112
 20
16.5655
 30
0.0000
 41
0.5080
 42
0.5080
 43
1.0000
 50
180.0000
  0
INSERT
  8
51
  2
RECT
 10
30.5313
 20
16.5655
 30
0.0000
 41
0.5080
 42
0.5080
 43
1.0000
 50
180.0000
  0
LINE
  8
21
 10
31.0835
 20
10.8388
 30
0.0000
 11
31.0835
 21
3.2188
 31
0.0000
  0
LINE
  8
21
 10
33.6235
 20
3.2188
 30
0.0000
 11
33.6235
 21
10.8388
 31
0.0000
  0
LINE
  8
21
 10
32.3535
 20
3.2188
 30
0.0000
 11
32.3535
 21
2.4567
 31
0.0000
  0
LINE
  8
21
 10
31.0835
 20
3.2188
 30
0.0000
 11
33.6235
 21
3.2188
 31
0.0000
  0
LINE
  8
21
 10
32.3535
 20
10.8388
 30
0.0000
 11
32.3535
 21
11.6007
 31
0.0000
  0
LINE
  8
21
 10
33.6235
 20
10.8388
 30
0.0000
 11
31.0835
 21
10.8388
 31
0.0000
  0
LINE
  8
21
 10
1.3589
 20
41.5502
 30
0.0000
 11
1.3589
 21
42.8964
 31
0.0000
  0
LINE
  8
21
 10
1.3589
 20
42.8964
 30
0.0000
 11
1.7328
 21
42.8964
 31
0.0000
  0
ARC
  8
21
 10
1.7328
 20
42.6720
 30
0.0000
 40
0.2244
 50
0.0000
 51
90.0000
  0
LINE
  8
21
 10
1.9572
 20
42.6720
 30
0.0000
 11
1.9572
 21
42.2233
 31
0.0000
  0
ARC
  8
21
 10
1.7328
 20
42.2233
 30
0.0000
 40
0.2244
 50
270.0008
 51
0.0000
  0
LINE
  8
21
 10
1.7328
 20
41.9989
 30
0.0000
 11
1.3589
 21
41.9989
 31
0.0000
  0
LINE
  8
21
 10
2.5485
 20
43.3451
 30
0.0000
 11
2.5485
 21
42.2233
 31
0.0000
  0
ARC
  8
21
 10
2.7729
 20
42.2233
 30
0.0000
 40
0.2244
 50
180.0000
 51
270.0000
  0
LINE
  8
21
 10
3.8564
 20
42.5224
 30
0.0000
 11
3.5199
 21
42.5224
 31
0.0000
  0
ARC
  8
21
 10
3.5199
 20
42.2607
 30
0.0000
 40
0.2618
 50
90.0000
 51
270.0000
  0
LINE
  8
21
 10
3.5199
 20
41.9989
 30
0.0000
 11
3.8564
 21
41.9989
 31
0.0000
  0
LINE
  8
21
 10
3.8564
 20
41.9989
 30
0.0000
 11
3.8564
 21
42.6720
 31
0.0000
  0
ARC
  8
21
 10
3.6320
 20
42.6720
 30
0.0000
 40
0.2244
 50
0.0000
 51
90.0000
  0
LINE
  8
21
 10
3.6320
 20
42.8964
 30
0.0000
 11
3.3329
 21
42.8964
 31
0.0000
  0
LINE
  8
21
 10
5.0241
 20
41.9989
 30
0.0000
 11
4.7250
 21
41.9989
 31
0.0000
  0
ARC
  8
21
 10
4.7250
 20
42.2233
 30
0.0000
 40
0.2244
 50
180.0000
 51
270.0000
  0
LINE
  8
21
 10
4.5006
 20
42.2233
 30
0.0000
 11
4.5006
 21
42.6720
 31
0.0000
  0
ARC
  8
21
 10
4.7250
 20
42.6720
 30
0.0000
 40
0.2244
 50
89.9992
 51
180.0000
  0
LINE
  8
21
 10
4.7250
 20
42.8964
 30
0.0000
 11
5.0241
 21
42.8964
 31
0.0000
  0
LINE
  8
21
 10
6.1464
 20
41.9989
 30
0.0000
 11
5.7725
 21
41.9989
 31
0.0000
  0
ARC
  8
21
 10
5.7725
 20
42.2233
 30
0.0000
 40
0.2244
 50
180.0000
 51
270.0000
  0
LINE
  8
21
 10
5.5481
 20
42.2233
 30
0.0000
 11
5.5481
 21
42.5972
 31
0.0000
  0
ARC
  8
21
 10
5.8473
 20
42.5972
 30
0.0000
 40
0.2992
 50
0.0000
 51
180.0000
  0
LINE
  8
21
 10
6.1464
 20
42.5972
 30
0.0000
 11
6.1464
 21
42.4476
 31
0.0000
  0
LINE
  8
21
 10
6.1464
 20
42.4476
 30
0.0000
 11
5.5481
 21
42.4476
 31
0.0000
  0
LINE
  8
21
 10
6.8130
 20
41.9989
 30
0.0000
 11
6.8130
 21
42.8964
 31
0.0000
  0
LINE
  8
21
 10
6.8130
 20
42.8964
 30
0.0000
 11
7.4861
 21
42.8964
 31
0.0000
  0
ARC
  8
21
 10
7.4861
 20
42.6720
 30
0.0000
 40
0.2244
 50
0.0000
 51
90.0000
  0
LINE
  8
21
 10
7.7105
 20
42.6720
 30
0.0000
 11
7.7105
 21
41.9989
 31
0.0000
  0
LINE
  8
21
 10
7.2617
 20
41.9989
 30
0.0000
 11
7.2617
 21
42.8964
 31
0.0000
  0
LINE
  8
21
 10
8.9754
 20
41.9989
 30
0.0000
 11
8.6014
 21
41.9989
 31
0.0000
  0
ARC
  8
21
 10
8.6014
 20
42.2233
 30
0.0000
 40
0.2244
 50
180.0000
 51
270.0000
  0
LINE
  8
21
 10
8.3771
 20
42.2233
 30
0.0000
 11
8.3771
 21
42.5972
 31
0.0000
  0
ARC
  8
21
 10
8.6762
 20
42.5972
 30
0.0000
 40
0.2992
 50
0.0000
 51
180.0000
  0
LINE
  8
21
 10
8.9754
 20
42.5972
 30
0.0000
 11
8.9754
 21
42.4476
 31
0.0000
  0
LINE
  8
21
 10
8.9754
 20
42.4476
 30
0.0000
 11
8.3771
 21
42.4476
 31
0.0000
  0
LINE
  8
21
 10
9.6090
 20
41.9989
 30
0.0000
 11
9.6090
 21
42.8964
 31
0.0000
  0
LINE
  8
21
 10
9.6090
 20
42.8964
 30
0.0000
 11
9.9830
 21
42.8964
 31
0.0000
  0
ARC
  8
21
 10
9.9830
 20
42.6720
 30
0.0000
 40
0.2244
 50
0.0000
 51
90.0000
  0
LINE
  8
21
 10
10.2074
 20
42.6720
 30
0.0000
 11
10.2074
 21
41.9989
 31
0.0000
  0
LINE
  8
21
 10
10.7198
 20
42.8964
 30
0.0000
 11
11.1685
 21
42.8964
 31
0.0000
  0
LINE
  8
21
 10
10.8694
 20
43.3451
 30
0.0000
 11
10.8694
 21
42.2233
 31
0.0000
  0
ARC
  8
21
 10
11.0937
 20
42.2233
 30
0.0000
 40
0.2244
 50
180.0000
 51
270.0000
  0
LINE
  8
21
 10
11.0937
 20
41.9989
 30
0.0000
 11
11.1685
 21
41.9989
 31
0.0000
  0
LINE
  8
21
 10
12.9635
 20
41.9989
 30
0.0000
 11
12.6643
 21
41.9989
 31
0.0000
  0
ARC
  8
21
 10
12.6643
 20
42.2233
 30
0.0000
 40
0.2244
 50
180.0000
 51
270.0000
  0
LINE
  8
21
 10
12.4400
 20
42.2233
 30
0.0000
 11
12.4400
 21
42.6720
 31
0.0000
  0
ARC
  8
21
 10
12.6643
 20
42.6720
 30
0.0000
 40
0.2244
 50
89.9992
 51
180.0000
  0
LINE
  8
21
 10
12.6643
 20
42.8964
 30
0.0000
 11
12.9635
 21
42.8964
 31
0.0000
  0
LINE
  8
21
 10
13.4875
 20
42.2981
 30
0.0000
 11
13.4875
 21
42.5972
 31
0.0000
  0
ARC
  8
21
 10
13.7866
 20
42.5972
 30
0.0000
 40
0.2992
 50
0.0000
 51
180.0000
  0
LINE
  8
21
 10
14.0858
 20
42.5972
 30
0.0000
 11
14.0858
 21
42.2981
 31
0.0000
  0
ARC
  8
21
 10
13.7866
 20
42.2981
 30
0.0000
 40
0.2992
 50
180.0000
 51
0.0000
  0
LINE
  8
21
 10
14.7524
 20
41.9989
 30
0.0000
 11
14.7524
 21
42.8964
 31
0.0000
  0
LINE
  8
21
 10
14.7524
 20
42.8964
 30
0.0000
 11
15.4255
 21
42.8964
 31
0.0000
  0
ARC
  8
21
 10
15.4255
 20
42.6720
 30
0.0000
 40
0.2244
 50
0.0000
 51
90.0000
  0
LINE
  8
21
 10
15.6498
 20
42.6720
 30
0.0000
 11
15.6498
 21
41.9989
 31
0.0000
  0
LINE
  8
21
 10
15.2011
 20
41.9989
 30
0.0000
 11
15.2011
 21
42.8964
 31
0.0000
  0
LINE
  8
21
 10
16.3706
 20
41.5502
 30
0.0000
 11
16.3706
 21
42.8964
 31
0.0000
  0
LINE
  8
21
 10
16.3706
 20
42.8964
 30
0.0000
 11
16.7446
 21
42.8964
 31
0.0000
  0
ARC
  8
21
 10
16.7446
 20
42.6720
 30
0.0000
 40
0.2244
 50
0.0000
 51
90.0000
  0
LINE
  8
21
 10
16.9690
 20
42.6720
 30
0.0000
 11
16.9690
 21
42.2233
 31
0.0000
  0
ARC
  8
21
 10
16.7446
 20
42.2233
 30
0.0000
 40
0.2244
 50
270.0008
 51
0.0000
  0
LINE
  8
21
 10
16.7446
 20
41.9989
 30
0.0000
 11
16.3706
 21
41.9989
 31
0.0000
  0
LINE
  8
21
 10
17.5484
 20
42.2981
 30
0.0000
 11
17.5484
 21
42.5972
 31
0.0000
  0
ARC
  8
21
 10
17.8475
 20
42.5972
 30
0.0000
 40
0.2992
 50
0.0000
 51
180.0000
  0
LINE
  8
21
 10
18.1467
 20
42.5972
 30
0.0000
 11
18.1467
 21
42.2981
 31
0.0000
  0
ARC
  8
21
 10
17.8475
 20
42.2981
 30
0.0000
 40
0.2992
 50
180.0000
 51
0.0000
  0
LINE
  8
21
 10
18.7804
 20
41.9989
 30
0.0000
 11
18.7804
 21
42.8964
 31
0.0000
  0
LINE
  8
21
 10
18.7804
 20
42.8964
 30
0.0000
 11
19.1543
 21
42.8964
 31
0.0000
  0
ARC
  8
21
 10
19.1543
 20
42.6720
 30
0.0000
 40
0.2244
 50
0.0000
 51
90.0000
  0
LINE
  8
21
 10
19.3787
 20
42.6720
 30
0.0000
 11
19.3787
 21
41.9989
 31
0.0000
  0
LINE
  8
21
 10
20.6106
 20
41.9989
 30
0.0000
 11
20.2367
 21
41.9989
 31
0.0000
  0
ARC
  8
21
 10
20.2367
 20
42.2233
 30
0.0000
 40
0.2244
 50
180.0000
 51
270.0000
  0
LINE
  8
21
 10
20.0123
 20
42.2233
 30
0.0000
 11
20.0123
 21
42.5972
 31
0.0000
  0
ARC
  8
21
 10
20.3115
 20
42.5972
 30
0.0000
 40
0.2992
 50
0.0000
 51
180.0000
  0
LINE
  8
21
 10
20.6106
 20
42.5972
 30
0.0000
 11
20.6106
 21
42.4476
 31
0.0000
  0
LINE
  8
21
 10
20.6106
 20
42.4476
 30
0.0000
 11
20.0123
 21
42.4476
 31
0.0000
  0
LINE
  8
21
 10
21.2443
 20
41.9989
 30
0.0000
 11
21.2443
 21
42.8964
 31
0.0000
  0
LINE
  8
21
 10
21.2443
 20
42.8964
 30
0.0000
 11
21.6182
 21
42.8964
 31
0.0000
  0
ARC
  8
21
 10
21.6182
 20
42.6720
 30
0.0000
 40
0.2244
 50
0.0000
 51
90.0000
  0
LINE
  8
21
 10
21.8426
 20
42.6720
 30
0.0000
 11
21.8426
 21
41.9989
 31
0.0000
  0
LINE
  8
21
 10
22.3550
 20
42.8964
 30
0.0000
 11
22.8038
 21
42.8964
 31
0.0000
  0
LINE
  8
21
 10
22.5046
 20
43.3451
 30
0.0000
 11
22.5046
 21
42.2233
 31
0.0000
  0
ARC
  8
21
 10
22.7290
 20
42.2233
 30
0.0000
 40
0.2244
 50
180.0000
 51
270.0000
  0
LINE
  8
21
 10
22.7290
 20
41.9989
 30
0.0000
 11
22.8038
 21
41.9989
 31
0.0000
  0
LINE
  8
21
 10
24.5594
 20
42.3728
 30
0.0000
 11
24.1854
 21
42.5224
 31
0.0000
  0
ARC
  8
21
 10
24.2574
 20
42.7025
 30
0.0000
 40
0.1939
 50
89.1810
 51
248.1986
  0
ARC
  8
21
 10
24.2481
 20
42.0471
 30
0.0000
 40
0.8493
 50
65.7609
 51
89.1810
  0
ARC
  8
21
 10
24.4874
 20
42.1928
 30
0.0000
 40
0.1939
 50
269.1810
 51
68.1986
  0
ARC
  8
21
 10
24.5027
 20
43.2672
 30
0.0000
 40
1.2684
 50
250.2096
 51
269.1810
  0
LINE
  8
21
 10
25.2393
 20
41.9989
 30
0.0000
 11
25.2393
 21
42.8964
 31
0.0000
  0
LINE
  8
21
 10
25.2019
 20
43.2703
 30
0.0000
 11
25.2019
 21
43.3451
 31
0.0000
  0
LINE
  8
21
 10
25.2019
 20
43.3451
 30
0.0000
 11
25.2767
 21
43.3451
 31
0.0000
  0
LINE
  8
21
 10
25.2767
 20
43.3451
 30
0.0000
 11
25.2767
 21
43.2703
 31
0.0000
  0
LINE
  8
21
 10
25.2767
 20
43.2703
 30
0.0000
 11
25.2019
 21
43.2703
 31
0.0000
  0
LINE
  8
21
 10
26.3968
 20
43.3451
 30
0.0000
 11
26.3968
 21
41.9989
 31
0.0000
  0
LINE
  8
21
 10
26.3968
 20
41.9989
 30
0.0000
 11
26.0229
 21
41.9989
 31
0.0000
  0
ARC
  8
21
 10
26.0229
 20
42.2233
 30
0.0000
 40
0.2244
 50
180.0000
 51
270.0000
  0
LINE
  8
21
 10
25.7985
 20
42.2233
 30
0.0000
 11
25.7985
 21
42.6720
 31
0.0000
  0
ARC
  8
21
 10
26.0229
 20
42.6720
 30
0.0000
 40
0.2244
 50
89.9992
 51
180.0000
  0
LINE
  8
21
 10
26.0229
 20
42.8964
 30
0.0000
 11
26.3968
 21
42.8964
 31
0.0000
  0
LINE
  8
21
 10
27.6374
 20
41.9989
 30
0.0000
 11
27.2635
 21
41.9989
 31
0.0000
  0
ARC
  8
21
 10
27.2635
 20
42.2233
 30
0.0000
 40
0.2244
 50
180.0000
 51
270.0000
  0
LINE
  8
21
 10
27.0391
 20
42.2233
 30
0.0000
 11
27.0391
 21
42.5972
 31
0.0000
  0
ARC
  8
21
 10
27.3382
 20
42.5972
 30
0.0000
 40
0.2992
 50
0.0000
 51
180.0000
  0
LINE
  8
21
 10
27.6374
 20
42.5972
 30
0.0000
 11
27.6374
 21
42.4476
 31
0.0000
  0
LINE
  8
21
 10
27.6374
 20
42.4476
 30
0.0000
 11
27.0391
 21
42.4476
 31
0.0000
  0
INSERT
  8
21
  2
RECT
 10
39.7561
 20
1.6050
 30
0.0000
 41
0.1676
 42
0.0559
 43
1.0000
 50
0.0000
  0
INSERT
  8
21
  2
RECT
 10
40.2590
 20
1.6050
 30
0.0000
 41
0.1676
 42
0.0559
 43
1.0000
 50
0.0000
  0
INSERT
  8
21
  2
RECT
 10
40.7340
 20
1.6050
 30
0.0000
 41
0.3353
 42
0.0559
 43
1.0000
 50
0.0000
  0
INSERT
  8
21
  2
RECT
 10
41.0413
 20
1.6050
 30
0.0000
 41
0.1676
 42
0.0559
 43
1.0000
 50
0.0000
  0
INSERT
  8
21
  2
RECT
 10
41.3766
 20
1.6050
 30
0.0000
 41
0.1676
 42
0.0559
 43
1.0000
 50
0.0000
  0
INSERT
  8
21
  2
RECT
 10
42.1310
 20
1.6050
 30
0.0000
 41
0.2235
 42
0.0559
 43
1.0000
 50
0.0000
  0
INSERT
  8
21
  2
RECT
 10
42.4383
 20
1.6050
 30
0.0000
 41
0.1676
 42
0.0559
 43
1.0000
 50
0.0000
  0
INSERT
  8
21
  2
RECT
 10
42.9412
 20
1.6050
 30
0.0000
 41
0.1676
 42
0.0559
 43
1.0000
 50
0.0000
  0
INSERT
  8
21
  2
RECT
 10
43.4442
 20
1.6050
 30
0.0000
 41
0.1676
 42
0.0559
 43
1.0000
 50
0.0000
  0
INSERT
  8
21
  2
RECT
 10
44.0588
 20
1.6050
 30
0.0000
 41
0.2794
 42
0.0559
 43
1.0000
 50
0.0000
  0
INSERT
  8
21
  2
RECT
 10
44.3662
 20
1.6050
 30
0.0000
 41
0.2235
 42
0.0559
 43
1.0000
 50
0.0000
  0
INSERT
  8
21
  2
RECT
 10
44.7294
 20
1.6050
 30
0.0000
 41
0.1676
 42
0.0559
 43
1.0000
 50
0.0000
  0
INSERT
  8
21
  2
RECT
 10
45.5397
 20
1.6050
 30
0.0000
 41
0.3353
 42
0.0559
 43
1.0000
 50
0.0000
  0
INSERT
  8
21
  2
RECT
 10
39.7561
 20
1.6609
 30
0.0000
 41
0.1676
 42
0.0559
 43
1.0000
 50
0.0000
  0
INSERT
  8
21
  2
RECT
 10
40.2590
 20
1.6609
 30
0.0000
 41
0.1676
 42
0.0559
 43
1.0000
 50
0.0000
  0
INSERT
  8
21
  2
RECT
 10
40.8178
 20
1.6609
 30
0.0000
 41
0.6147
 42
0.0559
 43
1.0000
 50
0.0000
  0
INSERT
  8
21
  2
RECT
 10
41.3766
 20
1.6609
 30
0.0000
 41
0.1676
 42
0.0559
 43
1.0000
 50
0.0000
  0
INSERT
  8
21
  2
RECT
 10
42.2148
 20
1.6609
 30
0.0000
 41
0.6147
 42
0.0559
 43
1.0000
 50
0.0000
  0
INSERT
  8
21
  2
RECT
 10
42.9412
 20
1.6609
 30
0.0000
 41
0.1676
 42
0.0559
 43
1.0000
 50
0.0000
  0
INSERT
  8
21
  2
RECT
 10
43.4162
 20
1.6609
 30
0.0000
 41
0.2235
 42
0.0559
 43
1.0000
 50
0.0000
  0
INSERT
  8
21
  2
RECT
 10
44.1706
 20
1.6609
 30
0.0000
 41
0.6147
 42
0.0559
 43
1.0000
 50
0.0000
  0
INSERT
  8
21
  2
RECT
 10
44.7294
 20
1.6609
 30
0.0000
 41
0.1676
 42
0.0559
 43
1.0000
 50
0.0000
  0
INSERT
  8
21
  2
RECT
 10
45.5676
 20
1.6609
 30
0.0000
 41
0.5029
 42
0.0559
 43
1.0000
 50
0.0000
  0
INSERT
  8
21
  2
RECT
 10
39.7561
 20
1.7168
 30
0.0000
 41
0.1676
 42
0.0559
 43
1.0000
 50
0.0000
  0
INSERT
  8
21
  2
RECT
 10
40.2590
 20
1.7168
 30
0.0000
 41
0.1676
 42
0.0559
 43
1.0000
 50
0.0000
  0
INSERT
  8
21
  2
RECT
 10
40.7899
 20
1.7168
 30
0.0000
 41
0.6706
 42
0.0559
 43
1.0000
 50
0.0000
  0
INSERT
  8
21
  2
RECT
 10
41.3766
 20
1.7168
 30
0.0000
 41
0.1676
 42
0.0559
 43
1.0000
 50
0.0000
  0
INSERT
  8
21
  2
RECT
 10
42.2148
 20
1.7168
 30
0.0000
 41
0.6147
 42
0.0559
 43
1.0000
 50
0.0000
  0
INSERT
  8
21
  2
RECT
 10
42.9133
 20
1.7168
 30
0.0000
 41
0.2235
 42
0.0559
 43
1.0000
 50
0.0000
  0
INSERT
  8
21
  2
RECT
 10
43.4162
 20
1.7168
 30
0.0000
 41
0.2235
 42
0.0559
 43
1.0000
 50
0.0000
  0
INSERT
  8
21
  2
RECT
 10
44.1427
 20
1.7168
 30
0.0000
 41
0.6706
 42
0.0559
 43
1.0000
 50
0.0000
  0
INSERT
  8
21
  2
RECT
 10
44.7294
 20
1.7168
 30
0.0000
 41
0.1676
 42
0.0559
 43
1.0000
 50
0.0000
  0
INSERT
  8
21
  2
RECT
 10
45.5676
 20
1.7168
 30
0.0000
 41
0.6147
 42
0.0559
 43
1.0000
 50
0.0000
  0
INSERT
  8
21
  2
RECT
 10
39.7561
 20
1.7726
 30
0.0000
 41
0.1676
 42
0.0559
 43
1.0000
 50
0.0000
  0
INSERT
  8
21
  2
RECT
 10
40.2590
 20
1.7726
 30
0.0000
 41
0.1676
 42
0.0559
 43
1.0000
 50
0.0000
  0
INSERT
  8
21
  2
RECT
 10
40.5384
 20
1.7726
 30
0.0000
 41
0.1676
 42
0.0559
 43
1.0000
 50
0.0000
  0
INSERT
  8
21
  2
RECT
 10
41.0134
 20
1.7726
 30
0.0000
 41
0.2235
 42
0.0559
 43
1.0000
 50
0.0000
  0
INSERT
  8
21
  2
RECT
 10
41.3766
 20
1.7726
 30
0.0000
 41
0.1676
 42
0.0559
 43
1.0000
 50
0.0000
  0
INSERT
  8
21
  2
RECT
 10
41.9633
 20
1.7726
 30
0.0000
 41
0.2235
 42
0.0559
 43
1.0000
 50
0.0000
  0
INSERT
  8
21
  2
RECT
 10
42.3824
 20
1.7726
 30
0.0000
 41
0.2794
 42
0.0559
 43
1.0000
 50
0.0000
  0
INSERT
  8
21
  2
RECT
 10
42.9412
 20
1.7726
 30
0.0000
 41
0.2794
 42
0.0559
 43
1.0000
 50
0.0000
  0
INSERT
  8
21
  2
RECT
 10
43.4442
 20
1.7726
 30
0.0000
 41
0.2794
 42
0.0559
 43
1.0000
 50
0.0000
  0
INSERT
  8
21
  2
RECT
 10
43.8912
 20
1.7726
 30
0.0000
 41
0.1676
 42
0.0559
 43
1.0000
 50
0.0000
  0
INSERT
  8
21
  2
RECT
 10
44.3662
 20
1.7726
 30
0.0000
 41
0.2235
 42
0.0559
 43
1.0000
 50
0.0000
  0
INSERT
  8
21
  2
RECT
 10
44.7294
 20
1.7726
 30
0.0000
 41
0.1676
 42
0.0559
 43
1.0000
 50
0.0000
  0
INSERT
  8
21
  2
RECT
 10
45.3161
 20
1.7726
 30
0.0000
 41
0.2235
 42
0.0559
 43
1.0000
 50
0.0000
  0
INSERT
  8
21
  2
RECT
 10
45.7352
 20
1.7726
 30
0.0000
 41
0.1676
 42
0.0559
 43
1.0000
 50
0.0000
  0
INSERT
  8
21
  2
RECT
 10
39.7561
 20
1.8285
 30
0.0000
 41
0.1676
 42
0.0559
 43
1.0000
 50
0.0000
  0
INSERT
  8
21
  2
RECT
 10
40.2590
 20
1.8285
 30
0.0000
 41
0.1676
 42
0.0559
 43
1.0000
 50
0.0000
  0
INSERT
  8
21
  2
RECT
 10
40.5384
 20
1.8285
 30
0.0000
 41
0.1676
 42
0.0559
 43
1.0000
 50
0.0000
  0
INSERT
  8
21
  2
RECT
 10
41.0134
 20
1.8285
 30
0.0000
 41
0.2235
 42
0.0559
 43
1.0000
 50
0.0000
  0
INSERT
  8
21
  2
RECT
 10
41.3766
 20
1.8285
 30
0.0000
 41
0.1676
 42
0.0559
 43
1.0000
 50
0.0000
  0
INSERT
  8
21
  2
RECT
 10
41.9354
 20
1.8285
 30
0.0000
 41
0.1676
 42
0.0559
 43
1.0000
 50
0.0000
  0
INSERT
  8
21
  2
RECT
 10
42.4104
 20
1.8285
 30
0.0000
 41
0.2235
 42
0.0559
 43
1.0000
 50
0.0000
  0
INSERT
  8
21
  2
RECT
 10
42.9412
 20
1.8285
 30
0.0000
 41
0.2794
 42
0.0559
 43
1.0000
 50
0.0000
  0
INSERT
  8
21
  2
RECT
 10
43.4442
 20
1.8285
 30
0.0000
 41
0.2794
 42
0.0559
 43
1.0000
 50
0.0000
  0
INSERT
  8
21
  2
RECT
 10
43.8353
 20
1.8285
 30
0.0000
 41
0.1676
 42
0.0559
 43
1.0000
 50
0.0000
  0
INSERT
  8
21
  2
RECT
 10
44.3662
 20
1.8285
 30
0.0000
 41
0.2235
 42
0.0559
 43
1.0000
 50
0.0000
  0
INSERT
  8
21
  2
RECT
 10
44.7294
 20
1.8285
 30
0.0000
 41
0.1676
 42
0.0559
 43
1.0000
 50
0.0000
  0
INSERT
  8
21
  2
RECT
 10
45.2882
 20
1.8285
 30
0.0000
 41
0.1676
 42
0.0559
 43
1.0000
 50
0.0000
  0
INSERT
  8
21
  2
RECT
 10
39.7561
 20
1.8844
 30
0.0000
 41
0.1676
 42
0.0559
 43
1.0000
 50
0.0000
  0
INSERT
  8
21
  2
RECT
 10
40.2590
 20
1.8844
 30
0.0000
 41
0.1676
 42
0.0559
 43
1.0000
 50
0.0000
  0
INSERT
  8
21
  2
RECT
 10
40.5384
 20
1.8844
 30
0.0000
 41
0.1676
 42
0.0559
 43
1.0000
 50
0.0000
  0
INSERT
  8
21
  2
RECT
 10
41.0413
 20
1.8844
 30
0.0000
 41
0.1676
 42
0.0559
 43
1.0000
 50
0.0000
  0
INSERT
  8
21
  2
RECT
 10
41.3766
 20
1.8844
 30
0.0000
 41
0.1676
 42
0.0559
 43
1.0000
 50
0.0000
  0
INSERT
  8
21
  2
RECT
 10
41.9354
 20
1.8844
 30
0.0000
 41
0.1676
 42
0.0559
 43
1.0000
 50
0.0000
  0
INSERT
  8
21
  2
RECT
 10
42.4383
 20
1.8844
 30
0.0000
 41
0.1676
 42
0.0559
 43
1.0000
 50
0.0000
  0
INSERT
  8
21
  2
RECT
 10
42.9133
 20
1.8844
 30
0.0000
 41
0.3353
 42
0.0559
 43
1.0000
 50
0.0000
  0
INSERT
  8
21
  2
RECT
 10
43.4162
 20
1.8844
 30
0.0000
 41
0.3353
 42
0.0559
 43
1.0000
 50
0.0000
  0
INSERT
  8
21
  2
RECT
 10
43.8633
 20
1.8844
 30
0.0000
 41
0.2235
 42
0.0559
 43
1.0000
 50
0.0000
  0
INSERT
  8
21
  2
RECT
 10
44.3662
 20
1.8844
 30
0.0000
 41
0.2235
 42
0.0559
 43
1.0000
 50
0.0000
  0
INSERT
  8
21
  2
RECT
 10
44.7294
 20
1.8844
 30
0.0000
 41
0.1676
 42
0.0559
 43
1.0000
 50
0.0000
  0
INSERT
  8
21
  2
RECT
 10
45.2882
 20
1.8844
 30
0.0000
 41
0.1676
 42
0.0559
 43
1.0000
 50
0.0000
  0
INSERT
  8
21
  2
RECT
 10
39.7561
 20
1.9403
 30
0.0000
 41
0.1676
 42
0.0559
 43
1.0000
 50
0.0000
  0
INSERT
  8
21
  2
RECT
 10
40.2590
 20
1.9403
 30
0.0000
 41
0.1676
 42
0.0559
 43
1.0000
 50
0.0000
  0
INSERT
  8
21
  2
RECT
 10
40.7899
 20
1.9403
 30
0.0000
 41
0.6706
 42
0.0559
 43
1.0000
 50
0.0000
  0
INSERT
  8
21
  2
RECT
 10
41.3766
 20
1.9403
 30
0.0000
 41
0.1676
 42
0.0559
 43
1.0000
 50
0.0000
  0
INSERT
  8
21
  2
RECT
 10
41.9354
 20
1.9403
 30
0.0000
 41
0.1676
 42
0.0559
 43
1.0000
 50
0.0000
  0
INSERT
  8
21
  2
RECT
 10
42.4383
 20
1.9403
 30
0.0000
 41
0.1676
 42
0.0559
 43
1.0000
 50
0.0000
  0
INSERT
  8
21
  2
RECT
 10
42.8295
 20
1.9403
 30
0.0000
 41
0.1676
 42
0.0559
 43
1.0000
 50
0.0000
  0
INSERT
  8
21
  2
RECT
 10
43.0530
 20
1.9403
 30
0.0000
 41
0.1676
 42
0.0559
 43
1.0000
 50
0.0000
  0
INSERT
  8
21
  2
RECT
 10
43.3324
 20
1.9403
 30
0.0000
 41
0.1676
 42
0.0559
 43
1.0000
 50
0.0000
  0
INSERT
  8
21
  2
RECT
 10
43.5559
 20
1.9403
 30
0.0000
 41
0.1676
 42
0.0559
 43
1.0000
 50
0.0000
  0
INSERT
  8
21
  2
RECT
 10
44.1427
 20
1.9403
 30
0.0000
 41
0.6706
 42
0.0559
 43
1.0000
 50
0.0000
  0
INSERT
  8
21
  2
RECT
 10
44.7294
 20
1.9403
 30
0.0000
 41
0.1676
 42
0.0559
 43
1.0000
 50
0.0000
  0
INSERT
  8
21
  2
RECT
 10
45.5397
 20
1.9403
 30
0.0000
 41
0.6706
 42
0.0559
 43
1.0000
 50
0.0000
  0
INSERT
  8
21
  2
RECT
 10
39.7561
 20
1.9962
 30
0.0000
 41
0.1676
 42
0.0559
 43
1.0000
 50
0.0000
  0
INSERT
  8
21
  2
RECT
 10
40.2590
 20
1.9962
 30
0.0000
 41
0.1676
 42
0.0559
 43
1.0000
 50
0.0000
  0
INSERT
  8
21
  2
RECT
 10
40.8178
 20
1.9962
 30
0.0000
 41
0.6147
 42
0.0559
 43
1.0000
 50
0.0000
  0
INSERT
  8
21
  2
RECT
 10
41.3766
 20
1.9962
 30
0.0000
 41
0.1676
 42
0.0559
 43
1.0000
 50
0.0000
  0
INSERT
  8
21
  2
RECT
 10
41.9354
 20
1.9962
 30
0.0000
 41
0.1676
 42
0.0559
 43
1.0000
 50
0.0000
  0
INSERT
  8
21
  2
RECT
 10
42.4383
 20
1.9962
 30
0.0000
 41
0.1676
 42
0.0559
 43
1.0000
 50
0.0000
  0
INSERT
  8
21
  2
RECT
 10
42.8295
 20
1.9962
 30
0.0000
 41
0.1676
 42
0.0559
 43
1.0000
 50
0.0000
  0
INSERT
  8
21
  2
RECT
 10
43.0530
 20
1.9962
 30
0.0000
 41
0.1676
 42
0.0559
 43
1.0000
 50
0.0000
  0
INSERT
  8
21
  2
RECT
 10
43.3045
 20
1.9962
 30
0.0000
 41
0.1118
 42
0.0559
 43
1.0000
 50
0.0000
  0
INSERT
  8
21
  2
RECT
 10
43.5559
 20
1.9962
 30
0.0000
 41
0.1676
 42
0.0559
 43
1.0000
 50
0.0000
  0
INSERT
  8
21
  2
RECT
 10
44.1427
 20
1.9962
 30
0.0000
 41
0.6706
 42
0.0559
 43
1.0000
 50
0.0000
  0
INSERT
  8
21
  2
RECT
 10
44.7294
 20
1.9962
 30
0.0000
 41
0.1676
 42
0.0559
 43
1.0000
 50
0.0000
  0
INSERT
  8
21
  2
RECT
 10
45.5397
 20
1.9962
 30
0.0000
 41
0.6706
 42
0.0559
 43
1.0000
 50
0.0000
  0
INSERT
  8
21
  2
RECT
 10
39.7561
 20
2.0520
 30
0.0000
 41
0.1676
 42
0.0559
 43
1.0000
 50
0.0000
  0
INSERT
  8
21
  2
RECT
 10
40.2590
 20
2.0520
 30
0.0000
 41
0.1676
 42
0.0559
 43
1.0000
 50
0.0000
  0
INSERT
  8
21
  2
RECT
 10
40.8457
 20
2.0520
 30
0.0000
 41
0.5588
 42
0.0559
 43
1.0000
 50
0.0000
  0
INSERT
  8
21
  2
RECT
 10
41.3766
 20
2.0520
 30
0.0000
 41
0.1676
 42
0.0559
 43
1.0000
 50
0.0000
  0
INSERT
  8
21
  2
RECT
 10
41.9354
 20
2.0520
 30
0.0000
 41
0.1676
 42
0.0559
 43
1.0000
 50
0.0000
  0
INSERT
  8
21
  2
RECT
 10
42.4383
 20
2.0520
 30
0.0000
 41
0.1676
 42
0.0559
 43
1.0000
 50
0.0000
  0
INSERT
  8
21
  2
RECT
 10
42.7736
 20
2.0520
 30
0.0000
 41
0.1676
 42
0.0559
 43
1.0000
 50
0.0000
  0
INSERT
  8
21
  2
RECT
 10
43.0809
 20
2.0520
 30
0.0000
 41
0.1118
 42
0.0559
 43
1.0000
 50
0.0000
  0
INSERT
  8
21
  2
RECT
 10
43.2765
 20
2.0520
 30
0.0000
 41
0.1676
 42
0.0559
 43
1.0000
 50
0.0000
  0
INSERT
  8
21
  2
RECT
 10
43.5559
 20
2.0520
 30
0.0000
 41
0.1676
 42
0.0559
 43
1.0000
 50
0.0000
  0
INSERT
  8
21
  2
RECT
 10
44.1985
 20
2.0520
 30
0.0000
 41
0.5588
 42
0.0559
 43
1.0000
 50
0.0000
  0
INSERT
  8
21
  2
RECT
 10
44.7294
 20
2.0520
 30
0.0000
 41
0.1676
 42
0.0559
 43
1.0000
 50
0.0000
  0
INSERT
  8
21
  2
RECT
 10
45.5397
 20
2.0520
 30
0.0000
 41
0.6706
 42
0.0559
 43
1.0000
 50
0.0000
  0
INSERT
  8
21
  2
RECT
 10
39.7561
 20
2.1079
 30
0.0000
 41
0.1676
 42
0.0559
 43
1.0000
 50
0.0000
  0
INSERT
  8
21
  2
RECT
 10
40.2311
 20
2.1079
 30
0.0000
 41
0.2235
 42
0.0559
 43
1.0000
 50
0.0000
  0
INSERT
  8
21
  2
RECT
 10
41.0413
 20
2.1079
 30
0.0000
 41
0.1676
 42
0.0559
 43
1.0000
 50
0.0000
  0
INSERT
  8
21
  2
RECT
 10
41.3766
 20
2.1079
 30
0.0000
 41
0.1676
 42
0.0559
 43
1.0000
 50
0.0000
  0
INSERT
  8
21
  2
RECT
 10
41.9354
 20
2.1079
 30
0.0000
 41
0.1676
 42
0.0559
 43
1.0000
 50
0.0000
  0
INSERT
  8
21
  2
RECT
 10
42.4383
 20
2.1079
 30
0.0000
 41
0.1676
 42
0.0559
 43
1.0000
 50
0.0000
  0
INSERT
  8
21
  2
RECT
 10
42.7736
 20
2.1079
 30
0.0000
 41
0.1676
 42
0.0559
 43
1.0000
 50
0.0000
  0
INSERT
  8
21
  2
RECT
 10
43.1927
 20
2.1079
 30
0.0000
 41
0.3353
 42
0.0559
 43
1.0000
 50
0.0000
  0
INSERT
  8
21
  2
RECT
 10
43.6118
 20
2.1079
 30
0.0000
 41
0.1676
 42
0.0559
 43
1.0000
 50
0.0000
  0
INSERT
  8
21
  2
RECT
 10
44.3662
 20
2.1079
 30
0.0000
 41
0.2235
 42
0.0559
 43
1.0000
 50
0.0000
  0
INSERT
  8
21
  2
RECT
 10
44.7294
 20
2.1079
 30
0.0000
 41
0.1676
 42
0.0559
 43
1.0000
 50
0.0000
  0
INSERT
  8
21
  2
RECT
 10
45.2882
 20
2.1079
 30
0.0000
 41
0.1676
 42
0.0559
 43
1.0000
 50
0.0000
  0
INSERT
  8
21
  2
RECT
 10
45.7911
 20
2.1079
 30
0.0000
 41
0.1676
 42
0.0559
 43
1.0000
 50
0.0000
  0
INSERT
  8
21
  2
RECT
 10
39.7561
 20
2.1638
 30
0.0000
 41
0.1676
 42
0.0559
 43
1.0000
 50
0.0000
  0
INSERT
  8
21
  2
RECT
 10
40.2311
 20
2.1638
 30
0.0000
 41
0.2235
 42
0.0559
 43
1.0000
 50
0.0000
  0
INSERT
  8
21
  2
RECT
 10
41.0413
 20
2.1638
 30
0.0000
 41
0.1676
 42
0.0559
 43
1.0000
 50
0.0000
  0
INSERT
  8
21
  2
RECT
 10
41.3766
 20
2.1638
 30
0.0000
 41
0.1676
 42
0.0559
 43
1.0000
 50
0.0000
  0
INSERT
  8
21
  2
RECT
 10
41.9354
 20
2.1638
 30
0.0000
 41
0.1676
 42
0.0559
 43
1.0000
 50
0.0000
  0
INSERT
  8
21
  2
RECT
 10
42.4104
 20
2.1638
 30
0.0000
 41
0.2235
 42
0.0559
 43
1.0000
 50
0.0000
  0
INSERT
  8
21
  2
RECT
 10
42.7736
 20
2.1638
 30
0.0000
 41
0.1676
 42
0.0559
 43
1.0000
 50
0.0000
  0
INSERT
  8
21
  2
RECT
 10
43.1648
 20
2.1638
 30
0.0000
 41
0.2794
 42
0.0559
 43
1.0000
 50
0.0000
  0
INSERT
  8
21
  2
RECT
 10
43.6118
 20
2.1638
 30
0.0000
 41
0.1676
 42
0.0559
 43
1.0000
 50
0.0000
  0
INSERT
  8
21
  2
RECT
 10
44.3662
 20
2.1638
 30
0.0000
 41
0.2235
 42
0.0559
 43
1.0000
 50
0.0000
  0
INSERT
  8
21
  2
RECT
 10
44.7294
 20
2.1638
 30
0.0000
 41
0.1676
 42
0.0559
 43
1.0000
 50
0.0000
  0
INSERT
  8
21
  2
RECT
 10
45.2882
 20
2.1638
 30
0.0000
 41
0.1676
 42
0.0559
 43
1.0000
 50
0.0000
  0
INSERT
  8
21
  2
RECT
 10
45.7911
 20
2.1638
 30
0.0000
 41
0.1676
 42
0.0559
 43
1.0000
 50
0.0000
  0
INSERT
  8
21
  2
RECT
 10
39.7840
 20
2.2197
 30
0.0000
 41
0.2235
 42
0.0559
 43
1.0000
 50
0.0000
  0
INSERT
  8
21
  2
RECT
 10
40.2031
 20
2.2197
 30
0.0000
 41
0.1676
 42
0.0559
 43
1.0000
 50
0.0000
  0
INSERT
  8
21
  2
RECT
 10
41.0134
 20
2.2197
 30
0.0000
 41
0.2235
 42
0.0559
 43
1.0000
 50
0.0000
  0
INSERT
  8
21
  2
RECT
 10
41.4045
 20
2.2197
 30
0.0000
 41
0.2235
 42
0.0559
 43
1.0000
 50
0.0000
  0
INSERT
  8
21
  2
RECT
 10
41.9633
 20
2.2197
 30
0.0000
 41
0.2235
 42
0.0559
 43
1.0000
 50
0.0000
  0
INSERT
  8
21
  2
RECT
 10
42.4104
 20
2.2197
 30
0.0000
 41
0.2235
 42
0.0559
 43
1.0000
 50
0.0000
  0
INSERT
  8
21
  2
RECT
 10
42.7457
 20
2.2197
 30
0.0000
 41
0.2235
 42
0.0559
 43
1.0000
 50
0.0000
  0
INSERT
  8
21
  2
RECT
 10
43.1927
 20
2.2197
 30
0.0000
 41
0.2235
 42
0.0559
 43
1.0000
 50
0.0000
  0
INSERT
  8
21
  2
RECT
 10
43.6118
 20
2.2197
 30
0.0000
 41
0.1676
 42
0.0559
 43
1.0000
 50
0.0000
  0
INSERT
  8
21
  2
RECT
 10
44.3382
 20
2.2197
 30
0.0000
 41
0.1676
 42
0.0559
 43
1.0000
 50
0.0000
  0
INSERT
  8
21
  2
RECT
 10
44.7573
 20
2.2197
 30
0.0000
 41
0.2235
 42
0.0559
 43
1.0000
 50
0.0000
  0
INSERT
  8
21
  2
RECT
 10
45.3161
 20
2.2197
 30
0.0000
 41
0.2235
 42
0.0559
 43
1.0000
 50
0.0000
  0
INSERT
  8
21
  2
RECT
 10
45.7632
 20
2.2197
 30
0.0000
 41
0.2235
 42
0.0559
 43
1.0000
 50
0.0000
  0
INSERT
  8
21
  2
RECT
 10
39.9796
 20
2.2756
 30
0.0000
 41
0.6147
 42
0.0559
 43
1.0000
 50
0.0000
  0
INSERT
  8
21
  2
RECT
 10
40.7899
 20
2.2756
 30
0.0000
 41
0.5588
 42
0.0559
 43
1.0000
 50
0.0000
  0
INSERT
  8
21
  2
RECT
 10
41.5442
 20
2.2756
 30
0.0000
 41
0.5029
 42
0.0559
 43
1.0000
 50
0.0000
  0
INSERT
  8
21
  2
RECT
 10
42.1869
 20
2.2756
 30
0.0000
 41
0.6706
 42
0.0559
 43
1.0000
 50
0.0000
  0
INSERT
  8
21
  2
RECT
 10
42.7177
 20
2.2756
 30
0.0000
 41
0.1676
 42
0.0559
 43
1.0000
 50
0.0000
  0
INSERT
  8
21
  2
RECT
 10
43.1927
 20
2.2756
 30
0.0000
 41
0.2235
 42
0.0559
 43
1.0000
 50
0.0000
  0
INSERT
  8
21
  2
RECT
 10
43.6397
 20
2.2756
 30
0.0000
 41
0.2235
 42
0.0559
 43
1.0000
 50
0.0000
  0
INSERT
  8
21
  2
RECT
 10
44.1427
 20
2.2756
 30
0.0000
 41
0.5588
 42
0.0559
 43
1.0000
 50
0.0000
  0
INSERT
  8
21
  2
RECT
 10
44.8691
 20
2.2756
 30
0.0000
 41
0.4470
 42
0.0559
 43
1.0000
 50
0.0000
  0
INSERT
  8
21
  2
RECT
 10
45.5397
 20
2.2756
 30
0.0000
 41
0.5588
 42
0.0559
 43
1.0000
 50
0.0000
  0
INSERT
  8
21
  2
RECT
 10
39.9517
 20
2.3314
 30
0.0000
 41
0.5588
 42
0.0559
 43
1.0000
 50
0.0000
  0
INSERT
  8
21
  2
RECT
 10
40.7899
 20
2.3314
 30
0.0000
 41
0.5588
 42
0.0559
 43
1.0000
 50
0.0000
  0
INSERT
  8
21
  2
RECT
 10
41.5442
 20
2.3314
 30
0.0000
 41
0.5029
 42
0.0559
 43
1.0000
 50
0.0000
  0
INSERT
  8
21
  2
RECT
 10
42.2148
 20
2.3314
 30
0.0000
 41
0.6147
 42
0.0559
 43
1.0000
 50
0.0000
  0
INSERT
  8
21
  2
RECT
 10
42.7177
 20
2.3314
 30
0.0000
 41
0.1676
 42
0.0559
 43
1.0000
 50
0.0000
  0
INSERT
  8
21
  2
RECT
 10
43.1648
 20
2.3314
 30
0.0000
 41
0.1676
 42
0.0559
 43
1.0000
 50
0.0000
  0
INSERT
  8
21
  2
RECT
 10
43.6677
 20
2.3314
 30
0.0000
 41
0.1676
 42
0.0559
 43
1.0000
 50
0.0000
  0
INSERT
  8
21
  2
RECT
 10
44.1147
 20
2.3314
 30
0.0000
 41
0.6147
 42
0.0559
 43
1.0000
 50
0.0000
  0
INSERT
  8
21
  2
RECT
 10
44.8970
 20
2.3314
 30
0.0000
 41
0.5029
 42
0.0559
 43
1.0000
 50
0.0000
  0
INSERT
  8
21
  2
RECT
 10
45.5397
 20
2.3314
 30
0.0000
 41
0.4470
 42
0.0559
 43
1.0000
 50
0.0000
  0
INSERT
  8
21
  2
RECT
 10
39.7561
 20
2.3873
 30
0.0000
 41
0.1676
 42
0.0559
 43
1.0000
 50
0.0000
  0
INSERT
  8
21
  2
RECT
 10
40.0355
 20
2.3873
 30
0.0000
 41
0.2794
 42
0.0559
 43
1.0000
 50
0.0000
  0
INSERT
  8
21
  2
RECT
 10
40.7619
 20
2.3873
 30
0.0000
 41
0.3912
 42
0.0559
 43
1.0000
 50
0.0000
  0
INSERT
  8
21
  2
RECT
 10
41.3766
 20
2.3873
 30
0.0000
 41
0.1676
 42
0.0559
 43
1.0000
 50
0.0000
  0
INSERT
  8
21
  2
RECT
 10
41.6560
 20
2.3873
 30
0.0000
 41
0.2794
 42
0.0559
 43
1.0000
 50
0.0000
  0
INSERT
  8
21
  2
RECT
 10
42.1310
 20
2.3873
 30
0.0000
 41
0.3353
 42
0.0559
 43
1.0000
 50
0.0000
  0
INSERT
  8
21
  2
RECT
 10
42.4383
 20
2.3873
 30
0.0000
 41
0.1676
 42
0.0559
 43
1.0000
 50
0.0000
  0
INSERT
  8
21
  2
RECT
 10
42.6898
 20
2.3873
 30
0.0000
 41
0.2235
 42
0.0559
 43
1.0000
 50
0.0000
  0
INSERT
  8
21
  2
RECT
 10
43.1648
 20
2.3873
 30
0.0000
 41
0.1676
 42
0.0559
 43
1.0000
 50
0.0000
  0
INSERT
  8
21
  2
RECT
 10
43.6677
 20
2.3873
 30
0.0000
 41
0.1676
 42
0.0559
 43
1.0000
 50
0.0000
  0
INSERT
  8
21
  2
RECT
 10
44.1147
 20
2.3873
 30
0.0000
 41
0.3912
 42
0.0559
 43
1.0000
 50
0.0000
  0
INSERT
  8
21
  2
RECT
 10
44.7294
 20
2.3873
 30
0.0000
 41
0.1676
 42
0.0559
 43
1.0000
 50
0.0000
  0
INSERT
  8
21
  2
RECT
 10
45.0088
 20
2.3873
 30
0.0000
 41
0.2794
 42
0.0559
 43
1.0000
 50
0.0000
  0
INSERT
  8
21
  2
RECT
 10
45.5397
 20
2.3873
 30
0.0000
 41
0.3353
 42
0.0559
 43
1.0000
 50
0.0000
  0
INSERT
  8
21
  2
RECT
 10
39.7561
 20
2.4432
 30
0.0000
 41
0.1676
 42
0.0559
 43
1.0000
 50
0.0000
  0
INSERT
  8
21
  2
RECT
 10
42.4383
 20
2.4432
 30
0.0000
 41
0.1676
 42
0.0559
 43
1.0000
 50
0.0000
  0
INSERT
  8
21
  2
RECT
 10
39.7561
 20
2.4991
 30
0.0000
 41
0.1676
 42
0.0559
 43
1.0000
 50
0.0000
  0
INSERT
  8
21
  2
RECT
 10
42.4383
 20
2.4991
 30
0.0000
 41
0.1676
 42
0.0559
 43
1.0000
 50
0.0000
  0
INSERT
  8
21
  2
RECT
 10
39.7561
 20
2.5550
 30
0.0000
 41
0.1676
 42
0.0559
 43
1.0000
 50
0.0000
  0
INSERT
  8
21
  2
RECT
 10
42.4383
 20
2.5550
 30
0.0000
 41
0.1676
 42
0.0559
 43
1.0000
 50
0.0000
  0
INSERT
  8
21
  2
RECT
 10
39.7561
 20
2.6108
 30
0.0000
 41
0.1676
 42
0.0559
 43
1.0000
 50
0.0000
  0
INSERT
  8
21
  2
RECT
 10
42.4383
 20
2.6108
 30
0.0000
 41
0.1676
 42
0.0559
 43
1.0000
 50
0.0000
  0
INSERT
  8
21
  2
RECT
 10
39.7561
 20
2.6667
 30
0.0000
 41
0.1676
 42
0.0559
 43
1.0000
 50
0.0000
  0
INSERT
  8
21
  2
RECT
 10
42.4383
 20
2.6667
 30
0.0000
 41
0.1676
 42
0.0559
 43
1.0000
 50
0.0000
  0
INSERT
  8
21
  2
RECT
 10
39.7561
 20
2.7226
 30
0.0000
 41
0.1676
 42
0.0559
 43
1.0000
 50
0.0000
  0
INSERT
  8
21
  2
RECT
 10
42.4383
 20
2.7226
 30
0.0000
 41
0.1676
 42
0.0559
 43
1.0000
 50
0.0000
  0
INSERT
  8
21
  2
RECT
 10
39.7561
 20
2.7785
 30
0.0000
 41
0.1676
 42
0.0559
 43
1.0000
 50
0.0000
  0
INSERT
  8
21
  2
RECT
 10
39.7561
 20
2.8344
 30
0.0000
 41
0.1676
 42
0.0559
 43
1.0000
 50
0.0000
  0
INSERT
  8
21
  2
RECT
 10
39.1693
 20
2.8902
 30
0.0000
 41
0.2235
 42
0.0559
 43
1.0000
 50
0.0000
  0
INSERT
  8
21
  2
RECT
 10
39.7561
 20
2.8902
 30
0.0000
 41
0.1676
 42
0.0559
 43
1.0000
 50
0.0000
  0
INSERT
  8
21
  2
RECT
 10
40.0355
 20
2.8902
 30
0.0000
 41
0.1676
 42
0.0559
 43
1.0000
 50
0.0000
  0
INSERT
  8
21
  2
RECT
 10
40.7899
 20
2.8902
 30
0.0000
 41
0.2235
 42
0.0559
 43
1.0000
 50
0.0000
  0
INSERT
  8
21
  2
RECT
 10
41.3207
 20
2.8902
 30
0.0000
 41
0.1676
 42
0.0559
 43
1.0000
 50
0.0000
  0
INSERT
  8
21
  2
RECT
 10
41.8236
 20
2.8902
 30
0.0000
 41
0.1676
 42
0.0559
 43
1.0000
 50
0.0000
  0
INSERT
  8
21
  2
RECT
 10
42.7457
 20
2.8902
 30
0.0000
 41
0.2235
 42
0.0559
 43
1.0000
 50
0.0000
  0
INSERT
  8
21
  2
RECT
 10
43.5000
 20
2.8902
 30
0.0000
 41
0.1676
 42
0.0559
 43
1.0000
 50
0.0000
  0
INSERT
  8
21
  2
RECT
 10
44.2824
 20
2.8902
 30
0.0000
 41
0.1676
 42
0.0559
 43
1.0000
 50
0.0000
  0
INSERT
  8
21
  2
RECT
 10
44.5618
 20
2.8902
 30
0.0000
 41
0.1676
 42
0.0559
 43
1.0000
 50
0.0000
  0
INSERT
  8
21
  2
RECT
 10
44.8970
 20
2.8902
 30
0.0000
 41
0.1676
 42
0.0559
 43
1.0000
 50
0.0000
  0
INSERT
  8
21
  2
RECT
 10
45.7352
 20
2.8902
 30
0.0000
 41
0.1676
 42
0.0559
 43
1.0000
 50
0.0000
  0
INSERT
  8
21
  2
RECT
 10
46.4617
 20
2.8902
 30
0.0000
 41
0.1676
 42
0.0559
 43
1.0000
 50
0.0000
  0
INSERT
  8
21
  2
RECT
 10
39.1693
 20
2.9461
 30
0.0000
 41
0.4470
 42
0.0559
 43
1.0000
 50
0.0000
  0
INSERT
  8
21
  2
RECT
 10
39.9517
 20
2.9461
 30
0.0000
 41
0.5588
 42
0.0559
 43
1.0000
 50
0.0000
  0
INSERT
  8
21
  2
RECT
 10
40.7899
 20
2.9461
 30
0.0000
 41
0.4470
 42
0.0559
 43
1.0000
 50
0.0000
  0
INSERT
  8
21
  2
RECT
 10
41.3207
 20
2.9461
 30
0.0000
 41
0.1676
 42
0.0559
 43
1.0000
 50
0.0000
  0
INSERT
  8
21
  2
RECT
 10
41.8236
 20
2.9461
 30
0.0000
 41
0.1676
 42
0.0559
 43
1.0000
 50
0.0000
  0
INSERT
  8
21
  2
RECT
 10
42.7177
 20
2.9461
 30
0.0000
 41
0.5029
 42
0.0559
 43
1.0000
 50
0.0000
  0
INSERT
  8
21
  2
RECT
 10
43.5000
 20
2.9461
 30
0.0000
 41
0.3912
 42
0.0559
 43
1.0000
 50
0.0000
  0
INSERT
  8
21
  2
RECT
 10
44.3662
 20
2.9461
 30
0.0000
 41
0.5588
 42
0.0559
 43
1.0000
 50
0.0000
  0
INSERT
  8
21
  2
RECT
 10
44.8970
 20
2.9461
 30
0.0000
 41
0.1676
 42
0.0559
 43
1.0000
 50
0.0000
  0
INSERT
  8
21
  2
RECT
 10
45.7352
 20
2.9461
 30
0.0000
 41
0.3912
 42
0.0559
 43
1.0000
 50
0.0000
  0
INSERT
  8
21
  2
RECT
 10
46.4337
 20
2.9461
 30
0.0000
 41
0.4470
 42
0.0559
 43
1.0000
 50
0.0000
  0
INSERT
  8
21
  2
RECT
 10
39.1693
 20
3.0020
 30
0.0000
 41
0.5588
 42
0.0559
 43
1.0000
 50
0.0000
  0
INSERT
  8
21
  2
RECT
 10
39.9796
 20
3.0020
 30
0.0000
 41
0.6147
 42
0.0559
 43
1.0000
 50
0.0000
  0
INSERT
  8
21
  2
RECT
 10
40.7899
 20
3.0020
 30
0.0000
 41
0.5588
 42
0.0559
 43
1.0000
 50
0.0000
  0
INSERT
  8
21
  2
RECT
 10
41.3207
 20
3.0020
 30
0.0000
 41
0.1676
 42
0.0559
 43
1.0000
 50
0.0000
  0
INSERT
  8
21
  2
RECT
 10
41.8236
 20
3.0020
 30
0.0000
 41
0.1676
 42
0.0559
 43
1.0000
 50
0.0000
  0
INSERT
  8
21
  2
RECT
 10
42.7177
 20
3.0020
 30
0.0000
 41
0.6147
 42
0.0559
 43
1.0000
 50
0.0000
  0
INSERT
  8
21
  2
RECT
 10
43.5000
 20
3.0020
 30
0.0000
 41
0.5029
 42
0.0559
 43
1.0000
 50
0.0000
  0
INSERT
  8
21
  2
RECT
 10
44.3382
 20
3.0020
 30
0.0000
 41
0.6147
 42
0.0559
 43
1.0000
 50
0.0000
  0
INSERT
  8
21
  2
RECT
 10
44.8970
 20
3.0020
 30
0.0000
 41
0.1676
 42
0.0559
 43
1.0000
 50
0.0000
  0
INSERT
  8
21
  2
RECT
 10
45.7632
 20
3.0020
 30
0.0000
 41
0.5588
 42
0.0559
 43
1.0000
 50
0.0000
  0
INSERT
  8
21
  2
RECT
 10
46.4617
 20
3.0020
 30
0.0000
 41
0.6147
 42
0.0559
 43
1.0000
 50
0.0000
  0
INSERT
  8
21
  2
RECT
 10
39.0017
 20
3.0579
 30
0.0000
 41
0.2235
 42
0.0559
 43
1.0000
 50
0.0000
  0
INSERT
  8
21
  2
RECT
 10
39.3649
 20
3.0579
 30
0.0000
 41
0.2794
 42
0.0559
 43
1.0000
 50
0.0000
  0
INSERT
  8
21
  2
RECT
 10
39.8120
 20
3.0579
 30
0.0000
 41
0.2794
 42
0.0559
 43
1.0000
 50
0.0000
  0
INSERT
  8
21
  2
RECT
 10
40.1752
 20
3.0579
 30
0.0000
 41
0.2235
 42
0.0559
 43
1.0000
 50
0.0000
  0
INSERT
  8
21
  2
RECT
 10
40.5943
 20
3.0579
 30
0.0000
 41
0.2794
 42
0.0559
 43
1.0000
 50
0.0000
  0
INSERT
  8
21
  2
RECT
 10
40.9854
 20
3.0579
 30
0.0000
 41
0.1676
 42
0.0559
 43
1.0000
 50
0.0000
  0
INSERT
  8
21
  2
RECT
 10
41.3207
 20
3.0579
 30
0.0000
 41
0.1676
 42
0.0559
 43
1.0000
 50
0.0000
  0
INSERT
  8
21
  2
RECT
 10
41.8236
 20
3.0579
 30
0.0000
 41
0.1676
 42
0.0559
 43
1.0000
 50
0.0000
  0
INSERT
  8
21
  2
RECT
 10
42.5221
 20
3.0579
 30
0.0000
 41
0.2235
 42
0.0559
 43
1.0000
 50
0.0000
  0
INSERT
  8
21
  2
RECT
 10
42.9692
 20
3.0579
 30
0.0000
 41
0.2235
 42
0.0559
 43
1.0000
 50
0.0000
  0
INSERT
  8
21
  2
RECT
 10
43.3324
 20
3.0579
 30
0.0000
 41
0.2794
 42
0.0559
 43
1.0000
 50
0.0000
  0
INSERT
  8
21
  2
RECT
 10
43.6677
 20
3.0579
 30
0.0000
 41
0.2794
 42
0.0559
 43
1.0000
 50
0.0000
  0
INSERT
  8
21
  2
RECT
 10
44.1427
 20
3.0579
 30
0.0000
 41
0.2235
 42
0.0559
 43
1.0000
 50
0.0000
  0
INSERT
  8
21
  2
RECT
 10
44.5059
 20
3.0579
 30
0.0000
 41
0.2794
 42
0.0559
 43
1.0000
 50
0.0000
  0
INSERT
  8
21
  2
RECT
 10
44.8970
 20
3.0579
 30
0.0000
 41
0.1676
 42
0.0559
 43
1.0000
 50
0.0000
  0
INSERT
  8
21
  2
RECT
 10
45.5676
 20
3.0579
 30
0.0000
 41
0.2794
 42
0.0559
 43
1.0000
 50
0.0000
  0
INSERT
  8
21
  2
RECT
 10
45.9308
 20
3.0579
 30
0.0000
 41
0.2235
 42
0.0559
 43
1.0000
 50
0.0000
  0
INSERT
  8
21
  2
RECT
 10
46.2661
 20
3.0579
 30
0.0000
 41
0.2235
 42
0.0559
 43
1.0000
 50
0.0000
  0
INSERT
  8
21
  2
RECT
 10
46.6293
 20
3.0579
 30
0.0000
 41
0.1676
 42
0.0559
 43
1.0000
 50
0.0000
  0
INSERT
  8
21
  2
RECT
 10
38.9458
 20
3.1138
 30
0.0000
 41
0.2235
 42
0.0559
 43
1.0000
 50
0.0000
  0
INSERT
  8
21
  2
RECT
 10
39.3929
 20
3.1138
 30
0.0000
 41
0.2235
 42
0.0559
 43
1.0000
 50
0.0000
  0
INSERT
  8
21
  2
RECT
 10
39.7561
 20
3.1138
 30
0.0000
 41
0.1676
 42
0.0559
 43
1.0000
 50
0.0000
  0
INSERT
  8
21
  2
RECT
 10
40.2031
 20
3.1138
 30
0.0000
 41
0.1676
 42
0.0559
 43
1.0000
 50
0.0000
  0
INSERT
  8
21
  2
RECT
 10
40.5384
 20
3.1138
 30
0.0000
 41
0.1676
 42
0.0559
 43
1.0000
 50
0.0000
  0
INSERT
  8
21
  2
RECT
 10
40.9854
 20
3.1138
 30
0.0000
 41
0.0559
 42
0.0559
 43
1.0000
 50
0.0000
  0
INSERT
  8
21
  2
RECT
 10
41.3207
 20
3.1138
 30
0.0000
 41
0.1676
 42
0.0559
 43
1.0000
 50
0.0000
  0
INSERT
  8
21
  2
RECT
 10
41.8236
 20
3.1138
 30
0.0000
 41
0.1676
 42
0.0559
 43
1.0000
 50
0.0000
  0
INSERT
  8
21
  2
RECT
 10
42.4942
 20
3.1138
 30
0.0000
 41
0.0559
 42
0.0559
 43
1.0000
 50
0.0000
  0
INSERT
  8
21
  2
RECT
 10
42.9971
 20
3.1138
 30
0.0000
 41
0.1676
 42
0.0559
 43
1.0000
 50
0.0000
  0
INSERT
  8
21
  2
RECT
 10
43.2765
 20
3.1138
 30
0.0000
 41
0.1676
 42
0.0559
 43
1.0000
 50
0.0000
  0
INSERT
  8
21
  2
RECT
 10
43.7236
 20
3.1138
 30
0.0000
 41
0.1676
 42
0.0559
 43
1.0000
 50
0.0000
  0
INSERT
  8
21
  2
RECT
 10
44.0868
 20
3.1138
 30
0.0000
 41
0.2235
 42
0.0559
 43
1.0000
 50
0.0000
  0
INSERT
  8
21
  2
RECT
 10
44.5338
 20
3.1138
 30
0.0000
 41
0.2235
 42
0.0559
 43
1.0000
 50
0.0000
  0
INSERT
  8
21
  2
RECT
 10
44.8970
 20
3.1138
 30
0.0000
 41
0.1676
 42
0.0559
 43
1.0000
 50
0.0000
  0
INSERT
  8
21
  2
RECT
 10
45.4838
 20
3.1138
 30
0.0000
 41
0.2235
 42
0.0559
 43
1.0000
 50
0.0000
  0
INSERT
  8
21
  2
RECT
 10
46.2102
 20
3.1138
 30
0.0000
 41
0.2235
 42
0.0559
 43
1.0000
 50
0.0000
  0
INSERT
  8
21
  2
RECT
 10
46.6293
 20
3.1138
 30
0.0000
 41
0.0559
 42
0.0559
 43
1.0000
 50
0.0000
  0
INSERT
  8
21
  2
RECT
 10
38.9179
 20
3.1696
 30
0.0000
 41
0.1676
 42
0.0559
 43
1.0000
 50
0.0000
  0
INSERT
  8
21
  2
RECT
 10
39.4208
 20
3.1696
 30
0.0000
 41
0.1676
 42
0.0559
 43
1.0000
 50
0.0000
  0
INSERT
  8
21
  2
RECT
 10
39.7561
 20
3.1696
 30
0.0000
 41
0.1676
 42
0.0559
 43
1.0000
 50
0.0000
  0
INSERT
  8
21
  2
RECT
 10
40.2311
 20
3.1696
 30
0.0000
 41
0.2235
 42
0.0559
 43
1.0000
 50
0.0000
  0
INSERT
  8
21
  2
RECT
 10
40.5384
 20
3.1696
 30
0.0000
 41
0.1676
 42
0.0559
 43
1.0000
 50
0.0000
  0
INSERT
  8
21
  2
RECT
 10
41.3207
 20
3.1696
 30
0.0000
 41
0.1676
 42
0.0559
 43
1.0000
 50
0.0000
  0
INSERT
  8
21
  2
RECT
 10
41.8236
 20
3.1696
 30
0.0000
 41
0.1676
 42
0.0559
 43
1.0000
 50
0.0000
  0
INSERT
  8
21
  2
RECT
 10
42.9971
 20
3.1696
 30
0.0000
 41
0.1676
 42
0.0559
 43
1.0000
 50
0.0000
  0
INSERT
  8
21
  2
RECT
 10
43.2765
 20
3.1696
 30
0.0000
 41
0.1676
 42
0.0559
 43
1.0000
 50
0.0000
  0
INSERT
  8
21
  2
RECT
 10
43.7515
 20
3.1696
 30
0.0000
 41
0.2235
 42
0.0559
 43
1.0000
 50
0.0000
  0
INSERT
  8
21
  2
RECT
 10
44.0588
 20
3.1696
 30
0.0000
 41
0.1676
 42
0.0559
 43
1.0000
 50
0.0000
  0
INSERT
  8
21
  2
RECT
 10
44.5618
 20
3.1696
 30
0.0000
 41
0.1676
 42
0.0559
 43
1.0000
 50
0.0000
  0
INSERT
  8
21
  2
RECT
 10
44.8970
 20
3.1696
 30
0.0000
 41
0.1676
 42
0.0559
 43
1.0000
 50
0.0000
  0
INSERT
  8
21
  2
RECT
 10
45.4558
 20
3.1696
 30
0.0000
 41
0.1676
 42
0.0559
 43
1.0000
 50
0.0000
  0
INSERT
  8
21
  2
RECT
 10
46.1823
 20
3.1696
 30
0.0000
 41
0.1676
 42
0.0559
 43
1.0000
 50
0.0000
  0
INSERT
  8
21
  2
RECT
 10
38.9179
 20
3.2255
 30
0.0000
 41
0.1676
 42
0.0559
 43
1.0000
 50
0.0000
  0
INSERT
  8
21
  2
RECT
 10
39.4208
 20
3.2255
 30
0.0000
 41
0.1676
 42
0.0559
 43
1.0000
 50
0.0000
  0
INSERT
  8
21
  2
RECT
 10
39.7561
 20
3.2255
 30
0.0000
 41
0.1676
 42
0.0559
 43
1.0000
 50
0.0000
  0
INSERT
  8
21
  2
RECT
 10
40.2311
 20
3.2255
 30
0.0000
 41
0.2235
 42
0.0559
 43
1.0000
 50
0.0000
  0
INSERT
  8
21
  2
RECT
 10
40.5384
 20
3.2255
 30
0.0000
 41
0.1676
 42
0.0559
 43
1.0000
 50
0.0000
  0
INSERT
  8
21
  2
RECT
 10
41.3207
 20
3.2255
 30
0.0000
 41
0.1676
 42
0.0559
 43
1.0000
 50
0.0000
  0
INSERT
  8
21
  2
RECT
 10
41.8236
 20
3.2255
 30
0.0000
 41
0.1676
 42
0.0559
 43
1.0000
 50
0.0000
  0
INSERT
  8
21
  2
RECT
 10
42.9412
 20
3.2255
 30
0.0000
 41
0.2794
 42
0.0559
 43
1.0000
 50
0.0000
  0
INSERT
  8
21
  2
RECT
 10
43.2765
 20
3.2255
 30
0.0000
 41
0.1676
 42
0.0559
 43
1.0000
 50
0.0000
  0
INSERT
  8
21
  2
RECT
 10
43.7794
 20
3.2255
 30
0.0000
 41
0.1676
 42
0.0559
 43
1.0000
 50
0.0000
  0
INSERT
  8
21
  2
RECT
 10
44.0588
 20
3.2255
 30
0.0000
 41
0.1676
 42
0.0559
 43
1.0000
 50
0.0000
  0
INSERT
  8
21
  2
RECT
 10
44.5618
 20
3.2255
 30
0.0000
 41
0.1676
 42
0.0559
 43
1.0000
 50
0.0000
  0
INSERT
  8
21
  2
RECT
 10
44.8970
 20
3.2255
 30
0.0000
 41
0.1676
 42
0.0559
 43
1.0000
 50
0.0000
  0
INSERT
  8
21
  2
RECT
 10
45.4558
 20
3.2255
 30
0.0000
 41
0.1676
 42
0.0559
 43
1.0000
 50
0.0000
  0
INSERT
  8
21
  2
RECT
 10
46.1823
 20
3.2255
 30
0.0000
 41
0.1676
 42
0.0559
 43
1.0000
 50
0.0000
  0
INSERT
  8
21
  2
RECT
 10
38.9179
 20
3.2814
 30
0.0000
 41
0.1676
 42
0.0559
 43
1.0000
 50
0.0000
  0
INSERT
  8
21
  2
RECT
 10
39.4208
 20
3.2814
 30
0.0000
 41
0.1676
 42
0.0559
 43
1.0000
 50
0.0000
  0
INSERT
  8
21
  2
RECT
 10
39.7561
 20
3.2814
 30
0.0000
 41
0.1676
 42
0.0559
 43
1.0000
 50
0.0000
  0
INSERT
  8
21
  2
RECT
 10
40.2590
 20
3.2814
 30
0.0000
 41
0.1676
 42
0.0559
 43
1.0000
 50
0.0000
  0
INSERT
  8
21
  2
RECT
 10
40.7619
 20
3.2814
 30
0.0000
 41
0.7264
 42
0.0559
 43
1.0000
 50
0.0000
  0
INSERT
  8
21
  2
RECT
 10
41.3207
 20
3.2814
 30
0.0000
 41
0.1676
 42
0.0559
 43
1.0000
 50
0.0000
  0
INSERT
  8
21
  2
RECT
 10
41.8236
 20
3.2814
 30
0.0000
 41
0.1676
 42
0.0559
 43
1.0000
 50
0.0000
  0
INSERT
  8
21
  2
RECT
 10
42.7736
 20
3.2814
 30
0.0000
 41
0.5029
 42
0.0559
 43
1.0000
 50
0.0000
  0
INSERT
  8
21
  2
RECT
 10
43.2486
 20
3.2814
 30
0.0000
 41
0.2235
 42
0.0559
 43
1.0000
 50
0.0000
  0
INSERT
  8
21
  2
RECT
 10
43.7794
 20
3.2814
 30
0.0000
 41
0.1676
 42
0.0559
 43
1.0000
 50
0.0000
  0
INSERT
  8
21
  2
RECT
 10
44.0588
 20
3.2814
 30
0.0000
 41
0.1676
 42
0.0559
 43
1.0000
 50
0.0000
  0
INSERT
  8
21
  2
RECT
 10
44.5618
 20
3.2814
 30
0.0000
 41
0.1676
 42
0.0559
 43
1.0000
 50
0.0000
  0
INSERT
  8
21
  2
RECT
 10
44.8970
 20
3.2814
 30
0.0000
 41
0.1676
 42
0.0559
 43
1.0000
 50
0.0000
  0
INSERT
  8
21
  2
RECT
 10
45.4558
 20
3.2814
 30
0.0000
 41
0.1676
 42
0.0559
 43
1.0000
 50
0.0000
  0
INSERT
  8
21
  2
RECT
 10
46.4337
 20
3.2814
 30
0.0000
 41
0.6706
 42
0.0559
 43
1.0000
 50
0.0000
  0
INSERT
  8
21
  2
RECT
 10
38.9179
 20
3.3373
 30
0.0000
 41
0.1676
 42
0.0559
 43
1.0000
 50
0.0000
  0
INSERT
  8
21
  2
RECT
 10
39.4208
 20
3.3373
 30
0.0000
 41
0.1676
 42
0.0559
 43
1.0000
 50
0.0000
  0
INSERT
  8
21
  2
RECT
 10
39.7561
 20
3.3373
 30
0.0000
 41
0.1676
 42
0.0559
 43
1.0000
 50
0.0000
  0
INSERT
  8
21
  2
RECT
 10
40.2590
 20
3.3373
 30
0.0000
 41
0.1676
 42
0.0559
 43
1.0000
 50
0.0000
  0
INSERT
  8
21
  2
RECT
 10
40.7619
 20
3.3373
 30
0.0000
 41
0.7264
 42
0.0559
 43
1.0000
 50
0.0000
  0
INSERT
  8
21
  2
RECT
 10
41.3207
 20
3.3373
 30
0.0000
 41
0.1676
 42
0.0559
 43
1.0000
 50
0.0000
  0
INSERT
  8
21
  2
RECT
 10
41.8236
 20
3.3373
 30
0.0000
 41
0.1676
 42
0.0559
 43
1.0000
 50
0.0000
  0
INSERT
  8
21
  2
RECT
 10
42.7177
 20
3.3373
 30
0.0000
 41
0.5029
 42
0.0559
 43
1.0000
 50
0.0000
  0
INSERT
  8
21
  2
RECT
 10
43.2486
 20
3.3373
 30
0.0000
 41
0.2235
 42
0.0559
 43
1.0000
 50
0.0000
  0
INSERT
  8
21
  2
RECT
 10
43.7794
 20
3.3373
 30
0.0000
 41
0.1676
 42
0.0559
 43
1.0000
 50
0.0000
  0
INSERT
  8
21
  2
RECT
 10
44.0588
 20
3.3373
 30
0.0000
 41
0.1676
 42
0.0559
 43
1.0000
 50
0.0000
  0
INSERT
  8
21
  2
RECT
 10
44.5618
 20
3.3373
 30
0.0000
 41
0.1676
 42
0.0559
 43
1.0000
 50
0.0000
  0
INSERT
  8
21
  2
RECT
 10
44.8970
 20
3.3373
 30
0.0000
 41
0.1676
 42
0.0559
 43
1.0000
 50
0.0000
  0
INSERT
  8
21
  2
RECT
 10
45.4558
 20
3.3373
 30
0.0000
 41
0.1676
 42
0.0559
 43
1.0000
 50
0.0000
  0
INSERT
  8
21
  2
RECT
 10
46.4337
 20
3.3373
 30
0.0000
 41
0.6706
 42
0.0559
 43
1.0000
 50
0.0000
  0
INSERT
  8
21
  2
RECT
 10
38.9179
 20
3.3932
 30
0.0000
 41
0.1676
 42
0.0559
 43
1.0000
 50
0.0000
  0
INSERT
  8
21
  2
RECT
 10
39.4208
 20
3.3932
 30
0.0000
 41
0.1676
 42
0.0559
 43
1.0000
 50
0.0000
  0
INSERT
  8
21
  2
RECT
 10
39.7561
 20
3.3932
 30
0.0000
 41
0.1676
 42
0.0559
 43
1.0000
 50
0.0000
  0
INSERT
  8
21
  2
RECT
 10
40.2311
 20
3.3932
 30
0.0000
 41
0.2235
 42
0.0559
 43
1.0000
 50
0.0000
  0
INSERT
  8
21
  2
RECT
 10
40.5384
 20
3.3932
 30
0.0000
 41
0.1676
 42
0.0559
 43
1.0000
 50
0.0000
  0
INSERT
  8
21
  2
RECT
 10
41.0413
 20
3.3932
 30
0.0000
 41
0.1676
 42
0.0559
 43
1.0000
 50
0.0000
  0
INSERT
  8
21
  2
RECT
 10
41.3207
 20
3.3932
 30
0.0000
 41
0.1676
 42
0.0559
 43
1.0000
 50
0.0000
  0
INSERT
  8
21
  2
RECT
 10
41.8236
 20
3.3932
 30
0.0000
 41
0.1676
 42
0.0559
 43
1.0000
 50
0.0000
  0
INSERT
  8
21
  2
RECT
 10
42.5780
 20
3.3932
 30
0.0000
 41
0.3353
 42
0.0559
 43
1.0000
 50
0.0000
  0
INSERT
  8
21
  2
RECT
 10
43.2765
 20
3.3932
 30
0.0000
 41
0.1676
 42
0.0559
 43
1.0000
 50
0.0000
  0
INSERT
  8
21
  2
RECT
 10
43.7794
 20
3.3932
 30
0.0000
 41
0.1676
 42
0.0559
 43
1.0000
 50
0.0000
  0
INSERT
  8
21
  2
RECT
 10
44.0588
 20
3.3932
 30
0.0000
 41
0.1676
 42
0.0559
 43
1.0000
 50
0.0000
  0
INSERT
  8
21
  2
RECT
 10
44.5618
 20
3.3932
 30
0.0000
 41
0.1676
 42
0.0559
 43
1.0000
 50
0.0000
  0
INSERT
  8
21
  2
RECT
 10
44.8970
 20
3.3932
 30
0.0000
 41
0.1676
 42
0.0559
 43
1.0000
 50
0.0000
  0
INSERT
  8
21
  2
RECT
 10
45.4558
 20
3.3932
 30
0.0000
 41
0.1676
 42
0.0559
 43
1.0000
 50
0.0000
  0
INSERT
  8
21
  2
RECT
 10
46.1823
 20
3.3932
 30
0.0000
 41
0.1676
 42
0.0559
 43
1.0000
 50
0.0000
  0
INSERT
  8
21
  2
RECT
 10
46.6852
 20
3.3932
 30
0.0000
 41
0.1676
 42
0.0559
 43
1.0000
 50
0.0000
  0
INSERT
  8
21
  2
RECT
 10
38.9179
 20
3.4490
 30
0.0000
 41
0.1676
 42
0.0559
 43
1.0000
 50
0.0000
  0
INSERT
  8
21
  2
RECT
 10
39.4208
 20
3.4490
 30
0.0000
 41
0.1676
 42
0.0559
 43
1.0000
 50
0.0000
  0
INSERT
  8
21
  2
RECT
 10
39.7561
 20
3.4490
 30
0.0000
 41
0.1676
 42
0.0559
 43
1.0000
 50
0.0000
  0
INSERT
  8
21
  2
RECT
 10
40.2311
 20
3.4490
 30
0.0000
 41
0.2235
 42
0.0559
 43
1.0000
 50
0.0000
  0
INSERT
  8
21
  2
RECT
 10
40.5384
 20
3.4490
 30
0.0000
 41
0.1676
 42
0.0559
 43
1.0000
 50
0.0000
  0
INSERT
  8
21
  2
RECT
 10
41.0413
 20
3.4490
 30
0.0000
 41
0.1676
 42
0.0559
 43
1.0000
 50
0.0000
  0
INSERT
  8
21
  2
RECT
 10
41.3487
 20
3.4490
 30
0.0000
 41
0.2235
 42
0.0559
 43
1.0000
 50
0.0000
  0
INSERT
  8
21
  2
RECT
 10
41.8236
 20
3.4490
 30
0.0000
 41
0.1676
 42
0.0559
 43
1.0000
 50
0.0000
  0
INSERT
  8
21
  2
RECT
 10
42.4942
 20
3.4490
 30
0.0000
 41
0.1676
 42
0.0559
 43
1.0000
 50
0.0000
  0
INSERT
  8
21
  2
RECT
 10
43.2765
 20
3.4490
 30
0.0000
 41
0.1676
 42
0.0559
 43
1.0000
 50
0.0000
  0
INSERT
  8
21
  2
RECT
 10
43.7515
 20
3.4490
 30
0.0000
 41
0.2235
 42
0.0559
 43
1.0000
 50
0.0000
  0
INSERT
  8
21
  2
RECT
 10
44.0588
 20
3.4490
 30
0.0000
 41
0.1676
 42
0.0559
 43
1.0000
 50
0.0000
  0
INSERT
  8
21
  2
RECT
 10
44.5618
 20
3.4490
 30
0.0000
 41
0.1676
 42
0.0559
 43
1.0000
 50
0.0000
  0
INSERT
  8
21
  2
RECT
 10
44.8970
 20
3.4490
 30
0.0000
 41
0.1676
 42
0.0559
 43
1.0000
 50
0.0000
  0
INSERT
  8
21
  2
RECT
 10
45.4558
 20
3.4490
 30
0.0000
 41
0.1676
 42
0.0559
 43
1.0000
 50
0.0000
  0
INSERT
  8
21
  2
RECT
 10
46.1823
 20
3.4490
 30
0.0000
 41
0.1676
 42
0.0559
 43
1.0000
 50
0.0000
  0
INSERT
  8
21
  2
RECT
 10
46.6852
 20
3.4490
 30
0.0000
 41
0.1676
 42
0.0559
 43
1.0000
 50
0.0000
  0
INSERT
  8
21
  2
RECT
 10
38.9458
 20
3.5049
 30
0.0000
 41
0.2235
 42
0.0559
 43
1.0000
 50
0.0000
  0
INSERT
  8
21
  2
RECT
 10
39.3929
 20
3.5049
 30
0.0000
 41
0.2235
 42
0.0559
 43
1.0000
 50
0.0000
  0
INSERT
  8
21
  2
RECT
 10
39.7561
 20
3.5049
 30
0.0000
 41
0.1676
 42
0.0559
 43
1.0000
 50
0.0000
  0
INSERT
  8
21
  2
RECT
 10
40.2031
 20
3.5049
 30
0.0000
 41
0.1676
 42
0.0559
 43
1.0000
 50
0.0000
  0
INSERT
  8
21
  2
RECT
 10
40.5384
 20
3.5049
 30
0.0000
 41
0.1676
 42
0.0559
 43
1.0000
 50
0.0000
  0
INSERT
  8
21
  2
RECT
 10
41.0134
 20
3.5049
 30
0.0000
 41
0.2235
 42
0.0559
 43
1.0000
 50
0.0000
  0
INSERT
  8
21
  2
RECT
 10
41.3487
 20
3.5049
 30
0.0000
 41
0.2235
 42
0.0559
 43
1.0000
 50
0.0000
  0
INSERT
  8
21
  2
RECT
 10
41.7957
 20
3.5049
 30
0.0000
 41
0.2235
 42
0.0559
 43
1.0000
 50
0.0000
  0
INSERT
  8
21
  2
RECT
 10
42.4942
 20
3.5049
 30
0.0000
 41
0.1676
 42
0.0559
 43
1.0000
 50
0.0000
  0
INSERT
  8
21
  2
RECT
 10
42.9412
 20
3.5049
 30
0.0000
 41
0.0559
 42
0.0559
 43
1.0000
 50
0.0000
  0
INSERT
  8
21
  2
RECT
 10
43.2765
 20
3.5049
 30
0.0000
 41
0.1676
 42
0.0559
 43
1.0000
 50
0.0000
  0
INSERT
  8
21
  2
RECT
 10
43.7236
 20
3.5049
 30
0.0000
 41
0.1676
 42
0.0559
 43
1.0000
 50
0.0000
  0
INSERT
  8
21
  2
RECT
 10
44.0588
 20
3.5049
 30
0.0000
 41
0.1676
 42
0.0559
 43
1.0000
 50
0.0000
  0
INSERT
  8
21
  2
RECT
 10
44.5618
 20
3.5049
 30
0.0000
 41
0.1676
 42
0.0559
 43
1.0000
 50
0.0000
  0
INSERT
  8
21
  2
RECT
 10
44.9250
 20
3.5049
 30
0.0000
 41
0.2235
 42
0.0559
 43
1.0000
 50
0.0000
  0
INSERT
  8
21
  2
RECT
 10
45.4838
 20
3.5049
 30
0.0000
 41
0.2235
 42
0.0559
 43
1.0000
 50
0.0000
  0
INSERT
  8
21
  2
RECT
 10
46.1823
 20
3.5049
 30
0.0000
 41
0.1676
 42
0.0559
 43
1.0000
 50
0.0000
  0
INSERT
  8
21
  2
RECT
 10
46.6573
 20
3.5049
 30
0.0000
 41
0.2235
 42
0.0559
 43
1.0000
 50
0.0000
  0
INSERT
  8
21
  2
RECT
 10
39.1973
 20
3.5608
 30
0.0000
 41
0.6147
 42
0.0559
 43
1.0000
 50
0.0000
  0
INSERT
  8
21
  2
RECT
 10
39.9796
 20
3.5608
 30
0.0000
 41
0.6147
 42
0.0559
 43
1.0000
 50
0.0000
  0
INSERT
  8
21
  2
RECT
 10
40.5943
 20
3.5608
 30
0.0000
 41
0.2794
 42
0.0559
 43
1.0000
 50
0.0000
  0
INSERT
  8
21
  2
RECT
 10
40.9575
 20
3.5608
 30
0.0000
 41
0.2235
 42
0.0559
 43
1.0000
 50
0.0000
  0
INSERT
  8
21
  2
RECT
 10
41.5722
 20
3.5608
 30
0.0000
 41
0.6706
 42
0.0559
 43
1.0000
 50
0.0000
  0
INSERT
  8
21
  2
RECT
 10
42.5501
 20
3.5608
 30
0.0000
 41
0.2794
 42
0.0559
 43
1.0000
 50
0.0000
  0
INSERT
  8
21
  2
RECT
 10
42.9133
 20
3.5608
 30
0.0000
 41
0.2235
 42
0.0559
 43
1.0000
 50
0.0000
  0
INSERT
  8
21
  2
RECT
 10
43.5000
 20
3.5608
 30
0.0000
 41
0.6147
 42
0.0559
 43
1.0000
 50
0.0000
  0
INSERT
  8
21
  2
RECT
 10
44.0588
 20
3.5608
 30
0.0000
 41
0.1676
 42
0.0559
 43
1.0000
 50
0.0000
  0
INSERT
  8
21
  2
RECT
 10
44.5618
 20
3.5608
 30
0.0000
 41
0.1676
 42
0.0559
 43
1.0000
 50
0.0000
  0
INSERT
  8
21
  2
RECT
 10
45.0647
 20
3.5608
 30
0.0000
 41
0.5029
 42
0.0559
 43
1.0000
 50
0.0000
  0
INSERT
  8
21
  2
RECT
 10
45.7352
 20
3.5608
 30
0.0000
 41
0.6147
 42
0.0559
 43
1.0000
 50
0.0000
  0
INSERT
  8
21
  2
RECT
 10
46.2661
 20
3.5608
 30
0.0000
 41
0.2235
 42
0.0559
 43
1.0000
 50
0.0000
  0
INSERT
  8
21
  2
RECT
 10
46.6014
 20
3.5608
 30
0.0000
 41
0.2235
 42
0.0559
 43
1.0000
 50
0.0000
  0
INSERT
  8
21
  2
RECT
 10
39.1693
 20
3.6167
 30
0.0000
 41
0.5588
 42
0.0559
 43
1.0000
 50
0.0000
  0
INSERT
  8
21
  2
RECT
 10
39.9796
 20
3.6167
 30
0.0000
 41
0.6147
 42
0.0559
 43
1.0000
 50
0.0000
  0
INSERT
  8
21
  2
RECT
 10
40.7619
 20
3.6167
 30
0.0000
 41
0.5029
 42
0.0559
 43
1.0000
 50
0.0000
  0
INSERT
  8
21
  2
RECT
 10
41.5442
 20
3.6167
 30
0.0000
 41
0.6147
 42
0.0559
 43
1.0000
 50
0.0000
  0
INSERT
  8
21
  2
RECT
 10
42.7736
 20
3.6167
 30
0.0000
 41
0.6147
 42
0.0559
 43
1.0000
 50
0.0000
  0
INSERT
  8
21
  2
RECT
 10
43.5000
 20
3.6167
 30
0.0000
 41
0.5029
 42
0.0559
 43
1.0000
 50
0.0000
  0
INSERT
  8
21
  2
RECT
 10
44.0588
 20
3.6167
 30
0.0000
 41
0.1676
 42
0.0559
 43
1.0000
 50
0.0000
  0
INSERT
  8
21
  2
RECT
 10
44.5618
 20
3.6167
 30
0.0000
 41
0.1676
 42
0.0559
 43
1.0000
 50
0.0000
  0
INSERT
  8
21
  2
RECT
 10
45.0926
 20
3.6167
 30
0.0000
 41
0.5588
 42
0.0559
 43
1.0000
 50
0.0000
  0
INSERT
  8
21
  2
RECT
 10
45.7632
 20
3.6167
 30
0.0000
 41
0.5588
 42
0.0559
 43
1.0000
 50
0.0000
  0
INSERT
  8
21
  2
RECT
 10
46.4337
 20
3.6167
 30
0.0000
 41
0.5588
 42
0.0559
 43
1.0000
 50
0.0000
  0
INSERT
  8
21
  2
RECT
 10
39.1693
 20
3.6726
 30
0.0000
 41
0.4470
 42
0.0559
 43
1.0000
 50
0.0000
  0
INSERT
  8
21
  2
RECT
 10
39.9517
 20
3.6726
 30
0.0000
 41
0.5588
 42
0.0559
 43
1.0000
 50
0.0000
  0
INSERT
  8
21
  2
RECT
 10
40.7619
 20
3.6726
 30
0.0000
 41
0.3912
 42
0.0559
 43
1.0000
 50
0.0000
  0
INSERT
  8
21
  2
RECT
 10
41.3207
 20
3.6726
 30
0.0000
 41
0.1676
 42
0.0559
 43
1.0000
 50
0.0000
  0
INSERT
  8
21
  2
RECT
 10
41.6281
 20
3.6726
 30
0.0000
 41
0.3353
 42
0.0559
 43
1.0000
 50
0.0000
  0
INSERT
  8
21
  2
RECT
 10
42.7457
 20
3.6726
 30
0.0000
 41
0.4470
 42
0.0559
 43
1.0000
 50
0.0000
  0
INSERT
  8
21
  2
RECT
 10
43.5000
 20
3.6726
 30
0.0000
 41
0.3912
 42
0.0559
 43
1.0000
 50
0.0000
  0
INSERT
  8
21
  2
RECT
 10
44.0588
 20
3.6726
 30
0.0000
 41
0.1676
 42
0.0559
 43
1.0000
 50
0.0000
  0
INSERT
  8
21
  2
RECT
 10
44.5618
 20
3.6726
 30
0.0000
 41
0.1676
 42
0.0559
 43
1.0000
 50
0.0000
  0
INSERT
  8
21
  2
RECT
 10
44.8970
 20
3.6726
 30
0.0000
 41
0.1676
 42
0.0559
 43
1.0000
 50
0.0000
  0
INSERT
  8
21
  2
RECT
 10
45.2044
 20
3.6726
 30
0.0000
 41
0.3353
 42
0.0559
 43
1.0000
 50
0.0000
  0
INSERT
  8
21
  2
RECT
 10
45.7352
 20
3.6726
 30
0.0000
 41
0.3912
 42
0.0559
 43
1.0000
 50
0.0000
  0
INSERT
  8
21
  2
RECT
 10
46.4337
 20
3.6726
 30
0.0000
 41
0.4470
 42
0.0559
 43
1.0000
 50
0.0000
  0
INSERT
  8
21
  2
RECT
 10
39.1693
 20
3.7284
 30
0.0000
 41
0.1118
 42
0.0559
 43
1.0000
 50
0.0000
  0
INSERT
  8
21
  2
RECT
 10
41.6281
 20
3.7284
 30
0.0000
 41
0.1118
 42
0.0559
 43
1.0000
 50
0.0000
  0
INSERT
  8
21
  2
RECT
 10
42.7457
 20
3.7284
 30
0.0000
 41
0.1118
 42
0.0559
 43
1.0000
 50
0.0000
  0
INSERT
  8
21
  2
RECT
 10
43.5280
 20
3.7284
 30
0.0000
 41
0.1118
 42
0.0559
 43
1.0000
 50
0.0000
  0
INSERT
  8
21
  2
RECT
 10
45.7632
 20
3.7284
 30
0.0000
 41
0.1118
 42
0.0559
 43
1.0000
 50
0.0000
  0
INSERT
  8
21
  2
RECT
 10
46.4337
 20
3.7284
 30
0.0000
 41
0.1118
 42
0.0559
 43
1.0000
 50
0.0000
  0
INSERT
  8
21
  2
RECT
 10
40.9296
 20
4.3990
 30
0.0000
 41
0.1676
 42
0.0559
 43
1.0000
 50
0.0000
  0
INSERT
  8
21
  2
RECT
 10
44.6735
 20
4.3990
 30
0.0000
 41
0.1676
 42
0.0559
 43
1.0000
 50
0.0000
  0
INSERT
  8
21
  2
RECT
 10
40.9296
 20
4.4549
 30
0.0000
 41
0.2794
 42
0.0559
 43
1.0000
 50
0.0000
  0
INSERT
  8
21
  2
RECT
 10
44.6735
 20
4.4549
 30
0.0000
 41
0.2794
 42
0.0559
 43
1.0000
 50
0.0000
  0
INSERT
  8
21
  2
RECT
 10
40.9575
 20
4.5108
 30
0.0000
 41
0.4470
 42
0.0559
 43
1.0000
 50
0.0000
  0
INSERT
  8
21
  2
RECT
 10
44.6456
 20
4.5108
 30
0.0000
 41
0.4470
 42
0.0559
 43
1.0000
 50
0.0000
  0
INSERT
  8
21
  2
RECT
 10
40.9575
 20
4.5666
 30
0.0000
 41
0.5588
 42
0.0559
 43
1.0000
 50
0.0000
  0
INSERT
  8
21
  2
RECT
 10
44.6456
 20
4.5666
 30
0.0000
 41
0.5588
 42
0.0559
 43
1.0000
 50
0.0000
  0
INSERT
  8
21
  2
RECT
 10
40.9854
 20
4.6225
 30
0.0000
 41
0.7264
 42
0.0559
 43
1.0000
 50
0.0000
  0
INSERT
  8
21
  2
RECT
 10
44.6176
 20
4.6225
 30
0.0000
 41
0.7264
 42
0.0559
 43
1.0000
 50
0.0000
  0
INSERT
  8
21
  2
RECT
 10
40.9854
 20
4.6784
 30
0.0000
 41
0.8382
 42
0.0559
 43
1.0000
 50
0.0000
  0
INSERT
  8
21
  2
RECT
 10
41.8516
 20
4.6784
 30
0.0000
 41
0.1118
 42
0.0559
 43
1.0000
 50
0.0000
  0
INSERT
  8
21
  2
RECT
 10
43.7515
 20
4.6784
 30
0.0000
 41
0.1118
 42
0.0559
 43
1.0000
 50
0.0000
  0
INSERT
  8
21
  2
RECT
 10
44.6176
 20
4.6784
 30
0.0000
 41
0.8382
 42
0.0559
 43
1.0000
 50
0.0000
  0
INSERT
  8
21
  2
RECT
 10
41.0134
 20
4.7343
 30
0.0000
 41
1.0058
 42
0.0559
 43
1.0000
 50
0.0000
  0
INSERT
  8
21
  2
RECT
 10
41.8236
 20
4.7343
 30
0.0000
 41
0.2794
 42
0.0559
 43
1.0000
 50
0.0000
  0
INSERT
  8
21
  2
RECT
 10
43.7794
 20
4.7343
 30
0.0000
 41
0.2794
 42
0.0559
 43
1.0000
 50
0.0000
  0
INSERT
  8
21
  2
RECT
 10
44.5897
 20
4.7343
 30
0.0000
 41
1.0058
 42
0.0559
 43
1.0000
 50
0.0000
  0
INSERT
  8
21
  2
RECT
 10
41.2090
 20
4.7902
 30
0.0000
 41
1.5088
 42
0.0559
 43
1.0000
 50
0.0000
  0
INSERT
  8
21
  2
RECT
 10
44.3941
 20
4.7902
 30
0.0000
 41
1.5088
 42
0.0559
 43
1.0000
 50
0.0000
  0
INSERT
  8
21
  2
RECT
 10
41.2090
 20
4.8460
 30
0.0000
 41
1.6205
 42
0.0559
 43
1.0000
 50
0.0000
  0
INSERT
  8
21
  2
RECT
 10
44.3941
 20
4.8460
 30
0.0000
 41
1.6205
 42
0.0559
 43
1.0000
 50
0.0000
  0
INSERT
  8
21
  2
RECT
 10
41.1810
 20
4.9019
 30
0.0000
 41
1.6764
 42
0.0559
 43
1.0000
 50
0.0000
  0
INSERT
  8
21
  2
RECT
 10
44.4221
 20
4.9019
 30
0.0000
 41
1.6764
 42
0.0559
 43
1.0000
 50
0.0000
  0
INSERT
  8
21
  2
RECT
 10
41.1810
 20
4.9578
 30
0.0000
 41
1.6764
 42
0.0559
 43
1.0000
 50
0.0000
  0
INSERT
  8
21
  2
RECT
 10
44.4221
 20
4.9578
 30
0.0000
 41
1.6764
 42
0.0559
 43
1.0000
 50
0.0000
  0
INSERT
  8
21
  2
RECT
 10
41.2090
 20
5.0137
 30
0.0000
 41
1.7323
 42
0.0559
 43
1.0000
 50
0.0000
  0
INSERT
  8
21
  2
RECT
 10
44.3941
 20
5.0137
 30
0.0000
 41
1.7323
 42
0.0559
 43
1.0000
 50
0.0000
  0
INSERT
  8
21
  2
RECT
 10
41.2369
 20
5.0696
 30
0.0000
 41
1.6764
 42
0.0559
 43
1.0000
 50
0.0000
  0
INSERT
  8
21
  2
RECT
 10
44.3662
 20
5.0696
 30
0.0000
 41
1.6764
 42
0.0559
 43
1.0000
 50
0.0000
  0
INSERT
  8
21
  2
RECT
 10
41.2928
 20
5.1254
 30
0.0000
 41
1.6764
 42
0.0559
 43
1.0000
 50
0.0000
  0
INSERT
  8
21
  2
RECT
 10
44.3103
 20
5.1254
 30
0.0000
 41
1.6764
 42
0.0559
 43
1.0000
 50
0.0000
  0
INSERT
  8
21
  2
RECT
 10
41.2928
 20
5.1813
 30
0.0000
 41
1.6764
 42
0.0559
 43
1.0000
 50
0.0000
  0
INSERT
  8
21
  2
RECT
 10
44.3103
 20
5.1813
 30
0.0000
 41
1.6764
 42
0.0559
 43
1.0000
 50
0.0000
  0
INSERT
  8
21
  2
RECT
 10
41.3487
 20
5.2372
 30
0.0000
 41
1.6764
 42
0.0559
 43
1.0000
 50
0.0000
  0
INSERT
  8
21
  2
RECT
 10
44.2544
 20
5.2372
 30
0.0000
 41
1.6764
 42
0.0559
 43
1.0000
 50
0.0000
  0
INSERT
  8
21
  2
RECT
 10
41.3766
 20
5.2931
 30
0.0000
 41
1.6205
 42
0.0559
 43
1.0000
 50
0.0000
  0
INSERT
  8
21
  2
RECT
 10
44.2265
 20
5.2931
 30
0.0000
 41
1.6205
 42
0.0559
 43
1.0000
 50
0.0000
  0
INSERT
  8
21
  2
RECT
 10
41.4045
 20
5.3490
 30
0.0000
 41
1.5646
 42
0.0559
 43
1.0000
 50
0.0000
  0
INSERT
  8
21
  2
RECT
 10
44.1985
 20
5.3490
 30
0.0000
 41
1.5646
 42
0.0559
 43
1.0000
 50
0.0000
  0
INSERT
  8
21
  2
RECT
 10
41.4325
 20
5.4048
 30
0.0000
 41
1.6205
 42
0.0559
 43
1.0000
 50
0.0000
  0
INSERT
  8
21
  2
RECT
 10
44.1706
 20
5.4048
 30
0.0000
 41
1.6205
 42
0.0559
 43
1.0000
 50
0.0000
  0
INSERT
  8
21
  2
RECT
 10
41.4604
 20
5.4607
 30
0.0000
 41
1.5646
 42
0.0559
 43
1.0000
 50
0.0000
  0
INSERT
  8
21
  2
RECT
 10
44.1427
 20
5.4607
 30
0.0000
 41
1.5646
 42
0.0559
 43
1.0000
 50
0.0000
  0
INSERT
  8
21
  2
RECT
 10
41.5163
 20
5.5166
 30
0.0000
 41
1.5646
 42
0.0559
 43
1.0000
 50
0.0000
  0
INSERT
  8
21
  2
RECT
 10
44.0868
 20
5.5166
 30
0.0000
 41
1.5646
 42
0.0559
 43
1.0000
 50
0.0000
  0
INSERT
  8
21
  2
RECT
 10
41.5163
 20
5.5725
 30
0.0000
 41
1.5646
 42
0.0559
 43
1.0000
 50
0.0000
  0
INSERT
  8
21
  2
RECT
 10
44.0868
 20
5.5725
 30
0.0000
 41
1.5646
 42
0.0559
 43
1.0000
 50
0.0000
  0
INSERT
  8
21
  2
RECT
 10
41.5442
 20
5.6284
 30
0.0000
 41
1.5088
 42
0.0559
 43
1.0000
 50
0.0000
  0
INSERT
  8
21
  2
RECT
 10
44.0588
 20
5.6284
 30
0.0000
 41
1.5088
 42
0.0559
 43
1.0000
 50
0.0000
  0
INSERT
  8
21
  2
RECT
 10
41.5442
 20
5.6842
 30
0.0000
 41
1.6205
 42
0.0559
 43
1.0000
 50
0.0000
  0
INSERT
  8
21
  2
RECT
 10
44.0588
 20
5.6842
 30
0.0000
 41
1.6205
 42
0.0559
 43
1.0000
 50
0.0000
  0
INSERT
  8
21
  2
RECT
 10
41.5442
 20
5.7401
 30
0.0000
 41
1.6205
 42
0.0559
 43
1.0000
 50
0.0000
  0
INSERT
  8
21
  2
RECT
 10
44.0588
 20
5.7401
 30
0.0000
 41
1.6205
 42
0.0559
 43
1.0000
 50
0.0000
  0
INSERT
  8
21
  2
RECT
 10
41.5442
 20
5.7960
 30
0.0000
 41
1.7323
 42
0.0559
 43
1.0000
 50
0.0000
  0
INSERT
  8
21
  2
RECT
 10
44.0588
 20
5.7960
 30
0.0000
 41
1.7323
 42
0.0559
 43
1.0000
 50
0.0000
  0
INSERT
  8
21
  2
RECT
 10
41.5442
 20
5.8519
 30
0.0000
 41
1.7323
 42
0.0559
 43
1.0000
 50
0.0000
  0
INSERT
  8
21
  2
RECT
 10
44.0588
 20
5.8519
 30
0.0000
 41
1.7323
 42
0.0559
 43
1.0000
 50
0.0000
  0
INSERT
  8
21
  2
RECT
 10
41.5722
 20
5.9078
 30
0.0000
 41
1.7882
 42
0.0559
 43
1.0000
 50
0.0000
  0
INSERT
  8
21
  2
RECT
 10
44.0309
 20
5.9078
 30
0.0000
 41
1.7882
 42
0.0559
 43
1.0000
 50
0.0000
  0
INSERT
  8
21
  2
RECT
 10
41.5442
 20
5.9636
 30
0.0000
 41
1.8440
 42
0.0559
 43
1.0000
 50
0.0000
  0
INSERT
  8
21
  2
RECT
 10
44.0588
 20
5.9636
 30
0.0000
 41
1.8440
 42
0.0559
 43
1.0000
 50
0.0000
  0
INSERT
  8
21
  2
RECT
 10
41.5442
 20
6.0195
 30
0.0000
 41
1.8440
 42
0.0559
 43
1.0000
 50
0.0000
  0
INSERT
  8
21
  2
RECT
 10
44.0588
 20
6.0195
 30
0.0000
 41
1.8440
 42
0.0559
 43
1.0000
 50
0.0000
  0
INSERT
  8
21
  2
RECT
 10
41.4604
 20
6.0754
 30
0.0000
 41
1.7882
 42
0.0559
 43
1.0000
 50
0.0000
  0
INSERT
  8
21
  2
RECT
 10
44.1427
 20
6.0754
 30
0.0000
 41
1.7882
 42
0.0559
 43
1.0000
 50
0.0000
  0
INSERT
  8
21
  2
RECT
 10
41.4325
 20
6.1313
 30
0.0000
 41
1.7323
 42
0.0559
 43
1.0000
 50
0.0000
  0
INSERT
  8
21
  2
RECT
 10
44.1706
 20
6.1313
 30
0.0000
 41
1.7323
 42
0.0559
 43
1.0000
 50
0.0000
  0
INSERT
  8
21
  2
RECT
 10
41.4045
 20
6.1872
 30
0.0000
 41
1.6764
 42
0.0559
 43
1.0000
 50
0.0000
  0
INSERT
  8
21
  2
RECT
 10
44.1985
 20
6.1872
 30
0.0000
 41
1.6764
 42
0.0559
 43
1.0000
 50
0.0000
  0
INSERT
  8
21
  2
RECT
 10
41.3487
 20
6.2430
 30
0.0000
 41
1.6764
 42
0.0559
 43
1.0000
 50
0.0000
  0
INSERT
  8
21
  2
RECT
 10
44.2544
 20
6.2430
 30
0.0000
 41
1.6764
 42
0.0559
 43
1.0000
 50
0.0000
  0
INSERT
  8
21
  2
RECT
 10
41.1810
 20
6.2989
 30
0.0000
 41
1.8999
 42
0.0559
 43
1.0000
 50
0.0000
  0
INSERT
  8
21
  2
RECT
 10
44.4221
 20
6.2989
 30
0.0000
 41
1.8999
 42
0.0559
 43
1.0000
 50
0.0000
  0
INSERT
  8
21
  2
RECT
 10
41.0134
 20
6.3548
 30
0.0000
 41
2.1234
 42
0.0559
 43
1.0000
 50
0.0000
  0
INSERT
  8
21
  2
RECT
 10
44.5897
 20
6.3548
 30
0.0000
 41
2.1234
 42
0.0559
 43
1.0000
 50
0.0000
  0
INSERT
  8
21
  2
RECT
 10
40.8737
 20
6.4107
 30
0.0000
 41
2.2911
 42
0.0559
 43
1.0000
 50
0.0000
  0
INSERT
  8
21
  2
RECT
 10
44.7294
 20
6.4107
 30
0.0000
 41
2.2911
 42
0.0559
 43
1.0000
 50
0.0000
  0
INSERT
  8
21
  2
RECT
 10
40.8737
 20
6.4666
 30
0.0000
 41
2.2911
 42
0.0559
 43
1.0000
 50
0.0000
  0
INSERT
  8
21
  2
RECT
 10
44.7294
 20
6.4666
 30
0.0000
 41
2.2911
 42
0.0559
 43
1.0000
 50
0.0000
  0
INSERT
  8
21
  2
RECT
 10
40.8737
 20
6.5224
 30
0.0000
 41
2.2911
 42
0.0559
 43
1.0000
 50
0.0000
  0
INSERT
  8
21
  2
RECT
 10
44.7294
 20
6.5224
 30
0.0000
 41
2.2911
 42
0.0559
 43
1.0000
 50
0.0000
  0
INSERT
  8
21
  2
RECT
 10
40.8457
 20
6.5783
 30
0.0000
 41
2.2352
 42
0.0559
 43
1.0000
 50
0.0000
  0
INSERT
  8
21
  2
RECT
 10
44.7573
 20
6.5783
 30
0.0000
 41
2.2352
 42
0.0559
 43
1.0000
 50
0.0000
  0
INSERT
  8
21
  2
RECT
 10
40.8457
 20
6.6342
 30
0.0000
 41
2.2352
 42
0.0559
 43
1.0000
 50
0.0000
  0
INSERT
  8
21
  2
RECT
 10
44.7573
 20
6.6342
 30
0.0000
 41
2.2352
 42
0.0559
 43
1.0000
 50
0.0000
  0
INSERT
  8
21
  2
RECT
 10
40.8457
 20
6.6901
 30
0.0000
 41
2.2352
 42
0.0559
 43
1.0000
 50
0.0000
  0
INSERT
  8
21
  2
RECT
 10
44.7573
 20
6.6901
 30
0.0000
 41
2.2352
 42
0.0559
 43
1.0000
 50
0.0000
  0
INSERT
  8
21
  2
RECT
 10
40.8457
 20
6.7460
 30
0.0000
 41
2.2352
 42
0.0559
 43
1.0000
 50
0.0000
  0
INSERT
  8
21
  2
RECT
 10
44.7573
 20
6.7460
 30
0.0000
 41
2.2352
 42
0.0559
 43
1.0000
 50
0.0000
  0
INSERT
  8
21
  2
RECT
 10
40.8457
 20
6.8018
 30
0.0000
 41
2.2352
 42
0.0559
 43
1.0000
 50
0.0000
  0
INSERT
  8
21
  2
RECT
 10
44.7573
 20
6.8018
 30
0.0000
 41
2.2352
 42
0.0559
 43
1.0000
 50
0.0000
  0
INSERT
  8
21
  2
RECT
 10
40.8457
 20
6.8577
 30
0.0000
 41
2.2352
 42
0.0559
 43
1.0000
 50
0.0000
  0
INSERT
  8
21
  2
RECT
 10
44.7573
 20
6.8577
 30
0.0000
 41
2.2352
 42
0.0559
 43
1.0000
 50
0.0000
  0
INSERT
  8
21
  2
RECT
 10
40.8457
 20
6.9136
 30
0.0000
 41
2.2352
 42
0.0559
 43
1.0000
 50
0.0000
  0
INSERT
  8
21
  2
RECT
 10
44.7573
 20
6.9136
 30
0.0000
 41
2.2352
 42
0.0559
 43
1.0000
 50
0.0000
  0
INSERT
  8
21
  2
RECT
 10
40.8457
 20
6.9695
 30
0.0000
 41
2.2352
 42
0.0559
 43
1.0000
 50
0.0000
  0
INSERT
  8
21
  2
RECT
 10
44.7573
 20
6.9695
 30
0.0000
 41
2.2352
 42
0.0559
 43
1.0000
 50
0.0000
  0
INSERT
  8
21
  2
RECT
 10
40.8457
 20
7.0254
 30
0.0000
 41
2.2352
 42
0.0559
 43
1.0000
 50
0.0000
  0
INSERT
  8
21
  2
RECT
 10
44.7573
 20
7.0254
 30
0.0000
 41
2.2352
 42
0.0559
 43
1.0000
 50
0.0000
  0
INSERT
  8
21
  2
RECT
 10
40.8457
 20
7.0812
 30
0.0000
 41
2.2352
 42
0.0559
 43
1.0000
 50
0.0000
  0
INSERT
  8
21
  2
RECT
 10
44.7573
 20
7.0812
 30
0.0000
 41
2.2352
 42
0.0559
 43
1.0000
 50
0.0000
  0
INSERT
  8
21
  2
RECT
 10
40.8737
 20
7.1371
 30
0.0000
 41
2.2911
 42
0.0559
 43
1.0000
 50
0.0000
  0
INSERT
  8
21
  2
RECT
 10
44.7294
 20
7.1371
 30
0.0000
 41
2.2911
 42
0.0559
 43
1.0000
 50
0.0000
  0
INSERT
  8
21
  2
RECT
 10
40.8737
 20
7.1930
 30
0.0000
 41
2.2911
 42
0.0559
 43
1.0000
 50
0.0000
  0
INSERT
  8
21
  2
RECT
 10
44.7294
 20
7.1930
 30
0.0000
 41
2.2911
 42
0.0559
 43
1.0000
 50
0.0000
  0
INSERT
  8
21
  2
RECT
 10
40.9016
 20
7.2489
 30
0.0000
 41
2.3470
 42
0.0559
 43
1.0000
 50
0.0000
  0
INSERT
  8
21
  2
RECT
 10
44.7015
 20
7.2489
 30
0.0000
 41
2.3470
 42
0.0559
 43
1.0000
 50
0.0000
  0
INSERT
  8
21
  2
RECT
 10
41.0693
 20
7.3048
 30
0.0000
 41
2.0117
 42
0.0559
 43
1.0000
 50
0.0000
  0
INSERT
  8
21
  2
RECT
 10
44.5338
 20
7.3048
 30
0.0000
 41
2.0117
 42
0.0559
 43
1.0000
 50
0.0000
  0
INSERT
  8
21
  2
RECT
 10
41.2369
 20
7.3606
 30
0.0000
 41
1.7882
 42
0.0559
 43
1.0000
 50
0.0000
  0
INSERT
  8
21
  2
RECT
 10
44.3662
 20
7.3606
 30
0.0000
 41
1.7882
 42
0.0559
 43
1.0000
 50
0.0000
  0
INSERT
  8
21
  2
RECT
 10
41.3766
 20
7.4165
 30
0.0000
 41
1.6205
 42
0.0559
 43
1.0000
 50
0.0000
  0
INSERT
  8
21
  2
RECT
 10
44.2265
 20
7.4165
 30
0.0000
 41
1.6205
 42
0.0559
 43
1.0000
 50
0.0000
  0
INSERT
  8
21
  2
RECT
 10
41.4045
 20
7.4724
 30
0.0000
 41
1.6764
 42
0.0559
 43
1.0000
 50
0.0000
  0
INSERT
  8
21
  2
RECT
 10
44.1985
 20
7.4724
 30
0.0000
 41
1.6764
 42
0.0559
 43
1.0000
 50
0.0000
  0
INSERT
  8
21
  2
RECT
 10
41.4604
 20
7.5283
 30
0.0000
 41
1.6764
 42
0.0559
 43
1.0000
 50
0.0000
  0
INSERT
  8
21
  2
RECT
 10
44.1427
 20
7.5283
 30
0.0000
 41
1.6764
 42
0.0559
 43
1.0000
 50
0.0000
  0
INSERT
  8
21
  2
RECT
 10
41.5163
 20
7.5842
 30
0.0000
 41
1.7882
 42
0.0559
 43
1.0000
 50
0.0000
  0
INSERT
  8
21
  2
RECT
 10
44.0868
 20
7.5842
 30
0.0000
 41
1.7882
 42
0.0559
 43
1.0000
 50
0.0000
  0
INSERT
  8
21
  2
RECT
 10
41.6001
 20
7.6400
 30
0.0000
 41
1.9558
 42
0.0559
 43
1.0000
 50
0.0000
  0
INSERT
  8
21
  2
RECT
 10
44.0030
 20
7.6400
 30
0.0000
 41
1.9558
 42
0.0559
 43
1.0000
 50
0.0000
  0
INSERT
  8
21
  2
RECT
 10
42.8015
 20
7.6959
 30
0.0000
 41
4.2469
 42
0.0559
 43
1.0000
 50
0.0000
  0
INSERT
  8
21
  2
RECT
 10
42.8015
 20
7.7518
 30
0.0000
 41
4.2469
 42
0.0559
 43
1.0000
 50
0.0000
  0
INSERT
  8
21
  2
RECT
 10
42.8015
 20
7.8077
 30
0.0000
 41
4.1351
 42
0.0559
 43
1.0000
 50
0.0000
  0
INSERT
  8
21
  2
RECT
 10
42.8015
 20
7.8636
 30
0.0000
 41
4.1351
 42
0.0559
 43
1.0000
 50
0.0000
  0
INSERT
  8
21
  2
RECT
 10
42.8015
 20
7.9194
 30
0.0000
 41
4.1351
 42
0.0559
 43
1.0000
 50
0.0000
  0
INSERT
  8
21
  2
RECT
 10
42.8015
 20
7.9753
 30
0.0000
 41
4.0234
 42
0.0559
 43
1.0000
 50
0.0000
  0
INSERT
  8
21
  2
RECT
 10
42.8015
 20
8.0312
 30
0.0000
 41
4.0234
 42
0.0559
 43
1.0000
 50
0.0000
  0
INSERT
  8
21
  2
RECT
 10
42.8015
 20
8.0871
 30
0.0000
 41
4.1351
 42
0.0559
 43
1.0000
 50
0.0000
  0
INSERT
  8
21
  2
RECT
 10
42.8015
 20
8.1430
 30
0.0000
 41
4.2469
 42
0.0559
 43
1.0000
 50
0.0000
  0
INSERT
  8
21
  2
RECT
 10
42.8015
 20
8.1988
 30
0.0000
 41
4.2469
 42
0.0559
 43
1.0000
 50
0.0000
  0
INSERT
  8
21
  2
RECT
 10
42.8015
 20
8.2547
 30
0.0000
 41
4.3586
 42
0.0559
 43
1.0000
 50
0.0000
  0
INSERT
  8
21
  2
RECT
 10
42.8015
 20
8.3106
 30
0.0000
 41
4.4704
 42
0.0559
 43
1.0000
 50
0.0000
  0
INSERT
  8
21
  2
RECT
 10
42.8015
 20
8.3665
 30
0.0000
 41
4.4704
 42
0.0559
 43
1.0000
 50
0.0000
  0
INSERT
  8
21
  2
RECT
 10
42.8015
 20
8.4224
 30
0.0000
 41
4.5822
 42
0.0559
 43
1.0000
 50
0.0000
  0
INSERT
  8
21
  2
RECT
 10
42.8015
 20
8.4782
 30
0.0000
 41
4.6939
 42
0.0559
 43
1.0000
 50
0.0000
  0
INSERT
  8
21
  2
RECT
 10
42.8015
 20
8.5341
 30
0.0000
 41
4.8057
 42
0.0559
 43
1.0000
 50
0.0000
  0
INSERT
  8
21
  2
RECT
 10
42.8015
 20
8.5900
 30
0.0000
 41
4.8057
 42
0.0559
 43
1.0000
 50
0.0000
  0
INSERT
  8
21
  2
RECT
 10
42.8015
 20
8.6459
 30
0.0000
 41
4.9174
 42
0.0559
 43
1.0000
 50
0.0000
  0
INSERT
  8
21
  2
RECT
 10
42.8015
 20
8.7018
 30
0.0000
 41
4.9174
 42
0.0559
 43
1.0000
 50
0.0000
  0
INSERT
  8
21
  2
RECT
 10
42.8015
 20
8.7576
 30
0.0000
 41
4.8057
 42
0.0559
 43
1.0000
 50
0.0000
  0
INSERT
  8
21
  2
RECT
 10
42.8015
 20
8.8135
 30
0.0000
 41
4.6939
 42
0.0559
 43
1.0000
 50
0.0000
  0
INSERT
  8
21
  2
RECT
 10
41.0413
 20
8.8694
 30
0.0000
 41
1.0617
 42
0.0559
 43
1.0000
 50
0.0000
  0
INSERT
  8
21
  2
RECT
 10
42.8015
 20
8.8694
 30
0.0000
 41
2.1234
 42
0.0559
 43
1.0000
 50
0.0000
  0
INSERT
  8
21
  2
RECT
 10
44.5618
 20
8.8694
 30
0.0000
 41
1.0617
 42
0.0559
 43
1.0000
 50
0.0000
  0
INSERT
  8
21
  2
RECT
 10
41.0134
 20
8.9253
 30
0.0000
 41
0.8941
 42
0.0559
 43
1.0000
 50
0.0000
  0
INSERT
  8
21
  2
RECT
 10
42.8015
 20
8.9253
 30
0.0000
 41
1.7882
 42
0.0559
 43
1.0000
 50
0.0000
  0
INSERT
  8
21
  2
RECT
 10
44.5897
 20
8.9253
 30
0.0000
 41
0.8941
 42
0.0559
 43
1.0000
 50
0.0000
  0
INSERT
  8
21
  2
RECT
 10
41.0134
 20
8.9812
 30
0.0000
 41
0.7823
 42
0.0559
 43
1.0000
 50
0.0000
  0
INSERT
  8
21
  2
RECT
 10
42.8015
 20
8.9812
 30
0.0000
 41
1.5646
 42
0.0559
 43
1.0000
 50
0.0000
  0
INSERT
  8
21
  2
RECT
 10
44.5897
 20
8.9812
 30
0.0000
 41
0.7823
 42
0.0559
 43
1.0000
 50
0.0000
  0
INSERT
  8
21
  2
RECT
 10
40.9854
 20
9.0370
 30
0.0000
 41
0.6147
 42
0.0559
 43
1.0000
 50
0.0000
  0
INSERT
  8
21
  2
RECT
 10
42.8015
 20
9.0370
 30
0.0000
 41
1.2294
 42
0.0559
 43
1.0000
 50
0.0000
  0
INSERT
  8
21
  2
RECT
 10
44.6176
 20
9.0370
 30
0.0000
 41
0.6147
 42
0.0559
 43
1.0000
 50
0.0000
  0
INSERT
  8
21
  2
RECT
 10
40.9854
 20
9.0929
 30
0.0000
 41
0.5029
 42
0.0559
 43
1.0000
 50
0.0000
  0
INSERT
  8
21
  2
RECT
 10
42.8015
 20
9.0929
 30
0.0000
 41
1.1176
 42
0.0559
 43
1.0000
 50
0.0000
  0
INSERT
  8
21
  2
RECT
 10
44.6176
 20
9.0929
 30
0.0000
 41
0.5029
 42
0.0559
 43
1.0000
 50
0.0000
  0
INSERT
  8
21
  2
RECT
 10
40.9575
 20
9.1488
 30
0.0000
 41
0.3353
 42
0.0559
 43
1.0000
 50
0.0000
  0
INSERT
  8
21
  2
RECT
 10
42.8015
 20
9.1488
 30
0.0000
 41
1.1176
 42
0.0559
 43
1.0000
 50
0.0000
  0
INSERT
  8
21
  2
RECT
 10
44.6456
 20
9.1488
 30
0.0000
 41
0.3353
 42
0.0559
 43
1.0000
 50
0.0000
  0
INSERT
  8
21
  2
RECT
 10
40.9575
 20
9.2047
 30
0.0000
 41
0.2235
 42
0.0559
 43
1.0000
 50
0.0000
  0
INSERT
  8
21
  2
RECT
 10
42.8015
 20
9.2047
 30
0.0000
 41
1.1176
 42
0.0559
 43
1.0000
 50
0.0000
  0
INSERT
  8
21
  2
RECT
 10
44.6456
 20
9.2047
 30
0.0000
 41
0.2235
 42
0.0559
 43
1.0000
 50
0.0000
  0
INSERT
  8
21
  2
RECT
 10
40.9296
 20
9.2606
 30
0.0000
 41
0.0559
 42
0.0559
 43
1.0000
 50
0.0000
  0
INSERT
  8
21
  2
RECT
 10
42.8015
 20
9.2606
 30
0.0000
 41
1.1176
 42
0.0559
 43
1.0000
 50
0.0000
  0
INSERT
  8
21
  2
RECT
 10
44.6735
 20
9.2606
 30
0.0000
 41
0.0559
 42
0.0559
 43
1.0000
 50
0.0000
  0
INSERT
  8
21
  2
RECT
 10
42.8015
 20
9.3164
 30
0.0000
 41
1.1176
 42
0.0559
 43
1.0000
 50
0.0000
  0
INSERT
  8
21
  2
RECT
 10
42.8015
 20
9.3723
 30
0.0000
 41
1.0058
 42
0.0559
 43
1.0000
 50
0.0000
  0
INSERT
  8
21
  2
RECT
 10
42.8015
 20
9.4282
 30
0.0000
 41
1.0058
 42
0.0559
 43
1.0000
 50
0.0000
  0
INSERT
  8
21
  2
RECT
 10
42.8015
 20
9.4841
 30
0.0000
 41
1.0058
 42
0.0559
 43
1.0000
 50
0.0000
  0
INSERT
  8
21
  2
RECT
 10
42.8015
 20
9.5400
 30
0.0000
 41
1.0058
 42
0.0559
 43
1.0000
 50
0.0000
  0
INSERT
  8
21
  2
RECT
 10
42.8015
 20
9.5958
 30
0.0000
 41
1.0058
 42
0.0559
 43
1.0000
 50
0.0000
  0
INSERT
  8
21
  2
RECT
 10
42.8015
 20
9.6517
 30
0.0000
 41
0.8941
 42
0.0559
 43
1.0000
 50
0.0000
  0
INSERT
  8
21
  2
RECT
 10
42.8015
 20
9.7076
 30
0.0000
 41
0.8941
 42
0.0559
 43
1.0000
 50
0.0000
  0
INSERT
  8
21
  2
RECT
 10
42.8015
 20
9.7635
 30
0.0000
 41
0.8941
 42
0.0559
 43
1.0000
 50
0.0000
  0
INSERT
  8
21
  2
RECT
 10
42.8015
 20
9.8194
 30
0.0000
 41
0.8941
 42
0.0559
 43
1.0000
 50
0.0000
  0
INSERT
  8
21
  2
RECT
 10
42.8015
 20
9.8752
 30
0.0000
 41
0.8941
 42
0.0559
 43
1.0000
 50
0.0000
  0
ENDSEC
  0
EOF
